<svg xmlns="http://www.w3.org/2000/svg" width="126" height="41" fill="none" viewBox="0 0 126 41"><path fill="#fff" d="M9.372 16.642q1.881 0 3.234.825t1.518 1.683v-2.31h4.224V34h-4.224v-2.541q-.165.891-1.551 1.848-1.353.924-3.201.924a7.7 7.7 0 0 1-2.772-.528 9.7 9.7 0 0 1-2.607-1.584q-1.188-1.056-1.947-2.805-.726-1.749-.726-3.894 0-2.112.726-3.828.759-1.716 1.947-2.772a8.9 8.9 0 0 1 2.574-1.617 7.4 7.4 0 0 1 2.805-.561m.66 3.63q-1.782 0-3.135 1.419-1.353 1.386-1.353 3.729 0 2.376 1.353 3.795 1.353 1.386 3.135 1.386t3.036-1.287q1.254-1.32 1.254-3.894 0-2.64-1.254-3.894-1.221-1.254-3.036-1.254m34.628-3.597q2.937 0 4.917 1.947 1.98 1.914 1.98 6.006V34H47.3v-9.339q0-2.079-1.023-3.234-1.023-1.188-2.607-1.188-1.716 0-2.838 1.122-1.089 1.122-1.551 2.871V34h-4.257v-9.339q0-2.079-1.023-3.234-1.023-1.188-2.673-1.188-3.433 0-4.323 3.993V34h-4.257V16.84h4.257v3.498q.165-1.188 1.518-2.409 1.353-1.254 3.63-1.254 2.079 0 3.762.957 1.716.957 2.607 2.937.528-1.452 2.079-2.673 1.584-1.221 4.059-1.221m20.11-.033a7.4 7.4 0 0 1 2.804.561 8.9 8.9 0 0 1 2.574 1.617q1.188 1.056 1.914 2.772.76 1.716.76 3.828 0 2.838-1.288 4.917-1.286 2.079-3.069 3.003a8.2 8.2 0 0 1-3.696.891q-1.848 0-3.2-.924-1.354-.957-1.552-1.848V34h-4.224V10.9h4.224v8.25q.198-.891 1.518-1.683 1.353-.825 3.234-.825m-3.697 12.672q1.254 1.287 3.036 1.287t3.135-1.386q1.353-1.419 1.353-3.795 0-2.343-1.353-3.729-1.353-1.419-3.135-1.419-1.815 0-3.069 1.254-1.22 1.254-1.22 3.894 0 2.574 1.253 3.894m23.672-12.672q1.419 0 2.871.561 1.485.561 2.739 1.617 1.287 1.023 2.079 2.772.825 1.749.825 3.861 0 .825-.099 1.551H80.488q.33 1.65 1.617 2.64 1.287.957 2.739.957 2.178 0 3.366-1.287l3.465 1.815q-2.673 3.102-6.864 3.102-1.089 0-2.277-.33a9.7 9.7 0 0 1-2.31-1.023 10.4 10.4 0 0 1-2.079-1.716q-.891-1.023-1.452-2.508a9 9 0 0 1-.561-3.201q0-2.805 1.386-4.884 1.419-2.079 3.333-3.003t3.894-.924m0 3.663q-1.485 0-2.673.924t-1.551 2.607h8.481q-.363-1.683-1.617-2.607-1.221-.924-2.64-.924m20.093-3.663q1.419 0 2.871.561 1.485.561 2.739 1.617 1.287 1.023 2.079 2.772.825 1.749.825 3.861 0 .825-.099 1.551h-12.672q.33 1.65 1.617 2.64 1.287.957 2.739.957 2.178 0 3.366-1.287l3.465 1.815q-2.673 3.102-6.864 3.102-1.089 0-2.277-.33a9.7 9.7 0 0 1-2.31-1.023 10.4 10.4 0 0 1-2.08-1.716q-.89-1.023-1.451-2.508a9 9 0 0 1-.561-3.201q0-2.805 1.386-4.884 1.419-2.079 3.333-3.003t3.894-.924m0 3.663q-1.485 0-2.673.924t-1.551 2.607h8.481q-.363-1.683-1.617-2.607-1.221-.924-2.64-.924"/><path fill="#fff" d="m12.606 17.467.26-.427zm1.518 1.683-.491.094.991-.094zm0-2.31v-.5h-.5v.5zm4.224 0h.5v-.5h-.5zm0 17.16v.5h.5V34zm-4.224 0h-.5v.5h.5zm0-2.541h.5l-.992-.091zm-1.551 1.848.282.413.002-.002zm-5.973.396-.188.464.01.003zm-2.607-1.584-.332.374.005.005.006.004zm-1.947-2.805-.462.192.003.007zm0-7.722-.457-.202-.003.007zm1.947-2.772.332.374zm2.574-1.617.188.463zm.33 4.488.358.35.004-.005zm0 7.524-.362.345.004.004zm6.171.099.358.349.005-.005zm0-7.788-.358.349.004.005zm-3.696-4.384c1.18 0 2.164.258 2.974.752l.52-.854c-.994-.606-2.165-.898-3.494-.898zm2.974.752c.872.532 1.219.995 1.287 1.35l.982-.188c-.152-.789-.817-1.448-1.749-2.016zm2.278 1.256v-2.31h-1v2.31zm-.5-1.81h4.224v-1h-4.224zm3.724-.5V34h1V16.84zm.5 16.66h-4.224v1h4.224zm-3.724.5v-2.541h-1V34zm-.992-2.632c-.072.39-.444.907-1.343 1.528l.568.822c.949-.655 1.61-1.37 1.759-2.168zm-1.341 1.526c-.809.552-1.774.837-2.919.837v1c1.32 0 2.488-.331 3.483-1.011zm-2.919.837a7.2 7.2 0 0 1-2.594-.495l-.356.934q1.466.56 2.95.561zm-2.584-.492a9.2 9.2 0 0 1-2.474-1.503l-.642.766q1.277 1.072 2.74 1.664zm-2.463-1.494c-.728-.647-1.338-1.518-1.82-2.63l-.918.398c.53 1.22 1.218 2.219 2.074 2.98zm-1.817-2.623q-.686-1.645-.688-3.702h-1q-.002 2.232.764 4.086zM1.82 25.42c0-1.35.232-2.559.686-3.633l-.92-.39C1.072 22.61.82 23.954.82 25.42zm.683-3.626c.482-1.09 1.092-1.952 1.822-2.6l-.664-.748c-.854.76-1.542 1.746-2.072 2.944zm1.822-2.6a8.4 8.4 0 0 1 2.43-1.527l-.376-.928a9.4 9.4 0 0 0-2.718 1.707zm2.43-1.527a6.9 6.9 0 0 1 2.617-.525v-1a7.9 7.9 0 0 0-2.993.598zm3.277 2.105c-1.34 0-2.511.54-3.497 1.574l.724.69c.818-.858 1.736-1.264 2.773-1.264zm-3.493 1.57c-1.011 1.036-1.495 2.415-1.495 4.078h1c0-1.46.418-2.568 1.21-3.38zM5.044 25.42c0 1.684.482 3.082 1.491 4.14l.724-.69c-.795-.834-1.215-1.966-1.215-3.45zm1.495 4.144c.987 1.011 2.158 1.537 3.493 1.537v-1c-1.04 0-1.96-.398-2.777-1.235zm3.493 1.537c1.324 0 2.465-.484 3.394-1.438l-.716-.698c-.743.762-1.626 1.136-2.678 1.136zm3.399-1.443c.955-1.005 1.391-2.447 1.391-4.238h-1c0 1.641-.4 2.795-1.116 3.55zm1.391-4.238c0-1.828-.433-3.28-1.4-4.248l-.708.708c.705.704 1.108 1.848 1.108 3.54zm-1.396-4.243c-.912-.936-2.055-1.405-3.394-1.405v1c1.08 0 1.962.367 2.678 1.103zm36.15-2.555-.35.357.003.003zM51.557 34v.5h.5V34zM47.3 34h-.5v.5h.5zm-1.023-12.573-.38.326.006.006zm-5.445-.066-.354-.354-.005.006zm-1.551 2.871-.484-.128-.016.063v.065zm0 9.768v.5h.5V34zm-4.257 0h-.5v.5h.5zM34 21.427l-.38.326.005.006zm-6.996 2.805-.488-.109-.012.054v.055zm0 9.768v.5h.5V34zm-4.257 0h-.5v.5h.5zm0-17.16v-.5h-.5v.5zm4.257 0h.5v-.5h-.5zm0 3.498h-.5l.995.069zm1.518-2.409.335.371.005-.004zm7.392-.297-.247.435.003.002zm2.607 2.937-.456.205.505 1.123.42-1.157zm2.079-2.673-.305-.396-.005.003zm4.059-.721c1.835 0 3.346.603 4.566 1.803l.701-.713c-1.419-1.395-3.186-2.09-5.267-2.09zm4.57 1.806c1.183 1.145 1.827 2.989 1.827 5.647h1c0-2.798-.676-4.958-2.133-6.366zm1.827 5.647V34h1v-9.372zm.5 8.872H47.3v1h4.257zM47.8 34v-9.339h-1V34zm0-9.339c0-1.465-.361-2.676-1.149-3.565l-.748.663c.576.65.897 1.595.897 2.902zm-1.144-3.56c-.778-.904-1.786-1.362-2.986-1.362v1c.912 0 1.642.334 2.228 1.014zm-2.986-1.362c-1.265 0-2.342.419-3.192 1.268l.707.708c.646-.647 1.462-.976 2.485-.976zm-3.197 1.274c-.795.818-1.35 1.855-1.676 3.091l.967.256c.29-1.096.77-1.973 1.427-2.65zm-1.692 3.219V34h1v-9.768zm.5 9.268h-4.257v1h4.257zm-3.757.5v-9.339h-1V34zm0-9.339c0-1.465-.361-2.676-1.149-3.565l-.748.663c.576.65.897 1.595.897 2.902zm-1.144-3.56c-.783-.909-1.815-1.362-3.052-1.362v1c.963 0 1.713.339 2.294 1.014zm-3.052-1.362c-1.248 0-2.308.366-3.136 1.131-.82.757-1.364 1.86-1.675 3.253l.976.218c.283-1.27.756-2.162 1.377-2.736.613-.567 1.417-.866 2.458-.866zm-4.823 4.493V34h1v-9.768zm.5 9.268h-4.257v1h4.257zm-3.757.5V16.84h-1V34zm-.5-16.66h4.257v-1h-4.257zm3.757-.5v3.498h1V16.84zm.995 3.567c.087-.628.5-1.332 1.358-2.107l-.67-.742c-.946.853-1.546 1.756-1.678 2.711zm1.363-2.111c.789-.732 1.867-1.121 3.29-1.121v-1c-1.613 0-2.955.447-3.97 1.387zm3.29-1.121c1.306 0 2.474.3 3.515.892l.494-.87c-1.203-.684-2.543-1.022-4.01-1.022zm3.518.894c1.04.58 1.84 1.472 2.395 2.705l.912-.41c-.633-1.407-1.572-2.473-2.82-3.169zm3.32 2.67c.313-.858.938-1.678 1.92-2.45l-.62-.786c-1.087.856-1.847 1.818-2.24 2.895zm1.915-2.447c.95-.732 2.188-1.117 3.754-1.117v-1c-1.734 0-3.202.429-4.364 1.325zm26.668-1.089-.187.463zm2.574 1.617-.332.374zm1.914 2.772-.46.195.003.007zm-.528 8.745-.425-.263zm-3.069 3.003.224.447.006-.003zm-6.897-.033-.289.408.007.005zm-1.55-1.848.487-.108-.988.108zm0 2.541v.5h.5V34zm-4.225 0h-.5v.5h.5zm0-23.1v-.5h-.5v.5zm4.224 0h.5v-.5h-.5zm0 8.25h-.5l.988.109zm1.518-1.683.258.429.002-.002zm-.462 11.847-.362.344.004.005zm6.171-.099.358.35.004-.005zm0-7.524-.362.345.004.004zm-6.204-.165-.353-.354-.005.005zm3.73-4.384q1.315-.001 2.617.524l.375-.927a7.9 7.9 0 0 0-2.993-.597zm2.617.524a8.4 8.4 0 0 1 2.429 1.528l.664-.748a9.4 9.4 0 0 0-2.718-1.707zm2.429 1.528c.728.646 1.326 1.506 1.786 2.593l.92-.39c-.507-1.2-1.185-2.19-2.042-2.95zm1.789 2.6c.474 1.073.716 2.279.716 3.626h1c0-1.469-.264-2.815-.802-4.03zm.716 3.626c0 1.814-.41 3.359-1.212 4.654l.85.526c.915-1.477 1.362-3.21 1.362-5.18zm-1.212 4.654c-.82 1.326-1.782 2.256-2.874 2.822l.46.888c1.284-.666 2.37-1.738 3.264-3.184zm-2.867 2.819a7.7 7.7 0 0 1-3.473.838v1a8.7 8.7 0 0 0 3.92-.944zm-3.473.838c-1.145 0-2.11-.285-2.919-.837l-.564.826c.996.68 2.164 1.011 3.483 1.011zm-2.912-.832c-.875-.619-1.261-1.142-1.352-1.549l-.976.217c.174.782.821 1.491 1.75 2.148zm-2.34-1.44V34h1v-2.541zm.5 2.041h-4.224v1h4.224zm-3.724.5V10.9h-1V34zm-.5-22.6h4.224v-1h-4.224zm3.724-.5v8.25h1V10.9zm.988 8.359c.087-.393.448-.86 1.287-1.363l-.514-.858c-.921.553-1.572 1.208-1.749 2.003zm1.29-1.365c.81-.494 1.795-.752 2.974-.752v-1c-1.328 0-2.5.292-3.494.898zm-1.08 11.769c.93.954 2.07 1.438 3.394 1.438v-1c-1.052 0-1.935-.374-2.678-1.136zM64.11 31.1c1.335 0 2.506-.526 3.493-1.537l-.716-.698c-.816.837-1.736 1.235-2.777 1.235zm3.497-1.541c1.009-1.058 1.491-2.456 1.491-4.14h-1c0 1.484-.42 2.616-1.215 3.45zm1.491-4.14c0-1.663-.483-3.042-1.495-4.078l-.716.698c.793.812 1.211 1.92 1.211 3.38zm-1.49-4.074c-.987-1.034-2.159-1.574-3.498-1.574v1c1.037 0 1.955.406 2.773 1.264zm-3.498-1.574c-1.339 0-2.49.468-3.422 1.4l.707.708c.74-.74 1.634-1.108 2.715-1.108zm-3.427 1.405c-.942.968-1.363 2.418-1.363 4.243h1c0-1.695.393-2.84 1.08-3.545zm-1.363 4.243c0 1.791.437 3.233 1.392 4.238l.725-.688c-.717-.755-1.117-1.909-1.117-3.55zm28.297-8.217-.18.466.003.002zm2.739 1.617-.322.383.005.004.006.004zm2.079 2.772-.456.206.004.007zm.726 5.412v.5h.437l.059-.432zm-12.672 0v-.5h-.61l.12.598zm1.617 2.64-.305.396.007.005zm6.105-.33.232-.443-.34-.178-.26.282zm3.465 1.815.379.326.41-.477-.557-.292zm-9.141 2.772-.137.48.003.002zm-2.31-1.023-.266.423.009.006zm-2.079-1.716-.377.328.006.007.005.006zm-1.452-2.508-.468.177zm.825-8.085-.413-.282-.003.005zm3.333-3.003.217.45zm-.33 6.27-.489-.105-.13.605h.619zm8.481 0v.5h.62l-.131-.605zm-1.617-2.607-.302.399.005.003zm-2.64-4.087q1.318-.001 2.69.527l.361-.932q-1.53-.593-3.051-.595zm2.694.529q1.403.529 2.594 1.532l.644-.765a9.9 9.9 0 0 0-2.884-1.703zm2.605 1.54c.786.625 1.434 1.481 1.935 2.587l.91-.412c-.555-1.226-1.293-2.218-2.223-2.957zm1.938 2.594c.516 1.094.777 2.307.777 3.648h1c0-1.475-.288-2.836-.873-4.074zm.777 3.648q0 .795-.094 1.483l.99.136q.104-.765.104-1.619zm.401 1.051H80.488v1H93.16zm-13.162.598c.242 1.214.845 2.202 1.802 2.938l.61-.792c-.758-.584-1.234-1.356-1.432-2.342zm1.809 2.943c.934.695 1.95 1.056 3.037 1.056v-1c-.85 0-1.66-.277-2.44-.858zm3.037 1.056c1.555 0 2.825-.463 3.733-1.448l-.734-.678c-.676.731-1.65 1.126-2.999 1.126zm3.134-1.344 3.465 1.815.464-.886-3.465-1.815zm3.318 1.046c-1.684 1.954-3.833 2.928-6.485 2.928v1c2.936 0 5.363-1.094 7.243-3.276zm-6.485 2.928q-1.013.002-2.143-.312l-.268.964q1.245.346 2.411.348zm-2.14-.31a9.2 9.2 0 0 1-2.19-.972l-.514.858q1.204.723 2.43 1.075zm-2.18-.966a10 10 0 0 1-1.98-1.634l-.731.682a11 11 0 0 0 2.178 1.798zm-1.969-1.621q-.825-.943-1.361-2.357l-.936.354c.392 1.036.904 1.926 1.543 2.66zm-1.361-2.357a8.5 8.5 0 0 1-.529-3.024h-1q-.001 1.8.593 3.378zm-.529-3.024c0-1.784.44-3.313 1.302-4.607l-.832-.554c-.985 1.478-1.47 3.205-1.47 5.161zm1.299-4.602c.906-1.327 1.954-2.263 3.137-2.835l-.434-.9c-1.369.66-2.543 1.726-3.529 3.171zm3.137-2.835q1.82-.876 3.677-.874v-1q-2.102.002-4.111.974zm3.677 1.789a4.74 4.74 0 0 0-2.98 1.03l.614.789a3.74 3.74 0 0 1 2.366-.819zm-2.98 1.03c-.898.698-1.47 1.676-1.733 2.896l.978.21c.22-1.024.683-1.784 1.369-2.317zm-1.244 3.501h8.481v-1h-8.481zm8.97-.605c-.265-1.228-.865-2.208-1.81-2.905l-.593.805c.728.536 1.206 1.294 1.425 2.31zm-1.804-2.9c-.894-.677-1.878-1.026-2.942-1.026v1c.828 0 1.604.267 2.338.823zm20.022-3.628-.181.466.004.002zm2.739 1.617-.322.383.005.004.006.004zm2.079 2.772-.456.206.003.007zm.726 5.412v.5h.436l.059-.432zm-12.672 0v-.5h-.61l.119.598zm1.617 2.64-.305.396.006.005zm6.105-.33.232-.443-.34-.178-.26.282zm3.465 1.815.378.326.412-.477-.558-.292zm-9.141 2.772-.138.48.004.002zm-2.31-1.023-.266.423.008.006zm-2.08-1.716-.376.328.005.007.006.006zm-1.451-2.508-.468.177zm.825-8.085-.413-.282-.003.005zm3.333-3.003.217.45zm-.33 6.27-.489-.105-.13.605h.619zm8.481 0v.5h.619l-.131-.605zm-1.617-2.607-.302.399.005.003zm-2.64-4.087q1.317-.001 2.69.527l.361-.932q-1.53-.593-3.051-.595zm2.694.529a8.9 8.9 0 0 1 2.594 1.532l.644-.765a9.9 9.9 0 0 0-2.885-1.703zm2.605 1.54c.786.625 1.433 1.481 1.934 2.587l.911-.412c-.555-1.226-1.293-2.218-2.223-2.957zm1.937 2.594c.516 1.094.778 2.307.778 3.648h1c0-1.475-.289-2.836-.873-4.074zm.778 3.648q0 .795-.095 1.483l.991.136q.104-.765.104-1.619zm.401 1.051h-12.672v1h12.672zm-13.163.598c.243 1.214.845 2.202 1.803 2.938l.61-.792c-.759-.584-1.235-1.356-1.432-2.342zm1.809 2.943c.935.695 1.951 1.056 3.038 1.056v-1c-.85 0-1.66-.277-2.441-.858zm3.038 1.056c1.555 0 2.824-.463 3.733-1.448l-.735-.678c-.675.731-1.649 1.126-2.998 1.126zm3.134-1.344 3.465 1.815.464-.886-3.465-1.815zm3.318 1.046c-1.685 1.954-3.833 2.928-6.485 2.928v1c2.935 0 5.363-1.094 7.242-3.276zm-6.485 2.928a8 8 0 0 1-2.144-.312l-.267.964q1.245.346 2.411.348zm-2.14-.31a9.2 9.2 0 0 1-2.19-.972l-.515.858q1.204.723 2.43 1.075zm-2.181-.966a10 10 0 0 1-1.98-1.634l-.73.682a11 11 0 0 0 2.178 1.798zm-1.968-1.621q-.826-.943-1.362-2.357l-.935.354c.391 1.036.904 1.926 1.543 2.66zm-1.362-2.357a8.5 8.5 0 0 1-.528-3.024h-1q-.001 1.8.593 3.378zm-.528-3.024c0-1.784.439-3.313 1.302-4.607l-.832-.554c-.986 1.478-1.47 3.205-1.47 5.161zm1.299-4.602c.905-1.327 1.953-2.263 3.137-2.835l-.435-.9c-1.368.66-2.542 1.726-3.528 3.171zm3.137-2.835q1.818-.876 3.677-.874v-1q-2.102.002-4.112.974zm3.677 1.789a4.74 4.74 0 0 0-2.98 1.03l.614.789a3.74 3.74 0 0 1 2.366-.819zm-2.98 1.03c-.898.698-1.47 1.676-1.733 2.896l.977.21c.221-1.024.684-1.784 1.37-2.317zm-1.244 3.501h8.481v-1h-8.481zm8.969-.605c-.264-1.228-.864-2.208-1.809-2.905l-.593.805c.727.536 1.206 1.294 1.425 2.31zm-1.804-2.9c-.893-.677-1.878-1.026-2.941-1.026v1c.828 0 1.603.267 2.338.823z"/><circle cx="120.5" cy="16.5" r="5.5" fill="#96d4eb"/></svg>