<svg width="126" height="41" viewBox="0 0 126 41" fill="none" xmlns="http://www.w3.org/2000/svg">
<path d="M9.372 16.642C10.626 16.642 11.704 16.917 12.606 17.467C13.508 18.017 14.014 18.578 14.124 19.15V16.84H18.348V34H14.124V31.459C14.014 32.053 13.497 32.669 12.573 33.307C11.671 33.923 10.604 34.231 9.372 34.231C8.448 34.231 7.524 34.055 6.6 33.703C5.676 33.329 4.807 32.801 3.993 32.119C3.201 31.415 2.552 30.48 2.046 29.314C1.562 28.148 1.32 26.85 1.32 25.42C1.32 24.012 1.562 22.736 2.046 21.592C2.552 20.448 3.201 19.524 3.993 18.82C4.785 18.116 5.643 17.577 6.567 17.203C7.491 16.829 8.426 16.642 9.372 16.642ZM10.032 20.272C8.844 20.272 7.799 20.745 6.897 21.691C5.995 22.615 5.544 23.858 5.544 25.42C5.544 27.004 5.995 28.269 6.897 29.215C7.799 30.139 8.844 30.601 10.032 30.601C11.22 30.601 12.232 30.172 13.068 29.314C13.904 28.434 14.322 27.136 14.322 25.42C14.322 23.66 13.904 22.362 13.068 21.526C12.254 20.69 11.242 20.272 10.032 20.272ZM44.6598 16.675C46.6178 16.675 48.2568 17.324 49.5768 18.622C50.8968 19.898 51.5568 21.9 51.5568 24.628V34H47.2998V24.661C47.2998 23.275 46.9588 22.197 46.2768 21.427C45.5948 20.635 44.7258 20.239 43.6698 20.239C42.5258 20.239 41.5798 20.613 40.8318 21.361C40.1058 22.109 39.5888 23.066 39.2808 24.232V34H35.0238V24.661C35.0238 23.275 34.6828 22.197 34.0008 21.427C33.3188 20.635 32.4278 20.239 31.3278 20.239C29.0398 20.239 27.5988 21.57 27.0048 24.232V34H22.7478V16.84H27.0048V20.338C27.1148 19.546 27.6208 18.743 28.5228 17.929C29.4248 17.093 30.6348 16.675 32.1528 16.675C33.5388 16.675 34.7928 16.994 35.9148 17.632C37.0588 18.27 37.9278 19.249 38.5218 20.569C38.8738 19.601 39.5668 18.71 40.6008 17.896C41.6568 17.082 43.0098 16.675 44.6598 16.675ZM64.7692 16.642C65.7152 16.642 66.6502 16.829 67.5742 17.203C68.4982 17.577 69.3562 18.116 70.1482 18.82C70.9402 19.524 71.5782 20.448 72.0622 21.592C72.5682 22.736 72.8212 24.012 72.8212 25.42C72.8212 27.312 72.3922 28.951 71.5342 30.337C70.6762 31.723 69.6532 32.724 68.4652 33.34C67.2772 33.934 66.0452 34.231 64.7692 34.231C63.5372 34.231 62.4702 33.923 61.5682 33.307C60.6662 32.669 60.1492 32.053 60.0172 31.459V34H55.7932V10.9H60.0172V19.15C60.1492 18.556 60.6552 17.995 61.5352 17.467C62.4372 16.917 63.5152 16.642 64.7692 16.642ZM61.0732 29.314C61.9092 30.172 62.9212 30.601 64.1092 30.601C65.2972 30.601 66.3422 30.139 67.2442 29.215C68.1462 28.269 68.5972 27.004 68.5972 25.42C68.5972 23.858 68.1462 22.615 67.2442 21.691C66.3422 20.745 65.2972 20.272 64.1092 20.272C62.8992 20.272 61.8762 20.69 61.0402 21.526C60.2262 22.362 59.8192 23.66 59.8192 25.42C59.8192 27.136 60.2372 28.434 61.0732 29.314ZM84.745 16.642C85.691 16.642 86.648 16.829 87.616 17.203C88.606 17.577 89.519 18.116 90.355 18.82C91.213 19.502 91.906 20.426 92.434 21.592C92.984 22.758 93.259 24.045 93.259 25.453C93.259 26.003 93.226 26.52 93.16 27.004H80.488C80.708 28.104 81.247 28.984 82.105 29.644C82.963 30.282 83.876 30.601 84.844 30.601C86.296 30.601 87.418 30.172 88.21 29.314L91.675 31.129C89.893 33.197 87.605 34.231 84.811 34.231C84.085 34.231 83.326 34.121 82.534 33.901C81.764 33.681 80.994 33.34 80.224 32.878C79.454 32.394 78.761 31.822 78.145 31.162C77.551 30.48 77.067 29.644 76.693 28.654C76.319 27.664 76.132 26.597 76.132 25.453C76.132 23.583 76.594 21.955 77.518 20.569C78.464 19.183 79.575 18.182 80.851 17.566C82.127 16.95 83.425 16.642 84.745 16.642ZM84.745 20.305C83.755 20.305 82.864 20.613 82.072 21.229C81.28 21.845 80.763 22.714 80.521 23.836H89.002C88.76 22.714 88.221 21.845 87.385 21.229C86.571 20.613 85.691 20.305 84.745 20.305ZM104.838 16.642C105.784 16.642 106.741 16.829 107.709 17.203C108.699 17.577 109.612 18.116 110.448 18.82C111.306 19.502 111.999 20.426 112.527 21.592C113.077 22.758 113.352 24.045 113.352 25.453C113.352 26.003 113.319 26.52 113.253 27.004H100.581C100.801 28.104 101.34 28.984 102.198 29.644C103.056 30.282 103.969 30.601 104.937 30.601C106.389 30.601 107.511 30.172 108.303 29.314L111.768 31.129C109.986 33.197 107.698 34.231 104.904 34.231C104.178 34.231 103.419 34.121 102.627 33.901C101.857 33.681 101.087 33.34 100.317 32.878C99.5466 32.394 98.8536 31.822 98.2376 31.162C97.6436 30.48 97.1596 29.644 96.7856 28.654C96.4116 27.664 96.2246 26.597 96.2246 25.453C96.2246 23.583 96.6866 21.955 97.6106 20.569C98.5566 19.183 99.6676 18.182 100.944 17.566C102.22 16.95 103.518 16.642 104.838 16.642ZM104.838 20.305C103.848 20.305 102.957 20.613 102.165 21.229C101.373 21.845 100.856 22.714 100.614 23.836H109.095C108.853 22.714 108.314 21.845 107.478 21.229C106.664 20.613 105.784 20.305 104.838 20.305Z" fill="white"/>
<path d="M12.606 17.467L12.8663 17.0401L12.8663 17.0401L12.606 17.467ZM14.124 19.15L13.633 19.2444L14.624 19.15H14.124ZM14.124 16.84V16.34H13.624V16.84H14.124ZM18.348 16.84H18.848V16.34H18.348V16.84ZM18.348 34V34.5H18.848V34H18.348ZM14.124 34H13.624V34.5H14.124V34ZM14.124 31.459H14.624L13.6324 31.368L14.124 31.459ZM12.573 33.307L12.855 33.7199L12.8571 33.7184L12.573 33.307ZM6.6 33.703L6.41236 34.1666L6.422 34.1702L6.6 33.703ZM3.993 32.119L3.66082 32.4927L3.66628 32.4976L3.67189 32.5023L3.993 32.119ZM2.046 29.314L1.58415 29.5057L1.58733 29.513L2.046 29.314ZM2.046 21.592L1.58867 21.3897L1.58552 21.3972L2.046 21.592ZM3.993 18.82L4.32518 19.1937L4.32518 19.1937L3.993 18.82ZM6.567 17.203L6.7546 17.6665L6.7546 17.6665L6.567 17.203ZM6.897 21.691L7.25481 22.0403L7.25887 22.036L6.897 21.691ZM6.897 29.215L6.53511 29.5601L6.53921 29.5643L6.897 29.215ZM13.068 29.314L13.4261 29.663L13.4305 29.6584L13.068 29.314ZM13.068 21.526L12.7097 21.8748L12.7144 21.8796L13.068 21.526ZM9.372 17.142C10.5515 17.142 11.5357 17.4 12.3457 17.8939L12.8663 17.0401C11.8723 16.434 10.7005 16.142 9.372 16.142V17.142ZM12.3457 17.8939C13.2178 18.4257 13.5646 18.8886 13.633 19.2444L14.615 19.0556C14.4634 18.2674 13.7982 17.6083 12.8663 17.0401L12.3457 17.8939ZM14.624 19.15V16.84H13.624V19.15H14.624ZM14.124 17.34H18.348V16.34H14.124V17.34ZM17.848 16.84V34H18.848V16.84H17.848ZM18.348 33.5H14.124V34.5H18.348V33.5ZM14.624 34V31.459H13.624V34H14.624ZM13.6324 31.368C13.5602 31.7576 13.1881 32.2747 12.2889 32.8956L12.8571 33.7184C13.8059 33.0633 14.4678 32.3484 14.6156 31.55L13.6324 31.368ZM12.291 32.8941C11.4825 33.4463 10.5167 33.731 9.372 33.731V34.731C10.6913 34.731 11.8595 34.3997 12.855 33.7199L12.291 32.8941ZM9.372 33.731C8.51298 33.731 7.64917 33.5676 6.778 33.2358L6.422 34.1702C7.39883 34.5424 8.38302 34.731 9.372 34.731V33.731ZM6.7876 33.2395C5.91509 32.8864 5.09069 32.3864 4.31411 31.7357L3.67189 32.5023C4.52331 33.2156 5.43691 33.7716 6.4124 34.1665L6.7876 33.2395ZM4.32518 31.7453C3.5973 31.0983 2.98741 30.2273 2.50467 29.115L1.58733 29.513C2.11659 30.7327 2.8047 31.7317 3.66082 32.4927L4.32518 31.7453ZM2.5078 29.1223C2.05215 28.0246 1.82 26.7929 1.82 25.42H0.82C0.82 26.9071 1.07185 28.2714 1.5842 29.5057L2.5078 29.1223ZM1.82 25.42C1.82 24.07 2.05182 22.8615 2.50648 21.7868L1.58552 21.3972C1.07218 22.6105 0.82 23.954 0.82 25.42H1.82ZM2.50327 21.7943C2.98549 20.704 3.59545 19.8424 4.32518 19.1937L3.66082 18.4463C2.80655 19.2056 2.11851 20.192 1.58873 21.3897L2.50327 21.7943ZM4.32518 19.1937C5.07718 18.5253 5.88683 18.0177 6.7546 17.6665L6.3794 16.7395C5.39917 17.1363 4.49282 17.7067 3.66082 18.4463L4.32518 19.1937ZM6.7546 17.6665C7.62224 17.3153 8.49371 17.142 9.372 17.142V16.142C8.35829 16.142 7.35976 16.3427 6.3794 16.7395L6.7546 17.6665ZM10.032 19.772C8.69279 19.772 7.52102 20.312 6.53513 21.346L7.25887 22.036C8.07698 21.178 8.99521 20.772 10.032 20.772V19.772ZM6.53921 21.3417C5.52755 22.3781 5.044 23.7566 5.044 25.42H6.044C6.044 23.9594 6.46245 22.8519 7.25479 22.0403L6.53921 21.3417ZM5.044 25.42C5.044 27.1037 5.52639 28.5021 6.53513 29.56L7.25887 28.87C6.46361 28.0359 6.044 26.9043 6.044 25.42H5.044ZM6.53921 29.5643C7.52625 30.5754 8.69688 31.101 10.032 31.101V30.101C8.99113 30.101 8.07175 29.7026 7.25479 28.8657L6.53921 29.5643ZM10.032 31.101C11.3561 31.101 12.4969 30.6166 13.4261 29.6629L12.7099 28.9651C11.9671 29.7274 11.0839 30.101 10.032 30.101V31.101ZM13.4305 29.6584C14.3856 28.653 14.822 27.211 14.822 25.42H13.822C13.822 27.061 13.4224 28.215 12.7055 28.9696L13.4305 29.6584ZM14.822 25.42C14.822 23.5916 14.3886 22.1395 13.4216 21.1724L12.7144 21.8796C13.4194 22.5845 13.822 23.7284 13.822 25.42H14.822ZM13.4262 21.1772C12.5143 20.2406 11.3713 19.772 10.032 19.772V20.772C11.1127 20.772 11.9937 21.1394 12.7098 21.8748L13.4262 21.1772ZM49.5768 18.622L49.2262 18.9785L49.2293 18.9815L49.5768 18.622ZM51.5568 34V34.5H52.0568V34H51.5568ZM47.2998 34H46.7998V34.5H47.2998V34ZM46.2768 21.427L45.8979 21.7533L45.9025 21.7585L46.2768 21.427ZM40.8318 21.361L40.4782 21.0074L40.473 21.0128L40.8318 21.361ZM39.2808 24.232L38.7974 24.1043L38.7808 24.1671V24.232H39.2808ZM39.2808 34V34.5H39.7808V34H39.2808ZM35.0238 34H34.5238V34.5H35.0238V34ZM34.0008 21.427L33.6219 21.7533L33.6265 21.7585L34.0008 21.427ZM27.0048 24.232L26.5168 24.1231L26.5048 24.1769V24.232H27.0048ZM27.0048 34V34.5H27.5048V34H27.0048ZM22.7478 34H22.2478V34.5H22.7478V34ZM22.7478 16.84V16.34H22.2478V16.84H22.7478ZM27.0048 16.84H27.5048V16.34H27.0048V16.84ZM27.0048 20.338H26.5048L27.5001 20.4068L27.0048 20.338ZM28.5228 17.929L28.8578 18.3002L28.8627 18.2957L28.5228 17.929ZM35.9148 17.632L35.6677 18.0667L35.6713 18.0687L35.9148 17.632ZM38.5218 20.569L38.0659 20.7742L38.571 21.8968L38.9917 20.7399L38.5218 20.569ZM40.6008 17.896L40.2956 17.5L40.2915 17.5031L40.6008 17.896ZM44.6598 17.175C46.4951 17.175 48.0056 17.7782 49.2263 18.9785L49.9274 18.2655C48.5081 16.8698 46.7406 16.175 44.6598 16.175V17.175ZM49.2293 18.9815C50.413 20.1258 51.0568 21.9699 51.0568 24.628H52.0568C52.0568 21.8301 51.3806 19.6702 49.9243 18.2625L49.2293 18.9815ZM51.0568 24.628V34H52.0568V24.628H51.0568ZM51.5568 33.5H47.2998V34.5H51.5568V33.5ZM47.7998 34V24.661H46.7998V34H47.7998ZM47.7998 24.661C47.7998 23.1958 47.4386 21.9846 46.6511 21.0955L45.9025 21.7585C46.479 22.4094 46.7998 23.3542 46.7998 24.661H47.7998ZM46.6557 21.1007C45.8776 20.1971 44.8697 19.739 43.6698 19.739V20.739C44.582 20.739 45.3121 21.0729 45.8979 21.7533L46.6557 21.1007ZM43.6698 19.739C42.4051 19.739 41.3282 20.1576 40.4783 21.0074L41.1854 21.7146C41.8315 21.0684 42.6465 20.739 43.6698 20.739V19.739ZM40.473 21.0128C39.6784 21.8314 39.1239 22.8685 38.7974 24.1043L39.7642 24.3597C40.0538 23.2635 40.5332 22.3866 41.1906 21.7092L40.473 21.0128ZM38.7808 24.232V34H39.7808V24.232H38.7808ZM39.2808 33.5H35.0238V34.5H39.2808V33.5ZM35.5238 34V24.661H34.5238V34H35.5238ZM35.5238 24.661C35.5238 23.1958 35.1626 21.9846 34.3751 21.0955L33.6265 21.7585C34.203 22.4094 34.5238 23.3542 34.5238 24.661H35.5238ZM34.3797 21.1007C33.5972 20.192 32.5647 19.739 31.3278 19.739V20.739C32.291 20.739 33.0405 21.078 33.6219 21.7533L34.3797 21.1007ZM31.3278 19.739C30.0804 19.739 29.0199 20.1051 28.1918 20.87C27.3726 21.6266 26.8276 22.7304 26.5168 24.1231L27.4928 24.3409C27.7761 23.0716 28.2485 22.1789 28.8703 21.6045C29.4833 21.0384 30.2873 20.739 31.3278 20.739V19.739ZM26.5048 24.232V34H27.5048V24.232H26.5048ZM27.0048 33.5H22.7478V34.5H27.0048V33.5ZM23.2478 34V16.84H22.2478V34H23.2478ZM22.7478 17.34H27.0048V16.34H22.7478V17.34ZM26.5048 16.84V20.338H27.5048V16.84H26.5048ZM27.5001 20.4068C27.5873 19.7785 27.9996 19.0746 28.8578 18.3002L28.1878 17.5578C27.242 18.4113 26.6423 19.3135 26.5096 20.2692L27.5001 20.4068ZM28.8627 18.2957C29.6518 17.5643 30.7299 17.175 32.1528 17.175V16.175C30.5398 16.175 29.1978 16.6217 28.1829 17.5623L28.8627 18.2957ZM32.1528 17.175C33.4588 17.175 34.6265 17.4746 35.6677 18.0666L36.162 17.1974C34.9591 16.5134 33.6189 16.175 32.1528 16.175V17.175ZM35.6713 18.0687C36.7116 18.6488 37.5111 19.5413 38.0659 20.7742L38.9778 20.3638C38.3446 18.9567 37.4061 17.8912 36.1584 17.1953L35.6713 18.0687ZM38.9917 20.7399C39.3042 19.8806 39.9292 19.0611 40.9101 18.2889L40.2915 17.5031C39.2044 18.3589 38.4435 19.3214 38.0519 20.3981L38.9917 20.7399ZM40.9061 18.292C41.8555 17.5601 43.0935 17.175 44.6598 17.175V16.175C42.9262 16.175 41.4581 16.6039 40.2956 17.5L40.9061 18.292ZM67.5742 17.203L67.3866 17.6665L67.3866 17.6665L67.5742 17.203ZM70.1482 18.82L69.816 19.1937L69.816 19.1937L70.1482 18.82ZM72.0622 21.592L71.6017 21.7868L71.6049 21.7943L72.0622 21.592ZM71.5342 30.337L71.1091 30.0738L71.1091 30.0738L71.5342 30.337ZM68.4652 33.34L68.6888 33.7873L68.6954 33.7839L68.4652 33.34ZM61.5682 33.307L61.2794 33.7153L61.2862 33.7199L61.5682 33.307ZM60.0172 31.459L60.5053 31.3505L59.5172 31.459H60.0172ZM60.0172 34V34.5H60.5172V34H60.0172ZM55.7932 34H55.2932V34.5H55.7932V34ZM55.7932 10.9V10.4H55.2932V10.9H55.7932ZM60.0172 10.9H60.5172V10.4H60.0172V10.9ZM60.0172 19.15H59.5172L60.5053 19.2585L60.0172 19.15ZM61.5352 17.467L61.7925 17.8958L61.7955 17.8939L61.5352 17.467ZM61.0732 29.314L60.7107 29.6584L60.7151 29.6629L61.0732 29.314ZM67.2442 29.215L67.602 29.5643L67.6061 29.56L67.2442 29.215ZM67.2442 21.691L66.8823 22.0361L66.8864 22.0403L67.2442 21.691ZM61.0402 21.526L60.6866 21.1724L60.682 21.1772L61.0402 21.526ZM64.7692 17.142C65.6475 17.142 66.519 17.3153 67.3866 17.6665L67.7618 16.7395C66.7814 16.3427 65.7829 16.142 64.7692 16.142V17.142ZM67.3866 17.6665C68.2544 18.0177 69.064 18.5253 69.816 19.1937L70.4804 18.4463C69.6484 17.7067 68.742 17.1363 67.7618 16.7395L67.3866 17.6665ZM69.816 19.1937C70.5437 19.8405 71.1417 20.6995 71.6017 21.7868L72.5227 21.3972C72.0147 20.1965 71.3367 19.2075 70.4804 18.4463L69.816 19.1937ZM71.6049 21.7943C72.0794 22.867 72.3212 24.0729 72.3212 25.42H73.3212C73.3212 23.9511 73.057 22.605 72.5195 21.3897L71.6049 21.7943ZM72.3212 25.42C72.3212 27.2342 71.9107 28.7789 71.1091 30.0738L71.9593 30.6002C72.8737 29.1231 73.3212 27.3898 73.3212 25.42H72.3212ZM71.1091 30.0738C70.2882 31.3998 69.3271 32.3299 68.235 32.8961L68.6954 33.7839C69.9793 33.1181 71.0642 32.0462 71.9593 30.6002L71.1091 30.0738ZM68.2416 32.8928C67.1201 33.4535 65.9644 33.731 64.7692 33.731V34.731C66.126 34.731 67.4343 34.4145 68.6888 33.7872L68.2416 32.8928ZM64.7692 33.731C63.6245 33.731 62.6587 33.4463 61.8502 32.8941L61.2862 33.7199C62.2817 34.3997 63.4499 34.731 64.7692 34.731V33.731ZM61.8569 32.8988C60.9821 32.28 60.5956 31.757 60.5053 31.3505L59.5291 31.5675C59.7028 32.349 60.3503 33.058 61.2795 33.7152L61.8569 32.8988ZM59.5172 31.459V34H60.5172V31.459H59.5172ZM60.0172 33.5H55.7932V34.5H60.0172V33.5ZM56.2932 34V10.9H55.2932V34H56.2932ZM55.7932 11.4H60.0172V10.4H55.7932V11.4ZM59.5172 10.9V19.15H60.5172V10.9H59.5172ZM60.5053 19.2585C60.5925 18.8658 60.9535 18.3991 61.7925 17.8957L61.278 17.0383C60.3569 17.5909 59.7059 18.2462 59.5291 19.0415L60.5053 19.2585ZM61.7955 17.8939C62.6055 17.4 63.5897 17.142 64.7692 17.142V16.142C63.4407 16.142 62.2689 16.434 61.2749 17.0401L61.7955 17.8939ZM60.7151 29.6629C61.6443 30.6166 62.7851 31.101 64.1092 31.101V30.101C63.0573 30.101 62.1741 29.7274 61.4313 28.9651L60.7151 29.6629ZM64.1092 31.101C65.4443 31.101 66.615 30.5754 67.602 29.5643L66.8864 28.8657C66.0695 29.7026 65.1501 30.101 64.1092 30.101V31.101ZM67.6061 29.56C68.6148 28.5021 69.0972 27.1037 69.0972 25.42H68.0972C68.0972 26.9043 67.6776 28.0359 66.8823 28.87L67.6061 29.56ZM69.0972 25.42C69.0972 23.7566 68.6137 22.3781 67.602 21.3417L66.8864 22.0403C67.6788 22.8519 68.0972 23.9594 68.0972 25.42H69.0972ZM67.6061 21.346C66.6202 20.312 65.4484 19.772 64.1092 19.772V20.772C65.146 20.772 66.0642 21.178 66.8823 22.036L67.6061 21.346ZM64.1092 19.772C62.7701 19.772 61.6189 20.2402 60.6866 21.1724L61.3938 21.8796C62.1336 21.1398 63.0283 20.772 64.1092 20.772V19.772ZM60.682 21.1772C59.74 22.1446 59.3192 23.5948 59.3192 25.42H60.3192C60.3192 23.7252 60.7124 22.5794 61.3984 21.8748L60.682 21.1772ZM59.3192 25.42C59.3192 27.211 59.7556 28.653 60.7107 29.6584L61.4357 28.9696C60.7189 28.215 60.3192 27.061 60.3192 25.42H59.3192ZM87.616 17.203L87.4358 17.6694L87.4393 17.6707L87.616 17.203ZM90.355 18.82L90.033 19.2025L90.0384 19.207L90.0439 19.2114L90.355 18.82ZM92.434 21.592L91.9785 21.7983L91.9818 21.8053L92.434 21.592ZM93.16 27.004V27.504H93.5965L93.6555 27.0716L93.16 27.004ZM80.488 27.004V26.504H79.8781L79.9977 27.1021L80.488 27.004ZM82.105 29.644L81.8001 30.0404L81.8067 30.0452L82.105 29.644ZM88.21 29.314L88.442 28.8711L88.1026 28.6933L87.8426 28.9749L88.21 29.314ZM91.675 31.129L92.0538 31.4554L92.4649 30.9783L91.907 30.6861L91.675 31.129ZM82.534 33.901L82.3967 34.3818L82.4002 34.3828L82.534 33.901ZM80.224 32.878L79.9579 33.3014L79.9668 33.3067L80.224 32.878ZM78.145 31.162L77.768 31.4904L77.7736 31.4969L77.7795 31.5032L78.145 31.162ZM76.693 28.654L76.2253 28.8307L76.2253 28.8307L76.693 28.654ZM77.518 20.569L77.105 20.2871L77.102 20.2916L77.518 20.569ZM80.851 17.566L81.0684 18.0163L81.0684 18.0163L80.851 17.566ZM80.521 23.836L80.0323 23.7306L79.9017 24.336H80.521V23.836ZM89.002 23.836V24.336H89.6214L89.4908 23.7306L89.002 23.836ZM87.385 21.229L87.0833 21.6277L87.0884 21.6315L87.385 21.229ZM84.745 17.142C85.6237 17.142 86.5197 17.3155 87.4358 17.6694L87.7962 16.7366C86.7763 16.3425 85.7584 16.142 84.745 16.142V17.142ZM87.4393 17.6707C88.3747 18.0241 89.2388 18.5337 90.033 19.2025L90.6771 18.4375C89.7993 17.6983 88.8374 17.1299 87.7927 16.7353L87.4393 17.6707ZM90.0439 19.2114C90.8301 19.8364 91.4778 20.6924 91.9786 21.7983L92.8895 21.3857C92.3343 20.1596 91.5959 19.1676 90.6662 18.4286L90.0439 19.2114ZM91.9818 21.8053C92.4975 22.8986 92.759 24.1119 92.759 25.453H93.759C93.759 23.9781 93.4705 22.6174 92.8863 21.3787L91.9818 21.8053ZM92.759 25.453C92.759 25.9832 92.7272 26.4774 92.6646 26.9364L93.6555 27.0716C93.7249 26.5626 93.759 26.0228 93.759 25.453H92.759ZM93.16 26.504H80.488V27.504H93.16V26.504ZM79.9977 27.1021C80.2405 28.3159 80.8426 29.3037 81.8002 30.0403L82.4099 29.2477C81.6515 28.6643 81.1756 27.8921 80.9783 26.9059L79.9977 27.1021ZM81.8067 30.0452C82.7414 30.7403 83.7573 31.101 84.844 31.101V30.101C83.9948 30.101 83.1846 29.8237 82.4034 29.2428L81.8067 30.0452ZM84.844 31.101C86.3992 31.101 87.6686 30.6377 88.5774 29.6531L87.8426 28.9749C87.1674 29.7063 86.1929 30.101 84.844 30.101V31.101ZM87.978 29.7569L91.443 31.5719L91.907 30.6861L88.442 28.8711L87.978 29.7569ZM91.2963 30.8026C89.6118 32.7574 87.4635 33.731 84.811 33.731V34.731C87.7466 34.731 90.1743 33.6366 92.0538 31.4554L91.2963 30.8026ZM84.811 33.731C84.1358 33.731 83.4219 33.6287 82.6679 33.4192L82.4002 34.3828C83.2301 34.6133 84.0343 34.731 84.811 34.731V33.731ZM82.6714 33.4202C81.9482 33.2136 81.2182 32.8914 80.4813 32.4493L79.9668 33.3067C80.7698 33.7886 81.5799 34.1484 82.3967 34.3818L82.6714 33.4202ZM80.4901 32.4547C79.7564 31.9935 79.0969 31.449 78.5106 30.8208L77.7795 31.5032C78.4252 32.195 79.1517 32.7945 79.9579 33.3013L80.4901 32.4547ZM78.5221 30.8336C77.9731 30.2033 77.5173 29.421 77.1608 28.4773L76.2253 28.8307C76.6168 29.867 77.129 30.7567 77.768 31.4904L78.5221 30.8336ZM77.1608 28.4773C76.8098 27.5482 76.632 26.5415 76.632 25.453H75.632C75.632 26.6525 75.8283 27.7798 76.2253 28.8307L77.1608 28.4773ZM76.632 25.453C76.632 23.6692 77.0714 22.1404 77.9341 20.8463L77.102 20.2916C76.1167 21.7696 75.632 23.4968 75.632 25.453H76.632ZM77.931 20.8509C78.8368 19.5238 79.8846 18.5878 81.0684 18.0163L80.6337 17.1157C79.2654 17.7762 78.0913 18.8422 77.1051 20.2871L77.931 20.8509ZM81.0684 18.0163C82.2817 17.4306 83.5058 17.142 84.745 17.142V16.142C83.3443 16.142 81.9724 16.4694 80.6337 17.1157L81.0684 18.0163ZM84.745 19.805C83.6422 19.805 82.6435 20.1511 81.7651 20.8343L82.379 21.6237C83.0845 21.0749 83.8678 20.805 84.745 20.805V19.805ZM81.7651 20.8343C80.8672 21.5327 80.2953 22.5113 80.0323 23.7306L81.0098 23.9414C81.2308 22.9167 81.6929 22.1573 82.379 21.6237L81.7651 20.8343ZM80.521 24.336H89.002V23.336H80.521V24.336ZM89.4908 23.7306C89.226 22.5029 88.6263 21.5226 87.6816 20.8265L87.0884 21.6315C87.8157 22.1674 88.2941 22.9251 88.5133 23.9414L89.4908 23.7306ZM87.6868 20.8303C86.7932 20.1541 85.8088 19.805 84.745 19.805V20.805C85.5733 20.805 86.3489 21.0719 87.0833 21.6277L87.6868 20.8303ZM107.709 17.203L107.528 17.6694L107.532 17.6707L107.709 17.203ZM110.448 18.82L110.126 19.2025L110.131 19.207L110.137 19.2114L110.448 18.82ZM112.527 21.592L112.071 21.7983L112.074 21.8053L112.527 21.592ZM113.253 27.004V27.504H113.689L113.748 27.0716L113.253 27.004ZM100.581 27.004V26.504H99.9707L100.09 27.1021L100.581 27.004ZM102.198 29.644L101.893 30.0404L101.899 30.0452L102.198 29.644ZM108.303 29.314L108.535 28.8711L108.195 28.6933L107.935 28.9749L108.303 29.314ZM111.768 31.129L112.146 31.4554L112.558 30.9783L112 30.6861L111.768 31.129ZM102.627 33.901L102.489 34.3818L102.493 34.3828L102.627 33.901ZM100.317 32.878L100.051 33.3014L100.059 33.3067L100.317 32.878ZM98.2376 31.162L97.8606 31.4904L97.8663 31.4969L97.8721 31.5032L98.2376 31.162ZM96.7856 28.654L96.3179 28.8307L96.3179 28.8307L96.7856 28.654ZM97.6106 20.569L97.1976 20.2871L97.1946 20.2916L97.6106 20.569ZM100.944 17.566L101.161 18.0163L101.161 18.0163L100.944 17.566ZM100.614 23.836L100.125 23.7306L99.9943 24.336H100.614V23.836ZM109.095 23.836V24.336H109.714L109.583 23.7306L109.095 23.836ZM107.478 21.229L107.176 21.6277L107.181 21.6315L107.478 21.229ZM104.838 17.142C105.716 17.142 106.612 17.3155 107.528 17.6694L107.889 16.7366C106.869 16.3425 105.851 16.142 104.838 16.142V17.142ZM107.532 17.6707C108.467 18.0241 109.331 18.5337 110.126 19.2025L110.77 18.4375C109.892 17.6983 108.93 17.1299 107.885 16.7353L107.532 17.6707ZM110.137 19.2114C110.923 19.8364 111.57 20.6924 112.071 21.7983L112.982 21.3857C112.427 20.1596 111.689 19.1676 110.759 18.4286L110.137 19.2114ZM112.074 21.8053C112.59 22.8986 112.852 24.1119 112.852 25.453H113.852C113.852 23.9781 113.563 22.6174 112.979 21.3787L112.074 21.8053ZM112.852 25.453C112.852 25.9832 112.82 26.4774 112.757 26.9364L113.748 27.0716C113.817 26.5626 113.852 26.0228 113.852 25.453H112.852ZM113.253 26.504H100.581V27.504H113.253V26.504ZM100.09 27.1021C100.333 28.3159 100.935 29.3037 101.893 30.0403L102.503 29.2477C101.744 28.6643 101.268 27.8921 101.071 26.9059L100.09 27.1021ZM101.899 30.0452C102.834 30.7403 103.85 31.101 104.937 31.101V30.101C104.087 30.101 103.277 29.8237 102.496 29.2428L101.899 30.0452ZM104.937 31.101C106.492 31.101 107.761 30.6377 108.67 29.6531L107.935 28.9749C107.26 29.7063 106.286 30.101 104.937 30.101V31.101ZM108.071 29.7569L111.536 31.5719L112 30.6861L108.535 28.8711L108.071 29.7569ZM111.389 30.8026C109.704 32.7574 107.556 33.731 104.904 33.731V34.731C107.839 34.731 110.267 33.6366 112.146 31.4554L111.389 30.8026ZM104.904 33.731C104.228 33.731 103.515 33.6287 102.76 33.4192L102.493 34.3828C103.323 34.6133 104.127 34.731 104.904 34.731V33.731ZM102.764 33.4202C102.041 33.2136 101.311 32.8914 100.574 32.4493L100.059 33.3067C100.862 33.7886 101.672 34.1484 102.489 34.3818L102.764 33.4202ZM100.583 32.4547C99.849 31.9935 99.1895 31.449 98.6032 30.8208L97.8721 31.5032C98.5178 32.195 99.2443 32.7945 100.051 33.3013L100.583 32.4547ZM98.6147 30.8336C98.0657 30.2033 97.6099 29.421 97.2534 28.4773L96.3179 28.8307C96.7094 29.867 97.2216 30.7567 97.8606 31.4904L98.6147 30.8336ZM97.2534 28.4773C96.9024 27.5482 96.7246 26.5415 96.7246 25.453H95.7246C95.7246 26.6525 95.9209 27.7798 96.3179 28.8307L97.2534 28.4773ZM96.7246 25.453C96.7246 23.6692 97.164 22.1404 98.0267 20.8463L97.1946 20.2916C96.2093 21.7696 95.7246 23.4968 95.7246 25.453H96.7246ZM98.0236 20.8509C98.9294 19.5238 99.9773 18.5878 101.161 18.0163L100.726 17.1157C99.358 17.7762 98.1839 18.8422 97.1977 20.2871L98.0236 20.8509ZM101.161 18.0163C102.374 17.4306 103.598 17.142 104.838 17.142V16.142C103.437 16.142 102.065 16.4694 100.726 17.1157L101.161 18.0163ZM104.838 19.805C103.735 19.805 102.736 20.1511 101.858 20.8343L102.472 21.6237C103.177 21.0749 103.96 20.805 104.838 20.805V19.805ZM101.858 20.8343C100.96 21.5327 100.388 22.5113 100.125 23.7306L101.102 23.9414C101.323 22.9167 101.786 22.1573 102.472 21.6237L101.858 20.8343ZM100.614 24.336H109.095V23.336H100.614V24.336ZM109.583 23.7306C109.319 22.5029 108.719 21.5226 107.774 20.8265L107.181 21.6315C107.908 22.1674 108.387 22.9251 108.606 23.9414L109.583 23.7306ZM107.779 20.8303C106.886 20.1541 105.901 19.805 104.838 19.805V20.805C105.666 20.805 106.441 21.0719 107.176 21.6277L107.779 20.8303Z" fill="white"/>
<circle cx="120.5" cy="16.5" r="5.5" fill="#96D4EB"/>
</svg>
