<svg xmlns="http://www.w3.org/2000/svg" fill="none" overflow="visible" preserveAspectRatio="none" style="display:block" viewBox="0 0 96 30"><path fill="var(--fill-0, #9fa3ae)" d="M67.251 2.304s-1.8.713-3.892 3.012c-2.093 2.298-3.312 4.882-2.41 5.57.346.26 1.146.31 2.596-.996a11.4 11.4 0 0 0 3.068-4.239c.936-2.274.638-3.32.638-3.344m11.454 4.131C76.38 5.25 74.68 3.795 72.913 2.895c-1.687-.863-2.778-1.224-4.142-1.042a4 4 0 0 0-.562.14s.702 2.39-2.093 6.404c-2.831 4.071-5.4 4.043-6.13 2.925-.765-1.18.223-3.585 1.872-5.727C63.585 3.356 66.62 1.5 66.62 1.5s-.968-.59-3.343.752c-2.318 1.303-6.307 4.413-10.009 9.658s-4.436 8.13-4.966 10.402-.049 4.706 2.48 4.706 5.472-3.843 6.302-5.178c1.544-2.488 2.55-6.304.45-5.78-1.035.258-1.873 1.4-2.402 2.499-.334.706-.59 1.446-.762 2.208a8.8 8.8 0 0 0-2.05 1.188 15 15 0 0 0-1.944 1.71s.01-1.816 1.462-4.755c1.453-2.938 4.12-4.28 5.632-4.406 1.36-.11 3.132 1.041 1.63 5.286-1.5 4.245-5.93 9.406-10.583 9.47-4.293.059-7.103-5.4-1.127-14.927C54.004 3.807 61.762.578 64.281.218s3.339.748 3.339.748A10.9 10.9 0 0 1 72.41.18c3.076.206 5.454 2.376 8.594 3.9a50 50 0 0 0-2.297 2.358m13.819-3.543c-2.132 1.362-5.082 2.596-7.916 2.332a42 42 0 0 0-2.255 2.527c4.914.968 9.22-2.065 11.51-4.648A15.2 15.2 0 0 0 96 .047a19.2 19.2 0 0 1-3.476 2.848M85.98 16.69a1 1 0 0 0 .09-.204.494.494 0 0 0-.45-.429c-.469-.022-1.107.067-2.782 1.914a25 25 0 0 0-3.56 5.032c-.958 1.744-1.347 3.044-.796 3.38a.8.8 0 0 0 .58.06c.374-.09.797-.438 1.44-1.18.301-.348.635-.84 1.035-1.386 1.108-1.502 3.892-6.23 4.443-7.187m-17.396 2.009c.28-.728.635-2.157-.104-2.718-.795-.596-2.82.802-2.832 2.236-.014 1.468 1.427 2.132 1.772 2.225.197.053.265.045.36-.112q.46-.788.804-1.631m-1.532 2.67a6.1 6.1 0 0 1-1.393-.885 4.5 4.5 0 0 1-1.042-1.264c-.028-.047-.056-.011-.088.03-.03.043-.156.156-1.236 1.733s-2.739 4.844-1.237 5.4c.961.356 2.56-1.321 3.433-2.433a21 21 0 0 0 1.612-2.445c.046-.094 0-.116-.048-.136m17.03 3.773c-.407.65-.872 1.897.469 1.122 1.64-.944 3.977-4.476 3.977-4.476h1.06a35.4 35.4 0 0 1-3.213 4.199c-1.662 1.835-3.69 3.501-5.117 3.337-1.669-.195-1.146-2.376-1.146-2.376s-2.386 2.531-4.037 2.35c-2.23-.246-1.55-2.992-1.55-2.992s-2.522 3.083-4.24 2.988c-2.695-.155-2.017-3.42-1.268-5.72.401-1.23.773-2.196.773-2.196s-.267.07-.842.155c-.3.042-.846.073-.846.073s-1.122 1.972-2.02 3.157-4.711 5.27-6.955 4.452c-2.076-.756-1.39-3.922-.181-6.438 1.763-3.668 6.723-8.937 9.584-8.24 2.965.716.067 6.107.067 6.107s0 .02.031.034c.06.022.214.04.572-.03a6.4 6.4 0 0 0 1.084-.323s2.981-6.22 6.275-10.289C79.853 5.967 86.422-1.04 89 .654c.624.417.344 1.852-.506 3.593q-.573.186-1.164.311c.568-1.028.944-1.894 1.057-2.498.388-2.103-4.539 2.332-8.06 7.096a66 66 0 0 0-5.634 9.086 15.4 15.4 0 0 0 1.817-1.293 52 52 0 0 0 4.47-4.157 49 49 0 0 0 3.805-4.376 10 10 0 0 0 1.119-.115 48 48 0 0 1-4.199 4.942c-1.404 1.415-2.925 2.937-4.245 4.042q-1.771 1.5-3.724 2.757s-3.08 6.187-1.404 6.584c.984.236 2.929-2.748 2.929-2.748s2.538-3.858 4.067-5.597c2.087-2.364 3.883-3.732 5.678-3.757 1.046-.019 1.662 1.088 1.662 1.088l.492-.758h3.028s-5.655 9.56-6.107 10.28m8.443-22.24c-2.132 1.363-5.082 2.597-7.916 2.333a42 42 0 0 0-2.255 2.527c4.915.968 9.22-2.065 11.51-4.648A15.2 15.2 0 0 0 96 .047a19.2 19.2 0 0 1-3.476 2.848m-42.522 4.69h-2.88l-1.627 2.62h2.88zm-13.635 9.073c1.226-1.673 4.606-7.537 4.606-7.537a.49.49 0 0 0-.45-.429c-.468-.021-1.248.136-2.798 2.068-1.55 1.933-2.753 3.47-3.63 5.071-.961 1.746-1.381 2.978-.829 3.312.18.09.386.11.58.059.358-.09.828-.45 1.473-1.188.302-.345.646-.81 1.048-1.356m-15.45-7.93c-.797-.599-2.821.802-2.832 2.233-.012 1.47 1.821 1.919 2.059 1.93.07.005.14-.01.201-.042a.24.24 0 0 0 .097-.106q.324-.633.58-1.297c.28-.728.634-2.157-.106-2.718m-1.201 5.058a6.7 6.7 0 0 1-1.56-.715 3.24 3.24 0 0 1-1.115-1.23c-.028-.047-.06-.01-.088.031-.028.042-.19.244-1.273 1.827s-2.688 4.82-1.185 5.377c.959.362 2.577-1.33 3.456-2.436a29 29 0 0 0 1.82-2.715c.035-.095 0-.117-.053-.134m23.517.97h1.055s-5.286 7.62-8.272 7.265c-1.667-.195-1.172-2.244-1.172-2.244s-2.341 2.73-4.492 2.177c-1.95-.5-.691-3.732-.691-3.732-.222.089-4.444 4.83-7.41 3.693-3.105-1.194-1.493-5.164-.903-6.358a49 49 0 0 1 1.055-1.986s-.476.134-.78.203c-.305.068-.745.155-.745.155s-1.468 2.377-2.366 3.564c-.897 1.186-4.712 5.263-6.96 4.452-2.247-.812-1.69-3.945-.427-6.433 2.048-4.035 6.906-8.994 9.833-8.241 2.956.75.509 5.528.509 5.528s.588.076 1.997-.882c2.03-1.38 4.708-5.09 7.607-4.654 1.368.205 2.641 1.597.9 4.24-.556.85-1.488 1.608-2.201.857-.445-.466-.056-1.317.41-1.899a1.83 1.83 0 0 1 1.561-.712s.48-1.088-.74-1.073c-.986.02-3.483 2.31-4.893 4.623-1.292 2.124-3.25 5.743-1.284 6.53 1.802.726 5.233-3.331 6.822-5.457s5.21-6.943 8.247-7.135c1.045-.069 1.668.881 1.668.881l.351-.553h3.038s-5.72 9.51-6.167 10.23c-.351.562-.818 1.828.468 1.119s3.982-4.158 3.982-4.158m-1.653 15.238a12.6 12.6 0 0 0-7.632-2.218 4.7 4.7 0 0 0-3.724 2.01c-1.158-2.014-3.448-3.25-6.987-3.222-5.72.066-11.394 2.693-15.889 2.69-4.307 0-7.45-2.697-7.348-7.488.19-8.408 7.32-15.979 12.642-19.385C15.713.427 18.28-.155 19.956.033c1.224.136 2.696 1.545 1.767 3.62-1.364 3.034-3.248 2.785-3.177 1.334.038-.943.669-1.537 1.143-1.865.302-.207.834-.266 1.112-.273.27-.227.468-1.887-1.717-1.341-2.185.545-4.838 2.691-7.357 5.464-2.52 2.772-6.442 8.012-7.41 13.515-.453 2.552-.157 7.206 5.916 7.153 5.15-.042 12.742-3.421 19.718-3.351 2.708.026 5.065.754 6.902 1.883 1.804 1.107 3.967 2.724 4.735 3.828"/></svg>