<svg xmlns="http://www.w3.org/2000/svg" xml:space="preserve" width="130.5" height="90.4" viewBox="0 0 130.5 90.4"><path fill="none" d="M71.125-1.896h-69v-69h69z"/><path fill="#f6bb60" d="M71.125-1.896h-69v-69h69z"/><g fill="#fff"><path d="M61.772-71.653a.25.25 0 0 1-.026.19c-.053.101-.112.063-.165.128a.64.64 0 0 0-.079.362c-.169.058-.01.227-.015.35-.002.05-.041.105-.045.161a.76.76 0 0 0 .068.37c.097.198.268.413.435.544.19.148.365.572.608.631.177.042.384-.104.543-.143.18-.043.397.01.571-.053.222-.079.127-.337.288-.45.104-.074.287-.01.406-.051a.61.61 0 0 0 .376-.46c.016-.082.01-.145.039-.221.039-.103.111-.16.09-.293-.01-.062-.052-.12-.064-.187-.022-.114.002-.224 0-.337-.003-.2.017-.379-.078-.55-.38-.688-1.236-.929-1.975-.789-.18.034-.287.126-.442.207-.17.088-.139.166-.318.224-.081.026-.216.124-.215.224.001.115.005.051.012.169-.021.011-.021-.005-.03-.025M54.105-71.653a.25.25 0 0 1-.026.19c-.053.101-.112.063-.165.128a.64.64 0 0 0-.079.362c-.169.058-.01.227-.015.35-.002.05-.041.105-.045.161a.76.76 0 0 0 .068.37c.097.198.268.413.435.544.19.148.365.572.608.631.177.042.384-.104.543-.143.18-.043.397.01.571-.053.222-.079.127-.337.288-.45.104-.074.287-.01.406-.051a.61.61 0 0 0 .376-.46c.016-.082.01-.145.039-.221.039-.103.111-.16.09-.293-.01-.062-.052-.12-.064-.187-.022-.114.002-.224 0-.337-.003-.2.017-.379-.078-.55-.38-.688-1.236-.929-1.975-.789-.18.034-.287.126-.442.207-.17.088-.139.166-.318.224-.081.026-.216.124-.215.224.001.115.005.051.012.169-.021.011-.021-.005-.03-.025M46.439-71.653a.25.25 0 0 1-.026.19c-.053.101-.112.063-.165.128a.64.64 0 0 0-.079.362c-.169.058-.01.227-.015.35-.002.05-.041.105-.045.161a.76.76 0 0 0 .068.37c.097.198.268.413.435.544.19.148.365.572.608.631.177.042.384-.104.543-.143.18-.043.397.01.571-.053.222-.079.127-.337.288-.45.104-.074.287-.01.406-.051a.61.61 0 0 0 .376-.46c.016-.082.01-.145.039-.221.039-.103.111-.16.09-.293-.01-.062-.052-.12-.064-.187-.022-.114.002-.224 0-.337-.003-.2.017-.379-.078-.55-.38-.688-1.236-.929-1.975-.789-.18.034-.287.126-.442.207-.17.088-.139.166-.318.224-.081.026-.216.124-.215.224.001.115.005.051.012.169-.021.011-.021-.005-.03-.025M38.772-71.653a.25.25 0 0 1-.026.19c-.053.101-.112.063-.165.128a.64.64 0 0 0-.079.362c-.169.058-.01.227-.015.35-.002.05-.041.105-.045.161a.76.76 0 0 0 .068.37c.097.198.268.413.435.544.19.148.365.572.608.631.177.042.384-.104.543-.143.18-.043.397.01.571-.053.222-.079.127-.337.288-.45.104-.074.287-.01.406-.051a.61.61 0 0 0 .376-.46c.016-.082.01-.145.039-.221.039-.103.111-.16.09-.293-.01-.062-.052-.12-.064-.187-.022-.114.002-.224 0-.337-.003-.2.017-.379-.078-.55-.38-.688-1.236-.929-1.975-.789-.18.034-.287.126-.442.207-.17.088-.139.166-.318.224-.081.026-.216.124-.215.224.001.115.005.051.012.169-.021.011-.021-.005-.03-.025M31.105-71.653a.25.25 0 0 1-.026.19c-.053.101-.112.063-.165.128a.64.64 0 0 0-.079.362c-.169.058-.01.227-.015.35-.002.05-.041.105-.045.161a.76.76 0 0 0 .068.37c.097.198.268.413.435.544.19.148.365.572.608.631.177.042.384-.104.543-.143.18-.043.397.01.571-.053.222-.079.127-.337.288-.45.104-.074.287-.01.406-.051a.61.61 0 0 0 .376-.46c.016-.082.01-.145.039-.221.039-.103.111-.16.09-.293-.01-.062-.052-.12-.064-.187-.022-.114.002-.224 0-.337-.003-.2.017-.379-.078-.55-.38-.688-1.236-.929-1.975-.789-.18.034-.287.126-.442.207-.17.088-.139.166-.318.224-.081.026-.216.124-.215.224.001.115.005.051.012.169-.021.011-.021-.005-.03-.025M23.439-71.653a.25.25 0 0 1-.026.19c-.053.101-.112.063-.165.128a.64.64 0 0 0-.079.362c-.169.058-.01.227-.015.35-.002.05-.041.105-.045.161a.76.76 0 0 0 .068.37c.097.198.268.413.435.544.19.148.365.572.608.631.177.042.384-.104.543-.143.18-.043.397.01.571-.053.222-.079.127-.337.288-.45.104-.074.287-.01.406-.051a.61.61 0 0 0 .376-.46c.016-.082.01-.145.039-.221.039-.103.111-.16.09-.293-.01-.062-.052-.12-.064-.187-.022-.114.002-.224 0-.337-.003-.2.017-.379-.078-.55-.38-.688-1.236-.929-1.975-.789-.18.034-.287.126-.442.207-.17.088-.139.166-.318.224-.081.026-.216.124-.215.224.001.115.005.051.012.169-.021.011-.021-.005-.03-.025M15.772-71.653a.25.25 0 0 1-.026.19c-.053.101-.112.063-.165.128a.64.64 0 0 0-.079.362c-.169.058-.01.227-.015.35-.002.05-.041.105-.045.161a.76.76 0 0 0 .068.37c.097.198.268.413.435.544.19.148.365.572.608.631.177.042.384-.104.543-.143.18-.043.397.01.571-.053.222-.079.127-.337.288-.45.104-.074.287-.01.406-.051a.61.61 0 0 0 .376-.46c.016-.082.01-.145.039-.221.039-.103.111-.16.09-.293-.01-.062-.052-.12-.064-.187-.022-.114.002-.224 0-.337-.003-.2.017-.379-.078-.55-.38-.688-1.236-.929-1.975-.789-.18.034-.287.126-.442.207-.17.088-.139.166-.318.224-.081.026-.216.124-.215.224.001.115.005.051.012.169-.021.011-.021-.005-.03-.025M8.105-71.653a.25.25 0 0 1-.026.19c-.053.101-.112.063-.165.128a.64.64 0 0 0-.079.362c-.169.058-.01.227-.015.35-.002.05-.041.105-.045.161a.76.76 0 0 0 .068.37c.097.198.268.413.435.544.19.148.365.572.608.631.177.042.384-.104.543-.143.18-.043.397.01.571-.053.222-.079.127-.337.288-.45.104-.074.287-.01.406-.051a.61.61 0 0 0 .376-.46c.016-.082.01-.145.039-.221.039-.103.111-.16.09-.293-.01-.062-.052-.12-.064-.187-.022-.114.002-.224 0-.337-.003-.2.017-.379-.078-.55-.38-.688-1.236-.929-1.975-.789-.18.034-.287.126-.442.207-.17.088-.139.166-.318.224-.081.026-.216.124-.215.224.001.115.005.051.012.169-.021.011-.021-.005-.03-.025M.439-71.653a.24.24 0 0 1-.026.19c-.052.101-.113.063-.165.128a.63.63 0 0 0-.079.362c-.169.058-.01.227-.015.35-.002.05-.041.105-.045.161a.76.76 0 0 0 .068.37c.097.198.268.413.435.544.19.148.365.572.608.631.177.042.384-.104.543-.143.18-.043.397.01.571-.053.222-.079.127-.337.288-.45.104-.074.287-.01.406-.051.2-.07.339-.263.376-.46.016-.082.01-.145.039-.221.038-.103.111-.16.09-.293-.01-.062-.051-.12-.064-.187-.021-.114.002-.224 0-.337-.003-.2.017-.379-.078-.55-.38-.688-1.236-.929-1.975-.789-.18.034-.287.126-.442.207-.17.088-.139.166-.318.224-.081.026-.215.124-.215.224.002.115.005.051.012.169-.021.011-.021-.005-.03-.025"/></g><path fill="#fff" d="M69.439-71.653a.24.24 0 0 1-.026.19c-.052.101-.113.063-.165.128a.63.63 0 0 0-.079.362c-.169.058-.01.227-.015.35-.002.05-.041.105-.045.161a.76.76 0 0 0 .068.37c.097.198.268.413.435.544.19.148.365.572.608.631.177.042.384-.104.543-.143.18-.043.397.01.571-.053.222-.079.127-.337.288-.45.104-.074.287-.01.406-.051.2-.07.339-.263.376-.46.016-.082.01-.145.039-.221.038-.103.111-.16.09-.293-.01-.062-.051-.12-.064-.187-.021-.114.002-.224 0-.337-.003-.2.017-.379-.078-.55-.38-.688-1.236-.929-1.975-.789-.18.034-.287.126-.442.207-.17.088-.139.166-.318.224-.081.026-.215.124-.215.224.002.115.005.051.012.169-.021.011-.021-.005-.03-.025M.495-71.653a.24.24 0 0 1-.026.19c-.052.101-.113.063-.165.128a.63.63 0 0 0-.079.362c-.169.058-.01.227-.015.35-.002.05-.041.105-.045.161a.76.76 0 0 0 .068.37c.097.198.268.413.435.544.19.148.365.572.608.631.177.042.384-.104.543-.143.18-.043.397.01.571-.053.222-.079.127-.337.288-.45.104-.074.287-.01.406-.051.2-.07.339-.263.376-.46.016-.082.01-.145.039-.221.038-.103.111-.16.09-.293-.01-.062-.051-.12-.064-.187-.021-.114.002-.224 0-.337-.003-.2.017-.379-.078-.55-.38-.688-1.236-.929-1.975-.789-.18.034-.287.126-.442.207-.17.088-.139.166-.318.224-.081.026-.215.124-.215.224.003.116.006.052.013.17-.021.011-.021-.005-.03-.025"/><g fill="#fff"><path d="M69.439-64.001a.25.25 0 0 1-.026.19c-.053.101-.112.063-.165.128a.64.64 0 0 0-.079.362c-.169.058-.01.227-.015.35-.002.05-.041.105-.045.161a.76.76 0 0 0 .068.37c.097.198.268.413.435.544.19.148.365.572.608.631.177.042.384-.104.543-.143.18-.043.397.01.571-.053.222-.079.127-.337.288-.45.104-.074.287-.01.406-.051a.61.61 0 0 0 .376-.46c.016-.082.01-.145.039-.221.039-.103.111-.16.09-.293-.01-.062-.052-.12-.064-.187-.022-.114.002-.224 0-.337-.003-.2.017-.379-.078-.55-.38-.688-1.236-.929-1.975-.789-.18.034-.287.126-.442.207-.17.088-.139.166-.318.224-.081.026-.216.124-.215.224.001.115.005.051.012.169-.021.011-.021-.005-.03-.025M61.778-64.001a.25.25 0 0 1-.026.19c-.053.101-.112.063-.165.128a.64.64 0 0 0-.079.362c-.169.058-.009.227-.015.35-.002.05-.041.105-.045.161a.76.76 0 0 0 .068.37c.097.198.268.413.435.544.19.148.365.572.608.631.177.042.384-.104.543-.143.18-.043.397.01.571-.053.222-.079.127-.337.288-.45.104-.074.287-.01.406-.051a.61.61 0 0 0 .376-.46c.016-.082.01-.145.039-.221.039-.103.111-.16.09-.293-.01-.062-.052-.12-.064-.187-.022-.114.002-.224 0-.337-.003-.2.017-.379-.078-.55-.38-.688-1.236-.929-1.975-.789-.18.034-.287.126-.442.207-.17.088-.139.166-.318.224-.081.026-.216.124-.215.224.001.115.005.051.012.169-.021.011-.021-.005-.03-.025M54.118-64.001a.25.25 0 0 1-.026.19c-.053.101-.112.063-.165.128a.64.64 0 0 0-.079.362c-.169.058-.009.227-.015.35-.002.05-.041.105-.045.161a.76.76 0 0 0 .068.37c.097.198.268.413.435.544.19.148.365.572.608.631.177.042.384-.104.543-.143.18-.043.397.01.571-.053.222-.079.127-.337.288-.45.104-.074.287-.01.406-.051a.61.61 0 0 0 .376-.46c.016-.082.01-.145.039-.221.039-.103.111-.16.09-.293-.01-.062-.052-.12-.064-.187-.022-.114.002-.224 0-.337-.003-.2.017-.379-.078-.55-.38-.688-1.236-.929-1.975-.789-.18.034-.287.126-.442.207-.17.088-.139.166-.318.224-.081.026-.216.124-.215.224.001.115.005.051.012.169-.021.011-.021-.005-.03-.025M46.458-64.001a.25.25 0 0 1-.026.19c-.053.101-.112.063-.165.128a.64.64 0 0 0-.079.362c-.169.058-.009.227-.015.35-.002.05-.041.105-.045.161a.76.76 0 0 0 .068.37c.097.198.268.413.435.544.19.148.365.572.608.631.177.042.384-.104.543-.143.18-.043.397.01.571-.053.222-.079.127-.337.288-.45.104-.074.287-.01.406-.051a.61.61 0 0 0 .376-.46c.016-.082.01-.145.039-.221.039-.103.111-.16.09-.293-.01-.062-.052-.12-.064-.187-.022-.114.002-.224 0-.337-.003-.2.017-.379-.078-.55-.38-.688-1.236-.929-1.975-.789-.18.034-.287.126-.442.207-.17.088-.139.166-.318.224-.081.026-.216.124-.215.224.001.115.005.051.012.169-.021.011-.021-.005-.03-.025M38.797-64.001a.25.25 0 0 1-.026.19c-.053.101-.112.063-.165.128a.64.64 0 0 0-.079.362c-.169.058-.009.227-.015.35-.002.05-.041.105-.045.161a.76.76 0 0 0 .068.37c.097.198.268.413.435.544.19.148.365.572.608.631.177.042.384-.104.543-.143.18-.043.397.01.571-.053.222-.079.127-.337.288-.45.104-.074.287-.01.406-.051a.61.61 0 0 0 .376-.46c.016-.082.01-.145.039-.221.039-.103.111-.16.09-.293-.01-.062-.052-.12-.064-.187-.022-.114.002-.224 0-.337-.003-.2.017-.379-.078-.55-.38-.688-1.236-.929-1.975-.789-.18.034-.287.126-.442.207-.17.088-.139.166-.318.224-.081.026-.216.124-.215.224.001.115.005.051.012.169-.021.011-.021-.005-.03-.025M31.137-64.001a.25.25 0 0 1-.026.19c-.053.101-.112.063-.165.128a.64.64 0 0 0-.079.362c-.169.058-.009.227-.015.35-.002.05-.041.105-.045.161a.76.76 0 0 0 .068.37c.097.198.268.413.435.544.19.148.365.572.608.631.177.042.384-.104.543-.143.18-.043.397.01.571-.053.222-.079.127-.337.288-.45.104-.074.287-.01.406-.051a.61.61 0 0 0 .376-.46c.016-.082.01-.145.039-.221.039-.103.111-.16.09-.293-.01-.062-.052-.12-.064-.187-.022-.114.002-.224 0-.337-.003-.2.017-.379-.078-.55-.38-.688-1.236-.929-1.975-.789-.18.034-.287.126-.442.207-.17.088-.139.166-.318.224-.081.026-.216.124-.215.224.001.115.005.051.012.169-.021.011-.021-.005-.03-.025M23.477-64.001a.25.25 0 0 1-.026.19c-.053.101-.112.063-.165.128a.64.64 0 0 0-.079.362c-.169.058-.009.227-.015.35-.002.05-.041.105-.045.161a.76.76 0 0 0 .068.37c.097.198.268.413.435.544.19.148.365.572.608.631.177.042.384-.104.543-.143.18-.043.397.01.571-.053.222-.079.127-.337.288-.45.104-.074.287-.01.406-.051a.61.61 0 0 0 .376-.46c.016-.082.01-.145.039-.221.039-.103.111-.16.09-.293-.01-.062-.052-.12-.064-.187-.022-.114.002-.224 0-.337-.003-.2.017-.379-.078-.55-.38-.688-1.236-.929-1.975-.789-.18.034-.287.126-.442.207-.17.088-.139.166-.318.224-.081.026-.216.124-.215.224.001.115.005.051.012.169-.021.011-.021-.005-.03-.025M15.816-64.001a.25.25 0 0 1-.026.19c-.053.101-.112.063-.165.128a.64.64 0 0 0-.079.362c-.169.058-.009.227-.015.35-.002.05-.041.105-.045.161a.76.76 0 0 0 .068.37c.097.198.268.413.435.544.19.148.365.572.608.631.177.042.384-.104.543-.143.18-.043.397.01.571-.053.222-.079.127-.337.288-.45.104-.074.287-.01.406-.051a.61.61 0 0 0 .376-.46c.016-.082.01-.145.039-.221.039-.103.111-.16.09-.293-.01-.062-.052-.12-.064-.187-.022-.114.002-.224 0-.337-.003-.2.017-.379-.078-.55-.38-.688-1.236-.929-1.975-.789-.18.034-.287.126-.442.207-.17.088-.139.166-.318.224-.081.026-.216.124-.215.224.001.115.005.051.012.169-.021.011-.021-.005-.03-.025M8.156-64.001a.25.25 0 0 1-.026.19c-.053.101-.112.063-.165.128a.64.64 0 0 0-.079.362c-.169.058-.009.227-.015.35-.002.05-.041.105-.045.161a.76.76 0 0 0 .068.37c.097.198.268.413.435.544.19.148.365.572.608.631.177.042.384-.104.543-.143.18-.043.397.01.571-.053.222-.079.127-.337.288-.45.104-.074.287-.01.406-.051a.61.61 0 0 0 .376-.46c.016-.082.01-.145.039-.221.039-.103.111-.16.09-.293-.01-.062-.052-.12-.064-.187-.022-.114.002-.224 0-.337-.003-.2.017-.379-.078-.55-.38-.688-1.236-.929-1.975-.789-.18.034-.287.126-.442.207-.17.088-.139.166-.318.224-.081.026-.216.124-.215.224.001.115.005.051.012.169-.021.011-.021-.005-.03-.025M.495-64.001a.25.25 0 0 1-.026.19c-.053.101-.112.063-.165.128a.64.64 0 0 0-.079.362c-.169.058-.01.227-.015.35-.002.05-.041.105-.045.161a.76.76 0 0 0 .068.37c.097.198.268.413.435.544.19.148.365.572.608.631.177.042.384-.104.543-.143.181-.042.398.011.572-.052.222-.079.127-.337.288-.45.104-.074.287-.01.406-.051a.61.61 0 0 0 .376-.46c.016-.082.01-.145.039-.221.039-.103.111-.16.09-.293-.01-.062-.052-.12-.064-.187-.022-.114.002-.224 0-.337-.003-.2.017-.379-.078-.55-.38-.688-1.236-.929-1.975-.789-.18.034-.287.126-.442.207-.17.088-.139.166-.318.224-.081.026-.216.124-.215.224.001.115.005.051.012.169-.021.011-.021-.005-.03-.025M69.439-56.348a.25.25 0 0 1-.026.19c-.053.101-.112.063-.165.128a.64.64 0 0 0-.079.362c-.169.058-.01.227-.015.35-.002.05-.041.105-.045.161a.76.76 0 0 0 .068.37c.097.198.268.413.435.544.19.148.365.572.608.631.177.042.384-.104.543-.143.18-.043.397.01.571-.053.222-.079.127-.337.288-.45.104-.074.287-.01.406-.051a.61.61 0 0 0 .376-.46c.016-.082.01-.145.039-.221.039-.103.111-.16.09-.293-.01-.062-.052-.12-.064-.187-.022-.114.002-.224 0-.337-.003-.2.017-.379-.078-.55-.38-.688-1.236-.929-1.975-.789-.18.034-.287.126-.442.207-.17.088-.139.166-.318.224-.081.026-.216.124-.215.224.001.115.005.051.012.169-.021.011-.021-.005-.03-.025M61.778-56.348a.25.25 0 0 1-.026.19c-.053.101-.112.063-.165.128a.64.64 0 0 0-.079.362c-.169.058-.009.227-.015.35-.002.05-.041.105-.045.161a.76.76 0 0 0 .068.37c.097.198.268.413.435.544.19.148.365.572.608.631.177.042.384-.104.543-.143.18-.043.397.01.571-.053.222-.079.127-.337.288-.45.104-.074.287-.01.406-.051a.61.61 0 0 0 .376-.46c.016-.082.01-.145.039-.221.039-.103.111-.16.09-.293-.01-.062-.052-.12-.064-.187-.022-.114.002-.224 0-.337-.003-.2.017-.379-.078-.55-.38-.688-1.236-.929-1.975-.789-.18.034-.287.126-.442.207-.17.088-.139.166-.318.224-.081.026-.216.124-.215.224.001.115.005.051.012.169-.021.011-.021-.005-.03-.025M54.118-56.348a.25.25 0 0 1-.026.19c-.053.101-.112.063-.165.128a.64.64 0 0 0-.079.362c-.169.058-.009.227-.015.35-.002.05-.041.105-.045.161a.76.76 0 0 0 .068.37c.097.198.268.413.435.544.19.148.365.572.608.631.177.042.384-.104.543-.143.18-.043.397.01.571-.053.222-.079.127-.337.288-.45.104-.074.287-.01.406-.051a.61.61 0 0 0 .376-.46c.016-.082.01-.145.039-.221.039-.103.111-.16.09-.293-.01-.062-.052-.12-.064-.187-.022-.114.002-.224 0-.337-.003-.2.017-.379-.078-.55-.38-.688-1.236-.929-1.975-.789-.18.034-.287.126-.442.207-.17.088-.139.166-.318.224-.081.026-.216.124-.215.224.001.115.005.051.012.169-.021.011-.021-.005-.03-.025M46.458-56.348a.25.25 0 0 1-.026.19c-.053.101-.112.063-.165.128a.64.64 0 0 0-.079.362c-.169.058-.009.227-.015.35-.002.05-.041.105-.045.161a.76.76 0 0 0 .068.37c.097.198.268.413.435.544.19.148.365.572.608.631.177.042.384-.104.543-.143.18-.043.397.01.571-.053.222-.079.127-.337.288-.45.104-.074.287-.01.406-.051a.61.61 0 0 0 .376-.46c.016-.082.01-.145.039-.221.039-.103.111-.16.09-.293-.01-.062-.052-.12-.064-.187-.022-.114.002-.224 0-.337-.003-.2.017-.379-.078-.55-.38-.688-1.236-.929-1.975-.789-.18.034-.287.126-.442.207-.17.088-.139.166-.318.224-.081.026-.216.124-.215.224.001.115.005.051.012.169-.021.011-.021-.005-.03-.025M38.797-56.348a.25.25 0 0 1-.026.19c-.053.101-.112.063-.165.128a.64.64 0 0 0-.079.362c-.169.058-.009.227-.015.35-.002.05-.041.105-.045.161a.76.76 0 0 0 .068.37c.097.198.268.413.435.544.19.148.365.572.608.631.177.042.384-.104.543-.143.18-.043.397.01.571-.053.222-.079.127-.337.288-.45.104-.074.287-.01.406-.051a.61.61 0 0 0 .376-.46c.016-.082.01-.145.039-.221.039-.103.111-.16.09-.293-.01-.062-.052-.12-.064-.187-.022-.114.002-.224 0-.337-.003-.2.017-.379-.078-.55-.38-.688-1.236-.929-1.975-.789-.18.034-.287.126-.442.207-.17.088-.139.166-.318.224-.081.026-.216.124-.215.224.001.115.005.051.012.169-.021.011-.021-.005-.03-.025M31.137-56.348a.25.25 0 0 1-.026.19c-.053.101-.112.063-.165.128a.64.64 0 0 0-.079.362c-.169.058-.009.227-.015.35-.002.05-.041.105-.045.161a.76.76 0 0 0 .068.37c.097.198.268.413.435.544.19.148.365.572.608.631.177.042.384-.104.543-.143.18-.043.397.01.571-.053.222-.079.127-.337.288-.45.104-.074.287-.01.406-.051a.61.61 0 0 0 .376-.46c.016-.082.01-.145.039-.221.039-.103.111-.16.09-.293-.01-.062-.052-.12-.064-.187-.022-.114.002-.224 0-.337-.003-.2.017-.379-.078-.55-.38-.688-1.236-.929-1.975-.789-.18.034-.287.126-.442.207-.17.088-.139.166-.318.224-.081.026-.216.124-.215.224.001.115.005.051.012.169-.021.011-.021-.005-.03-.025M23.477-56.348a.25.25 0 0 1-.026.19c-.053.101-.112.063-.165.128a.64.64 0 0 0-.079.362c-.169.058-.009.227-.015.35-.002.05-.041.105-.045.161a.76.76 0 0 0 .068.37c.097.198.268.413.435.544.19.148.365.572.608.631.177.042.384-.104.543-.143.18-.043.397.01.571-.053.222-.079.127-.337.288-.45.104-.074.287-.01.406-.051a.61.61 0 0 0 .376-.46c.016-.082.01-.145.039-.221.039-.103.111-.16.09-.293-.01-.062-.052-.12-.064-.187-.022-.114.002-.224 0-.337-.003-.2.017-.379-.078-.55-.38-.688-1.236-.929-1.975-.789-.18.034-.287.126-.442.207-.17.088-.139.166-.318.224-.081.026-.216.124-.215.224.001.115.005.051.012.169-.021.011-.021-.005-.03-.025M15.816-56.348a.25.25 0 0 1-.026.19c-.053.101-.112.063-.165.128a.64.64 0 0 0-.079.362c-.169.058-.009.227-.015.35-.002.05-.041.105-.045.161a.76.76 0 0 0 .068.37c.097.198.268.413.435.544.19.148.365.572.608.631.177.042.384-.104.543-.143.18-.043.397.01.571-.053.222-.079.127-.337.288-.45.104-.074.287-.01.406-.051a.61.61 0 0 0 .376-.46c.016-.082.01-.145.039-.221.039-.103.111-.16.09-.293-.01-.062-.052-.12-.064-.187-.022-.114.002-.224 0-.337-.003-.2.017-.379-.078-.55-.38-.688-1.236-.929-1.975-.789-.18.034-.287.126-.442.207-.17.088-.139.166-.318.224-.081.026-.216.124-.215.224.001.115.005.051.012.169-.021.011-.021-.005-.03-.025M8.156-56.348a.25.25 0 0 1-.026.19c-.053.101-.112.063-.165.128a.64.64 0 0 0-.079.362c-.169.058-.009.227-.015.35-.002.05-.041.105-.045.161a.76.76 0 0 0 .068.37c.097.198.268.413.435.544.19.148.365.572.608.631.177.042.384-.104.543-.143.18-.043.397.01.571-.053.222-.079.127-.337.288-.45.104-.074.287-.01.406-.051a.61.61 0 0 0 .376-.46c.016-.082.01-.145.039-.221.039-.103.111-.16.09-.293-.01-.062-.052-.12-.064-.187-.022-.114.002-.224 0-.337-.003-.2.017-.379-.078-.55-.38-.688-1.236-.929-1.975-.789-.18.034-.287.126-.442.207-.17.088-.139.166-.318.224-.081.026-.216.124-.215.224.001.115.005.051.012.169-.021.011-.021-.005-.03-.025M.495-56.348a.25.25 0 0 1-.026.19c-.053.101-.112.063-.165.128a.64.64 0 0 0-.079.362c-.169.058-.01.227-.015.35-.002.05-.041.105-.045.161a.76.76 0 0 0 .068.37c.097.198.268.413.435.544.19.148.365.572.608.631.177.042.384-.104.543-.143.18-.043.397.01.571-.053.222-.079.127-.337.288-.45.104-.074.287-.01.406-.051a.61.61 0 0 0 .376-.46c.016-.082.01-.145.039-.221.039-.103.111-.16.09-.293-.01-.062-.052-.12-.064-.187-.022-.114.002-.224 0-.337-.003-.2.017-.379-.078-.55-.38-.688-1.236-.929-1.975-.789-.18.034-.287.126-.442.207-.17.088-.139.166-.318.224-.081.026-.216.124-.215.224.003.117.006.053.013.171-.021.011-.021-.005-.03-.025M69.439-48.695a.25.25 0 0 1-.026.19c-.053.101-.112.063-.165.128a.64.64 0 0 0-.079.362c-.169.058-.01.227-.015.35-.002.05-.041.105-.045.161a.76.76 0 0 0 .068.37c.097.198.268.413.435.544.19.148.365.572.608.631.177.042.384-.104.543-.143.18-.043.397.01.571-.053.222-.079.127-.337.288-.45.104-.074.287-.01.406-.051a.61.61 0 0 0 .376-.46c.016-.082.01-.145.039-.221.039-.103.111-.16.09-.293-.01-.062-.052-.12-.064-.187-.022-.114.002-.224 0-.337-.003-.2.017-.379-.078-.55-.38-.688-1.236-.929-1.975-.789-.18.034-.287.126-.442.207-.17.088-.139.166-.318.224-.081.026-.216.124-.215.224.001.115.005.051.012.169-.021.011-.021-.005-.03-.025M61.778-48.695a.25.25 0 0 1-.026.19c-.053.101-.112.063-.165.128a.64.64 0 0 0-.079.362c-.169.058-.009.227-.015.35-.002.05-.041.105-.045.161a.76.76 0 0 0 .068.37c.097.198.268.413.435.544.19.148.365.572.608.631.177.042.384-.104.543-.143.18-.043.397.01.571-.053.222-.079.127-.337.288-.45.104-.074.287-.01.406-.051a.61.61 0 0 0 .376-.46c.016-.082.01-.145.039-.221.039-.103.111-.16.09-.293-.01-.062-.052-.12-.064-.187-.022-.114.002-.224 0-.337-.003-.2.017-.379-.078-.55-.38-.688-1.236-.929-1.975-.789-.18.034-.287.126-.442.207-.17.088-.139.166-.318.224-.081.026-.216.124-.215.224.001.115.005.051.012.169-.021.011-.021-.005-.03-.025M54.118-48.695a.25.25 0 0 1-.026.19c-.053.101-.112.063-.165.128a.64.64 0 0 0-.079.362c-.169.058-.009.227-.015.35-.002.05-.041.105-.045.161a.76.76 0 0 0 .068.37c.097.198.268.413.435.544.19.148.365.572.608.631.177.042.384-.104.543-.143.18-.043.397.01.571-.053.222-.079.127-.337.288-.45.104-.074.287-.01.406-.051a.61.61 0 0 0 .376-.46c.016-.082.01-.145.039-.221.039-.103.111-.16.09-.293-.01-.062-.052-.12-.064-.187-.022-.114.002-.224 0-.337-.003-.2.017-.379-.078-.55-.38-.688-1.236-.929-1.975-.789-.18.034-.287.126-.442.207-.17.088-.139.166-.318.224-.081.026-.216.124-.215.224.001.115.005.051.012.169-.021.011-.021-.005-.03-.025M46.458-48.695a.25.25 0 0 1-.026.19c-.053.101-.112.063-.165.128a.64.64 0 0 0-.079.362c-.169.058-.009.227-.015.35-.002.05-.041.105-.045.161a.76.76 0 0 0 .068.37c.097.198.268.413.435.544.19.148.365.572.608.631.177.042.384-.104.543-.143.18-.043.397.01.571-.053.222-.079.127-.337.288-.45.104-.074.287-.01.406-.051a.61.61 0 0 0 .376-.46c.016-.082.01-.145.039-.221.039-.103.111-.16.09-.293-.01-.062-.052-.12-.064-.187-.022-.114.002-.224 0-.337-.003-.2.017-.379-.078-.55-.38-.688-1.236-.929-1.975-.789-.18.034-.287.126-.442.207-.17.088-.139.166-.318.224-.081.026-.216.124-.215.224.001.115.005.051.012.169-.021.011-.021-.005-.03-.025M38.797-48.695a.25.25 0 0 1-.026.19c-.053.101-.112.063-.165.128a.64.64 0 0 0-.079.362c-.169.058-.009.227-.015.35-.002.05-.041.105-.045.161a.76.76 0 0 0 .068.37c.097.198.268.413.435.544.19.148.365.572.608.631.177.042.384-.104.543-.143.18-.043.397.01.571-.053.222-.079.127-.337.288-.45.104-.074.287-.01.406-.051a.61.61 0 0 0 .376-.46c.016-.082.01-.145.039-.221.039-.103.111-.16.09-.293-.01-.062-.052-.12-.064-.187-.022-.114.002-.224 0-.337-.003-.2.017-.379-.078-.55-.38-.688-1.236-.929-1.975-.789-.18.034-.287.126-.442.207-.17.088-.139.166-.318.224-.081.026-.216.124-.215.224.001.115.005.051.012.169-.021.011-.021-.005-.03-.025M31.137-48.695a.25.25 0 0 1-.026.19c-.053.101-.112.063-.165.128a.64.64 0 0 0-.079.362c-.169.058-.009.227-.015.35-.002.05-.041.105-.045.161a.76.76 0 0 0 .068.37c.097.198.268.413.435.544.19.148.365.572.608.631.177.042.384-.104.543-.143.18-.043.397.01.571-.053.222-.079.127-.337.288-.45.104-.074.287-.01.406-.051a.61.61 0 0 0 .376-.46c.016-.082.01-.145.039-.221.039-.103.111-.16.09-.293-.01-.062-.052-.12-.064-.187-.022-.114.002-.224 0-.337-.003-.2.017-.379-.078-.55-.38-.688-1.236-.929-1.975-.789-.18.034-.287.126-.442.207-.17.088-.139.166-.318.224-.081.026-.216.124-.215.224.001.115.005.051.012.169-.021.011-.021-.005-.03-.025M23.477-48.695a.25.25 0 0 1-.026.19c-.053.101-.112.063-.165.128a.64.64 0 0 0-.079.362c-.169.058-.009.227-.015.35-.002.05-.041.105-.045.161a.76.76 0 0 0 .068.37c.097.198.268.413.435.544.19.148.365.572.608.631.177.042.384-.104.543-.143.18-.043.397.01.571-.053.222-.079.127-.337.288-.45.104-.074.287-.01.406-.051a.61.61 0 0 0 .376-.46c.016-.082.01-.145.039-.221.039-.103.111-.16.09-.293-.01-.062-.052-.12-.064-.187-.022-.114.002-.224 0-.337-.003-.2.017-.379-.078-.55-.38-.688-1.236-.929-1.975-.789-.18.034-.287.126-.442.207-.17.088-.139.166-.318.224-.081.026-.216.124-.215.224.001.115.005.051.012.169-.021.011-.021-.005-.03-.025M15.816-48.695a.25.25 0 0 1-.026.19c-.053.101-.112.063-.165.128a.64.64 0 0 0-.079.362c-.169.058-.009.227-.015.35-.002.05-.041.105-.045.161a.76.76 0 0 0 .068.37c.097.198.268.413.435.544.19.148.365.572.608.631.177.042.384-.104.543-.143.18-.043.397.01.571-.053.222-.079.127-.337.288-.45.104-.074.287-.01.406-.051a.61.61 0 0 0 .376-.46c.016-.082.01-.145.039-.221.039-.103.111-.16.09-.293-.01-.062-.052-.12-.064-.187-.022-.114.002-.224 0-.337-.003-.2.017-.379-.078-.55-.38-.688-1.236-.929-1.975-.789-.18.034-.287.126-.442.207-.17.088-.139.166-.318.224-.081.026-.216.124-.215.224.001.115.005.051.012.169-.021.011-.021-.005-.03-.025M8.156-48.695a.25.25 0 0 1-.026.19c-.053.101-.112.063-.165.128a.64.64 0 0 0-.079.362c-.169.058-.009.227-.015.35-.002.05-.041.105-.045.161a.76.76 0 0 0 .068.37c.097.198.268.413.435.544.19.148.365.572.608.631.177.042.384-.104.543-.143.18-.043.397.01.571-.053.222-.079.127-.337.288-.45.104-.074.287-.01.406-.051a.61.61 0 0 0 .376-.46c.016-.082.01-.145.039-.221.039-.103.111-.16.09-.293-.01-.062-.052-.12-.064-.187-.022-.114.002-.224 0-.337-.003-.2.017-.379-.078-.55-.38-.688-1.236-.929-1.975-.789-.18.034-.287.126-.442.207-.17.088-.139.166-.318.224-.081.026-.216.124-.215.224.001.115.005.051.012.169-.021.011-.021-.005-.03-.025M.495-48.695a.25.25 0 0 1-.026.19c-.053.101-.112.063-.165.128a.64.64 0 0 0-.079.362c-.169.058-.01.227-.015.35-.002.05-.041.105-.045.161a.76.76 0 0 0 .068.37c.097.198.268.413.435.544.19.148.365.572.608.631.177.042.384-.104.543-.143.18-.043.397.01.571-.053.222-.079.127-.337.288-.45.104-.074.287-.01.406-.051a.61.61 0 0 0 .376-.46c.016-.082.01-.145.039-.221.039-.103.111-.16.09-.293-.01-.062-.052-.12-.064-.187-.022-.114.002-.224 0-.337-.003-.2.017-.379-.078-.55-.38-.688-1.236-.929-1.975-.789-.18.034-.287.126-.442.207-.17.088-.139.166-.318.224-.081.026-.216.124-.215.224.001.115.005.051.012.169-.021.011-.021-.005-.03-.025M69.439-41.042a.25.25 0 0 1-.026.19c-.053.101-.112.063-.165.128a.64.64 0 0 0-.079.362c-.169.058-.01.227-.015.35-.002.05-.041.105-.045.161a.76.76 0 0 0 .068.37c.097.198.268.413.435.544.19.148.365.572.608.631.177.042.384-.104.543-.143.18-.043.397.01.571-.053.222-.079.127-.337.288-.45.104-.074.287-.01.406-.051a.61.61 0 0 0 .376-.46c.016-.082.01-.145.039-.221.039-.103.111-.16.09-.293-.01-.062-.052-.12-.064-.187-.022-.114.002-.224 0-.337-.003-.2.017-.379-.078-.55-.38-.688-1.236-.929-1.975-.789-.18.034-.287.126-.442.207-.17.088-.139.166-.318.224-.081.026-.216.124-.215.224.001.115.005.051.012.169-.021.011-.021-.005-.03-.025M61.778-41.042a.25.25 0 0 1-.026.19c-.053.101-.112.063-.165.128a.64.64 0 0 0-.079.362c-.169.058-.009.227-.015.35-.002.05-.041.105-.045.161a.76.76 0 0 0 .068.37c.097.198.268.413.435.544.19.148.365.572.608.631.177.042.384-.104.543-.143.18-.043.397.01.571-.053.222-.079.127-.337.288-.45.104-.074.287-.01.406-.051a.61.61 0 0 0 .376-.46c.016-.082.01-.145.039-.221.039-.103.111-.16.09-.293-.01-.062-.052-.12-.064-.187-.022-.114.002-.224 0-.337-.003-.2.017-.379-.078-.55-.38-.688-1.236-.929-1.975-.789-.18.034-.287.126-.442.207-.17.088-.139.166-.318.224-.081.026-.216.124-.215.224.001.115.005.051.012.169-.021.011-.021-.005-.03-.025M54.118-41.042a.25.25 0 0 1-.026.19c-.053.101-.112.063-.165.128a.64.64 0 0 0-.079.362c-.169.058-.009.227-.015.35-.002.05-.041.105-.045.161a.76.76 0 0 0 .068.37c.097.198.268.413.435.544.19.148.365.572.608.631.177.042.384-.104.543-.143.18-.043.397.01.571-.053.222-.079.127-.337.288-.45.104-.074.287-.01.406-.051a.61.61 0 0 0 .376-.46c.016-.082.01-.145.039-.221.039-.103.111-.16.09-.293-.01-.062-.052-.12-.064-.187-.022-.114.002-.224 0-.337-.003-.2.017-.379-.078-.55-.38-.688-1.236-.929-1.975-.789-.18.034-.287.126-.442.207-.17.088-.139.166-.318.224-.081.026-.216.124-.215.224.001.115.005.051.012.169-.021.011-.021-.005-.03-.025M46.458-41.042a.25.25 0 0 1-.026.19c-.053.101-.112.063-.165.128a.64.64 0 0 0-.079.362c-.169.058-.009.227-.015.35-.002.05-.041.105-.045.161a.76.76 0 0 0 .068.37c.097.198.268.413.435.544.19.148.365.572.608.631.177.042.384-.104.543-.143.18-.043.397.01.571-.053.222-.079.127-.337.288-.45.104-.074.287-.01.406-.051a.61.61 0 0 0 .376-.46c.016-.082.01-.145.039-.221.039-.103.111-.16.09-.293-.01-.062-.052-.12-.064-.187-.022-.114.002-.224 0-.337-.003-.2.017-.379-.078-.55-.38-.688-1.236-.929-1.975-.789-.18.034-.287.126-.442.207-.17.088-.139.166-.318.224-.081.026-.216.124-.215.224.001.115.005.051.012.169-.021.011-.021-.005-.03-.025M38.797-41.042a.25.25 0 0 1-.026.19c-.053.101-.112.063-.165.128a.64.64 0 0 0-.079.362c-.169.058-.009.227-.015.35-.002.05-.041.105-.045.161a.76.76 0 0 0 .068.37c.097.198.268.413.435.544.19.148.365.572.608.631.177.042.384-.104.543-.143.18-.043.397.01.571-.053.222-.079.127-.337.288-.45.104-.074.287-.01.406-.051a.61.61 0 0 0 .376-.46c.016-.082.01-.145.039-.221.039-.103.111-.16.09-.293-.01-.062-.052-.12-.064-.187-.022-.114.002-.224 0-.337-.003-.2.017-.379-.078-.55-.38-.688-1.236-.929-1.975-.789-.18.034-.287.126-.442.207-.17.088-.139.166-.318.224-.081.026-.216.124-.215.224.001.115.005.051.012.169-.021.011-.021-.005-.03-.025M31.137-41.042a.25.25 0 0 1-.026.19c-.053.101-.112.063-.165.128a.64.64 0 0 0-.079.362c-.169.058-.009.227-.015.35-.002.05-.041.105-.045.161a.76.76 0 0 0 .068.37c.097.198.268.413.435.544.19.148.365.572.608.631.177.042.384-.104.543-.143.18-.043.397.01.571-.053.222-.079.127-.337.288-.45.104-.074.287-.01.406-.051a.61.61 0 0 0 .376-.46c.016-.082.01-.145.039-.221.039-.103.111-.16.09-.293-.01-.062-.052-.12-.064-.187-.022-.114.002-.224 0-.337-.003-.2.017-.379-.078-.55-.38-.688-1.236-.929-1.975-.789-.18.034-.287.126-.442.207-.17.088-.139.166-.318.224-.081.026-.216.124-.215.224.001.115.005.051.012.169-.021.011-.021-.005-.03-.025M23.477-41.042a.25.25 0 0 1-.026.19c-.053.101-.112.063-.165.128a.64.64 0 0 0-.079.362c-.169.058-.009.227-.015.35-.002.05-.041.105-.045.161a.76.76 0 0 0 .068.37c.097.198.268.413.435.544.19.148.365.572.608.631.177.042.384-.104.543-.143.18-.043.397.01.571-.053.222-.079.127-.337.288-.45.104-.074.287-.01.406-.051a.61.61 0 0 0 .376-.46c.016-.082.01-.145.039-.221.039-.103.111-.16.09-.293-.01-.062-.052-.12-.064-.187-.022-.114.002-.224 0-.337-.003-.2.017-.379-.078-.55-.38-.688-1.236-.929-1.975-.789-.18.034-.287.126-.442.207-.17.088-.139.166-.318.224-.081.026-.216.124-.215.224.001.115.005.051.012.169-.021.011-.021-.005-.03-.025M15.816-41.042a.25.25 0 0 1-.026.19c-.053.101-.112.063-.165.128a.64.64 0 0 0-.079.362c-.169.058-.009.227-.015.35-.002.05-.041.105-.045.161a.76.76 0 0 0 .068.37c.097.198.268.413.435.544.19.148.365.572.608.631.177.042.384-.104.543-.143.18-.043.397.01.571-.053.222-.079.127-.337.288-.45.104-.074.287-.01.406-.051a.61.61 0 0 0 .376-.46c.016-.082.01-.145.039-.221.039-.103.111-.16.09-.293-.01-.062-.052-.12-.064-.187-.022-.114.002-.224 0-.337-.003-.2.017-.379-.078-.55-.38-.688-1.236-.929-1.975-.789-.18.034-.287.126-.442.207-.17.088-.139.166-.318.224-.081.026-.216.124-.215.224.001.115.005.051.012.169-.021.011-.021-.005-.03-.025M8.156-41.042a.25.25 0 0 1-.026.19c-.053.101-.112.063-.165.128a.64.64 0 0 0-.079.362c-.169.058-.009.227-.015.35-.002.05-.041.105-.045.161a.76.76 0 0 0 .068.37c.097.198.268.413.435.544.19.148.365.572.608.631.177.042.384-.104.543-.143.18-.043.397.01.571-.053.222-.079.127-.337.288-.45.104-.074.287-.01.406-.051a.61.61 0 0 0 .376-.46c.016-.082.01-.145.039-.221.039-.103.111-.16.09-.293-.01-.062-.052-.12-.064-.187-.022-.114.002-.224 0-.337-.003-.2.017-.379-.078-.55-.38-.688-1.236-.929-1.975-.789-.18.034-.287.126-.442.207-.17.088-.139.166-.318.224-.081.026-.216.124-.215.224.001.115.005.051.012.169-.02.012-.021-.004-.03-.024M.495-41.042a.25.25 0 0 1-.026.19c-.053.101-.112.063-.165.128a.64.64 0 0 0-.079.362c-.169.058-.01.227-.015.35-.002.05-.041.105-.045.161a.76.76 0 0 0 .068.37c.097.198.268.413.435.544.19.148.365.572.608.631.177.042.384-.104.543-.143.18-.043.397.01.571-.053.222-.079.127-.337.288-.45.104-.074.287-.01.406-.051a.61.61 0 0 0 .376-.46c.016-.082.01-.145.039-.221.039-.103.111-.16.09-.293-.01-.062-.052-.12-.064-.187-.022-.114.002-.224 0-.337-.003-.2.017-.379-.078-.55-.38-.688-1.236-.929-1.975-.789-.18.034-.287.126-.442.207-.17.088-.139.166-.318.224-.081.026-.216.124-.215.224.001.115.005.051.012.169-.021.011-.021-.005-.03-.025M69.439-33.39a.25.25 0 0 1-.026.19c-.053.101-.112.063-.165.128a.64.64 0 0 0-.079.362c-.169.058-.01.227-.015.35-.002.05-.041.105-.045.161a.76.76 0 0 0 .068.37c.097.198.268.413.435.544.19.148.365.572.608.631.177.042.384-.104.543-.143.18-.043.397.01.571-.053.222-.079.127-.337.288-.45.104-.074.287-.01.406-.051a.61.61 0 0 0 .376-.46c.016-.082.01-.145.039-.221.039-.103.111-.16.09-.293-.01-.062-.052-.12-.064-.187-.022-.114.002-.224 0-.337-.003-.2.017-.379-.078-.55-.38-.688-1.236-.929-1.975-.789-.18.034-.287.126-.442.207-.17.088-.139.166-.318.224-.081.026-.216.124-.215.224.001.115.005.051.012.169-.021.011-.021-.005-.03-.025M61.778-33.39a.25.25 0 0 1-.026.19c-.053.101-.112.063-.165.128a.64.64 0 0 0-.079.362c-.169.058-.009.227-.015.35-.002.05-.041.105-.045.161a.76.76 0 0 0 .068.37c.097.198.268.413.435.544.19.148.365.572.608.631.177.042.384-.104.543-.143.18-.043.397.01.571-.053.222-.079.127-.337.288-.45.104-.074.287-.01.406-.051a.61.61 0 0 0 .376-.46c.016-.082.01-.145.039-.221.039-.103.111-.16.09-.293-.01-.062-.052-.12-.064-.187-.022-.114.002-.224 0-.337-.003-.2.017-.379-.078-.55-.38-.688-1.236-.929-1.975-.789-.18.034-.287.126-.442.207-.17.088-.139.166-.318.224-.081.026-.216.124-.215.224.001.115.005.051.012.169-.021.011-.021-.005-.03-.025M54.118-33.39a.25.25 0 0 1-.026.19c-.053.101-.112.063-.165.128a.64.64 0 0 0-.079.362c-.169.058-.009.227-.015.35-.002.05-.041.105-.045.161a.76.76 0 0 0 .068.37c.097.198.268.413.435.544.19.148.365.572.608.631.177.042.384-.104.543-.143.18-.043.397.01.571-.053.222-.079.127-.337.288-.45.104-.074.287-.01.406-.051a.61.61 0 0 0 .376-.46c.016-.082.01-.145.039-.221.039-.103.111-.16.09-.293-.01-.062-.052-.12-.064-.187-.022-.114.002-.224 0-.337-.003-.2.017-.379-.078-.55-.38-.688-1.236-.929-1.975-.789-.18.034-.287.126-.442.207-.17.088-.139.166-.318.224-.081.026-.216.124-.215.224.001.115.005.051.012.169-.021.011-.021-.005-.03-.025M46.458-33.39a.25.25 0 0 1-.026.19c-.053.101-.112.063-.165.128a.64.64 0 0 0-.079.362c-.169.058-.009.227-.015.35-.002.05-.041.105-.045.161a.76.76 0 0 0 .068.37c.097.198.268.413.435.544.19.148.365.572.608.631.177.042.384-.104.543-.143.18-.043.397.01.571-.053.222-.079.127-.337.288-.45.104-.074.287-.01.406-.051a.61.61 0 0 0 .376-.46c.016-.082.01-.145.039-.221.039-.103.111-.16.09-.293-.01-.062-.052-.12-.064-.187-.022-.114.002-.224 0-.337-.003-.2.017-.379-.078-.55-.38-.688-1.236-.929-1.975-.789-.18.034-.287.126-.442.207-.17.088-.139.166-.318.224-.081.026-.216.124-.215.224.001.115.005.051.012.169-.021.011-.021-.005-.03-.025M38.797-33.39a.25.25 0 0 1-.026.19c-.053.101-.112.063-.165.128a.64.64 0 0 0-.079.362c-.169.058-.009.227-.015.35-.002.05-.041.105-.045.161a.76.76 0 0 0 .068.37c.097.198.268.413.435.544.19.148.365.572.608.631.177.042.384-.104.543-.143.18-.043.397.01.571-.053.222-.079.127-.337.288-.45.104-.074.287-.01.406-.051a.61.61 0 0 0 .376-.46c.016-.082.01-.145.039-.221.039-.103.111-.16.09-.293-.01-.062-.052-.12-.064-.187-.022-.114.002-.224 0-.337-.003-.2.017-.379-.078-.55-.38-.688-1.236-.929-1.975-.789-.18.034-.287.126-.442.207-.17.088-.139.166-.318.224-.081.026-.216.124-.215.224.001.115.005.051.012.169-.021.011-.021-.005-.03-.025M31.137-33.39a.25.25 0 0 1-.026.19c-.053.101-.112.063-.165.128a.64.64 0 0 0-.079.362c-.169.058-.009.227-.015.35-.002.05-.041.105-.045.161a.76.76 0 0 0 .068.37c.097.198.268.413.435.544.19.148.365.572.608.631.177.042.384-.104.543-.143.18-.043.397.01.571-.053.222-.079.127-.337.288-.45.104-.074.287-.01.406-.051a.61.61 0 0 0 .376-.46c.016-.082.01-.145.039-.221.039-.103.111-.16.09-.293-.01-.062-.052-.12-.064-.187-.022-.114.002-.224 0-.337-.003-.2.017-.379-.078-.55-.38-.688-1.236-.929-1.975-.789-.18.034-.287.126-.442.207-.17.088-.139.166-.318.224-.081.026-.216.124-.215.224.001.115.005.051.012.169-.021.011-.021-.005-.03-.025M23.477-33.39a.25.25 0 0 1-.026.19c-.053.101-.112.063-.165.128a.64.64 0 0 0-.079.362c-.169.058-.009.227-.015.35-.002.05-.041.105-.045.161a.76.76 0 0 0 .068.37c.097.198.268.413.435.544.19.148.365.572.608.631.177.042.384-.104.543-.143.18-.043.397.01.571-.053.222-.079.127-.337.288-.45.104-.074.287-.01.406-.051a.61.61 0 0 0 .376-.46c.016-.082.01-.145.039-.221.039-.103.111-.16.09-.293-.01-.062-.052-.12-.064-.187-.022-.114.002-.224 0-.337-.003-.2.017-.379-.078-.55-.38-.688-1.236-.929-1.975-.789-.18.034-.287.126-.442.207-.17.088-.139.166-.318.224-.081.026-.216.124-.215.224.001.115.005.051.012.169-.021.011-.021-.005-.03-.025M15.816-33.39a.25.25 0 0 1-.026.19c-.053.101-.112.063-.165.128a.64.64 0 0 0-.079.362c-.169.058-.009.227-.015.35-.002.05-.041.105-.045.161a.76.76 0 0 0 .068.37c.097.198.268.413.435.544.19.148.365.572.608.631.177.042.384-.104.543-.143.18-.043.397.01.571-.053.222-.079.127-.337.288-.45.104-.074.287-.01.406-.051a.61.61 0 0 0 .376-.46c.016-.082.01-.145.039-.221.039-.103.111-.16.09-.293-.01-.062-.052-.12-.064-.187-.022-.114.002-.224 0-.337-.003-.2.017-.379-.078-.55-.38-.688-1.236-.929-1.975-.789-.18.034-.287.126-.442.207-.17.088-.139.166-.318.224-.081.026-.216.124-.215.224.001.115.005.051.012.169-.021.011-.021-.005-.03-.025M8.156-33.39a.25.25 0 0 1-.026.19c-.053.101-.112.063-.165.128a.64.64 0 0 0-.079.362c-.169.058-.009.227-.015.35-.002.05-.041.105-.045.161a.76.76 0 0 0 .068.37c.097.198.268.413.435.544.19.148.365.572.608.631.177.042.384-.104.543-.143.18-.043.397.01.571-.053.222-.079.127-.337.288-.45.104-.074.287-.01.406-.051a.61.61 0 0 0 .376-.46c.016-.082.01-.145.039-.221.039-.103.111-.16.09-.293-.01-.062-.052-.12-.064-.187-.022-.114.002-.224 0-.337-.003-.2.017-.379-.078-.55-.38-.688-1.236-.929-1.975-.789-.18.034-.287.126-.442.207-.17.088-.139.166-.318.224-.081.026-.216.124-.215.224.001.115.005.051.012.169-.021.011-.021-.005-.03-.025M.495-33.39a.25.25 0 0 1-.026.19c-.053.101-.112.063-.165.128a.64.64 0 0 0-.079.362c-.169.058-.01.227-.015.35-.002.05-.041.105-.045.161a.76.76 0 0 0 .068.37c.097.198.268.413.435.544.19.148.365.572.608.631.177.042.384-.104.543-.143.18-.043.397.01.571-.053.222-.079.127-.337.288-.45.104-.074.287-.01.406-.051a.61.61 0 0 0 .376-.46c.016-.082.01-.145.039-.221.039-.103.111-.16.09-.293-.01-.062-.052-.12-.064-.187-.022-.114.002-.224 0-.337-.003-.2.017-.379-.078-.55-.38-.688-1.236-.929-1.975-.789-.18.034-.287.126-.442.207-.17.088-.139.166-.318.224-.081.026-.216.124-.215.224.003.117.006.053.013.171-.021.011-.021-.005-.03-.025M69.439-25.736a.25.25 0 0 1-.026.19c-.053.101-.112.063-.165.128a.64.64 0 0 0-.079.362c-.169.058-.01.227-.015.35-.002.05-.041.105-.045.161a.76.76 0 0 0 .068.37c.097.198.268.413.435.544.19.148.365.572.608.631.177.042.384-.104.543-.143.18-.043.397.01.571-.053.222-.079.127-.337.288-.45.104-.074.287-.01.406-.051a.61.61 0 0 0 .376-.46c.016-.082.01-.145.039-.221.039-.103.111-.16.09-.293-.01-.062-.052-.12-.064-.187-.022-.114.002-.224 0-.337-.003-.2.017-.379-.078-.55-.38-.688-1.236-.929-1.975-.789-.18.034-.287.126-.442.207-.17.088-.139.166-.318.224-.081.026-.216.124-.215.224.001.115.005.051.012.169-.021.011-.021-.005-.03-.025M61.778-25.736a.25.25 0 0 1-.026.19c-.053.101-.112.063-.165.128a.64.64 0 0 0-.079.362c-.169.058-.009.227-.015.35-.002.05-.041.105-.045.161a.76.76 0 0 0 .068.37c.097.198.268.413.435.544.19.148.365.572.608.631.177.042.384-.104.543-.143.18-.043.397.01.571-.053.222-.079.127-.337.288-.45.104-.074.287-.01.406-.051a.61.61 0 0 0 .376-.46c.016-.082.01-.145.039-.221.039-.103.111-.16.09-.293-.01-.062-.052-.12-.064-.187-.022-.114.002-.224 0-.337-.003-.2.017-.379-.078-.55-.38-.688-1.236-.929-1.975-.789-.18.034-.287.126-.442.207-.17.088-.139.166-.318.224-.081.026-.216.124-.215.224.001.115.005.051.012.169-.021.011-.021-.005-.03-.025M54.118-25.736a.25.25 0 0 1-.026.19c-.053.101-.112.063-.165.128a.64.64 0 0 0-.079.362c-.169.058-.009.227-.015.35-.002.05-.041.105-.045.161a.76.76 0 0 0 .068.37c.097.198.268.413.435.544.19.148.365.572.608.631.177.042.384-.104.543-.143.18-.043.397.01.571-.053.222-.079.127-.337.288-.45.104-.074.287-.01.406-.051a.61.61 0 0 0 .376-.46c.016-.082.01-.145.039-.221.039-.103.111-.16.09-.293-.01-.062-.052-.12-.064-.187-.022-.114.002-.224 0-.337-.003-.2.017-.379-.078-.55-.38-.688-1.236-.929-1.975-.789-.18.034-.287.126-.442.207-.17.088-.139.166-.318.224-.081.026-.216.124-.215.224.001.115.005.051.012.169-.021.011-.021-.005-.03-.025M46.458-25.736a.25.25 0 0 1-.026.19c-.053.101-.112.063-.165.128a.64.64 0 0 0-.079.362c-.169.058-.009.227-.015.35-.002.05-.041.105-.045.161a.76.76 0 0 0 .068.37c.097.198.268.413.435.544.19.148.365.572.608.631.177.042.384-.104.543-.143.18-.043.397.01.571-.053.222-.079.127-.337.288-.45.104-.074.287-.01.406-.051a.61.61 0 0 0 .376-.46c.016-.082.01-.145.039-.221.039-.103.111-.16.09-.293-.01-.062-.052-.12-.064-.187-.022-.114.002-.224 0-.337-.003-.2.017-.379-.078-.55-.38-.688-1.236-.929-1.975-.789-.18.034-.287.126-.442.207-.17.088-.139.166-.318.224-.081.026-.216.124-.215.224.001.115.005.051.012.169-.021.011-.021-.005-.03-.025M38.797-25.736a.25.25 0 0 1-.026.19c-.053.101-.112.063-.165.128a.64.64 0 0 0-.079.362c-.169.058-.009.227-.015.35-.002.05-.041.105-.045.161a.76.76 0 0 0 .068.37c.097.198.268.413.435.544.19.148.365.572.608.631.177.042.384-.104.543-.143.18-.043.397.01.571-.053.222-.079.127-.337.288-.45.104-.074.287-.01.406-.051a.61.61 0 0 0 .376-.46c.016-.082.01-.145.039-.221.039-.103.111-.16.09-.293-.01-.062-.052-.12-.064-.187-.022-.114.002-.224 0-.337-.003-.2.017-.379-.078-.55-.38-.688-1.236-.929-1.975-.789-.18.034-.287.126-.442.207-.17.088-.139.166-.318.224-.081.026-.216.124-.215.224.001.115.005.051.012.169-.021.011-.021-.005-.03-.025M31.137-25.736a.25.25 0 0 1-.026.19c-.053.101-.112.063-.165.128a.64.64 0 0 0-.079.362c-.169.058-.009.227-.015.35-.002.05-.041.105-.045.161a.76.76 0 0 0 .068.37c.097.198.268.413.435.544.19.148.365.572.608.631.177.042.384-.104.543-.143.18-.043.397.01.571-.053.222-.079.127-.337.288-.45.104-.074.287-.01.406-.051a.61.61 0 0 0 .376-.46c.016-.082.01-.145.039-.221.039-.103.111-.16.09-.293-.01-.062-.052-.12-.064-.187-.022-.114.002-.224 0-.337-.003-.2.017-.379-.078-.55-.38-.688-1.236-.929-1.975-.789-.18.034-.287.126-.442.207-.17.088-.139.166-.318.224-.081.026-.216.124-.215.224.001.115.005.051.012.169-.021.011-.021-.005-.03-.025M23.477-25.736a.25.25 0 0 1-.026.19c-.053.101-.112.063-.165.128a.64.64 0 0 0-.079.362c-.169.058-.009.227-.015.35-.002.05-.041.105-.045.161a.76.76 0 0 0 .068.37c.097.198.268.413.435.544.19.148.365.572.608.631.177.042.384-.104.543-.143.18-.043.397.01.571-.053.222-.079.127-.337.288-.45.104-.074.287-.01.406-.051a.61.61 0 0 0 .376-.46c.016-.082.01-.145.039-.221.039-.103.111-.16.09-.293-.01-.062-.052-.12-.064-.187-.022-.114.002-.224 0-.337-.003-.2.017-.379-.078-.55-.38-.688-1.236-.929-1.975-.789-.18.034-.287.126-.442.207-.17.088-.139.166-.318.224-.081.026-.216.124-.215.224.001.115.005.051.012.169-.021.011-.021-.005-.03-.025M15.816-25.736a.25.25 0 0 1-.026.19c-.053.101-.112.063-.165.128a.64.64 0 0 0-.079.362c-.169.058-.009.227-.015.35-.002.05-.041.105-.045.161a.76.76 0 0 0 .068.37c.097.198.268.413.435.544.19.148.365.572.608.631.177.042.384-.104.543-.143.18-.043.397.01.571-.053.222-.079.127-.337.288-.45.104-.074.287-.01.406-.051a.61.61 0 0 0 .376-.46c.016-.082.01-.145.039-.221.039-.103.111-.16.09-.293-.01-.062-.052-.12-.064-.187-.022-.114.002-.224 0-.337-.003-.2.017-.379-.078-.55-.38-.688-1.236-.929-1.975-.789-.18.034-.287.126-.442.207-.17.088-.139.166-.318.224-.081.026-.216.124-.215.224.001.115.005.051.012.169-.021.011-.021-.005-.03-.025M8.156-25.736a.25.25 0 0 1-.026.19c-.053.101-.112.063-.165.128a.64.64 0 0 0-.079.362c-.169.058-.009.227-.015.35-.002.05-.041.105-.045.161a.76.76 0 0 0 .068.37c.097.198.268.413.435.544.19.148.365.572.608.631.177.042.384-.104.543-.143.18-.043.397.01.571-.053.222-.079.127-.337.288-.45.104-.074.287-.01.406-.051a.61.61 0 0 0 .376-.46c.016-.082.01-.145.039-.221.039-.103.111-.16.09-.293-.01-.062-.052-.12-.064-.187-.022-.114.002-.224 0-.337-.003-.2.017-.379-.078-.55-.38-.688-1.236-.929-1.975-.789-.18.034-.287.126-.442.207-.17.088-.139.166-.318.224-.081.026-.216.124-.215.224.001.115.005.051.012.169-.021.011-.021-.005-.03-.025M.495-25.736a.25.25 0 0 1-.026.19c-.053.101-.112.063-.165.128a.64.64 0 0 0-.079.362c-.169.058-.01.227-.015.35-.002.05-.041.105-.045.161a.76.76 0 0 0 .068.37c.097.198.268.413.435.544.19.148.365.572.608.631.177.042.384-.104.543-.143.18-.043.397.01.571-.053.222-.079.127-.337.288-.45.104-.074.287-.01.406-.051a.61.61 0 0 0 .376-.46c.016-.082.01-.145.039-.221.039-.103.111-.16.09-.293-.01-.062-.052-.12-.064-.187-.022-.114.002-.224 0-.337-.003-.2.017-.379-.078-.55-.38-.688-1.236-.929-1.975-.789-.18.034-.287.126-.442.207-.17.088-.139.166-.318.224-.081.026-.216.124-.215.224.001.115.005.051.012.169-.021.011-.021-.005-.03-.025M69.439-18.084a.25.25 0 0 1-.026.19c-.053.101-.112.063-.165.128a.64.64 0 0 0-.079.362c-.169.058-.01.227-.015.35-.002.05-.041.105-.045.161a.76.76 0 0 0 .068.37c.097.198.268.413.435.544.19.148.365.572.608.631.177.042.384-.104.543-.143.18-.043.397.01.571-.053.222-.079.127-.337.288-.45.104-.074.287-.01.406-.051a.61.61 0 0 0 .376-.46c.016-.082.01-.145.039-.221.039-.103.111-.16.09-.293-.01-.062-.052-.12-.064-.187-.022-.114.002-.224 0-.337-.003-.2.017-.379-.078-.55-.38-.688-1.236-.929-1.975-.789-.18.034-.287.126-.442.207-.17.088-.139.166-.318.224-.081.026-.216.124-.215.224.001.115.005.051.012.169-.021.011-.021-.005-.03-.025M61.778-18.084a.25.25 0 0 1-.026.19c-.053.101-.112.063-.165.128a.64.64 0 0 0-.079.362c-.169.058-.009.227-.015.35-.002.05-.041.105-.045.161a.76.76 0 0 0 .068.37c.097.198.268.413.435.544.19.148.365.572.608.631.177.042.384-.104.543-.143.18-.043.397.01.571-.053.222-.079.127-.337.288-.45.104-.074.287-.01.406-.051a.61.61 0 0 0 .376-.46c.016-.082.01-.145.039-.221.039-.103.111-.16.09-.293-.01-.062-.052-.12-.064-.187-.022-.114.002-.224 0-.337-.003-.2.017-.379-.078-.55-.38-.688-1.236-.929-1.975-.789-.18.034-.287.126-.442.207-.17.088-.139.166-.318.224-.081.026-.216.124-.215.224.001.115.005.051.012.169-.021.011-.021-.005-.03-.025M54.118-18.084a.25.25 0 0 1-.026.19c-.053.101-.112.063-.165.128a.64.64 0 0 0-.079.362c-.169.058-.009.227-.015.35-.002.05-.041.105-.045.161a.76.76 0 0 0 .068.37c.097.198.268.413.435.544.19.148.365.572.608.631.177.042.384-.104.543-.143.18-.043.397.01.571-.053.222-.079.127-.337.288-.45.104-.074.287-.01.406-.051a.61.61 0 0 0 .376-.46c.016-.082.01-.145.039-.221.039-.103.111-.16.09-.293-.01-.062-.052-.12-.064-.187-.022-.114.002-.224 0-.337-.003-.2.017-.379-.078-.55-.38-.688-1.236-.929-1.975-.789-.18.034-.287.126-.442.207-.17.088-.139.166-.318.224-.081.026-.216.124-.215.224.001.115.005.051.012.169-.021.011-.021-.005-.03-.025M46.458-18.084a.25.25 0 0 1-.026.19c-.053.101-.112.063-.165.128a.64.64 0 0 0-.079.362c-.169.058-.009.227-.015.35-.002.05-.041.105-.045.161a.76.76 0 0 0 .068.37c.097.198.268.413.435.544.19.148.365.572.608.631.177.042.384-.104.543-.143.18-.043.397.01.571-.053.222-.079.127-.337.288-.45.104-.074.287-.01.406-.051a.61.61 0 0 0 .376-.46c.016-.082.01-.145.039-.221.039-.103.111-.16.09-.293-.01-.062-.052-.12-.064-.187-.022-.114.002-.224 0-.337-.003-.2.017-.379-.078-.55-.38-.688-1.236-.929-1.975-.789-.18.034-.287.126-.442.207-.17.088-.139.166-.318.224-.081.026-.216.124-.215.224.001.115.005.051.012.169-.021.011-.021-.005-.03-.025M38.797-18.084a.25.25 0 0 1-.026.19c-.053.101-.112.063-.165.128a.64.64 0 0 0-.079.362c-.169.058-.009.227-.015.35-.002.05-.041.105-.045.161a.76.76 0 0 0 .068.37c.097.198.268.413.435.544.19.148.365.572.608.631.177.042.384-.104.543-.143.18-.043.397.01.571-.053.222-.079.127-.337.288-.45.104-.074.287-.01.406-.051a.61.61 0 0 0 .376-.46c.016-.082.01-.145.039-.221.039-.103.111-.16.09-.293-.01-.062-.052-.12-.064-.187-.022-.114.002-.224 0-.337-.003-.2.017-.379-.078-.55-.38-.688-1.236-.929-1.975-.789-.18.034-.287.126-.442.207-.17.088-.139.166-.318.224-.081.026-.216.124-.215.224.001.115.005.051.012.169-.021.011-.021-.005-.03-.025M31.137-18.084a.25.25 0 0 1-.026.19c-.053.101-.112.063-.165.128a.64.64 0 0 0-.079.362c-.169.058-.009.227-.015.35-.002.05-.041.105-.045.161a.76.76 0 0 0 .068.37c.097.198.268.413.435.544.19.148.365.572.608.631.177.042.384-.104.543-.143.18-.043.397.01.571-.053.222-.079.127-.337.288-.45.104-.074.287-.01.406-.051a.61.61 0 0 0 .376-.46c.016-.082.01-.145.039-.221.039-.103.111-.16.09-.293-.01-.062-.052-.12-.064-.187-.022-.114.002-.224 0-.337-.003-.2.017-.379-.078-.55-.38-.688-1.236-.929-1.975-.789-.18.034-.287.126-.442.207-.17.088-.139.166-.318.224-.081.026-.216.124-.215.224.001.115.005.051.012.169-.021.011-.021-.005-.03-.025M23.477-18.084a.25.25 0 0 1-.026.19c-.053.101-.112.063-.165.128a.64.64 0 0 0-.079.362c-.169.058-.009.227-.015.35-.002.05-.041.105-.045.161a.76.76 0 0 0 .068.37c.097.198.268.413.435.544.19.148.365.572.608.631.177.042.384-.104.543-.143.18-.043.397.01.571-.053.222-.079.127-.337.288-.45.104-.074.287-.01.406-.051a.61.61 0 0 0 .376-.46c.016-.082.01-.145.039-.221.039-.103.111-.16.09-.293-.01-.062-.052-.12-.064-.187-.022-.114.002-.224 0-.337-.003-.2.017-.379-.078-.55-.38-.688-1.236-.929-1.975-.789-.18.034-.287.126-.442.207-.17.088-.139.166-.318.224-.081.026-.216.124-.215.224.001.115.005.051.012.169-.021.011-.021-.005-.03-.025M15.816-18.084a.25.25 0 0 1-.026.19c-.053.101-.112.063-.165.128a.64.64 0 0 0-.079.362c-.169.058-.009.227-.015.35-.002.05-.041.105-.045.161a.76.76 0 0 0 .068.37c.097.198.268.413.435.544.19.148.365.572.608.631.177.042.384-.104.543-.143.18-.043.397.01.571-.053.222-.079.127-.337.288-.45.104-.074.287-.01.406-.051a.61.61 0 0 0 .376-.46c.016-.082.01-.145.039-.221.039-.103.111-.16.09-.293-.01-.062-.052-.12-.064-.187-.022-.114.002-.224 0-.337-.003-.2.017-.379-.078-.55-.38-.688-1.236-.929-1.975-.789-.18.034-.287.126-.442.207-.17.088-.139.166-.318.224-.081.026-.216.124-.215.224.001.115.005.051.012.169-.021.011-.021-.005-.03-.025M8.156-18.084a.25.25 0 0 1-.026.19c-.053.101-.112.063-.165.128a.64.64 0 0 0-.079.362c-.169.058-.009.227-.015.35-.002.05-.041.105-.045.161a.76.76 0 0 0 .068.37c.097.198.268.413.435.544.19.148.365.572.608.631.177.042.384-.104.543-.143.18-.043.397.01.571-.053.222-.079.127-.337.288-.45.104-.074.287-.01.406-.051a.61.61 0 0 0 .376-.46c.016-.082.01-.145.039-.221.039-.103.111-.16.09-.293-.01-.062-.052-.12-.064-.187-.022-.114.002-.224 0-.337-.003-.2.017-.379-.078-.55-.38-.688-1.236-.929-1.975-.789-.18.034-.287.126-.442.207-.17.088-.139.166-.318.224-.081.026-.216.124-.215.224.001.115.005.051.012.169-.021.011-.021-.005-.03-.025M.495-18.084a.25.25 0 0 1-.026.19c-.053.101-.112.063-.165.128a.64.64 0 0 0-.079.362c-.169.058-.01.227-.015.35-.002.05-.041.105-.045.161a.76.76 0 0 0 .068.37c.097.198.268.413.435.544.19.148.365.572.608.631.177.042.384-.104.543-.143.18-.043.397.01.571-.053.222-.079.127-.337.288-.45.104-.074.287-.01.406-.051a.61.61 0 0 0 .376-.46c.016-.082.01-.145.039-.221.039-.103.111-.16.09-.293-.01-.062-.052-.12-.064-.187-.022-.114.002-.224 0-.337-.003-.2.017-.379-.078-.55-.38-.688-1.236-.929-1.975-.789-.18.034-.287.126-.442.207-.17.088-.139.166-.318.224-.081.026-.216.124-.215.224.003.117.006.052.013.17-.021.011-.021-.005-.03-.025M69.439-10.431a.25.25 0 0 1-.026.19c-.053.101-.112.063-.165.128a.64.64 0 0 0-.079.362c-.169.059-.01.228-.015.351-.002.05-.041.105-.045.161a.76.76 0 0 0 .068.37c.097.198.268.413.435.544.19.148.365.572.608.631.177.042.384-.104.543-.143.18-.043.397.01.571-.053.222-.079.127-.337.288-.45.104-.074.287-.01.406-.051a.61.61 0 0 0 .376-.46c.016-.082.01-.145.039-.221.039-.103.111-.16.09-.293-.01-.062-.052-.12-.064-.187-.022-.114.002-.224 0-.337-.003-.2.017-.379-.078-.55-.38-.688-1.236-.929-1.975-.789-.18.034-.287.126-.442.207-.17.088-.139.166-.318.224-.081.026-.216.124-.215.224.001.115.005.051.012.169-.021.011-.021-.005-.03-.025M61.778-10.431a.25.25 0 0 1-.026.19c-.053.101-.112.063-.165.128a.64.64 0 0 0-.079.362c-.169.058-.009.227-.015.35-.002.05-.041.105-.045.161a.76.76 0 0 0 .068.37c.097.198.268.413.435.544.19.148.365.572.608.631.177.042.384-.104.543-.143.18-.043.397.01.571-.053.222-.079.127-.337.288-.45.104-.074.287-.01.406-.051a.61.61 0 0 0 .376-.46c.016-.082.01-.145.039-.221.039-.103.111-.16.09-.293-.01-.062-.052-.12-.064-.187-.022-.114.002-.224 0-.337-.003-.2.017-.379-.078-.55-.38-.688-1.236-.929-1.975-.789-.18.034-.287.126-.442.207-.17.088-.139.166-.318.224-.081.026-.216.124-.215.224.001.115.005.051.012.169-.021.011-.021-.005-.03-.025M54.118-10.431a.25.25 0 0 1-.026.19c-.053.101-.112.063-.165.128a.64.64 0 0 0-.079.362c-.169.058-.009.227-.015.35-.002.05-.041.105-.045.161a.76.76 0 0 0 .068.37c.097.198.268.413.435.544.19.148.365.572.608.631.177.042.384-.104.543-.143.18-.043.397.01.571-.053.222-.079.127-.337.288-.45.104-.074.287-.01.406-.051a.61.61 0 0 0 .376-.46c.016-.082.01-.145.039-.221.039-.103.111-.16.09-.293-.01-.062-.052-.12-.064-.187-.022-.114.002-.224 0-.337-.003-.2.017-.379-.078-.55-.38-.688-1.236-.929-1.975-.789-.18.034-.287.126-.442.207-.17.088-.139.166-.318.224-.081.026-.216.124-.215.224.001.115.005.051.012.169-.021.011-.021-.005-.03-.025M46.458-10.431a.25.25 0 0 1-.026.19c-.053.101-.112.063-.165.128a.64.64 0 0 0-.079.362c-.169.058-.009.227-.015.35-.002.05-.041.105-.045.161a.76.76 0 0 0 .068.37c.097.198.268.413.435.544.19.148.365.572.608.631.177.042.384-.104.543-.143.18-.043.397.01.571-.053.222-.079.127-.337.288-.45.104-.074.287-.01.406-.051a.61.61 0 0 0 .376-.46c.016-.082.01-.145.039-.221.039-.103.111-.16.09-.293-.01-.062-.052-.12-.064-.187-.022-.114.002-.224 0-.337-.003-.2.017-.379-.078-.55-.38-.688-1.236-.929-1.975-.789-.18.034-.287.126-.442.207-.17.088-.139.166-.318.224-.081.026-.216.124-.215.224.001.115.005.051.012.169-.021.011-.021-.005-.03-.025M38.797-10.431a.25.25 0 0 1-.026.19c-.053.101-.112.063-.165.128a.64.64 0 0 0-.079.362c-.169.058-.009.227-.015.35-.002.05-.041.105-.045.161a.76.76 0 0 0 .068.37c.097.198.268.413.435.544.19.148.365.572.608.631.177.042.384-.104.543-.143.18-.043.397.01.571-.053.222-.079.127-.337.288-.45.104-.074.287-.01.406-.051a.61.61 0 0 0 .376-.46c.016-.082.01-.145.039-.221.039-.103.111-.16.09-.293-.01-.062-.052-.12-.064-.187-.022-.114.002-.224 0-.337-.003-.2.017-.379-.078-.55-.38-.688-1.236-.929-1.975-.789-.18.034-.287.126-.442.207-.17.088-.139.166-.318.224-.081.026-.216.124-.215.224.001.115.005.051.012.169-.021.011-.021-.005-.03-.025M31.137-10.431a.25.25 0 0 1-.026.19c-.053.101-.112.063-.165.128a.64.64 0 0 0-.079.362c-.169.058-.009.227-.015.35-.002.05-.041.105-.045.161a.76.76 0 0 0 .068.37c.097.198.268.413.435.544.19.148.365.572.608.631.177.042.384-.104.543-.143.18-.043.397.01.571-.053.222-.079.127-.337.288-.45.104-.074.287-.01.406-.051a.61.61 0 0 0 .376-.46c.016-.082.01-.145.039-.221.039-.103.111-.16.09-.293-.01-.062-.052-.12-.064-.187-.022-.114.002-.224 0-.337-.003-.2.017-.379-.078-.55-.38-.688-1.236-.929-1.975-.789-.18.034-.287.126-.442.207-.17.088-.139.166-.318.224-.081.026-.216.124-.215.224.001.115.005.051.012.169-.021.011-.021-.005-.03-.025M23.477-10.431a.25.25 0 0 1-.026.19c-.053.101-.112.063-.165.128a.64.64 0 0 0-.079.362c-.169.058-.009.227-.015.35-.002.05-.041.105-.045.161a.76.76 0 0 0 .068.37c.097.198.268.413.435.544.19.148.365.572.608.631.177.042.384-.104.543-.143.18-.043.397.01.571-.053.222-.079.127-.337.288-.45.104-.074.287-.01.406-.051a.61.61 0 0 0 .376-.46c.016-.082.01-.145.039-.221.039-.103.111-.16.09-.293-.01-.062-.052-.12-.064-.187-.022-.114.002-.224 0-.337-.003-.2.017-.379-.078-.55-.38-.688-1.236-.929-1.975-.789-.18.034-.287.126-.442.207-.17.088-.139.166-.318.224-.081.026-.216.124-.215.224.001.115.005.051.012.169-.021.011-.021-.005-.03-.025M15.816-10.431a.25.25 0 0 1-.026.19c-.053.101-.112.063-.165.128a.64.64 0 0 0-.079.362c-.169.058-.009.227-.015.35-.002.05-.041.105-.045.161a.76.76 0 0 0 .068.37c.097.198.268.413.435.544.19.148.365.572.608.631.177.042.384-.104.543-.143.18-.043.397.01.571-.053.222-.078.128-.336.289-.449.104-.074.287-.01.406-.051a.61.61 0 0 0 .376-.46c.016-.082.01-.145.039-.221.039-.103.111-.16.09-.293-.01-.062-.052-.12-.064-.187-.022-.114.002-.224 0-.337-.003-.2.017-.379-.078-.55-.38-.688-1.236-.929-1.975-.789-.18.034-.287.126-.442.207-.17.088-.139.166-.318.224-.081.026-.216.124-.215.224.001.115.005.051.012.169-.021.011-.021-.005-.03-.025M8.156-10.431a.25.25 0 0 1-.026.19c-.053.101-.112.063-.165.128a.64.64 0 0 0-.079.363c-.169.058-.01.227-.015.35-.003.049-.041.105-.045.161a.76.76 0 0 0 .068.37c.097.198.268.413.435.544.19.148.365.572.608.631.177.042.384-.105.543-.143.18-.043.397.01.571-.053.222-.079.127-.337.288-.45.104-.074.287-.01.406-.051a.61.61 0 0 0 .376-.46c.016-.082.01-.145.039-.221.039-.103.111-.16.09-.293-.01-.062-.052-.12-.064-.187-.022-.114.002-.224 0-.337-.003-.2.017-.379-.078-.55-.38-.688-1.236-.929-1.975-.789-.18.034-.287.126-.442.207-.17.088-.139.166-.318.224-.081.026-.216.124-.215.224.001.115.005.051.012.169-.021.011-.021-.005-.03-.025M.495-10.431a.25.25 0 0 1-.026.19c-.053.101-.112.063-.165.128a.64.64 0 0 0-.079.363c-.169.058-.01.227-.015.35-.002.05-.041.105-.045.161a.76.76 0 0 0 .068.37c.097.198.268.413.435.544.19.148.365.572.608.631.178.042.384-.105.543-.143.181-.043.398.01.572-.053.222-.079.127-.337.288-.45.104-.074.287-.01.406-.051a.61.61 0 0 0 .376-.46c.016-.082.01-.144.039-.22.039-.103.111-.16.09-.293-.01-.062-.052-.12-.064-.187-.022-.114.002-.224 0-.337-.003-.2.017-.379-.078-.55-.38-.688-1.236-.929-1.975-.789-.18.034-.287.126-.442.207-.17.088-.139.166-.318.224-.081.026-.216.124-.215.224.001.115.005.051.012.169-.021.011-.021-.005-.03-.025"/></g><g fill="#fff"><path d="M69.439-2.778a.24.24 0 0 1-.026.19c-.052.101-.113.063-.165.128a.63.63 0 0 0-.079.362c-.169.058-.01.227-.015.35-.002.05-.041.105-.045.161a.76.76 0 0 0 .068.37c.097.198.268.413.435.544.19.148.365.572.608.631.177.042.384-.104.543-.143.18-.043.397.01.571-.053.222-.079.127-.337.288-.45.104-.074.287-.01.406-.051.2-.07.339-.263.376-.46.016-.082.01-.145.039-.221.038-.103.111-.16.09-.293-.01-.062-.051-.12-.064-.187-.021-.114.002-.224 0-.337-.003-.2.017-.379-.078-.55-.38-.688-1.236-.929-1.975-.789-.18.034-.287.126-.442.207-.17.088-.139.166-.318.224-.081.026-.215.124-.215.224.002.115.005.051.012.169-.021.011-.021-.005-.03-.025M61.778-2.778a.25.25 0 0 1-.026.19c-.052.101-.112.063-.165.128a.64.64 0 0 0-.079.362c-.169.058-.01.227-.015.35-.002.05-.041.105-.045.161a.76.76 0 0 0 .068.37c.097.198.268.413.435.544.19.148.365.572.608.631.178.042.384-.104.544-.143.18-.043.397.01.571-.053.222-.079.127-.337.288-.45.104-.074.287-.01.406-.051a.61.61 0 0 0 .376-.46c.016-.082.01-.145.039-.221.039-.103.111-.16.09-.293-.01-.062-.052-.12-.064-.187-.022-.114.002-.224 0-.337-.003-.2.017-.379-.078-.55-.38-.688-1.236-.929-1.975-.789-.18.034-.287.126-.442.207-.17.088-.139.166-.318.224-.081.028-.216.125-.215.225.001.115.005.051.012.169-.021.011-.021-.005-.03-.025M54.118-2.778a.25.25 0 0 1-.026.19c-.052.101-.112.063-.165.128a.64.64 0 0 0-.079.362c-.169.058-.01.227-.015.35-.002.05-.041.105-.045.161a.76.76 0 0 0 .068.37c.097.198.268.413.435.544.19.148.365.572.608.631.178.042.384-.104.543-.143.18-.043.397.01.571-.053.222-.079.127-.337.288-.45.104-.074.287-.01.406-.051a.61.61 0 0 0 .376-.46c.016-.082.01-.145.039-.221.039-.103.111-.16.09-.293-.01-.062-.052-.12-.064-.187-.022-.114.002-.224 0-.337-.003-.2.017-.379-.078-.55-.38-.688-1.236-.929-1.975-.789-.18.034-.287.126-.442.207-.17.088-.139.166-.318.224-.08.028-.215.125-.214.225.001.115.005.051.012.169-.021.011-.021-.005-.03-.025M46.458-2.778a.25.25 0 0 1-.026.19c-.053.101-.112.063-.165.128a.64.64 0 0 0-.079.362c-.169.058-.01.227-.015.35-.002.05-.041.105-.045.161a.76.76 0 0 0 .068.37c.097.198.268.413.435.544.19.148.365.572.608.631.177.042.384-.104.543-.143.18-.043.397.01.571-.053.222-.079.127-.337.288-.45.104-.074.287-.01.406-.051a.61.61 0 0 0 .376-.46c.016-.082.01-.145.039-.221.039-.103.111-.16.09-.293-.01-.062-.052-.12-.064-.187-.022-.114.002-.224 0-.337-.003-.2.017-.379-.078-.55-.38-.688-1.236-.929-1.975-.789-.18.034-.287.126-.442.207-.17.088-.139.166-.318.224-.081.028-.216.125-.215.225.001.115.005.051.012.169-.021.011-.021-.005-.03-.025M38.797-2.778a.25.25 0 0 1-.026.19c-.053.101-.112.063-.165.128a.64.64 0 0 0-.079.362c-.169.058-.01.227-.015.35-.002.05-.041.105-.045.161a.76.76 0 0 0 .068.37c.097.198.268.413.435.544.19.148.365.572.608.631.178.042.384-.104.544-.143.18-.043.397.01.571-.053.222-.079.127-.337.288-.45.104-.074.287-.01.406-.051a.61.61 0 0 0 .376-.46c.016-.082.01-.145.039-.221.039-.103.111-.16.09-.293-.01-.062-.052-.12-.064-.187-.022-.114.002-.224 0-.337-.003-.2.017-.379-.078-.55-.38-.688-1.236-.929-1.975-.789-.18.034-.287.126-.442.207-.17.088-.139.166-.318.224-.081.028-.216.125-.215.225.001.115.005.051.012.169-.021.011-.021-.005-.03-.025M31.137-2.778a.25.25 0 0 1-.026.19c-.053.101-.112.063-.165.128a.64.64 0 0 0-.079.362c-.169.058-.01.227-.015.35-.002.05-.041.105-.045.161a.76.76 0 0 0 .068.37c.097.198.268.413.435.544.19.148.365.572.608.631.177.042.384-.104.543-.143.18-.043.397.01.571-.053.222-.079.127-.337.288-.45.104-.074.287-.01.406-.051a.61.61 0 0 0 .376-.46c.016-.082.01-.145.039-.221.039-.103.111-.16.09-.293-.01-.062-.052-.12-.064-.187-.022-.114.002-.224 0-.337-.003-.2.017-.379-.078-.55-.38-.688-1.236-.929-1.975-.789-.18.034-.287.126-.442.207-.17.088-.139.166-.318.224-.081.028-.215.125-.214.225.001.115.005.051.012.169-.021.011-.021-.005-.03-.025M23.477-2.778a.25.25 0 0 1-.026.19c-.053.101-.112.063-.165.128a.64.64 0 0 0-.079.362c-.169.058-.01.227-.015.35-.002.05-.041.105-.045.161a.76.76 0 0 0 .068.37c.097.198.268.413.435.544.19.148.365.572.608.631.177.042.384-.104.543-.143.18-.043.397.01.571-.053.222-.079.127-.337.288-.45.104-.074.287-.01.406-.051a.61.61 0 0 0 .376-.46c.016-.082.01-.145.039-.221.039-.103.111-.16.09-.293-.01-.062-.052-.12-.064-.187-.022-.114.002-.224 0-.337-.003-.2.017-.379-.078-.55-.38-.688-1.236-.929-1.975-.789-.18.034-.287.126-.442.207-.17.088-.139.166-.318.224-.081.026-.216.124-.215.224.001.115.005.051.012.169-.021.011-.021-.005-.03-.025M15.816-2.778a.25.25 0 0 1-.026.19c-.053.101-.112.063-.165.128a.64.64 0 0 0-.079.362c-.169.058-.01.227-.015.35-.002.05-.041.105-.045.161a.76.76 0 0 0 .068.37c.097.198.268.413.435.544.19.148.365.572.608.631.177.042.384-.104.543-.143.18-.043.397.01.571-.053.222-.079.127-.337.288-.45.104-.074.287-.01.406-.051a.61.61 0 0 0 .376-.46c.016-.082.01-.145.039-.221.039-.103.111-.16.09-.293-.01-.062-.052-.12-.064-.187-.022-.114.002-.224 0-.337-.003-.2.017-.379-.078-.55-.38-.688-1.236-.929-1.975-.789-.18.034-.287.126-.442.207-.17.088-.139.166-.318.224-.081.026-.216.124-.215.224.001.115.005.051.012.169-.02.012-.021-.004-.03-.024M8.156-2.778a.25.25 0 0 1-.026.19c-.053.101-.112.063-.165.128a.64.64 0 0 0-.079.362c-.169.058-.01.227-.015.35-.003.05-.041.105-.045.161a.76.76 0 0 0 .068.37c.097.198.268.413.435.544.19.148.365.572.608.631.177.042.384-.104.543-.143.18-.043.397.01.571-.053.222-.079.127-.337.288-.45.104-.074.287-.01.406-.051a.61.61 0 0 0 .376-.46c.016-.082.01-.145.039-.221.039-.103.111-.16.09-.293-.01-.062-.052-.12-.064-.187-.022-.114.002-.224 0-.337-.003-.2.017-.379-.078-.55-.38-.688-1.236-.929-1.975-.789-.179.036-.286.128-.441.209-.17.088-.139.166-.318.224-.082.026-.216.123-.215.223.001.115.005.051.011.169-.02.011-.021-.005-.03-.025M.495-2.778a.24.24 0 0 1-.026.19c-.052.101-.113.063-.165.128a.63.63 0 0 0-.079.362c-.169.058-.01.227-.015.35-.002.05-.041.105-.045.161a.76.76 0 0 0 .068.37c.097.198.268.413.435.544.19.148.365.572.608.631.178.042.384-.104.543-.143.181-.043.398.01.572-.052.222-.079.127-.337.288-.45.104-.074.287-.01.406-.051.2-.07.339-.263.376-.46.016-.082.01-.145.039-.221.038-.103.111-.16.09-.293-.01-.062-.051-.12-.064-.187-.021-.114.002-.224 0-.337-.003-.2.017-.379-.078-.55-.38-.688-1.236-.929-1.975-.789-.18.035-.286.127-.442.208-.17.088-.139.166-.318.224-.081.026-.215.123-.215.223.002.115.005.051.012.169-.021.011-.022-.005-.031-.025"/></g><path fill="#e23546" d="M73.16 6.182c-.695.662-1.646 2.374-1.646 4.774V25.78c0 1.23-.455 2.402-1.187 3.066-.385.354-2.801 2.546-2.95 2.662h1.394c.422-.402 4.817-4.275 5.274-4.801.596-.682 2.021-2.403 2.021-5.108l.01-14.245c0-2.137.989-3.322 1.507-3.895.526-.586 2.193-2.027 2.62-2.408l-1.377-.014c-.397.368-5.189 4.694-5.666 5.145M62.28 60.149l5.38 4.701h3.607c3.662 0 7.007-1.57 9.22-3.781 2.211-2.211 3.027-5.178 3.027-7.957v-7.707c0-2.59-1.624-4.098-2.079-4.549-.246-.244-1.815-1.724-1.815-1.724v5.916s1.727 1.78 2.066 2.14c1.601 1.699 1.583 4.787-3.471 9.713-.888.863-3.413 3.248-6.888 3.248z"/><path fill="#e23546" d="M84.173 32.831s1.544 1.773 2.152 2.248c2.036 1.603 2.929-.229 1.619-2.323-.31-.502-1.576-1.343-3.771.075m-6.926-4.307c-.602.633-1.172 2.184-1.172 3.551v2.92h2.954c1.153 0 2.194-.856 3.002-1.603.021-.038 0-2.897 0-2.897s.758.871 1.432 1.572c.992-.906 3.549-3.58 5.408-3.58 3.768 0 2.914 4.721 1.372 6.239-.497.491-2.72 2.529-3.408 3.183-1.776 1.695-4.823.885-4.823-3.489 0 0-3.265 3.101-3.76 3.51-.498.413-2.177 2.196-2.177 2.196v7.689c0 3.689-1.119 5.018-2.222 6.037a823 823 0 0 1-5.169 4.678h-1.406s2.554-2.229 3.037-2.734c.555-.57 1.198-1.742 1.198-3.689 0-.492-.06-12.082-.06-12.082H52.566c-6.57 0-7.973-7.289-8.014-9.238-.011-.576 0-6.397 0-7.303 0-1.201-.766-3.219-1.992-3.844h1.851c.215.092 1.379.563 1.379 5.031 0 0-.078 5.201-.078 5.479 0 2.266 1.801 4.866 4.406 4.866l21.375-.021c.02-.575.599-2.758 1.626-3.907.578-.652 5.166-4.847 5.688-5.251l1.357-.014c-.197.187-2.424 2.176-2.917 2.701"/><path fill="#e23546" d="M61.344 46.673c0 1.029-3.294 3.773-3.487 3.965-.238-1.111-1.07-2.338-3.527-4.797l3.607-3.609c2.417 2.417 3.407 2.933 3.407 4.441M55.03 25.446c-.986 1.035-1.16 1.295-2.085 1.849h11.289c3.062 0 2.45-1.897 1.898-2.856-1.119-1.965-4.672-5.613-4.672-5.613s-6.222 6.403-6.43 6.62M67.6 5.312c.726.727 2.284 2.686 1.349 3.622-.827.826-2.105 2.14-2.105 2.14-.061-.475-1.262-1.612-1.262-1.612s.011 3.485 0 3.917c-.038 1.572-.635 2.021-.635 2.021s2.908 2.883 2.908 6.59c0 1.799.005 3.449.005 3.805 0 .762-.191 1.348-.721 1.931-.262.29-2.954 3-3.365 3.37-.779.702-1.598.82-2.215.82H51.538c-1.578 0-3.206-1.231-3.206-2.467 0-.306.022-3.713.022-3.713.512.592 1.036 1.289 2.298 1.272.987-.019 2.021-.791 2.303-1.069.283-.287 7.58-7.912 7.58-7.912s-3.415-3.166-5.669-4.674c-1.1-.732-2.554.195-2.772 1.165-.694 3.029 0 7.583 0 7.583s-2.23-2.229-2.767-2.762c-1.118-1.118-1.074-3.645.253-4.971.207-.213 2.23-2.494 4.801-2.494h4.001c2.682 0 5.577 2.629 5.577 2.629s.429-.475.429-.928c0-1.375-.01-5.043-.01-5.043-2.018-2.021-2.29-4.102-1.322-5.072 1.802-1.807 2.465-2.439 2.465-2.439s-.022 2.187 2.079 4.291"/><path fill="#e23546" d="M42.16 35.718h-1.853s1.994 1.096 1.994 3.916v9.008c0 5.859 4.835 11.281 10.71 11.281h4.905c2.945 0 3.979-.713 5.762-2.295.65-.58 1.498-1.531 1.813-1.879 1.024-1.148 2.115-2.074 2.115-5.096v-2.951c0-2.547-1.478-3.607-2.185-4.318a145 145 0 0 0-1.715-1.657v6.038s1.235 1.316 1.784 1.748c2.545 2.01.524 5.518-1.849 5.518l-10.773.004c-4.146 0-9.33-3.439-9.33-9.392v-4.896c.002-5.029-1.378-5.029-1.378-5.029"/><path fill="#e23546" d="M53.971 46.69c0 1.029-3.297 3.771-3.49 3.963-.236-1.111-1.07-2.34-3.529-4.799l3.61-3.609c2.417 2.42 3.409 2.937 3.409 4.445M16.229 86.776l-5.772-.006c-1.806 0-1.665-1.518-1.823-2.785v-8.301s1.266-.031 2.656-.031c1.604 0 3.607-.236 5.55.865 0 0-1.4-3.352-5.561-3.352H8.634v-2.662s0-2.324-.571-2.986c0 0 3.537.012 3.787.014 3.309.004 5.873-.049 8.539 1.699 0 0-.511-4.361-6.921-4.361H1.008s2.225 1.857 2.093 5.623l.132 15.082c0 3.816 1.484 3.879 1.484 3.879H16.99c2.792 0 3.762-1.957 3.762-3.053l.041-1.455c-.001 0-.886 1.83-4.564 1.83M48.893 85.491V74.942c0-4.09-3.365-5.182-5.848-5.182-3.283 0-4.279 2.766-4.696 3.695-.744-2.559-3.325-3.729-5.442-3.729-3.956 0-4.971 3.791-4.971 3.791s-.096-3.654-3.307-3.654l-3.131.006s1.8.748 1.8 3.908l-.003 11.713c0 3.904 1.569 3.941 1.569 3.941h5.196c-.137-.037-1.998-1.447-1.998-3.971V75.073c.065-.467.849-2.016 3.09-2.016 1.229 0 2.607 1.297 2.585 2.781l-.008 9.648c0 3.934 1.548 3.943 1.548 3.943h5.214s-1.996-1.395-1.996-3.979l-.016-10.389c.193-.582.883-1.977 2.854-1.977 1.538 0 2.828 1.299 2.791 2.785 0 0-.011 8.811-.007 9.629.026 3.951 1.55 3.92 1.55 3.92 2.717 0 5.216.01 5.216.01s-1.99-1.368-1.99-3.937M57.952 85.485c0 2.6 2 3.945 2 3.945s-2.476-.01-5.195-.01c0 0-1.547.018-1.547-3.902V85.5l.007-11.754c0-3.092-1.798-3.887-1.798-3.887h3.099c1.106 0 3.419 0 3.419 4.375l-.008 11.232zM73.892 71.343s-.501-1.412-2.654-1.412c-3.259 0-4.053 3.852-4.053 3.852-.271-3.039-1.086-3.945-3.342-3.945l-3.146.004s1.828.754 1.828 3.906l-.009 11.734c0 3.906 1.563 3.943 1.563 3.943h5.146c-.132-.037-1.987-1.449-1.987-3.979l.008-9.592a2.76 2.76 0 0 1 1.272-1.996c1.703-1.082 4.041-.816 5.375.787-.001.001-.001-2.054-.001-3.302M97.973 72.056c1.761 0 3.075.766 3.075.766l.012-2.963h-4.34V65.38s-1.124 1.99-3.474 3.891c-1.471 1.215-4.564 2.707-4.564 2.707l3.296.061-.007 13.609c0 3.773 1.583 3.773 1.583 3.773 2.842 0 5.138.01 5.138.01s-1.979-1.346-1.979-3.818l.007-13.563c1.34.004.403.006 1.253.006M110.523 76.718c.861-1.59 1.537-5.607-1.403-5.387-3.369.252-2.722 9.277-2.722 9.277 1.117-1.236 2.811-1.486 4.125-3.89m3.189 1.254c-2.914 3.018-5.201 2.545-6.977 4.773 0 0 .286 3.01 2.554 4.074.789.363 3.993 1.389 6.063-2.23l-.005 3.438s-1.334 1.426-5.568 1.426c-5.05 0-8.545-3.99-8.545-9.4 0-5.322 2.851-10.268 8.178-10.291 5.27-.034 8.126 4.202 4.3 8.21M55.536 68.271c1.34 0 2.429-1.037 2.429-2.348s-1.089-2.375-2.429-2.375-2.373 1.064-2.373 2.375 1.033 2.348 2.373 2.348M125.111 84.108c.039 1.387-1.193 3.217-3.827 3.217-2.584 0-3.72-2.775-3.72-2.775l-.021 3.502s1.914 1.385 4.906 1.385h-.003c3.563 0 7.076-2.674 6.969-6.412-.037-1.326-.49-2.453-1.195-3.424-1.208-1.584-3.386-2.756-5.113-3.754-2.344-1.357-2.028-4.273 1.411-3.996 2.576.207 3.667 2.689 3.667 2.689v-3.262s-1.985-1.566-4.98-1.566c-3.111 0-5.878 2.059-5.801 4.676.068 2.316 1.012 3.826 2.912 5.207.754.564 1.652 1.105 2.69 1.686 1.521.835 2.079 1.865 2.105 2.827M82.756 74.167c0 1.916-1.625 2.773-2.686 3.238-3.089 1.35-7.041 2.838-7.041 7.326 0 3.004 2.177 4.727 5.235 4.727 2.344 0 3.521-1.211 4.104-2.352.354 2.213 1.457 2.314 1.457 2.314 2.701 0 5.176.016 5.176.016s-2.019-1.371-2.019-3.938V74.507c0-2.639-2.919-4.682-6.016-4.682-2.979 0-4.859 1.438-4.859 1.438v3.406s1.063-2.703 3.756-2.703c2.235 0 2.893 1.096 2.893 2.201m-2.804 13.035c-1.632 0-2.743-.875-2.743-2.729 0-4.41 4.005-5.318 5.079-6.623l-.007 8.23c-.035.032-.721 1.122-2.329 1.122"/></svg>