<svg xmlns="http://www.w3.org/2000/svg" fill="none" overflow="visible" preserveAspectRatio="none" style="display:block" viewBox="0 0 66.149 22"><g fill="var(--fill-0, #9fa3ae)"><path d="M46.175 5.386v6.481c0 1.674-.518 2.678-1.795 2.678-1.248 0-1.796-1.004-1.796-2.678V5.386h-3.56v6.725c0 3.499 2.13 4.96 5.355 4.96 2.648 0 5.356-1.461 5.356-4.96V5.386zM19.063 5.143c-3.682 0-6.116 2.373-6.116 6.055s2.586 5.872 5.903 5.872c3.073 0 6.025-1.916 6.025-6.085.03-3.438-2.313-5.842-5.812-5.842m-.091 9.402c-1.522 0-2.344-1.49-2.344-3.438 0-1.704.64-3.439 2.343-3.439 1.613 0 2.252 1.735 2.252 3.408 0 2.1-.882 3.47-2.251 3.47M10.437 4.595c-1.217.822-1.522 2.07-1.522 2.07-.639-.822-1.977-1.461-3.56-1.461C2.738 5.204 0 7.547 0 11.229c0 3.255 2.312 5.78 5.355 5.78 1.248 0 2.1-.303 2.8-.973v.243c0 2.07-1.278 3.013-2.982 3.013-1.643 0-2.8-.548-3.53-.974l-.7 2.708c.944.487 2.83.974 4.321.974 1.674 0 3.378-.335 4.625-1.4 1.308-1.126 1.735-2.951 1.735-5.142v-5.082c.03-1.764.638-2.981 1.4-3.864zm-4.412 9.98c-1.522 0-2.343-1.49-2.343-3.438 0-1.704.639-3.438 2.343-3.438 1.582 0 2.251 1.734 2.251 3.408 0 2.1-.882 3.469-2.251 3.469M31.95 5.143c-3.804 0-5.873 2.525-5.873 6.268v10.315h3.53v-5.66c.639.67 1.643 1.035 3.012 1.035 2.526 0 5.203-1.947 5.203-6.116 0-3.682-2.434-5.842-5.872-5.842m-.03 9.402c-1.522 0-2.344-1.49-2.344-3.438 0-1.704.64-3.439 2.343-3.439 1.613 0 2.252 1.735 2.252 3.408 0 2.1-.852 3.47-2.252 3.47M66.15 2.952V.243C65.662.091 65.053 0 64.262 0c-1.035 0-2.282.304-3.165 1.126-1.004.943-1.43 2.465-1.43 3.834v.426h-3.681v-.578c-.061-2.77 2.647-1.948 2.951-1.856V.243C58.451.091 57.843 0 57.051 0c-1.034 0-2.282.304-3.164 1.126-1.004.943-1.43 2.465-1.43 3.834v.426h-1.522v2.617h1.522v8.824c0 2.434-1.674 2.069-2.434 1.947l-.366 2.617c.366.152.944.274 1.522.274 1.612 0 2.738-.487 3.5-1.217.973-.944 1.307-2.313 1.307-3.652l.03-8.793h3.652v8.824c.061 2.556-1.947 2.038-2.434 1.947l-.365 2.617c.365.152.943.274 1.521.274 1.613 0 2.739-.487 3.5-1.217.973-.944 1.308-2.313 1.308-3.652l.03-8.793h2.921V5.416h-2.951v-.608c.06-2.77 2.647-1.948 2.951-1.856"/></g></svg>