<svg xmlns="http://www.w3.org/2000/svg" width="214" height="38"><path d="M445.99 461.402c0 1.285-.555 1.667-2.637 2.395-1.668.626-2.951.904-3.334.904-.695 0-1.006-.522-1.006-1.598 0-2.569.727-5.694 3.436-5.694 2.5 0 3.541 2.71 3.541 3.993m-27.083 11.215c0-.209-.033-.346-.137-.451-.278-.28-1.32-.452-1.84-.973-.38-.382-.626-1.041-.626-2.569v-5.868c0-.453.105-.73.556-.73h5.973c.451 0 .555.277.555.73v5.868c0 1.528-.243 2.187-.625 2.57-.521.52-1.563.693-1.84.972-.105.105-.139.242-.139.45 0 .902.139 1.807.278 1.945.138.14.347.173.798.173h9.757c.45 0 .658-.033.798-.173.14-.138.28-1.043.28-1.944 0-.209-.037-.346-.14-.451-.243-.243-1.32-.452-1.842-.973-.38-.382-.589-1.111-.589-2.292v-16.214c0-.833.209-1.39.52-1.7.556-.556 1.668-.661 1.91-.905.104-.104.14-.311.14-.485 0-.625-.14-1.563-.279-1.701-.14-.14-.277-.175-.798-.175h-9.41c-.382 0-.52.036-.624.14s-.209.833-.209 1.77c0 .173.035.382.105.45.173.176 1.041.453 1.389.8.381.383.52.8.52 1.98v4.617c0 .174-.174.416-.416.416h-6.25c-.244 0-.418-.242-.418-.416v-4.617c0-1.18.139-1.597.521-1.98.348-.347 1.215-.624 1.39-.8.07-.068.104-.277.104-.45 0-.937-.105-1.665-.209-1.77-.103-.104-.243-.14-.625-.14h-9.408c-.522 0-.66.036-.8.175-.138.138-.278 1.076-.278 1.7 0 .175.035.382.14.486.243.244 1.354.349 1.909.905.312.31.521.867.521 1.7V468.9c0 1.18-.209 1.91-.59 2.292-.521.521-1.597.73-1.84.973-.105.105-.14.242-.14.45 0 .902.14 1.807.278 1.945.14.14.278.173.8.173h9.756c.451 0 .659-.033.799-.173.138-.138.275-1.043.275-1.944m32.257-.486c1.006-1.007 1.251-1.598 1.251-2.084 0-.521-.14-.938-.556-1.354-.452-.451-.832-.521-1.181-.521-.486 0-.695.139-1.006.452-1.528 1.528-3.473 2.36-5.834 2.36-2.395 0-3.889-1.596-3.889-2.605 0-.276.244-.52.868-.693 6.667-2.084 9.445-3.472 10.486-4.514.59-.555.832-1.215.832-1.805 0-2.639-3.817-7.325-9.686-7.325-2.43 0-4.895.97-6.735 2.811s-2.986 4.444-2.986 7.986c0 3.403 1.076 5.764 2.951 7.64 1.875 1.874 4.583 2.812 7.535 2.812 3.02 0 5.868-1.077 7.95-3.16m10.868-16.91c0-.45-.244-.625-.625-.625h-6.702c-.382 0-.52 0-.626.14-.137.138-.275 1.076-.275 1.702 0 .173.069.31.138.415.243.313.763.416 1.216.799.311.312.451.972.451 1.979v9.27c0 1.18-.14 1.945-.487 2.292-.522.521-1.39.764-1.632 1.006-.068.072-.103.21-.103.453 0 .902.138 1.771.277 1.909.105.103.278.173.659.173h8.925c.381 0 .555-.07.659-.173.138-.138.242-1.007.242-1.91 0-.243-.034-.38-.104-.452-.242-.242-1.04-.485-1.562-1.006-.346-.347-.451-1.111-.451-2.292zm-3.715-8.75c-1.91 0-3.473 1.495-3.473 3.37 0 1.908 1.564 3.402 3.473 3.402 1.945 0 3.507-1.494 3.507-3.402 0-1.875-1.562-3.37-3.507-3.37m26.908 13.507c0-3.889-2.013-5.867-5.173-5.867-1.494 0-3.09.485-4.688 1.458-.555.348-.729.452-.867.452-.557 0-.174-1.425-1.182-1.425h-6.11c-.382 0-.486 0-.625.14-.173.173-.312 1.076-.312 1.702 0 .173.035.31.139.415.277.279.798.383 1.215.799.313.312.45.972.45 1.979v9.27c0 1.18-.104 1.945-.45 2.292-.487.485-1.32.764-1.563 1.006-.069.072-.105.21-.105.453 0 .902.105 1.771.245 1.909.104.103.311.173.694.173h8.75c.416 0 .554-.07.657-.173.175-.174.315-1.007.315-1.91 0-.243-.036-.38-.106-.452-.276-.276-1.075-.52-1.561-1.006q-.521-.52-.52-2.292v-6.84c0-2.812 1.56-3.68 2.707-3.68 1.18 0 1.84.868 1.84 2.707v9.62c0 2.569 1.633 4.269 4.584 4.269 3.263 0 4.651-2.36 4.651-2.846 0-.417-.658-1.25-1.075-1.25-.487 0-1.18.625-1.528.625-.243 0-.382-.174-.382-.73zm64.338 12.153c1.006-1.007 1.249-1.598 1.249-2.084 0-.521-.138-.938-.554-1.354-.453-.451-.836-.521-1.181-.521-.487 0-.695.139-1.008.452-1.527 1.528-3.471 2.36-5.832 2.36-2.395 0-3.89-1.596-3.89-2.605 0-.276.243-.52.868-.693 6.667-2.084 9.444-3.472 10.487-4.514.59-.555.832-1.215.832-1.805 0-2.639-3.819-7.325-9.686-7.325-2.433 0-4.896.97-6.738 2.811-1.838 1.841-2.985 4.444-2.985 7.986 0 3.403 1.077 5.764 2.952 7.64 1.875 1.874 4.583 2.812 7.533 2.812 3.022 0 5.87-1.077 7.953-3.16m-5.174-10.73c0 1.286-.555 1.668-2.639 2.396-1.666.626-2.95.904-3.335.904-.692 0-1.006-.522-1.006-1.598 0-2.569.73-5.694 3.439-5.694 2.499 0 3.541 2.71 3.541 3.993M506.89 472.13c1.007-1.007 1.252-1.598 1.252-2.084 0-.521-.14-.938-.557-1.354-.45-.451-.832-.521-1.18-.521-.488 0-.695.139-1.007.452-1.528 1.528-3.473 2.36-5.834 2.36-2.395 0-3.889-1.596-3.889-2.605 0-.276.244-.52.87-.693 6.665-2.084 9.443-3.472 10.484-4.514.591-.555.834-1.215.834-1.805 0-2.639-3.819-7.325-9.688-7.325-2.43 0-4.895.97-6.735 2.811s-2.986 4.444-2.986 7.986c0 3.403 1.076 5.764 2.95 7.64 1.876 1.874 4.585 2.812 7.536 2.812 3.02 0 5.868-1.077 7.95-3.16m-5.172-10.73c0 1.286-.556 1.668-2.639 2.396-1.667.626-2.951.904-3.334.904-.695 0-1.006-.522-1.006-1.598 0-2.569.729-5.694 3.436-5.694 2.5 0 3.543 2.71 3.543 3.993m69.509-1.424c0-3.889-2.013-5.867-5.172-5.867-1.493 0-3.09.485-4.687 1.458-.556.348-.731.452-.868.452-.556 0-.175-1.425-1.18-1.425h-6.11c-.383 0-.488 0-.627.14-.174.173-.313 1.076-.313 1.702 0 .173.035.31.14.415.278.279.8.383 1.215.799.312.312.452.972.452 1.979v9.27c0 1.18-.105 1.945-.452 2.292-.487.485-1.32.764-1.562 1.006-.07.072-.105.21-.105.453 0 .902.105 1.771.241 1.909.106.103.315.173.696.173h8.75c.417 0 .555-.07.66-.173.174-.174.312-1.007.312-1.91 0-.243-.034-.38-.104-.452-.278-.276-1.076-.52-1.563-1.006q-.521-.52-.522-2.292v-6.84c0-2.812 1.564-3.68 2.71-3.68 1.181 0 1.84.868 1.84 2.707v9.62c0 2.569 1.632 4.269 4.584 4.269 3.263 0 4.652-2.36 4.652-2.846 0-.417-.66-1.25-1.076-1.25-.486 0-1.18.625-1.528.625-.243 0-.383-.174-.383-.73zm-54.512-12.881h-6.665c-.417 0-.59 0-.693.175-.14.172-.245 1.041-.245 1.631 0 .208.036.346.105.485.242.244 1.18.486 1.597.904.346.347.521 1.041.521 3.679v13.888c0 2.328-.242 3.057-.52 3.334-.487.485-1.32.764-1.563 1.006-.07.072-.104.21-.104.453 0 .902.104 1.771.242 1.909.105.103.243.173.695.173h8.715c.452 0 .59-.07.694-.173.139-.138.313-1.007.313-1.91 0-.243-.034-.38-.14-.452-.242-.242-1.075-.52-1.528-1.006-.38-.347-.52-1.111-.52-2.292v-.798c0-.451.14-.591.904-1.355.346-.311.657-.554.902-.554.348 0 .624.243 4.444 7.95.243.487.346.59.971.59h5.66c.417 0 .557-.07.66-.173.14-.138.278-1.007.278-1.91 0-.243-.034-.38-.105-.452-.243-.242-1.7-.416-2.013-1.006-5.033-8.506-5.173-8.785-5.173-9.305 0-.451 2.222-2.672 4.062-4.131 1.181-.938 1.944-.314 1.944-1.424 0-1.285-.173-1.737-.416-1.737h-8.402c-.73 0-.798.416-.798 1.98 0 .52 1.457.59 1.457 1.318 0 .625-3.541 4.03-4.131 4.03-.209 0-.244-.14-.244-.73v-13.125c0-.556-.382-.972-.904-.972" style="fill:#00a650;fill-rule:nonzero;stroke:none" transform="translate(-361.988 -441.333)"/><path d="m340.926 441.678 5.5 16.722 17.603.062-14.206 10.397 5.381 16.761-14.278-10.297-14.277 10.297 5.38-16.76-14.205-10.398 17.604-.062z" style="fill:red" transform="translate(-266.414 -369.915)scale(.83824)"/><path d="M571.245 446.365q.875 0 1.68.44.803.435 1.262 1.253.462.819.462 1.711 0 .89-.454 1.698-.448.805-1.257 1.258a3.43 3.43 0 0 1-3.391 0 3.25 3.25 0 0 1-1.258-1.258 3.45 3.45 0 0 1-.449-1.698q0-.892.458-1.71.462-.818 1.267-1.254a3.45 3.45 0 0 1 1.68-.44m.005.667q-.702 0-1.347.35-.645.352-1.018 1.01a2.8 2.8 0 0 0-.368 1.377q0 .715.36 1.365.363.648 1.013 1.013t1.36.364q.715 0 1.36-.364.648-.364 1.013-1.013.364-.65.364-1.365 0-.72-.373-1.377a2.53 2.53 0 0 0-1.018-1.01 2.8 2.8 0 0 0-1.346-.35m-1.542 4.56v-3.614h.733q1.03 0 1.155.01.364.031.565.146.205.111.337.347a1 1 0 0 1 .138.515q0 .392-.258.671-.252.276-.715.343.165.062.253.137.09.072.245.276.04.053.266.44l.427.729h-.907l-.302-.587q-.306-.59-.506-.742a.8.8 0 0 0-.507-.156h-.191v1.485zm.733-2.054h.298q.635 0 .786-.048a.47.47 0 0 0 .245-.17.47.47 0 0 0 0-.546.45.45 0 0 0-.245-.169q-.16-.053-.786-.053h-.298z" style="fill:#00a650;stroke:none" transform="translate(-361.988 -441.333)"/></svg>