<svg xmlns="http://www.w3.org/2000/svg" width="132" height="35" fill="none" viewBox="0 0 132 35"><path fill="#fa6866" d="M39.887 14.3c-.7-.6-.8-.7-.8-.9 0-.1.3-3 .1-5.7-.5-6.3-3.4-7.7-4.4-7.7-.1 0-.1 0-.2.1-.3.4-.3 1.6.1 3.8.2.9.7 2.5 1.2 4.2.6 1.9 1.2 3.8 1.4 4.9l.1.2-1.5.5-.1-.2c-.3-.8-.8-2-1.2-3.5-.8-2.4-1.801-5.4-2.601-6.6-.6-1-1.9-2.3-2.5-2.3h-.1c-.3.1-.6.4-.7 1-.4 1.6.1 4.6 2.2 7.6 2.1 2.8 3.1 4.4 3.2 4.9l.1.2-.1.1s-.4.5-1 .5c-.3 0-.6-.1-.8-.4-4.7-4.6-9.501-6.9-14.102-6.9-2.8 0-4.9.8-5.901 1.3q-.6.3-.9.3c-.2 0-.2-.1-.3-.1-.1-.1-.1-.1-.1-.3 0-1.3-.1-2.8-.4-3.2-.1-.1-.2-.1-.3-.1-1.8-.1-4.4 1.2-5.301 3.1-.6 1.1-.4 2.2.3 3.3.7 1 1.8 1 2.5 1.1.4 0 .7.1.8.3.1.3-.2.4-.4.7-6.9 5.4-8.6 10-8.1 11.6.1.2.2.4.4.4s.3-.1.5-.2c5.4-4.6 10.901-7 16.502-7 10.201 0 17.402 7.6 19.402 10 .4.5.9 1.1 1.3 1.7 1.1 1.4 2.201 2.8 3.201 3.5.8.5 1.7.6 2.1.1.3-.3.4-1 .2-1.9-.4-2.1-2.3-4.4-3.6-5.7-1.1-1.2-1.5-1.7-1.4-2.1.1-.1.1-.3.4-.3 3.2-.7 5.1-1.8 5.4-3.4.5-2.6-3.1-5.6-4.6-6.9m32.004-2.4c-3.4 0-6.2 2.6-6.2 5.7 0 .7.2 1.4.4 2.1l.1.1-.1.1c-.7.8-1.3 1.3-1.9 1.3-1.2 0-1.2-1.7-1.2-3.8-.1-2.6-.1-5.5-2.401-5.5-2.7 0-4.8 3.5-6.101 6.5l-.5 1 .2-3.4c.2-3.5.3-6.8.3-10.1 0-3-.1-4.7-.2-5.1-.1-.2-.7-.6-1.2-.6-.3 0-1.4.5-1.6.7-.2.4-.4 4.5-.4 8.4 0 9.2.6 13.1.7 13.6v.1c.1.2.6.3 1 .3s1-.1 1.1-.3l.1-.2c1.1-2.9 3.2-7.8 5-7.8 1 0 1 1.3 1.1 2.8.1 2.4.2 5.4 3.501 5.4 1.2 0 2.4-.7 3.5-2l.2-.2.2.2c1.201 1.2 2.901 2 4.702 2 3.5 0 6.3-2.6 6.3-5.7-.4-3-3.2-5.6-6.6-5.6m0 9.2c-1.6 0-2.8-1.6-2.8-3.5s1.3-3.5 2.8-3.5c1.6 0 2.9 1.6 2.9 3.5s-1.3 3.5-2.9 3.5m13.702-9.2c-1.2 0-2.5.4-3.5 1.1l-.3.2-.1-.3c-.1-.4-.1-.7-.1-.7-.1-.2-.7-.3-1.1-.3-.3 0-.9.1-1 .3-.1.4-.6 4.9-.6 13v.1c.1.1.1.2.1.6.1 4 .4 7.9.6 8.4.2.2 1.3.7 1.6.7h.1c.6 0 1.1-.4 1.1-.6 0-.1.1-.5.1-3.1v-2c0-1.4-.1-2.3-.1-3.5-.1-.8-.1-1.7-.2-3.1v-.3l.3.2c1 .5 2 .8 3 .8 3.5 0 6.301-2.6 6.301-5.7.1-3.2-2.7-5.8-6.2-5.8m0 9.2c-2.6 0-3.5-1.8-3.5-3.5 0-2.1 1.3-3.5 3.5-3.5 1.6 0 2.9 1.6 2.9 3.5s-1.3 3.5-2.9 3.5m13.802-9.2c-1.2 0-2.5.4-3.5 1.1l-.3.2-.1-.3c-.1-.4-.1-.7-.1-.7-.1-.2-.7-.3-1.1-.3-.3 0-.9.1-1 .3-.1.4-.6 4.9-.6 13v.1c.1.1.1.2.1.6.1 4 .4 7.9.6 8.4.2.2 1.3.7 1.6.7h.1c.6 0 1.1-.4 1.1-.6 0-.1.1-.5.1-3.1v-2c0-1.4-.1-2.3-.1-3.5-.1-.8-.1-1.7-.2-3v-.3l.3.2c1 .5 2 .8 3 .8 3.501 0 6.301-2.6 6.301-5.7.1-3.3-2.7-5.9-6.2-5.9m0 9.2c-2.6 0-3.5-1.8-3.5-3.5 0-2.1 1.3-3.5 3.5-3.5 1.601 0 2.901 1.6 2.901 3.5s-1.3 3.5-2.9 3.5m32.305-4.9s-.1.1-.1.2c-.9 1.8-2.8 4.8-4.201 4.8-.4 0-.6-.3-.6-.7 0-.5.4-1.5.9-2.6.4-1.1 1.001-2.3 1.001-3 0-1.2-.801-1.8-2.201-1.8-.1 0-3.1 0-4-.6l-.1-.1v-.1c0-.7-.2-2.5-1.701-2.5-.8 0-1.3 1.2-1.3 1.8 0 1.6.8 2.3 1.2 2.5l.1.1.1.1-.1.1c-.4 1.5-1.3 2.8-1.7 3.6-1.4 2-3.1 2.9-5.401 2.9-1.7 0-3-.9-3.4-2.4l-.1-.4.3.1c.9.3 1.7.4 2.5.4 2.201 0 4.501-1.1 4.501-3.5 0-2-1.9-3.5-4.501-3.5-3.4 0-6.201 2.6-6.201 5.7 0 2.3 1.801 5.7 6.801 5.7 4.001 0 6.001-3.6 6.601-4.7l.1-.1c.7-1.2 1.301-2.7 1.501-3.3l.1-.2.2.1c.3.1 1.7.4 2.6.4.4 0 .7.2.7.6 0 .1-.1.2-.1.3l-.1.1-.2.3c-.5 1.1-1.2 2.7-1.2 3.8 0 1.4.9 2.8 2.9 2.8 2.801 0 4.501-3.5 5.101-4.6l.1-.1c.1-.3.2-.7.2-1.2-.1-.4-.2-1-.3-1m-21.603 1c.2-1.7 1.5-3.1 2.8-3.1 1.2 0 2.001.6 2.001 1.7 0 1.3-1.801 1.8-3.301 1.8-.6 0-1.1-.1-1.4-.2l-.2-.1z"/></svg>