<svg xmlns="http://www.w3.org/2000/svg" fill="none" overflow="visible" preserveAspectRatio="none" style="display:block" viewBox="0 0 64.458 18"><g fill="var(--fill-0, #9fa3ae)"><path d="M.064 5.715h4.078L3.823 17.54H.15zM10.281.052l-.085 5.767c1.02-.333 1.954-.49 2.825-.49 1.115 0 2.145.334 3.08.97 1.668 1.158 2.485 2.857 2.485 5.11 0 2.075-.722 3.702-2.145 4.88-1.253 1.043-2.783 1.575-4.599 1.575a9 9 0 0 1-4.301-1.084 8 8 0 0 1-1.147-.762c.16-.604.233-1.345.233-2.231L6.48 2.816c0-.647-.075-1.356-.202-2.138zm-.17 9.094.032 5.058c.573.344 1.19.532 1.837.532 1.041 0 1.87-.397 2.475-1.2.393-.542.605-1.199.605-1.981 0-.97-.308-1.71-.924-2.21-.563-.47-1.232-.7-2.018-.7-.68-.03-1.338.157-2.007.501M26.265 5.225c1.19 0 2.316.313 3.356.96 2.018 1.24 3.038 3.044 3.038 5.38 0 .96-.223 1.888-.68 2.754a6.3 6.3 0 0 1-2.772 2.774c-.988.531-2.06.782-3.229.782-2.007 0-3.621-.7-4.853-2.097-.988-1.147-1.487-2.482-1.487-4.046 0-1.867.711-3.452 2.103-4.766 1.253-1.157 2.772-1.741 4.524-1.741m-.01 3.264q-1.45 0-2.326 1.126c-.489.647-.723 1.314-.723 2.044q0 1.204.829 2.128c.563.625 1.221.928 1.986.928.616 0 1.19-.198 1.72-.615.871-.657 1.296-1.533 1.296-2.576 0-.98-.35-1.784-1.062-2.43-.467-.397-1.04-.605-1.72-.605M41.623 6.528l-.01 2.9-3.038-.032-.085 3.358c0 .553.085.97.265 1.23q.449.627 1.169.627c.371 0 .839-.126 1.423-.397l.945 2.357c-1.105.782-2.21 1.189-3.303 1.189-1.105 0-2.05-.355-2.825-1.053-.776-.7-1.168-1.533-1.147-2.503l.01-4.86-1.646-.063.01-2.847h1.679l.01-1.741c.011-.928-.01-1.596-.084-2.002l3.685.041c0 .188-.01.47-.042.887-.011.146-.011.459-.032.938l-.043 1.909zM50.884 6.528l-.01 2.9-3.038-.032-.085 3.358c0 .553.085.97.266 1.23.297.418.69.627 1.168.627.372 0 .839-.126 1.423-.397l.945 2.357c-1.104.782-2.209 1.189-3.303 1.189-1.104 0-2.05-.355-2.825-1.053-.775-.7-1.168-1.533-1.147-2.503l.01-4.86-1.646-.063.011-2.847h1.678l.01-1.741c.011-.928-.01-1.596-.084-2.002l3.685.041c0 .188-.01.47-.042.887-.01.146-.01.459-.032.938l-.043 1.909zM52.817 6.268c1.763-.626 3.388-.928 4.886-.928 1.497 0 2.74.333 3.738 1 .829.543 1.285 1.356 1.381 2.441.01.156.032.334.032.511l.032 3.91c.01 1.69.297 3.004.839 3.974L60.379 18l-.467-1.21c-.871.73-1.912 1.095-3.165 1.095-1.498 0-2.698-.542-3.558-1.627-.68-.844-1.02-1.772-1.02-2.753 0-1.23.489-2.232 1.445-3.024.881-.73 1.954-1.085 3.229-1.085.828 0 1.72.199 2.665.605-.159-1.272-.956-1.919-2.39-1.919-1.114 0-2.25.24-3.398.71zm4.758 5.402c-.562 0-1.02.198-1.37.584-.34.375-.52.761-.52 1.189 0 .49.202.928.637 1.324.35.323.775.5 1.285.5.574 0 1.041-.197 1.445-.625.276-.303.425-.657.425-1.095 0-.553-.181-1.012-.542-1.356a1.98 1.98 0 0 0-1.36-.521M4.153 4.4h-.234C.913 4.4 0 2.775 0 2.775V0s1.02.939 3.845.939h.308zM64.458 6.174c0 .5-.404.897-.924.897s-.924-.397-.924-.897c0-.49.414-.887.924-.887.52 0 .924.397.924.887m-1.625 0c0 .396.297.709.7.709.394 0 .69-.313.69-.699 0-.396-.286-.709-.69-.709a.69.69 0 0 0-.7.699m.552.469h-.212v-.886q.126-.032.35-.032c.17 0 .244.032.308.063.053.042.085.104.085.198s-.074.177-.191.209v.01c.085.031.138.094.17.219.032.136.042.188.063.219h-.223c-.032-.031-.042-.115-.074-.219-.021-.094-.074-.136-.191-.136h-.096v.355zm.01-.5h.096c.117 0 .212-.042.212-.126s-.063-.135-.19-.135c-.054 0-.096.01-.117.01z"/></g></svg>