<svg xmlns="http://www.w3.org/2000/svg" xml:space="preserve" style="fill-rule:evenodd;clip-rule:evenodd;stroke-linejoin:round;stroke-miterlimit:1.41421" viewBox="0 0 3326 586"><path d="M0 0c-1.616 0-2.976-.042-3.741-.127-.893-1.616-2.211-3.784-4.167-6.803 30.44 0 58.075-2.508 88.642-7.992l-8.63-8.333c-27.592 4.889-50.507 6.844-79.714 6.844-4.251 0-5.144 0-6.164-.042-1.021-1.53-3.317-4.506-5.612-7.27 2.593.17 7.61.255 14.539.255 24.021 0 46.468-1.785 70.829-5.697l-8.631-8.375c-18.536 2.891-41.196 4.549-61.518 4.549-7.227 0-15.432-.255-22.787-.68-1.658-1.913-5.994-6.59-7.312-8.035 9.735 1.02 20.449 1.488 33.203 1.488 18.154 0 35.5-1.191 51.91-3.614l-8.631-8.29c-11.691 1.445-25.891 2.295-38.432 2.295-32.353 0-57.862-7.014-84.221-23.127 25.126-26.954 66.28-44.002 106.158-44.002h3.741l-13.944-13.479c-57.522 10.8-118.062 36.096-169.206 70.746-49.189 33.203-66.407 43.023-104.797 59.986l-.255 9.864 25.976-11.139 8.843 7.015 84.815-38.858-5.527-4.421-43.534 18.918-4.294-3.358 22.618-12.627c19.089-10.629 33.628-15.39 47.063-15.39 29.377 0 55.736 20.832 72.741 57.436 12.797 1.659 26.444 2.424 42.854 2.424C26.486 10.161 59.179 6.93 96.209 0l-9.013-8.715C64.154-3.911 24.998 0 0 0m-82.435-242.117c-110.338 0-199.842 89.504-199.842 199.842s89.504 199.843 199.842 199.843S117.407 68.063 117.407-42.275 27.903-242.117-82.435-242.117m0 412.44c-117.566 0-212.599-95.031-212.599-212.598s95.033-212.599 212.599-212.599c117.567 0 212.599 95.032 212.599 212.599S35.132 170.323-82.435 170.323M479.229-126.91h121.89v-57.098H413.628V99.458h65.601zM748.521 20.087h61.146v-204.095h-57.501v23.487c-8.505-15.793-25.916-29.56-57.909-29.56-52.236 0-79.368 23.487-79.368 90.708v119.46h61.147V-96.537c0-27.133 11.745-39.28 36.446-39.28 22.272 0 36.039 12.147 36.039 39.28zm108.122 7.693c0 49.403 31.183 75.727 80.181 75.727 15.795 0 25.917-2.43 25.917-2.43V51.674s-8.504.807-15.795.807c-19.032 0-29.157-6.479-29.157-24.296v-8.098h44.952v-49.809h-44.952v-154.286h-61.146v154.286h-30.775v49.809h30.775zm213.807-7.693h46.57v-49.809h-46.57v-79.37c0-21.868 11.34-27.537 29.16-27.537 7.29 0 17.41 1.214 17.41 1.214v-48.998s-14.17-3.238-29.15-3.238c-49 0-78.56 22.271-78.56 71.673v86.256h-30.78v49.809h30.78v59.527h61.14zm181.95 6.074c51.84 0 78.97-23.486 78.97-90.708v-119.461h-61.15v116.627c0 27.13-11.74 39.277-37.25 39.277-23.09 0-36.85-12.147-36.85-39.277v-116.627h-61.15v283.06h61.55V.245c10.53 14.984 27.13 25.916 55.88 25.916m234.87-130.798c0-22.273-21.06-38.877-53.45-38.877-15.79 0-25.11 7.289-25.11 21.059 0 10.528 6.48 19.436 27.14 22.269l35.23 4.862c6.07.811 12.55 2.024 16.19 3.239zM1453.26 26.16c-60.34 0-89.5-23.083-91.92-66.412h59.52c.81 11.34 7.29 19.844 32.4 19.844 22.27 0 32.8-7.291 32.8-18.222 0-9.722-6.08-13.365-21.06-14.984l-38.87-4.049c-52.65-5.668-76.54-27.537-76.54-67.224 0-36.849 22.68-65.194 70.87-65.194 32.8 0 52.24 10.528 69.24 31.587v-25.514h55.89V-49.97c0 56.288-32.8 76.13-92.33 76.13m233.72.001c53.05 0 80.18-23.486 80.18-90.708v-119.461h-61.15v116.627c0 27.13-11.74 39.277-37.25 39.277-23.09 0-36.85-12.147-36.85-39.277v-116.627h-61.15V20.086h57.5V-3.402c8.51 15.795 25.92 29.563 58.72 29.563m209.17-82.204c51.83-6.886 77.75-23.083 77.75-65.603 0-42.925-30.37-68.436-94.76-68.436-70.05 0-94.76 27.939-95.97 68.843h60.34c1.62-14.986 12.14-22.275 35.63-22.275 23.89 0 33.61 5.671 33.61 17.008 0 10.528-8.1 15.387-29.15 18.222l-21.47 2.837c-44.95 6.073-70.86 23.485-70.86 63.981 0 38.875 28.75 67.627 89.09 67.627 55.88 0 85.85-22.272 88.68-66.412h-59.53c-2.02 11.741-8.5 19.032-29.15 19.032-20.25 0-27.94-6.885-27.94-15.795 0-8.906 4.86-13.766 22.27-16.197zm230.82-48.598c0-22.27-21.06-38.873-53.45-38.873-15.8 0-25.11 7.289-25.11 21.059 0 10.528 6.48 19.436 27.13 22.269l35.23 4.862c6.08.807 12.55 2.024 16.2 3.239zM2092.95 26.16c-60.33 0-89.49-23.083-91.92-66.412h59.53c.81 11.34 7.29 19.841 32.39 19.841 22.28 0 32.81-7.288 32.81-18.222 0-9.719-6.08-13.362-21.06-14.981l-38.88-4.049c-52.64-5.671-76.53-27.538-76.53-67.224 0-36.849 22.67-65.194 70.86-65.194 32.8 0 52.24 10.528 69.25 31.587v-25.514h55.88V-49.97c0 56.285-32.8 76.13-92.33 76.13" style="fill:#0a1d3d;fill-rule:nonzero" transform="matrix(1.33333 0 0 -1.33333 402.827 236.545)"/></svg>