<svg xmlns="http://www.w3.org/2000/svg" fill="none" overflow="visible" preserveAspectRatio="none" style="display:block" viewBox="0 0 44.263 19"><g fill="var(--fill-0, #9fa3ae)"><path d="M4.08 16.712v-8.94c1.2 1.62 4.568 5.248 6.802 7.871 2.332 2.332 3.984.68 4.081-.777V.29h-4.08v8.94C9.49 7.74 6.18 4.118 4.08 1.553 2.235-.972.194.68 0 1.943v14.769zM22.93.194h-4.275v16.518h4.275z"/><path fill-rule="evenodd" d="M38.228 15.988a8.55 8.55 0 1 1 3.073-2.973l2.962 2.962L41.24 19zm.25-7.438a4.47 4.47 0 1 1-8.94 0 4.47 4.47 0 0 1 8.94 0" clip-rule="evenodd"/></g></svg>