<svg xmlns="http://www.w3.org/2000/svg" fill="none" overflow="visible" preserveAspectRatio="none" style="display:block" viewBox="0 0 92.106 35"><path fill="var(--fill-0, #9fa3ae)" d="M17.53.319c9.505 0 17.21 7.692 17.21 17.181s-7.706 17.181-17.21 17.181S.32 26.99.32 17.501C.32 8.01 8.024.318 17.53.318m0-.319C7.864 0 0 7.85 0 17.5S7.864 35 17.53 35s17.53-7.85 17.53-17.5S27.195 0 17.53 0M91.784 10.453c.193-.225.322-.481.322-.803a1.3 1.3 0 0 0-.322-.868 1.17 1.17 0 0 0-.838-.355c-.321 0-.579.13-.838.355-.224.225-.322.514-.322.868 0 .322.098.578.322.803.26.226.517.322.838.322.323 0 .612-.096.838-.322m.065 11.834V11.901h-1.74l.032 10.386zm-4.029-9.871-.289-.13c-.774-.45-1.709-.675-2.836-.675-1.224 0-2.223.29-2.964.868-.387.29-.645.579-.838.965-.193.354-.29.707-.29 1.125 0 .708.322 1.286.903 1.8.547.483 1.352.87 2.416 1.19.901.29 1.514.58 1.9.87.323.321.517.674.517 1.124 0 .483-.258.869-.71 1.19-.452.258-1.097.419-1.9.419-.872 0-1.74-.226-2.643-.645l-.226-.16-.741 1.35.259.13c.998.482 2.094.706 3.286.706 1.29 0 2.353-.257 3.19-.835.42-.258.71-.61.935-.964.225-.418.322-.87.322-1.32v-.032c0-.772-.322-1.447-.934-1.993-.515-.45-1.354-.836-2.45-1.158-.838-.29-1.45-.58-1.804-.804-.387-.29-.548-.611-.548-.965 0-.418.161-.739.517-1.028.386-.258.9-.419 1.578-.419.934 0 1.708.161 2.32.547l.226.16zm-10.504.771c-1.192-1.029-2.674-1.575-4.383-1.575-1.675 0-3.06.514-4.188 1.51-1.258 1.127-1.901 2.67-1.901 4.695v8.071h1.674V20.68a5.26 5.26 0 0 0 1.934 1.351c.774.353 1.611.514 2.514.514 1.708 0 3.158-.514 4.35-1.608q1.837-1.591 1.836-3.859c0-1.543-.611-2.829-1.836-3.89m-4.383-.13c1.257 0 2.352.387 3.19 1.159.87.771 1.322 1.735 1.322 2.894 0 1.093-.387 1.993-1.16 2.765-.838.804-1.966 1.222-3.32 1.222s-2.45-.418-3.319-1.222c-.805-.803-1.191-1.704-1.191-2.765s.386-1.994 1.191-2.766c.839-.835 1.934-1.286 3.287-1.286m-8.765.645c-1.127-1.415-2.738-2.09-4.898-2.09-1.61 0-2.997.45-4.189 1.414-1.288.997-1.933 2.348-1.933 4.02 0 .932.258 1.865.805 2.733q.726 1.253 2.224 2.025c.999.483 2.062.708 3.222.708a7.05 7.05 0 0 0 3.127-.708q1.496-.772 2.222-2.025l.323-.547h-1.869q-.581.82-1.643 1.35a5 5 0 0 1-2.224.515c-1.031 0-1.901-.258-2.675-.772a4.24 4.24 0 0 1-1.61-2.122c1.062-.418 2.126-.644 3.287-.644l1.74.193 2.706.258c.837 0 1.548-.13 2.191-.322q.387-.144.484-.386c.096-.129.096-.353.033-.611-.195-1.157-.614-2.153-1.323-2.99m-.45 2.637.032.064-.935.128-2.03-.192-2.835-.226h-.484a9.5 9.5 0 0 0-2.546.515c.129-1.19.71-2.123 1.676-2.798.805-.515 1.708-.804 2.675-.804 1.513 0 2.674.482 3.544 1.447.452.58.773 1.19.903 1.866M45.64 11.611c-1.644 0-3.062.514-4.19 1.511-1.256 1.126-1.869 2.67-1.869 4.695l-.032 8.07h1.74l-.032-5.208a5.4 5.4 0 0 0 1.902 1.35 6.2 6.2 0 0 0 2.545.514c1.708 0 3.158-.513 4.35-1.607 1.225-1.061 1.805-2.348 1.805-3.86 0-1.543-.58-2.829-1.773-3.89-1.224-1.028-2.674-1.575-4.446-1.575m-3.287 2.733c.87-.835 1.934-1.286 3.287-1.286 1.289 0 2.352.386 3.221 1.158.872.771 1.29 1.735 1.29 2.894 0 1.093-.387 1.993-1.129 2.765-.837.804-1.932 1.222-3.35 1.222-1.321 0-2.449-.418-3.32-1.222-.773-.803-1.16-1.704-1.16-2.765s.387-1.993 1.161-2.766"/><path fill="var(--fill-0, #9fa3ae)" d="M27.371 4.48a4 4 0 0 1-.42-.363 16.33 16.33 0 0 0-9.421-2.974c-9.048 0-16.383 7.323-16.383 16.356a16.27 16.27 0 0 0 3.242 9.769c5.482-1.616 10.265-4.427 14.365-8.489 4.094-4.043 6.97-8.828 8.617-14.298"/><path fill="var(--fill-0, #9fa3ae)" d="M17.53 33.857c9.048 0 16.383-7.324 16.383-16.357 0-3.197-.92-6.179-2.508-8.697a1 1 0 0 1-.112-.136 11.6 11.6 0 0 1 .501 3.385c0 1.856-.43 3.613-1.274 5.258a11.9 11.9 0 0 1-3.435 3.97c-1.145.843-2.52 1.557-4.138 2.143-1.287.47-2.962.957-5.038 1.427l-5.983 1.344A96 96 0 0 0 5 28.036a16.35 16.35 0 0 0 12.529 5.821"/></svg>