<svg xmlns="http://www.w3.org/2000/svg" xmlns:xlink="http://www.w3.org/1999/xlink" width="300" height="350" viewBox="0 0 79.375 92.604"><defs><linearGradient id="e"><stop offset="0" style="stop-color:#edf1fa;stop-opacity:1"/><stop offset="1" style="stop-color:#9aa2b1;stop-opacity:1"/></linearGradient><linearGradient id="d"><stop offset="0" style="stop-color:#fefefe;stop-opacity:1"/><stop offset="1" style="stop-color:#98a1af;stop-opacity:1"/></linearGradient><linearGradient id="c"><stop offset="0" style="stop-color:#98a1af;stop-opacity:1"/><stop offset="1" style="stop-color:#edf1fa;stop-opacity:1"/></linearGradient><linearGradient id="b"><stop offset="0" style="stop-color:#54606b;stop-opacity:1"/><stop offset="1" style="stop-color:#edf1fa;stop-opacity:1"/></linearGradient><linearGradient id="a"><stop offset="0" style="stop-color:#535f6a;stop-opacity:1"/><stop offset="1" style="stop-color:#535f6a;stop-opacity:0"/></linearGradient><linearGradient xlink:href="#a" id="h" x1="68.89" x2="74.189" y1="128.428" y2="132.941" gradientTransform="matrix(-.53783 0 0 .53783 86.373 -13.345)" gradientUnits="userSpaceOnUse"/><linearGradient xlink:href="#a" id="f" x1="68.89" x2="74.189" y1="128.428" y2="132.941" gradientTransform="translate(-4.802 -15.791)scale(.53783)" gradientUnits="userSpaceOnUse"/><linearGradient xlink:href="#b" id="i" x1="68.662" x2="75.051" y1="128.249" y2="133.528" gradientTransform="translate(-6.91 -13.253)scale(.53783)" gradientUnits="userSpaceOnUse"/><linearGradient xlink:href="#b" id="k" x1="68.662" x2="75.051" y1="128.249" y2="133.528" gradientTransform="matrix(-.53783 0 0 .53783 86.373 -13.345)" gradientUnits="userSpaceOnUse"/><linearGradient xlink:href="#c" id="j" x1="84.1" x2="65.012" y1="55.468" y2="125.093" gradientTransform="translate(-6.91 -13.253)scale(.53783)" gradientUnits="userSpaceOnUse"/><linearGradient xlink:href="#c" id="l" x1="84.1" x2="65.012" y1="55.468" y2="125.093" gradientTransform="matrix(-.53783 0 0 .53783 86.373 -13.345)" gradientUnits="userSpaceOnUse"/><linearGradient xlink:href="#e" id="m" x1="39.719" x2="39.719" y1="49.053" y2="50.858" gradientUnits="userSpaceOnUse"/><linearGradient xlink:href="#e" id="n" x1="39.719" x2="39.719" y1="49.053" y2="50.858" gradientTransform="rotate(-90 39.647 46.492)" gradientUnits="userSpaceOnUse"/><linearGradient xlink:href="#e" id="o" x1="39.719" x2="39.719" y1="49.053" y2="50.858" gradientTransform="rotate(180 39.706 46.43)" gradientUnits="userSpaceOnUse"/><linearGradient xlink:href="#e" id="p" x1="39.719" x2="39.719" y1="49.053" y2="50.858" gradientTransform="rotate(90 39.7 46.438)" gradientUnits="userSpaceOnUse"/><radialGradient xlink:href="#d" id="g" cx="90.228" cy="91.799" r="44.744" fx="90.228" fy="91.799" gradientTransform="rotate(90.88 105.682 66.65)scale(.87285 1.44836)" gradientUnits="userSpaceOnUse"/></defs><g style="display:inline"><path d="m35.304 48.517 5.3 3.09-15.937 9.614z" style="display:inline;fill:url(#f);fill-opacity:1;fill-rule:nonzero;stroke:none;stroke-width:.142302px;stroke-linecap:butt;stroke-linejoin:miter;stroke-opacity:1"/><path d="M39.719.008 15.63 72.18l24.09-14.51 24.04 14.446Z" style="display:inline;opacity:1;fill:url(#g);fill-opacity:1;fill-rule:nonzero;stroke:none;stroke-width:.142302px;stroke-linecap:butt;stroke-linejoin:miter;stroke-opacity:1"/><path d="M39.695 4.853 18.408 68.7l21.337-12.785L60.99 68.698Zm1.447 11.635 15.763 47.179-15.938-9.613 5.301-3.09zm-2.82.092-5.126 34.476 5.3 3.09L22.56 63.76z" style="display:inline;opacity:1;fill:#000;fill-opacity:1;fill-rule:nonzero;stroke:none;stroke-width:.142302px;stroke-linecap:butt;stroke-linejoin:miter;stroke-opacity:1"/><path d="m46.268 50.964-5.3 3.09 15.937 9.613z" style="display:inline;fill:url(#h);fill-opacity:1;fill-rule:nonzero;stroke:none;stroke-width:.142302px;stroke-linecap:butt;stroke-linejoin:miter;stroke-opacity:1"/><path d="M38.665 45.396 39.695 42l1.041 3.396 3.277 1.024-3.288 1.042-1.006 3.396-1.043-3.396-3.396-1.006z" style="display:inline;fill:#edf1fa;fill-opacity:1;fill-rule:nonzero;stroke:none;stroke-width:.142302px;stroke-linecap:butt;stroke-linejoin:miter;stroke-opacity:1"/><path d="m10.394 84.844-2.59.016v6.886l1.143.839v-2.313h1.779c.925-.014 2.424-1.044 2.435-2.643-.022-1.872-1.458-2.787-2.767-2.785m-1.447 1.02h1.5c.926-.001 1.673.776 1.69 1.664-.003.97-.737 1.674-1.513 1.69l-1.677.012z" style="display:inline;opacity:1;fill:#a4abb6;fill-opacity:1;fill-rule:nonzero;stroke:none;stroke-width:.142302px;stroke-linecap:butt;stroke-linejoin:miter;stroke-opacity:1"/><path d="M16.773 84.836 13.898 92.6h1.21l.64-1.69h3.154l.66 1.69h1.236l-2.929-7.745zm.557 1.528 1.24 3.431h-2.498z" style="display:inline;fill:#a4abb6;fill-opacity:1;fill-rule:nonzero;stroke:none;stroke-width:.142302px;stroke-linecap:butt;stroke-linejoin:miter;stroke-opacity:1"/><path d="M25.685 84.492a4.043 4.043 0 1 0 3.545 5.987l-1.03-.612a2.91 2.91 0 1 1-.05-2.892l.931-.633a4.04 4.04 0 0 0-3.396-1.85" style="display:inline;opacity:1;fill:#a4abb6;fill-opacity:1;stroke-width:.103086"/><path d="M52.116 84.501a4.043 4.043 0 0 0-4.043 4.043 4.043 4.043 0 0 0 4.043 4.043 4.043 4.043 0 0 0 4.043-4.043 4.043 4.043 0 0 0-4.043-4.043m-.062 1.06h.026a2.91 2.91 0 0 1 2.911 2.911 2.91 2.91 0 0 1-2.91 2.91 2.91 2.91 0 0 1-2.912-2.91 2.91 2.91 0 0 1 2.885-2.91M69.129 84.495a4.043 4.043 0 1 0 3.545 5.987l-1.03-.612a2.91 2.91 0 1 1-.05-2.891l.931-.634a4.04 4.04 0 0 0-3.396-1.85" style="display:inline;fill:#a4abb6;fill-opacity:1;stroke-width:.103086"/><path d="M31.291 84.837v7.744h3.792l.772-1.078H32.37v-2.3h2.73l.755-1.006H32.37v-2.282h2.677l.79-1.078zM74.807 84.831v7.745H78.6l.772-1.078h-3.485v-2.3h2.73l.755-1.007h-3.485V85.91h2.677l.79-1.078z" style="display:inline;fill:#a4abb6;fill-opacity:1;fill-rule:nonzero;stroke:none;stroke-width:.142302px;stroke-linecap:butt;stroke-linejoin:miter;stroke-opacity:1"/><path d="M58.125 84.79v6.988l1.118.813v-6.81h1.347c.428.025 1.632.288 1.651 1.55-.04 1.099-1.053 1.487-1.6 1.5l-.903.025 2.402 3.735h1.372l-1.97-2.973c.835-.281 1.723-.8 1.741-2.287.002-1.98-1.891-2.564-2.668-2.566z" style="display:inline;opacity:1;fill:#a4abb6;fill-opacity:1;fill-rule:nonzero;stroke:none;stroke-width:.142302px;stroke-linecap:butt;stroke-linejoin:miter;stroke-opacity:1"/><path d="m33.196 51.056 5.3 3.09L22.56 63.76z" style="display:inline;fill:url(#i);fill-opacity:1;fill-rule:nonzero;stroke:none;stroke-width:.142302px;stroke-linecap:butt;stroke-linejoin:miter;stroke-opacity:1"/><path d="m38.322 16.58-5.126 34.476L22.559 63.76Z" style="display:inline;fill:url(#j);fill-opacity:1;fill-rule:nonzero;stroke:none;stroke-width:.142302px;stroke-linecap:butt;stroke-linejoin:miter;stroke-opacity:1"/><path d="m46.268 50.964-5.3 3.09 15.937 9.613z" style="display:inline;fill:url(#k);fill-opacity:1;fill-rule:nonzero;stroke:none;stroke-width:.142302px;stroke-linecap:butt;stroke-linejoin:miter;stroke-opacity:1"/><path d="m41.142 16.488 5.126 34.476 10.637 12.703z" style="display:inline;fill:url(#l);fill-opacity:1;fill-rule:nonzero;stroke:none;stroke-width:.142302px;stroke-linecap:butt;stroke-linejoin:miter;stroke-opacity:1"/><path d="M42.145 84.828v7.009l1.174.747v-3.38h2.561l.783-1.067h-3.344v-2.313h2.739l.711-1.031z" style="display:inline;fill:#a4abb6;fill-opacity:1;fill-rule:nonzero;stroke:none;stroke-width:.142302px;stroke-linecap:butt;stroke-linejoin:miter;stroke-opacity:1"/><path d="M38.676 47.462h2.049l-1.006 3.396z" style="display:inline;fill:url(#m);fill-opacity:1;fill-rule:nonzero;stroke:none;stroke-width:.264583px;stroke-linecap:butt;stroke-linejoin:miter;stroke-opacity:1"/><path d="m40.725 47.462.011-2.066 3.277 1.024z" style="display:inline;fill:url(#n);fill-opacity:1;fill-rule:nonzero;stroke:none;stroke-width:.264583px;stroke-linecap:butt;stroke-linejoin:miter;stroke-opacity:1"/><path d="M40.736 45.396h-2.048L39.694 42z" style="display:inline;fill:url(#o);fill-opacity:1;fill-rule:nonzero;stroke:none;stroke-width:.264583px;stroke-linecap:butt;stroke-linejoin:miter;stroke-opacity:1"/><path d="M38.676 45.414v2.048l-3.396-1.006z" style="display:inline;fill:url(#p);fill-opacity:1;fill-rule:nonzero;stroke:none;stroke-width:.264583px;stroke-linecap:butt;stroke-linejoin:miter;stroke-opacity:1"/><g style="display:inline;opacity:1;fill:#a4abb6;fill-opacity:1"><g style="display:inline;fill:#a4abb6;fill-opacity:1"><path d="m167.969 170.515.437-.591c-.476-.434-.968-.587-1.607-.579-.95.02-1.576.5-1.603 1.323.018.956.93 1.226 1.603 1.406.424.127.935.108.969.65-.019.553-.65.58-.898.602-.64.015-1.001-.291-1.358-.603l-.485.567c.46.424 1.038.764 1.796.756.559-.02 1.647-.075 1.712-1.37.033-.848-.67-1.13-1.606-1.346-.446-.136-.971-.24-.945-.72.042-.363.285-.601.85-.591.502.028.831.248 1.135.496" style="display:inline;fill:#a4abb6;fill-rule:nonzero;stroke:none;stroke-width:.264583px;stroke-linecap:butt;stroke-linejoin:miter;stroke-opacity:1;fill-opacity:1" transform="translate(-29.206 -18.476)scale(.5692)"/><path d="M73.365 169.499h.886v2.539c.008 1.713 2.738 1.773 2.73 0l.024-2.522h.883l.024 2.622c-.018 1.29-1.074 2.033-2.258 2.072-1.572.012-2.283-1.147-2.305-1.988zM82.611 169.345v4.725h.874v-2.989l3.686 3.095V169.5h-.827v2.917z" style="opacity:1;fill:#a4abb6;fill-rule:nonzero;stroke:none;stroke-width:.264583px;stroke-linecap:butt;stroke-linejoin:miter;stroke-opacity:1;fill-opacity:1" transform="translate(-29.206 -18.476)scale(.5692)"/><path d="M92.132 169.522h.874v4.548h-.874zM98.902 169.547h.874v4.548h-.874z" style="opacity:1;fill:#a4abb6;stroke-width:.184;fill-opacity:1" transform="translate(-29.206 -18.476)scale(.5692)"/><path d="m544.598 640.5-8.776 17.299 3.346.094 1.894-3.25h7.325l1.388 3.218h3.536zm-.045 6.666 2.68 5.043-5.223.023zM436.26 640.752l-7.955-.007v17.212h8.113c2.412-.048 7.903-2.684 7.924-8.586 0-5.962-5.901-8.632-8.082-8.62m-1.168 3.094c2.963.005 5.951 1.842 5.967 5.43.002 3.795-3.373 5.693-5.967 5.712h-3.535V643.85z" style="opacity:1;fill:#a4abb6;fill-rule:nonzero;stroke:none;stroke-width:.999999px;stroke-linecap:butt;stroke-linejoin:miter;stroke-opacity:1;fill-opacity:1" transform="translate(-29.206 -18.476)scale(.1506)"/><path d="m129.622 170.668.437-.59c-.475-.435-.967-.587-1.606-.58-.951.02-1.576.5-1.604 1.324.018.955.93 1.225 1.604 1.405.424.127.935.108.968.65-.018.554-.65.58-.897.602-.64.015-1.002-.29-1.359-.602l-.484.567c.46.424 1.038.763 1.795.756.56-.02 1.647-.076 1.713-1.37.033-.849-.671-1.131-1.606-1.347-.446-.135-.972-.24-.945-.72.042-.363.284-.6.85-.591.502.028.83.248 1.134.496" style="display:inline;opacity:1;fill:#a4abb6;fill-rule:nonzero;stroke:none;stroke-width:.264583px;stroke-linecap:butt;stroke-linejoin:miter;stroke-opacity:1;fill-opacity:1" transform="translate(-29.206 -18.476)scale(.5692)"/><path d="M105.548 169.528h.874v4.548h-.874z" style="display:inline;opacity:1;fill:#a4abb6;stroke-width:.184;fill-opacity:1" transform="translate(-29.206 -18.476)scale(.5692)"/><path d="M-170.33 97.193h.874v4.263h-.874z" style="display:inline;opacity:1;fill:#a4abb6;stroke-width:.178156;fill-opacity:1" transform="rotate(-90 -23.841 5.365)scale(.5692)"/><path d="M-170.308 105.548h.78v3.425h-.78z" style="display:inline;opacity:1;fill:#a4abb6;stroke-width:.150796;fill-opacity:1" transform="rotate(-90 -23.841 5.365)scale(.5692)"/><path d="M-174.076 105.548h.768v3.46h-.768z" style="display:inline;opacity:1;fill:#a4abb6;stroke-width:.150422;fill-opacity:1" transform="rotate(-90 -23.841 5.365)scale(.5692)"/><path d="M-172.192 105.609h.78v2.858h-.78z" style="display:inline;opacity:1;fill:#a4abb6;stroke-width:.137749;fill-opacity:1" transform="rotate(-90 -23.841 5.365)scale(.5692)"/><path d="M135.898 169.552h.874v4.548h-.874z" style="display:inline;opacity:1;fill:#a4abb6;stroke-width:.184;fill-opacity:1" transform="translate(-29.206 -18.476)scale(.5692)"/><path d="M-170.335 134.189h.874v4.263h-.874z" style="display:inline;opacity:1;fill:#a4abb6;stroke-width:.178156;fill-opacity:1" transform="rotate(-90 -23.841 5.365)scale(.5692)"/><path d="M151.141 169.578h.874v4.548h-.874z" style="display:inline;opacity:1;fill:#a4abb6;stroke-width:.184;fill-opacity:1" transform="translate(-29.206 -18.476)scale(.5692)"/><path d="M-170.361 149.432h.874v4.263h-.874z" style="display:inline;opacity:1;fill:#a4abb6;stroke-width:.178156;fill-opacity:1" transform="rotate(-90 -23.841 5.365)scale(.5692)"/><path d="M157.777 169.534h.874v4.548h-.874z" style="display:inline;opacity:1;fill:#a4abb6;stroke-width:.184;fill-opacity:1" transform="translate(-29.206 -18.476)scale(.5692)"/><path d="M-170.314 157.777h.78v3.425h-.78z" style="display:inline;opacity:1;fill:#a4abb6;stroke-width:.150796;fill-opacity:1" transform="rotate(-90 -23.841 5.365)scale(.5692)"/><path d="M-174.082 157.777h.768v3.46h-.768z" style="display:inline;opacity:1;fill:#a4abb6;stroke-width:.150422;fill-opacity:1" transform="rotate(-90 -23.841 5.365)scale(.5692)"/><path d="M-172.198 157.838h.78v2.858h-.78z" style="display:inline;opacity:1;fill:#a4abb6;stroke-width:.137749;fill-opacity:1" transform="rotate(-90 -23.841 5.365)scale(.5692)"/><path d="m59.095 184.35 1.57-1.172c-.987-1.139-2.327-1.938-4.295-1.95-2.998.04-4.386 1.992-4.417 3.617.029 3.073 2.895 3.47 4.677 4.132.928.305 2.339.762 2.268 2.17-.169 1.603-1.21 1.992-2.504 2.171-1.252.11-2.525-.748-3.355-1.937l-1.724 1.307c1.13 1.262 2.567 2.372 5.09 2.434 2.723-.033 4.521-1.929 4.548-4.044-.032-2.654-2.45-3.423-4.087-3.945-.782-.266-2.855-.704-2.953-2.311-.004-1 .94-1.942 2.505-1.914 1.201.047 2.116.599 2.677 1.442" style="opacity:1;fill:#a4abb6;fill-opacity:1;fill-rule:nonzero;stroke:none;stroke-width:.262999px;stroke-linecap:butt;stroke-linejoin:miter;stroke-opacity:1" transform="translate(-29.206 -18.476)scale(.5692)"/></g></g></g></svg>