<svg xmlns="http://www.w3.org/2000/svg" viewBox="-15 175 1100 1100" fill="#ffffff" style="fill-rule:evenodd">
  <g id="Main_O" data-name="Main O">
    <path id="O_Left" data-name="O Left" d="M735.506,1125.02c35.88-27.44,231.121-264.057,233.288-505.819,2.186-243.9-232.34-398.134-357.564-436.053-25.34-7.674-31.755-3.021-43.605,2.18S455.032,250.87,438.989,263.817c40.927,0.127,248.119,136.18,327.04,379.367C811.768,784.125,803.242,982.113,735.506,1125.02Z"></path>
    <path id="O_Right" data-name="O Right" d="M328.434,325.257c-35.6,27.8-228.458,266.368-228.2,508.139,0.263,243.9,236.326,395.784,361.925,432.444,25.416,7.42,31.784,2.7,43.581-2.62s111.93-66.67,127.841-79.78c-40.926.29-249.474-133.68-330.833-376.062C255.6,666.9,262.137,468.84,328.434,325.257Z"></path>
    <g id="D8_O_Dot_3_" data-name="D8 [O Dot 3]">
      <path id="Right_Triangle" data-name="Right Triangle" d="M701.712,647.545v165.7l-135.177,78.49Z"></path>
      <path id="Left_Triangle" data-name="Left Triangle" d="M381.212,647.545v165.7l135.177,78.49Z"></path>
      <path id="Top_Triangle" data-name="Top Triangle" d="M681.887,620.062l-143.5-82.85L402.824,615.034Z"></path>
      <path id="Triangle_Main" data-name="Triangle Main" d="M541.471,894.552L390.346,632.8H692.6Z"></path>
    </g>
  </g>
</svg>
