<svg xmlns="http://www.w3.org/2000/svg" fill="#fff" style="fill-rule:evenodd" viewBox="-15 175 1100 1100"><g data-name="Main O"><path d="M735.506 1125.02c35.88-27.44 231.121-264.057 233.288-505.819 2.186-243.9-232.34-398.134-357.564-436.053-25.34-7.674-31.755-3.021-43.605 2.18s-112.593 65.542-128.636 78.489c40.927.127 248.119 136.18 327.04 379.367 45.739 140.941 37.213 338.929-30.523 481.836" data-name="O Left"/><path d="M328.434 325.257c-35.6 27.8-228.458 266.368-228.2 508.139.263 243.9 236.326 395.784 361.925 432.444 25.416 7.42 31.784 2.7 43.581-2.62s111.93-66.67 127.841-79.78c-40.926.29-249.474-133.68-330.833-376.062C255.6 666.9 262.137 468.84 328.434 325.257" data-name="O Right"/><g data-name="D8 [O Dot 3]"><path d="M701.712 647.545v165.7l-135.177 78.49Z" data-name="Right Triangle"/><path d="M381.212 647.545v165.7l135.177 78.49Z" data-name="Left Triangle"/><path d="m681.887 620.062-143.5-82.85-135.563 77.822Z" data-name="Top Triangle"/><path d="M541.471 894.552 390.346 632.8H692.6Z" data-name="Triangle Main"/></g></g></svg>