<svg xmlns="http://www.w3.org/2000/svg" width="144" height="48" viewBox="0 0 108 36"><path fill="#a6a6a6" d="M27.61 5.877q.812.001.813.688 0 .206-.078.516l-.36 1.218q-.175.563-.421.797c-.157.149-.387.219-.688.219q-.377 0-.578-.188c-.137-.132-.262-.343-.375-.625l-.266-.625q-.11-.28-.25-.375c-.093-.07-.234-.109-.421-.109h-.344l-1.906 6.719a1.4 1.4 0 0 0-.047.344.8.8 0 0 0 .047.296q.06.128.156.25.14.222.14.344 0 .034-.03.156a.54.54 0 0 1-.298.282q-.222.093-.61.093h-3.546q-.315 0-.484-.093a.34.34 0 0 1-.172-.313q0-.091.047-.172a.5.5 0 0 1 .14-.203q.075-.076.25-.187.217-.123.375-.282.155-.17.25-.515l1.907-6.719h-.36c-.219 0-.402.04-.547.11q-.203.093-.437.374l-.5.625q-.344.41-.672.61-.315.204-.688.203-.347.002-.546-.172-.188-.187-.188-.516-.002-.14.031-.328l.39-1.359q.125-.42.267-.64a.85.85 0 0 1 .437-.313c.188-.07.453-.11.797-.11ZM36.186 13.815a.4.4 0 0 0-.032.187q0 .113.047.172.06.047.141.047.186.002.312-.156.125-.154.172-.156.078.002.125.11a.5.5 0 0 1 .047.218q.013.438-.297.86-.3.408-.875.671-.58.265-1.39.266-.986.001-1.578-.453a1.54 1.54 0 0 1-.594-1.235c0-.375.086-.789.265-1.25l.829-2.156a1 1 0 0 0 .078-.328.36.36 0 0 0-.14-.297.42.42 0 0 0-.298-.125q-.3.001-.594.266-.28.268-.468.859v-.031l-.938 3.047a1.2 1.2 0 0 0-.047.312q-.002.206.078.313.076.112.204.218c.07.075.125.133.156.172q.046.066.015.172a.54.54 0 0 1-.312.281q-.22.094-.688.094h-3.421c-.258 0-.446-.039-.563-.125q-.186-.122-.125-.344.066-.17.313-.312a1.6 1.6 0 0 0 .375-.281c.101-.114.187-.29.25-.532l2.296-7.5q.031-.138.032-.218a.4.4 0 0 0-.078-.266 1.3 1.3 0 0 0-.22-.219 3 3 0 0 1-.218-.203q-.064-.092-.016-.25.094-.34.938-.594a6 6 0 0 1 1.797-.265q.872 0 1.281.328.422.33.422.906c0 .219-.04.434-.11.64l-.812 2.657q.576-.762 1.234-1.063.656-.311 1.422-.312.922 0 1.485.562c.375.368.562.844.562 1.438q-.002.47-.156.922ZM42.728 7.862q1.904 0 2.765.61c.57.405.86.929.86 1.562 0 .187-.024.36-.063.515-.148.668-.562 1.149-1.25 1.438q-1.031.422-2.437.422-.703 0-1.313-.094-.016.784.422 1.094.435.314 1.219.312c.238 0 .469-.023.687-.078q.329-.075.844-.25.422-.14.563-.14.17 0 .172.187.012.534-.391 1.11-.408.579-1.203.984-.797.408-1.922.406c-1.117 0-2.031-.281-2.75-.844q-1.065-.842-1.063-2.453-.001-.45.125-1.047c.25-1.226.797-2.156 1.641-2.781q1.278-.951 3.094-.953M41.4 11.409a.5.5 0 0 0 .156.015q.623.001.953-.578.34-.591.328-1.312-.016-.422-.25-.422-.157.001-.39.265-.222.27-.438.797a6 6 0 0 0-.36 1.235M58.865 5.877q.561.002.86.25a.78.78 0 0 1 .312.657c0 .136-.024.273-.063.406l-.39 1.39q-.096.41-.297.579-.204.157-.578.156-.364.002-.563-.156-.206-.17-.312-.532l-.25-.843c-.043-.188-.102-.305-.172-.36q-.112-.093-.406-.093h-1.579l-.75 2.671h.657q.106.002.28-.156l.517-.453a4 4 0 0 1 .39-.281.83.83 0 0 1 .406-.094c.176 0 .32.055.438.156a.43.43 0 0 1 .187.36 1 1 0 0 1-.03.187l-.626 2.078a.94.94 0 0 1-.312.5.8.8 0 0 1-.47.157c-.28 0-.491-.145-.624-.438l-.266-.531a.33.33 0 0 0-.328-.219h-.578l-.89 3.188h1.328q.279 0 .5-.11.216-.124.468-.406l.907-1c.156-.164.304-.285.453-.36.144-.07.32-.109.53-.109.227 0 .411.055.548.156.133.094.203.243.203.438q-.001.13-.031.281l-.438 1.531q-.175.563-.484.797-.315.222-.922.22h-7.172c-.21 0-.367-.032-.484-.095a.34.34 0 0 1-.172-.297q0-.092.047-.203a.55.55 0 0 1 .203-.25q.128-.092.156-.109.233-.14.39-.297c.102-.101.188-.281.25-.531l1.86-6.469q.061-.2.063-.36a.63.63 0 0 0-.063-.296 1.1 1.1 0 0 0-.156-.266c-.094-.125-.14-.226-.14-.312 0-.032.007-.086.03-.172.04-.125.13-.211.266-.266q.217-.093.625-.094ZM66.462 7.94q.795.002 1.328.578c.351.375.531.899.531 1.563q0 1.328-.937 2.734a8.2 8.2 0 0 1-2.36 2.312q-1.423.908-2.781.907-1.3.001-2.11-.532-.796-.527-.796-1.5 0-.356.14-.812l.953-3.234a1 1 0 0 0 .032-.188.43.43 0 0 0-.078-.25 1.3 1.3 0 0 0-.22-.219c-.148-.132-.218-.25-.218-.343q-.019-.218.25-.454.28-.247.766-.406c.32-.101.691-.156 1.11-.156.663 0 1.187.168 1.562.5q.562.486.562 1.266-.001.345-.125.75l-.969 3.218a.7.7 0 0 0-.047.22q-.001.205.125.312a.7.7 0 0 0 .391.093q.328 0 .766-.28.45-.293.89-.845a4.8 4.8 0 0 0 .703-1.312q-.611-.516-.859-1.031a2.5 2.5 0 0 1-.234-1.063q-.002-.762.406-1.297c.281-.351.687-.531 1.219-.531M73.227 7.862q1.904 0 2.765.61c.57.405.86.929.86 1.562 0 .187-.024.36-.063.515q-.22 1.003-1.25 1.438-1.031.422-2.437.422-.703 0-1.313-.094-.016.784.422 1.094.434.314 1.219.312c.238 0 .469-.023.687-.078q.329-.075.844-.25.422-.14.563-.14.17 0 .172.187.011.534-.391 1.11c-.274.386-.672.714-1.203.984q-.797.408-1.922.406-1.674 0-2.75-.844-1.065-.842-1.063-2.453-.001-.45.125-1.047c.25-1.226.797-2.156 1.641-2.781q1.278-.951 3.094-.953m-1.328 3.547a.5.5 0 0 0 .156.015q.623.001.953-.578.34-.591.328-1.312-.017-.422-.25-.422-.157.001-.39.265-.222.27-.438.797a6 6 0 0 0-.36 1.235M85.843 13.815a.8.8 0 0 0-.015.187q0 .113.047.172.046.047.14.047.186.002.313-.156.123-.154.172-.156.075.002.109.11a.5.5 0 0 1 .047.218q.012.438-.281.86-.301.408-.875.671-.582.265-1.391.266-1.003.001-1.594-.453a1.54 1.54 0 0 1-.593-1.235c0-.375.093-.789.28-1.25l.829-2.156q.06-.2.062-.328a.38.38 0 0 0-.125-.297.42.42 0 0 0-.296-.125q-.347 0-.641.312-.299.316-.438.766l-.921 3.063a.9.9 0 0 0-.063.312c0 .125.02.227.063.297q.077.111.218.234c.07.063.125.121.157.172q.045.066.015.172-.063.188-.297.281-.222.094-.703.094H76.64c-.258 0-.445-.039-.562-.125q-.171-.122-.125-.344.047-.17.312-.312c.149-.082.266-.176.36-.281q.153-.17.265-.532l1.344-4.343a.6.6 0 0 0 .031-.204.4.4 0 0 0-.078-.265 1.3 1.3 0 0 0-.219-.219 1.4 1.4 0 0 1-.203-.203q-.064-.094-.015-.25.093-.34.937-.61a6 6 0 0 1 1.797-.265q.75 0 1.188.422.435.409.39 1.14.607-.89 1.297-1.218a3.4 3.4 0 0 1 1.516-.344q.92 0 1.484.562c.375.368.563.844.563 1.438 0 .312-.055.621-.157.922ZM94.023 8.143q.28.001.437.125a.37.37 0 0 1 .156.313c0 .043-.008.117-.015.218q-.204.657-.907.657h-.875l-1.125 3.718a1.3 1.3 0 0 0-.078.47q0 .269.14.374.154.094.438.094c.157 0 .352-.016.594-.047q.186-.047.313-.047c.07 0 .125.024.156.063a.25.25 0 0 1 .062.171c.008.2-.14.446-.453.735q-.456.422-1.234.734a4.7 4.7 0 0 1-1.734.313q-1.02 0-1.641-.469-.61-.468-.61-1.281-.001-.375.126-.719l.953-2.984q.076-.247.078-.407a.87.87 0 0 0-.14-.5 2.3 2.3 0 0 0-.391-.437 2.2 2.2 0 0 1-.329-.36.46.46 0 0 1-.046-.328.47.47 0 0 1 .25-.297c.132-.07.343-.109.625-.109h.843l.953-.953q.497-.5.907-.688c.27-.132.629-.203 1.078-.203.625 0 .937.243.937.72q-.002.233-.062.421l-.203.703Zm0 0"/><path fill="#ab532a" d="M26.947 5.214q.81 0 .812.687 0 .206-.078.516l-.36 1.218q-.175.563-.421.797c-.157.149-.387.219-.688.219q-.377 0-.578-.187-.205-.202-.375-.625l-.266-.625q-.11-.282-.25-.375c-.093-.07-.234-.11-.421-.11h-.344l-1.906 6.719a1.4 1.4 0 0 0-.047.344.8.8 0 0 0 .047.297q.06.127.156.25.14.221.14.343 0 .034-.03.157a.54.54 0 0 1-.298.28q-.222.095-.609.095h-3.547q-.315 0-.484-.094a.34.34 0 0 1-.172-.313q0-.091.047-.172a.5.5 0 0 1 .14-.203q.075-.075.25-.187.217-.123.375-.281.155-.171.25-.516l1.907-6.719h-.36c-.219 0-.402.04-.547.11q-.203.093-.437.375l-.5.625q-.344.41-.672.609-.315.204-.688.203-.347.002-.546-.172-.188-.188-.188-.515-.002-.141.031-.329l.391-1.359q.124-.42.266-.64a.85.85 0 0 1 .437-.313c.188-.07.453-.11.797-.11ZM35.522 13.151a.4.4 0 0 0-.032.188q0 .112.047.171.06.047.141.047.186.002.312-.156.125-.155.172-.156.078.002.125.11a.5.5 0 0 1 .047.218q.013.438-.297.86-.3.408-.875.671-.58.265-1.39.266-.986.002-1.578-.453a1.54 1.54 0 0 1-.594-1.235q-.002-.56.265-1.25l.829-2.156a1 1 0 0 0 .078-.328.36.36 0 0 0-.14-.297.42.42 0 0 0-.298-.125q-.3.001-.594.266-.28.268-.468.859v-.031l-.938 3.047a1.2 1.2 0 0 0-.047.312q-.002.206.078.313.076.112.204.218c.07.075.125.133.156.172q.046.066.015.172a.54.54 0 0 1-.312.281q-.22.094-.688.094H26.32q-.387.002-.563-.125-.186-.122-.125-.344.066-.17.313-.312a1.6 1.6 0 0 0 .375-.281c.101-.114.187-.29.25-.532l2.296-7.5q.031-.138.032-.218a.4.4 0 0 0-.078-.266 1.3 1.3 0 0 0-.22-.219 3 3 0 0 1-.218-.203q-.064-.092-.016-.25.094-.34.938-.594A6 6 0 0 1 31.1 4.12q.872 0 1.281.328.422.33.422.906c0 .219-.04.434-.11.64l-.812 2.657c.383-.508.797-.863 1.234-1.062q.656-.312 1.422-.313.922 0 1.485.563c.375.367.562.843.562 1.437q-.002.47-.156.922ZM42.064 7.198q1.905 0 2.765.61c.57.406.86.929.86 1.562 0 .187-.024.36-.063.515-.148.668-.562 1.149-1.25 1.438q-1.031.422-2.437.422-.703 0-1.313-.094-.016.784.422 1.094.435.313 1.219.312c.238 0 .469-.023.687-.078q.329-.075.844-.25.422-.14.563-.14.17 0 .172.187.012.534-.391 1.11-.408.579-1.203.984-.797.408-1.922.406-1.673 0-2.75-.844-1.064-.842-1.063-2.453-.001-.45.125-1.047c.25-1.226.797-2.156 1.641-2.781q1.278-.951 3.094-.953m-1.328 3.547a.5.5 0 0 0 .156.015q.623.001.953-.578.34-.591.328-1.312-.016-.422-.25-.422-.157.001-.39.266-.222.27-.438.796a6 6 0 0 0-.36 1.235M58.2 5.214q.563.001.86.25a.78.78 0 0 1 .313.656c0 .136-.024.273-.063.406l-.39 1.39q-.096.41-.297.579-.204.157-.578.156-.364.002-.563-.156-.206-.17-.312-.531l-.25-.844c-.043-.188-.102-.305-.172-.36q-.112-.093-.406-.093h-1.579l-.75 2.672h.657q.105.001.28-.157l.517-.453a4 4 0 0 1 .39-.281.83.83 0 0 1 .406-.094c.176 0 .32.055.438.156a.43.43 0 0 1 .187.36 1 1 0 0 1-.03.187l-.626 2.078a.94.94 0 0 1-.312.5.8.8 0 0 1-.47.157c-.28 0-.491-.145-.624-.438l-.266-.531a.33.33 0 0 0-.328-.219h-.578l-.89 3.188h1.328c.187 0 .351-.036.5-.11q.216-.123.468-.406l.907-1c.156-.164.304-.285.453-.36q.215-.107.53-.109.341.002.548.157c.133.093.203.242.203.437q-.001.13-.031.281l-.438 1.532q-.174.562-.484.796-.315.222-.922.22h-7.172c-.21 0-.367-.032-.484-.095a.34.34 0 0 1-.172-.296q0-.094.047-.204a.55.55 0 0 1 .203-.25q.128-.092.156-.109.233-.14.39-.297c.102-.101.188-.281.25-.531l1.86-6.469q.061-.2.063-.36a.63.63 0 0 0-.063-.296 1.1 1.1 0 0 0-.156-.266c-.094-.125-.14-.226-.14-.312 0-.031.007-.086.03-.172q.061-.185.266-.266.217-.093.625-.093ZM65.798 7.276q.795.002 1.328.578c.351.375.531.899.531 1.563q0 1.329-.937 2.734a8.2 8.2 0 0 1-2.36 2.313q-1.423.907-2.781.906-1.3 0-2.11-.531-.796-.528-.796-1.5 0-.357.14-.813l.953-3.234a1 1 0 0 0 .032-.188.43.43 0 0 0-.078-.25 1.3 1.3 0 0 0-.22-.219c-.148-.132-.218-.25-.218-.343q-.019-.218.25-.453.281-.248.766-.407c.32-.101.691-.156 1.11-.156.663 0 1.187.168 1.562.5q.562.486.562 1.266-.001.345-.125.75l-.969 3.218a.7.7 0 0 0-.047.22q-.001.205.125.312a.7.7 0 0 0 .391.093q.328 0 .766-.28.45-.293.89-.845a4.8 4.8 0 0 0 .703-1.312q-.611-.516-.859-1.031a2.5 2.5 0 0 1-.234-1.063q-.002-.763.406-1.297c.281-.351.687-.531 1.219-.531M72.563 7.198q1.904 0 2.765.61c.57.406.86.929.86 1.562 0 .187-.024.36-.063.515q-.22 1.003-1.25 1.438-1.031.422-2.437.422-.703 0-1.313-.094-.016.784.422 1.094.434.313 1.219.312c.238 0 .469-.023.687-.078q.329-.075.844-.25.422-.14.563-.14.17 0 .172.187.011.534-.391 1.11c-.274.386-.672.714-1.203.984q-.797.408-1.922.406c-1.117 0-2.031-.281-2.75-.844q-1.065-.842-1.063-2.453-.001-.45.125-1.047c.25-1.226.797-2.156 1.641-2.781q1.278-.951 3.094-.953m-1.328 3.547a.5.5 0 0 0 .156.015q.623.001.953-.578.34-.591.328-1.312-.017-.422-.25-.422-.157.001-.39.266-.222.27-.438.796a6 6 0 0 0-.36 1.235M85.18 13.151a.8.8 0 0 0-.016.188q0 .112.047.171.046.047.14.047.186.002.313-.156.123-.155.172-.156.075.002.11.11a.5.5 0 0 1 .046.218q.012.438-.281.86-.301.408-.875.671-.582.265-1.39.266-1.003.002-1.595-.453a1.54 1.54 0 0 1-.593-1.235q0-.56.28-1.25l.829-2.156q.06-.2.062-.328a.38.38 0 0 0-.125-.297.42.42 0 0 0-.296-.125q-.347 0-.641.313-.298.314-.438.765l-.921 3.063a.9.9 0 0 0-.063.312c0 .125.02.227.063.297q.077.111.218.234c.07.063.125.121.157.172q.045.066.015.172-.063.188-.297.281-.222.094-.703.094h-3.422q-.387.002-.562-.125-.17-.122-.125-.344.048-.17.312-.312c.149-.082.266-.176.36-.281q.153-.17.265-.532l1.344-4.343a.6.6 0 0 0 .031-.203.4.4 0 0 0-.078-.266 1.3 1.3 0 0 0-.219-.219 1.4 1.4 0 0 1-.203-.203q-.064-.093-.015-.25.094-.34.937-.61a6 6 0 0 1 1.797-.265q.75 0 1.188.422.435.409.39 1.14.607-.89 1.297-1.218a3.4 3.4 0 0 1 1.516-.344q.921 0 1.484.563c.375.367.563.843.563 1.437q-.002.47-.157.922ZM93.359 7.48q.28 0 .437.124a.37.37 0 0 1 .156.313q-.002.066-.015.218-.205.657-.907.657h-.875L91.03 12.51a1.3 1.3 0 0 0-.078.47q0 .269.14.374.155.094.438.094c.157 0 .352-.016.594-.047q.186-.047.313-.047c.07 0 .125.024.156.063a.25.25 0 0 1 .062.172c.008.199-.14.445-.453.734q-.456.423-1.234.734a4.7 4.7 0 0 1-1.734.313q-1.02 0-1.641-.469-.61-.467-.61-1.281-.001-.374.126-.719l.953-2.984q.077-.247.078-.407a.87.87 0 0 0-.14-.5 2.3 2.3 0 0 0-.391-.437 2.2 2.2 0 0 1-.329-.36.46.46 0 0 1-.046-.328.47.47 0 0 1 .25-.296c.132-.07.343-.11.625-.11h.843l.953-.953q.497-.499.907-.687c.27-.133.629-.204 1.078-.204.625 0 .937.243.937.72q-.002.233-.062.421l-.203.703Zm0 0"/><path fill="#a6a6a6" d="M12.858 29.495q-1.266 0-2.281-.468a3.76 3.76 0 0 1-1.594-1.375q-.595-.903-.594-2.203-.002-.904.313-1.954c.469-1.5 1.164-2.582 2.094-3.25q1.389-.998 2.984-1 .857.002 1.516.25c.445.168.859.414 1.234.735l.39-.313q.406-.31.688-.437a1.5 1.5 0 0 1 .625-.125c.25 0 .445.058.594.172a.57.57 0 0 1 .234.484q-.002.159-.062.328l-.844 2.344q-.127.409-.313.578-.187.157-.562.156a.83.83 0 0 1-.64-.265c-.169-.188-.356-.508-.563-.97q-.361-.7-.594-.921-.222-.234-.656-.234-.628.002-1.203.765c-.375.5-.72 1.258-1.032 2.266q-.39 1.284-.39 2.14 0 .75.281 1.126c.195.242.457.359.781.359q.701.002 1.157-.313a4.6 4.6 0 0 0 .937-.859 7 7 0 0 1 .5-.484.6.6 0 0 1 .39-.157q.281 0 .579.282.293.269.281.53.013.33-.531 1.032-.55.69-1.516 1.235c-.648.367-1.383.546-2.203.546M23.833 21.449q2.044 0 3.015.828.969.83.97 2.172c0 .293-.04.625-.11 1a5.16 5.16 0 0 1-1.078 2.156 5.4 5.4 0 0 1-1.922 1.437c-.75.336-1.57.5-2.453.5-1.387 0-2.414-.273-3.078-.828q-1.001-.842-1-2.234-.001-.452.109-1.031a4.9 4.9 0 0 1 1.094-2.079 5.6 5.6 0 0 1 1.968-1.406 6.1 6.1 0 0 1 2.485-.515m-.047 1.343q-.316 0-.672.563c-.23.375-.508 1.086-.828 2.125q-.485 1.565-.484 2.187-.001.346.109.453.105.111.281.11.329.033.656-.531.342-.576.86-2.235.451-1.453.453-2.125 0-.31-.094-.422-.093-.124-.281-.125M42.173 27.324a.4.4 0 0 0-.031.187q0 .112.047.172.059.047.14.047.186 0 .313-.156.123-.155.172-.157c.05 0 .093.04.125.11a.5.5 0 0 1 .047.218q.012.439-.297.86-.301.409-.875.672-.581.264-1.391.265c-.656 0-1.184-.148-1.578-.453a1.54 1.54 0 0 1-.594-1.234c0-.375.086-.79.266-1.25l.828-2.156a1 1 0 0 0 .078-.329.36.36 0 0 0-.14-.296.42.42 0 0 0-.297-.125q-.251 0-.532.234-.269.222-.484.703l-.813 2.688a.4.4 0 0 0-.03.187q0 .112.046.172.047.047.14.047c.126 0 .227-.051.313-.156q.124-.155.172-.157c.05 0 .094.04.125.11a.5.5 0 0 1 .047.218c0 .293-.102.579-.297.86q-.3.409-.875.672-.582.264-1.39.265c-.669 0-1.2-.148-1.594-.453a1.54 1.54 0 0 1-.594-1.234q0-.561.281-1.25l.828-2.156a1 1 0 0 0 .078-.329.36.36 0 0 0-.14-.296.42.42 0 0 0-.297-.125q-.27.001-.531.218c-.18.149-.328.383-.453.703L32 27.84a.9.9 0 0 0-.062.312q0 .189.062.297.076.111.219.234c.07.062.125.121.156.172q.045.065.016.172-.063.187-.297.28-.223.095-.703.095H27.97q-.386.001-.563-.125-.17-.123-.125-.344.049-.17.313-.313.22-.123.36-.28.151-.17.265-.532l1.344-4.344a.6.6 0 0 0 .03-.203.4.4 0 0 0-.077-.266 1.3 1.3 0 0 0-.219-.218 1.4 1.4 0 0 1-.203-.203q-.064-.093-.016-.25.094-.34.938-.61a6 6 0 0 1 1.797-.265q.733 0 1.156.406c.289.273.43.64.422 1.11.406-.571.836-.97 1.297-1.188a3.4 3.4 0 0 1 1.484-.328q.872 0 1.422.515.544.504.61 1.313.637-1.03 1.374-1.422.749-.405 1.61-.406.92 0 1.484.562.563.549.563 1.438 0 .469-.141.921ZM57.918 27.324a.4.4 0 0 0-.031.187q0 .112.047.172.059.047.14.047c.126 0 .227-.051.313-.156q.124-.155.172-.157c.05 0 .094.04.125.11a.5.5 0 0 1 .047.218q.013.439-.297.86-.3.409-.875.672-.582.264-1.39.265c-.657 0-1.184-.148-1.579-.453a1.54 1.54 0 0 1-.594-1.234c0-.375.086-.79.266-1.25l.828-2.156a1 1 0 0 0 .078-.329.36.36 0 0 0-.14-.296.42.42 0 0 0-.297-.125q-.251 0-.531.234-.269.222-.485.703l-.812 2.688a.4.4 0 0 0-.032.187q0 .112.047.172.047.047.14.047c.126 0 .227-.051.313-.156q.124-.155.172-.157c.051 0 .094.04.125.11a.5.5 0 0 1 .047.218q-.002.439-.297.86-.3.409-.875.672-.58.264-1.39.265c-.668 0-1.2-.148-1.594-.453a1.54 1.54 0 0 1-.594-1.234q0-.561.281-1.25l.829-2.156a1 1 0 0 0 .078-.329.36.36 0 0 0-.141-.296.42.42 0 0 0-.297-.125q-.268.001-.531.218c-.18.149-.328.383-.453.703l-.985 3.22a.9.9 0 0 0-.062.312q0 .189.062.297.077.111.22.234.107.094.155.172.047.065.016.172-.063.187-.297.28-.223.095-.703.095h-3.422q-.387.001-.562-.125-.172-.123-.125-.344.047-.17.312-.313c.149-.082.266-.175.36-.28q.152-.17.265-.532l1.344-4.344a.6.6 0 0 0 .031-.203.4.4 0 0 0-.078-.266 1.3 1.3 0 0 0-.219-.218 1.4 1.4 0 0 1-.203-.203q-.064-.093-.015-.25.093-.34.937-.61a6 6 0 0 1 1.797-.265q.733 0 1.156.406c.29.273.43.64.422 1.11.406-.571.836-.97 1.297-1.188a3.4 3.4 0 0 1 1.484-.328q.872 0 1.422.515.545.504.61 1.313.636-1.03 1.375-1.422.749-.405 1.609-.406.921 0 1.484.562.563.549.563 1.438 0 .469-.14.921ZM68.289 27.324a2 2 0 0 0-.016.187q0 .112.047.172.047.047.14.047.186 0 .313-.156.123-.155.172-.157c.05 0 .094.04.125.11a.5.5 0 0 1 .047.218q.012.423-.297.844c-.211.274-.508.5-.89.688a2.95 2.95 0 0 1-1.266.265q-.892 0-1.422-.36-.532-.373-.672-.952-.549.596-1.203.906-.644.315-1.328.313-1.051 0-1.766-.516-.703-.516-.703-1.453 0-.42.14-.875l.97-3.14a.7.7 0 0 0 .046-.22.4.4 0 0 0-.078-.265.9.9 0 0 0-.234-.203 1.4 1.4 0 0 1-.204-.203q-.063-.093-.015-.25.093-.34.937-.61a6 6 0 0 1 1.797-.265q.872 0 1.281.328c.27.218.407.523.407.906 0 .23-.04.45-.11.656l-.953 3.125a1.3 1.3 0 0 0-.047.328q-.001.206.11.313.124.11.312.11.293.001.469-.173c.125-.113.242-.3.36-.562l.921-3.016a.7.7 0 0 0 .047-.219.4.4 0 0 0-.078-.265 1.1 1.1 0 0 0-.203-.203 1.2 1.2 0 0 1-.219-.203q-.064-.093-.016-.25.077-.34.938-.61a6 6 0 0 1 1.781-.265q.872 0 1.281.328.422.327.422.89-.001.284-.125.672ZM78.97 27.324a.8.8 0 0 0-.016.187q0 .112.047.172.047.047.141.047.186 0 .312-.156.124-.155.172-.157c.051 0 .086.04.11.11a.5.5 0 0 1 .047.218q.011.439-.282.86-.3.409-.875.672-.58.264-1.39.265c-.668 0-1.2-.148-1.594-.453a1.54 1.54 0 0 1-.594-1.234q0-.561.281-1.25l.829-2.156q.06-.2.062-.329a.38.38 0 0 0-.125-.296.42.42 0 0 0-.297-.125q-.346 0-.64.312-.299.316-.438.766l-.922 3.062a.9.9 0 0 0-.062.313q0 .189.062.297.077.111.219.234c.07.062.125.121.156.172q.046.065.016.172-.063.187-.297.28-.222.095-.703.095h-3.422q-.386.001-.563-.125-.17-.123-.125-.344.049-.17.313-.313.22-.123.36-.28.151-.17.265-.532l1.344-4.344a.6.6 0 0 0 .031-.203.4.4 0 0 0-.078-.266 1.3 1.3 0 0 0-.219-.218 1.4 1.4 0 0 1-.203-.203q-.064-.093-.016-.25.094-.34.938-.61a6 6 0 0 1 1.797-.265q.749 0 1.187.421.436.41.39 1.141.609-.89 1.298-1.219A3.4 3.4 0 0 1 78 21.45q.922 0 1.485.562.562.549.562 1.438-.001.469-.156.921ZM84.384 21.449q.872 0 1.28.328c.27.218.407.523.407.906q-.002.346-.11.656l-1.374 4.5a1.2 1.2 0 0 0-.047.313q0 .206.062.312.077.112.22.219.107.112.155.172.046.065.016.172a.54.54 0 0 1-.313.28q-.22.095-.687.095h-3.422q-.387.001-.562-.125c-.125-.082-.164-.196-.125-.344q.047-.17.312-.313c.149-.082.266-.175.36-.28q.152-.17.265-.532l1.313-4.344a.7.7 0 0 0 .046-.219.4.4 0 0 0-.078-.265.9.9 0 0 0-.234-.203 1.4 1.4 0 0 1-.203-.203q-.064-.093-.016-.25.094-.34.938-.61a6 6 0 0 1 1.797-.265m1-3.329q.591.002.984.391.388.393.39.938-.002.39-.203.765a1.63 1.63 0 0 1-.578.61 1.46 1.46 0 0 1-.812.234q-.581 0-.969-.375a1.38 1.38 0 0 1-.39-.969q0-.373.187-.734.2-.375.562-.61.373-.248.829-.25M92.648 21.652q.28.001.438.125a.37.37 0 0 1 .156.312q-.002.065-.016.219-.204.656-.906.656h-.875l-1.125 3.719a1.3 1.3 0 0 0-.078.469q0 .27.14.375.154.093.438.093c.156 0 .351-.015.594-.046.125-.032.226-.047.312-.047.07 0 .125.023.156.062a.25.25 0 0 1 .063.172c.008.2-.14.445-.453.734q-.456.424-1.235.735a4.7 4.7 0 0 1-1.734.312q-1.02 0-1.64-.468-.61-.468-.61-1.282-.001-.374.125-.718l.953-2.985q.077-.246.078-.406a.87.87 0 0 0-.14-.5 2.3 2.3 0 0 0-.391-.438 2.2 2.2 0 0 1-.328-.359.46.46 0 0 1-.047-.328.47.47 0 0 1 .25-.297c.133-.07.344-.11.625-.11h.844l.953-.952q.497-.5.906-.688.405-.201 1.078-.203.938.002.938.719c0 .156-.024.297-.063.422l-.203.703Zm0 0"/><path fill="#a6a6a6" d="M100.358 21.449c.438 0 .786.18 1.047.53q.406.534.407 1.454 0 .797-.282 1.719-.564 1.844-1.797 3.484-1.22 1.641-2.796 2.625-1.581.998-3.157 1-.796 0-1.36-.281-.561-.269-.843-.719a1.74 1.74 0 0 1-.297-.953q.002-.235.078-.5.127-.42.454-.64.315-.235.75-.235.686 0 1.125.469.45.48.562 1.312.967-.047 1.781-.828-.766-.141-1.14-.516-.362-.387-.5-1.203l-.61-3.687q-.032-.281-.125-.39a.26.26 0 0 0-.218-.11q-.096.002-.25.11c-.094.062-.165.093-.204.093q-.11.001-.109-.25c0-.145.023-.297.078-.453a2.96 2.96 0 0 1 1-1.453 2.66 2.66 0 0 1 1.719-.594q.949.002 1.406.578c.313.375.516.961.61 1.75l.437 3.313q.047.375.281.375.263.001.625-.485.358-.5.703-1.39a2.9 2.9 0 0 1-.687-.938 2.7 2.7 0 0 1-.234-1.125q-.001-.468.109-.844.187-.59.562-.906.388-.311.875-.312m0 0"/><path fill="#ab532a" d="M12.194 28.831q-1.266 0-2.281-.468a3.76 3.76 0 0 1-1.594-1.375q-.595-.903-.594-2.203-.002-.904.313-1.954c.469-1.5 1.164-2.582 2.094-3.25q1.388-.998 2.984-1c.57 0 1.078.086 1.516.25.445.168.859.414 1.234.735l.39-.313q.406-.31.688-.437a1.5 1.5 0 0 1 .625-.125c.25 0 .445.058.594.172a.57.57 0 0 1 .234.484q-.002.159-.062.328l-.844 2.344q-.127.409-.313.578-.187.157-.562.156a.83.83 0 0 1-.64-.265c-.169-.188-.356-.508-.563-.97q-.361-.7-.594-.92-.222-.235-.656-.235-.628.002-1.203.765c-.375.5-.72 1.258-1.032 2.266q-.39 1.284-.39 2.14 0 .75.281 1.126c.195.242.457.359.781.359q.702.002 1.157-.313a4.6 4.6 0 0 0 .937-.859 7 7 0 0 1 .5-.484.6.6 0 0 1 .39-.157q.281 0 .579.282.293.269.281.53.013.33-.531 1.032-.55.69-1.516 1.235c-.648.367-1.383.546-2.203.546M23.169 20.785q2.044 0 3.015.828.969.83.97 2.172c0 .293-.04.625-.11 1a5.16 5.16 0 0 1-1.078 2.156 5.4 5.4 0 0 1-1.922 1.437q-1.127.502-2.453.5c-1.387 0-2.414-.273-3.078-.828q-1.001-.842-1-2.234-.001-.452.109-1.031a4.9 4.9 0 0 1 1.094-2.079 5.6 5.6 0 0 1 1.968-1.406 6.1 6.1 0 0 1 2.485-.515m-.047 1.343q-.316 0-.672.563-.347.564-.828 2.125-.485 1.565-.484 2.187-.001.346.109.453.105.111.281.11.329.033.656-.531.342-.576.86-2.235.451-1.453.453-2.125 0-.31-.094-.422-.093-.124-.281-.125M41.509 26.66a.4.4 0 0 0-.031.187q0 .112.047.172.059.047.14.047.186 0 .313-.156c.082-.102.14-.157.172-.157.05 0 .093.04.125.11a.5.5 0 0 1 .047.218q.012.439-.297.86-.301.409-.875.672-.581.264-1.391.265c-.656 0-1.184-.148-1.578-.453a1.54 1.54 0 0 1-.594-1.234c0-.375.086-.79.266-1.25l.828-2.156a1 1 0 0 0 .078-.329.36.36 0 0 0-.14-.296.42.42 0 0 0-.297-.125q-.251 0-.532.234-.269.223-.484.703l-.813 2.688a.4.4 0 0 0-.03.187q0 .112.046.172.047.047.14.047c.126 0 .227-.051.313-.156.082-.102.14-.157.172-.157.05 0 .094.04.125.11a.5.5 0 0 1 .047.218c0 .293-.102.579-.297.86q-.3.409-.875.672-.582.264-1.39.265c-.669 0-1.2-.148-1.594-.453a1.54 1.54 0 0 1-.594-1.234q0-.561.281-1.25l.828-2.156a1 1 0 0 0 .078-.329.36.36 0 0 0-.14-.296.42.42 0 0 0-.297-.125q-.27.001-.531.218c-.18.149-.328.383-.453.703l-.985 3.22a.9.9 0 0 0-.062.312q0 .189.062.297.077.111.219.234c.07.062.125.121.156.172q.045.065.016.172-.063.187-.297.28-.223.095-.703.095h-3.422q-.386.001-.563-.125-.17-.123-.125-.344.049-.17.313-.313.22-.123.36-.28.151-.17.265-.532L28.9 22.8a.6.6 0 0 0 .03-.203.4.4 0 0 0-.077-.266 1.3 1.3 0 0 0-.219-.218 1.4 1.4 0 0 1-.203-.203q-.063-.093-.016-.25.094-.34.938-.61a6 6 0 0 1 1.797-.265q.733 0 1.156.406c.289.273.43.64.422 1.11.406-.571.836-.97 1.297-1.188a3.4 3.4 0 0 1 1.484-.328q.872 0 1.422.515.544.504.61 1.313.637-1.03 1.374-1.422.749-.405 1.61-.406.92 0 1.484.562.563.549.563 1.438 0 .469-.141.921ZM57.254 26.66a.4.4 0 0 0-.031.187q0 .112.047.172.059.047.14.047c.126 0 .227-.051.313-.156.082-.102.14-.157.172-.157.05 0 .094.04.125.11a.5.5 0 0 1 .047.218q.013.439-.297.86-.3.409-.875.672-.582.264-1.39.265c-.657 0-1.184-.148-1.579-.453a1.54 1.54 0 0 1-.594-1.234q-.002-.561.266-1.25l.828-2.156a1 1 0 0 0 .078-.329.36.36 0 0 0-.14-.296.42.42 0 0 0-.297-.125q-.251 0-.531.234-.269.223-.485.703l-.812 2.688a.4.4 0 0 0-.032.187q0 .112.047.172.047.047.14.047c.126 0 .227-.051.313-.156.082-.102.141-.157.172-.157.051 0 .094.04.125.11a.5.5 0 0 1 .047.218q-.002.439-.297.86-.3.409-.875.672-.58.264-1.39.265c-.668 0-1.2-.148-1.594-.453a1.54 1.54 0 0 1-.594-1.234q0-.561.281-1.25l.829-2.156a1 1 0 0 0 .078-.329.36.36 0 0 0-.141-.296.42.42 0 0 0-.297-.125q-.269.001-.531.218c-.18.149-.328.383-.453.703l-.985 3.22a.9.9 0 0 0-.062.312q0 .189.062.297.077.111.22.234.107.094.155.172.047.065.016.172-.063.187-.297.28-.223.095-.703.095h-3.422q-.387.001-.562-.125-.172-.123-.125-.344.047-.17.312-.313c.149-.082.266-.175.36-.28q.153-.17.265-.532l1.344-4.344a.6.6 0 0 0 .031-.203.4.4 0 0 0-.078-.266 1.3 1.3 0 0 0-.219-.218 1.4 1.4 0 0 1-.203-.203q-.064-.093-.015-.25.093-.34.937-.61a6 6 0 0 1 1.797-.265q.733 0 1.156.406c.29.273.43.64.422 1.11.406-.571.836-.97 1.297-1.188a3.4 3.4 0 0 1 1.484-.328q.872 0 1.422.515.545.504.61 1.313.636-1.03 1.375-1.422.749-.405 1.609-.406.921 0 1.484.562.563.549.563 1.438 0 .469-.14.921ZM67.625 26.66a2 2 0 0 0-.016.187q0 .112.047.172.047.047.14.047.186 0 .313-.156c.082-.102.14-.157.172-.157.05 0 .094.04.125.11a.5.5 0 0 1 .047.218q.012.423-.297.844c-.211.274-.508.5-.89.688a2.95 2.95 0 0 1-1.266.265q-.892 0-1.422-.36-.532-.373-.672-.952-.549.596-1.203.906-.644.315-1.328.313-1.051 0-1.766-.516-.703-.516-.703-1.453 0-.42.14-.875l.97-3.14a.7.7 0 0 0 .046-.22.4.4 0 0 0-.078-.265.9.9 0 0 0-.234-.203 1.4 1.4 0 0 1-.204-.203q-.063-.093-.015-.25.094-.34.937-.61a6 6 0 0 1 1.797-.265q.872 0 1.281.328c.27.218.407.523.407.906 0 .23-.04.45-.11.656L62.89 25.8a1.3 1.3 0 0 0-.047.328q-.001.206.11.313.124.11.312.11.293.001.469-.173c.125-.113.242-.3.36-.562l.921-3.016a.7.7 0 0 0 .047-.219.4.4 0 0 0-.078-.265 1.1 1.1 0 0 0-.203-.203 1.2 1.2 0 0 1-.219-.203q-.064-.093-.016-.25.077-.34.938-.61a6 6 0 0 1 1.781-.265q.872 0 1.281.328.422.327.422.89-.001.284-.125.672ZM78.306 26.66a.8.8 0 0 0-.016.187q0 .112.047.172.047.047.141.047.186 0 .312-.156c.083-.102.141-.157.172-.157.051 0 .086.04.11.11a.5.5 0 0 1 .047.218q.011.439-.282.86-.3.409-.875.672-.58.264-1.39.265c-.668 0-1.2-.148-1.594-.453a1.54 1.54 0 0 1-.594-1.234q0-.561.281-1.25l.829-2.156q.06-.2.062-.329a.38.38 0 0 0-.125-.296.42.42 0 0 0-.297-.125q-.346 0-.64.312-.299.316-.438.766l-.922 3.062a.9.9 0 0 0-.062.313q0 .189.062.297.077.111.219.234c.07.062.125.121.156.172q.045.065.016.172-.063.187-.297.28-.222.095-.703.095h-3.422q-.386.001-.563-.125-.17-.123-.125-.344.048-.17.313-.313.22-.123.36-.28.151-.17.265-.532l1.344-4.344a.6.6 0 0 0 .031-.203.4.4 0 0 0-.078-.266 1.3 1.3 0 0 0-.219-.218 1.4 1.4 0 0 1-.203-.203q-.064-.093-.016-.25.094-.34.938-.61a6 6 0 0 1 1.797-.265q.749 0 1.187.421.437.41.39 1.141.608-.89 1.298-1.219a3.4 3.4 0 0 1 1.515-.343q.922 0 1.485.562.562.549.562 1.438-.002.469-.156.921ZM83.72 20.785q.872 0 1.28.328c.27.218.407.523.407.906q-.002.346-.11.656l-1.374 4.5a1.2 1.2 0 0 0-.047.313q0 .206.062.312.077.113.22.219.107.112.155.172.047.065.016.172a.54.54 0 0 1-.313.28q-.22.095-.687.095h-3.422q-.387.001-.562-.125-.185-.123-.125-.344.046-.17.312-.313c.149-.082.266-.175.36-.28q.152-.17.265-.532L81.47 22.8a.7.7 0 0 0 .046-.219.4.4 0 0 0-.078-.265.9.9 0 0 0-.234-.203 1.4 1.4 0 0 1-.203-.203q-.063-.093-.016-.25.094-.34.938-.61a6 6 0 0 1 1.797-.265m1-3.329c.394 0 .722.133.984.391q.389.393.39.938-.002.39-.203.765a1.63 1.63 0 0 1-.578.61 1.46 1.46 0 0 1-.812.234q-.581 0-.969-.375a1.38 1.38 0 0 1-.39-.969 1.62 1.62 0 0 1 .75-1.344c.25-.164.523-.25.828-.25M91.984 20.988q.28.001.438.125a.37.37 0 0 1 .156.312q-.002.065-.016.219-.204.656-.906.656h-.875l-1.125 3.719a1.3 1.3 0 0 0-.078.469q0 .27.14.375.155.093.438.093c.156 0 .351-.015.594-.046.125-.032.226-.047.312-.047.07 0 .125.023.156.062a.25.25 0 0 1 .063.172c.008.2-.14.445-.453.734q-.456.424-1.235.735a4.7 4.7 0 0 1-1.734.312q-1.02 0-1.64-.468-.61-.468-.61-1.282-.001-.374.125-.718l.953-2.985q.077-.247.078-.406a.87.87 0 0 0-.14-.5 2.3 2.3 0 0 0-.39-.438 2.2 2.2 0 0 1-.33-.359.46.46 0 0 1-.046-.328.47.47 0 0 1 .25-.297c.133-.07.344-.11.625-.11h.844l.953-.952q.497-.5.906-.688.405-.201 1.078-.203.938.002.938.719c0 .156-.024.297-.063.422l-.203.703Zm0 0"/><path fill="#ab532a" d="M99.694 20.785c.438 0 .786.18 1.047.53q.406.534.407 1.454 0 .797-.282 1.719-.564 1.844-1.797 3.484-1.22 1.641-2.796 2.625-1.582.998-3.157 1-.795 0-1.36-.281-.561-.269-.843-.719a1.74 1.74 0 0 1-.297-.953q.001-.235.078-.5.127-.42.454-.64.315-.235.75-.235.685 0 1.125.469.45.48.562 1.312.967-.047 1.781-.828-.766-.141-1.14-.516c-.243-.257-.407-.66-.5-1.203l-.61-3.687q-.032-.281-.125-.39a.26.26 0 0 0-.218-.11q-.097.002-.25.11c-.094.062-.165.093-.204.093q-.11.001-.109-.25c0-.145.023-.297.078-.453a2.96 2.96 0 0 1 1-1.453 2.66 2.66 0 0 1 1.719-.594q.949.002 1.406.578.47.564.61 1.75l.437 3.313q.047.375.281.375.263.001.625-.485.358-.5.703-1.39a2.9 2.9 0 0 1-.687-.938 2.7 2.7 0 0 1-.234-1.125q-.001-.469.109-.844.187-.59.562-.906.388-.311.875-.312m0 0"/></svg>