<svg xmlns="http://www.w3.org/2000/svg" width="2560" height="1440" style="isolation:isolate" viewBox="0 0 1920 1080"><defs><clipPath id="a"><path d="M0 0h1920v1080H0z"/></clipPath></defs><g clip-path="url(#a)"><clipPath id="b"><path fill="#fff" d="M0 0h1920v1080H0z"/></clipPath><g clip-path="url(#b)"><clipPath id="c"><path fill="#fff" d="M-2006.667-1319.833h5468.333v2639.667h-5468.333z"/></clipPath><g clip-path="url(#c)"><clipPath id="d"><path fill="#fff" d="M-2006.667-1319.833v2639.666h5468.334v-2639.666z"/></clipPath><g clip-path="url(#d)"><defs><filter id="e" width="400%" height="400%" x="-200%" y="-200%" color-interpolation-filters="sRGB" filterUnits="objectBoundingBox"><feGaussianBlur xmlns="http://www.w3.org/2000/svg" in="SourceGraphic" stdDeviation="2.147"/><feOffset xmlns="http://www.w3.org/2000/svg" result="pf_100_offsetBlur"/><feFlood xmlns="http://www.w3.org/2000/svg" flood-color="#000" flood-opacity=".65"/><feComposite xmlns="http://www.w3.org/2000/svg" in2="pf_100_offsetBlur" operator="in" result="pf_100_dropShadow"/><feBlend xmlns="http://www.w3.org/2000/svg" in="SourceGraphic" in2="pf_100_dropShadow"/></filter></defs><g filter="url(#e)"><linearGradient id="f" x1=".5" x2=".5" y1="1" y2="0" gradientTransform="matrix(5468.334 0 0 1163.741 -2006.667 156.092)" gradientUnits="userSpaceOnUse"><stop offset=".417%" style="stop-color:#010c0f"/><stop offset="97.5%" style="stop-color:#031e25"/></linearGradient><path fill="url(#f)" d="M3426.669 496.979a208 208 0 0 1-30.176-12.565c8.002-1.487 15.795-4.074 23.058-7.708-.337 3.053-.665 6.098-1.002 9.151 11.292.202 23.523-1.804 32.536-7.954-7.591 6.995-15.776 13.365-24.416 19.076m2.598 57.008a120 120 0 0 1-3.965-1.118c5.842-2.85 11.548-6.08 17.098-9.282-4.557 3.95-8.339 7.188-13.133 10.4m6.662 65.499c-1.549-.854-3.08-1.76-4.593-2.701.947-.326 1.886-.669 2.825-1.012 2.023.378 4.056.695 6.097.941a139 139 0 0 1-4.329 2.772m-9.542 78.468c-.219-.097-.447-.193-.666-.299-1.831-.809-3.727-1.733-5.194-3.036 1.13-.334 2.26-.686 3.381-1.047 2.397.493 4.812.907 7.236 1.232a105 105 0 0 1-4.757 3.15m-36.902-217.297a201 201 0 0 1-9.871-5.913c-.063-.044-.136-.088-.2-.132 4.803.018 9.606-.018 14.4-.141a28.7 28.7 0 0 1-4.329 6.186m-19.942-14.562c-.3-.352-.592-.722-.874-1.091 1.722.132 3.445.255 5.167.352-1.44.202-2.871.457-4.293.739m-15.329-57.809a85 85 0 0 0 22.156 4.004 175 175 0 0 0-9.032 4.76l42.097-5.174c-3.846 3.775-7.701 7.549-11.556 11.324a77.4 77.4 0 0 0 32.162-2.824c-2.925 1.108-5.03 4.03-5.122 7.1 9.506 1.215 19.386 1.285 28.664-.809-11.502 4.109-22.995 8.209-34.496 12.318-2.224.792-4.457 1.593-6.699 2.376-17.645-4.523-34.487-12.098-49.407-22.411-3.909-2.701-7.974-6.036-8.767-10.664m40.812-3.783c-1.267.439-2.534.906-3.801 1.381a140 140 0 0 1-3.6-1.883c2.461.167 4.94.334 7.401.502m9.433-9.732c-.301.088-.593.185-.884.273-.374-.273-.757-.537-1.13-.819.665.212 1.339.388 2.014.546m-166.739 43.906c-5.997-1.003-11.948-2.27-17.79-3.959-12.541-3.608-24.681-9.274-34.478-17.712 13.926-1.707 27.843-3.423 41.769-5.13-3.855 3.775-7.71 7.549-11.556 11.324a77.3 77.3 0 0 0 32.153-2.824c-2.916 1.108-5.03 4.03-5.113 7.1 9.497 1.215 19.377 1.285 28.655-.809-11.211 4.003-22.421 8.007-33.64 12.01m14.291 53.049a157 157 0 0 1-28.098-9.67 85.7 85.7 0 0 0 13.415-5.35c-.328 3.053-.665 6.098-.993 9.151 11.283.202 23.514-1.804 32.536-7.954a192 192 0 0 1-16.86 13.823m6.616 53.198c-.154-.062-.319-.114-.483-.167.684-.387 1.358-.783 2.033-1.17zm-14.153 79.832a158 158 0 0 1-6.553-4.531l.009-.009a132 132 0 0 0 9.46 2.965c-.966.537-1.941 1.056-2.916 1.575m-12.96-119.929c-.912-.871-1.814-1.742-2.725-2.613 1.412.599 2.834 1.179 4.256 1.76-.511.282-1.021.563-1.531.853m-20.47-29.361c-.547-.308-1.085-.634-1.622-.951.729-.017 1.449-.026 2.178-.044-.173.343-.374.669-.556.995m-3.764 40.809c-1.358-1.575-2.561-3.238-3.491-4.972a64 64 0 0 0 7.592 3.309 167 167 0 0 1-4.101 1.663m-25.528-102.701c3.263.071 6.525.062 9.797.018a158 158 0 0 0-6.197 3.326 67 67 0 0 1-3.6-3.344m15.439-10.127 15.621 1.056a172 172 0 0 0-11.256 4.381c-4.229-1.812-8.457-3.634-12.686-5.446 2.77 0 5.541.009 8.321.009m22.757-7.99a171 171 0 0 1-10.025 2.658c-2.579-1.602-4.867-3.546-6.599-6.045a134 134 0 0 0 16.624 3.387m-145.658 93.339a1014 1014 0 0 1-11.684 4.118 150 150 0 0 1-10.399-6.573c-3.91-2.701-7.975-6.027-8.768-10.664 14.054 4.558 29.356 5.341 43.829 2.287 7.237.44 14.546.088 21.518-1.487-11.502 4.11-22.994 8.219-34.496 12.319m5.067 59.621a203 203 0 0 1-10.526-6.282c-3.828-2.455-7.738-5.676-10.654-9.371a81 81 0 0 0 3.709-1.065 65 65 0 0 0 11.939 3.335c-.027.211-.045.422-.073.634 1.376.026 2.771.017 4.165-.027 6.198.713 12.505.546 18.638-.545-.683-.651-1.367-1.311-2.05-1.963 3.554-1.047 6.935-2.446 10.007-4.276.118.044.246.079.373.123a194 194 0 0 1-25.528 19.437m3.327 56.533a75 75 0 0 1-2.68-2.024 182 182 0 0 0 3.455-1.724c1.139.316 2.278.624 3.426.915a91 91 0 0 1-4.201 2.833m2.561-134.764c-1.704.643-3.108 1.91-4.019 3.458a148 148 0 0 1-3.181-1.619 78 78 0 0 0 7.2-1.839m-88.359-122.26a61 61 0 0 1-2.725-1.998 29 29 0 0 0 3.153.801c-.137.405-.283.801-.428 1.197m-5.387 13.515c-6.097-2.49-12.012-5.429-17.635-8.826a124 124 0 0 0 20.67 1.54 195 195 0 0 1-3.035 7.286m-9.059 17.184a100 100 0 0 1-3.782 5.534 151.5 151.5 0 0 1-23.97-13.506c-3.909-2.701-7.974-6.027-8.767-10.664 14.555 4.716 30.431 5.385 45.351 1.953-2.571 5.746-5.46 11.342-8.832 16.683m-9.178 49.036c-.647-.405-1.303-.801-1.941-1.214l-.355-.238a42.3 42.3 0 0 0 8.585-4.364 161 161 0 0 1-6.289 5.816m-144.683-36.973-1.913.687c-11.52-6.327-21.518-15.187-30.696-24.972l22.958-2.824c-3.855 3.783-7.701 7.558-11.557 11.333a77.5 77.5 0 0 0 32.154-2.825c-2.916 1.1-5.031 4.03-5.113 7.101 9.497 1.206 19.386 1.285 28.664-.809-11.502 4.1-23.004 8.209-34.497 12.309m20.352 48.799c-4.202-.616-8.385-1.329-12.523-2.2 8.695-.748 17.344-3.027 24.17-7.672a195 195 0 0 1-11.647 9.872m-10.326 66.3c-.711-.687-1.422-1.364-2.133-2.042.319-.158.629-.325.948-.484 1.012.423 2.023.845 3.035 1.25-.602.431-1.212.853-1.85 1.276m-9.141-52.873a136 136 0 0 1-3.801-2.191c2.014.326 4.037.581 6.061.801q-1.124.701-2.26 1.39m-10.181-20.361a86 86 0 0 0 9.752-4.135c-.246 2.305-.501 4.619-.756 6.933a123 123 0 0 1-2.261-.633 115 115 0 0 1-6.735-2.165m-5.195 84.54c-1.203-1.32-2.305-2.701-3.235-4.144q.861-.16 1.722-.335a64 64 0 0 0 6.772 2.64c-1.741.642-3.5 1.25-5.259 1.839m-4.675-125.023c3.044.827 6.115 1.531 9.205 2.138a459 459 0 0 1-5.477 1.865c-1.413-1.161-2.671-2.481-3.728-4.003m-11.693 66.027a84.3 84.3 0 0 0 15.867 3.475 204 204 0 0 1-10.399 4.699c-2.661-2.218-4.894-4.866-5.468-8.174m-11.894-103.15c6.234.423 12.459.845 18.693 1.258a170 170 0 0 0-13.106 5.201 345 345 0 0 1-5.587-6.459m-88.796 314.472c-4.047-.14-8.103-.264-12.149-.343a158 158 0 0 0 28.526-11.394c-5.176 4.32-10.654 8.218-16.377 11.737m-25.784-60.501c4.803-1.496 9.524-3.449 14.154-5.657a88 88 0 0 0 3.454 1.627c-.136.088-.264.176-.401.264-2.114 1.329-4.31 2.517-6.543 3.626-3.546.105-7.109.158-10.664.14m.228 73.225c-13.479-2.314-26.494-6.538-38.269-13.137a77 77 0 0 0 6.908-2.253c3.828.37 7.674.493 11.52.388l-5.003 8.156a159 159 0 0 0 25.728-3.123 68 68 0 0 0 9.442 5.481 175 175 0 0 1-10.326 4.488m-27.186-60.739c-1.951.475-3.91.933-5.87 1.355-3.263-2.305-6.516-4.619-9.779-6.934 5.122 1.998 10.353 3.96 15.649 5.579m-33.576 5.948c-.501.053-1.003.097-1.513.15a151 151 0 0 1-10.909-7.286 132 132 0 0 0 22.411 5.799c-3.327.501-6.653.959-9.989 1.337m-.447-50.004c-.237.035-.474.07-.701.114-.274-.202-.538-.404-.812-.607.502.167 1.003.326 1.513.493m31.006-7.77a226 226 0 0 1-5.241 1.681 77 77 0 0 1-2.925-3.238c2.707.581 5.432 1.1 8.166 1.557m8.831 34.246c-.301 1.311-.61 2.622-.911 3.942a224 224 0 0 1-4.22-.502 48 48 0 0 0 5.131-3.44m6.161 55.785c-.137.211-.264.422-.392.633-.474-.273-.948-.537-1.421-.809.154-.097.309-.194.455-.299q.672.25 1.358.475m-1.139-46.045c5.313.836 10.763.739 16.059-.22a196 196 0 0 1-6.644 2.305c-1.541.502-3.099.977-4.658 1.461a110 110 0 0 1-4.757-3.546m48.559-20.167c-3.381 2.939-6.344 5.482-9.606 7.91-1.577 0-3.145-.009-4.721-.009 4.885-2.49 9.66-5.208 14.327-7.901m-139.525-82.094c12.459 6.441 27.123 8.667 40.976 6.212q-4.167-3.986-8.321-7.971a212 212 0 0 0 24.58 4.417c2.589.8 5.186 1.557 7.793 2.287a81.2 81.2 0 0 0-19.777 7.128 521 521 0 0 0 45.697.915c-2.406 4.645-6.125 8.623-10.636 11.377 12.613-.379 25.127-3.529 36.373-9.151-.2 1.812-.401 3.625-.592 5.437-1.85.018-3.7.044-5.55.062 5.75 5.535 13.37 7.989 21.454 9.045a198 198 0 0 1-24.553 15.434c-33.403-2.983-66.085-13.956-94.192-31.94-5.122-3.282-10.39-7.946-13.252-13.252m32.938-5.86c-1.276.212-2.552.44-3.819.713-1.376-1.311-2.743-2.631-4.119-3.942a381 381 0 0 0 7.938 3.229m38.032 9.723a79 79 0 0 0-3.518.581c-.246-.29-.492-.581-.747-.871 1.422.105 2.843.211 4.265.29m-1.759-12.952c-1.504.22-2.998.431-4.511.599-3.063.343-6.161.563-9.251.739a147 147 0 0 0-3.39-2.886c5.568.809 11.429 1.548 17.152 1.548m79.008 25.499a166 166 0 0 1-4.411 3.925c-1.039.008-2.087.026-3.126.035 2.68-1.065 5.213-2.376 7.537-3.96m-277.709-38.917c-.392.141-.784.281-1.166.422-11.657-6.203-21.746-15.002-30.997-24.769 7.501-.915 15.002-1.839 22.511-2.763-3.855 3.775-7.71 7.55-11.556 11.333a77.5 77.5 0 0 0 32.154-2.833c-2.917 1.109-5.031 4.03-5.113 7.11 9.497 1.205 19.385 1.284 28.654-.819-11.493 4.11-22.994 8.219-34.487 12.319m21.163 48.156a216 216 0 0 1-10.892-1.812c7.857-.942 15.54-3.212 21.728-7.427a191 191 0 0 1-10.836 9.239m-10.8 66.713c-.702-.668-1.395-1.337-2.097-2.006.438-.22.875-.449 1.313-.668.975.395 1.95.791 2.925 1.179a67 67 0 0 1-2.141 1.495m-8.923-52.987a138 138 0 0 1-4.612-2.639c2.443.387 4.904.695 7.374.941-.921.572-1.841 1.135-2.762 1.698m-1.194 127.523a.6.6 0 0 1-.082-.071q.07.027.128.053a.07.07 0 0 1-.046.018m-8.549-147.892a85 85 0 0 0 8.759-3.792c-.228 2.076-.456 4.162-.675 6.238-.865-.237-1.74-.475-2.597-.721a120 120 0 0 1-5.487-1.725m-5.814 84.76a33 33 0 0 1-3.363-4.057 83 83 0 0 0 2.515-.519 65 65 0 0 0 6.772 2.473c-1.96.739-3.937 1.434-5.924 2.103m-5.305-125.684q5.361 1.452 10.819 2.455a477 477 0 0 1-6.307 2.156c-1.723-1.302-3.263-2.816-4.512-4.611m-11.693 66.018a84.6 84.6 0 0 0 17.353 3.661 205 205 0 0 1-11.155 5.112c-2.971-2.341-5.578-5.156-6.198-8.773m-11.201-102.322c6.088.414 12.167.827 18.255 1.232a169 169 0 0 0-12.777 5.059 365 365 0 0 1-5.478-6.291m-80.949 70.594c-15.713-4.62-30.687-11.685-44.102-20.95-3.91-2.711-7.975-6.037-8.768-10.674 14.847 4.813 31.088 5.429 46.271 1.751a127.5 127.5 0 0 1-18.337-9.115 124 124 0 0 0 28.381 1.223c-3.628 2.085-7.446 3.827-11.465 5.13l9.651-.185c-4.429 3.924-8.868 7.848-13.306 11.782a82.2 82.2 0 0 0 16.824-4.981 29.3 29.3 0 0 1-6.963 10.744c10.417 1.434 21.354-1.047 30.076-6.828-8.558 8.368-18.064 15.767-28.262 22.103m4.939 51.676-1.312-.555a66 66 0 0 0 5.678-1.003c-1.458.519-2.907 1.038-4.366 1.558m-3.481 54.403c-.337 0-.665.009-1.003.009a69 69 0 0 1-1.385-.704c2.753-1.082 5.359-2.411 7.738-4.03a207 207 0 0 1-5.35 4.725m13.388-152.071a71 71 0 0 1-9.214 6.898c-3.6-1.909-7.054-4.1-10.271-6.59 6.297 1.988 13.251 1.839 19.485-.308m-184.784 44.971c-5.669-4.619-10.982-9.776-16.04-15.213 9.004.466 18.1-.643 26.713-3.291-2.926 1.1-5.031 4.03-5.122 7.101 9.505 1.205 19.385 1.284 28.663-.81-11.402 4.074-22.803 8.139-34.214 12.213m13.926 53.506c-8.776-2.578-17.344-6.168-25.027-11.016a88 88 0 0 0 11.283-4.664c-.337 3.045-.665 6.098-1.002 9.142 11.292.212 23.523-1.795 32.537-7.945a192 192 0 0 1-17.791 14.483m-38.798-78.68c4.977-.607 9.962-1.223 14.938-1.83l-8.913 8.738a317 317 0 0 1-6.025-6.908m-8.147-9.793c2.898.194 5.787.396 8.676.59-2.105.73-4.202 1.513-6.279 2.331-.803-.976-1.595-1.944-2.397-2.921m-98.066 142.736c-5.177 1.848-10.371 3.704-15.594 5.438-13.789-4.426-26.776-11.298-37.266-21.083a124.9 124.9 0 0 0 40.793 7.435l-15.329-11.394c2.552.853 5.113 1.628 7.701 2.34l-1.513 1.487c3.308.405 6.653.599 9.989.572a149 149 0 0 0 17.17 2.605c-.063.361-.109.73-.118 1.1 1.65.211 3.308.378 4.976.519a86 86 0 0 0 9.734 3.651c-6.845 2.438-13.698 4.892-20.543 7.33m9.269 47.127c-.556-.168-1.103-.344-1.65-.511a77 77 0 0 0 3.5-.378c-.611.308-1.23.598-1.85.889m-9.488-3.186a163 163 0 0 1-4.383-1.698c1.485.264 2.98.475 4.493.643zm-9.651 24.338c-.337-.22-.675-.44-1.003-.669.511.132 1.021.256 1.54.388-.182.096-.355.184-.537.281m20.816-86.88a7.5 7.5 0 0 0-2.224 1.329c-.219-.168-.437-.344-.656-.511.966-.264 1.923-.528 2.88-.818m-161.234-171.438c-.374-.052-.747-.096-1.121-.149a39 39 0 0 0 3.381-2.015c-.738.73-1.503 1.443-2.26 2.164m-6.617 5.887a76 76 0 0 1-3.062-2.235c1.458.457 2.953.801 4.466 1.038-.465.396-.93.801-1.404 1.197m-13.124 9.969a126 126 0 0 1-10.225-5.517c5.24.836 10.544 1.329 15.849 1.487a156 156 0 0 1-5.624 4.03m-26.138 14.703a130 130 0 0 1-3.263-2.182c-3.91-2.701-7.975-6.027-8.768-10.664 9.278 3.009 19.103 4.373 28.873 4.073a171 171 0 0 1-16.842 8.773m5.942 47.795c-2.333-2.252-4.384-4.769-5.824-7.435a64 64 0 0 0 12.814 4.937c-2.333.836-4.657 1.663-6.99 2.498m19.085-84.434a28 28 0 0 1-1.021 2.402 128 128 0 0 1-3.217-.774 79 79 0 0 0 4.238-1.628m-143.581.071c-13.762-4.109-26.977-10.708-37.039-20.801a266 266 0 0 0 28.627-.906c-7.172-3.071-14.336-6.151-21.509-9.23q16.69.024 33.394.061c-7.109-2.472-14.701-5.296-18.93-11.429a135 135 0 0 0 28.044 4.496l-9.889 8.755a81.7 81.7 0 0 0 16.824-4.972 29.2 29.2 0 0 1-6.972 10.744c10.426 1.434 21.354-1.047 30.085-6.828-12.468 12.178-26.941 22.332-42.635 30.11m6.426 48.262a153 153 0 0 1-10.737-5.262c9.297 1.126 18.93 1.153 27.98-.898-5.751 2.059-11.493 4.11-17.243 6.16m7.828 51.139c-.865-.449-1.731-.898-2.597-1.364 3.409-1.188 6.635-2.728 9.524-4.699a177 177 0 0 1-6.927 6.063m-26.33-60.897a77 77 0 0 0 12.204-2.693c-2.835 1.074-4.885 3.863-5.086 6.837a146 146 0 0 1-7.118-4.144m-11.401-8.245a17 17 0 0 1-1.923-2.34l4.931-.608c-1.003.986-2.006 1.963-3.008 2.948m39.481-71.086c-1.075.941-2.141 1.892-3.217 2.842a79 79 0 0 1-6.38-2.666q4.799-.095 9.597-.176m-132.734 31.183c-12.687-4.505-24.772-10.638-35.809-18.266-3.91-2.702-7.984-6.036-8.777-10.665 11.949 3.863 24.781 5.016 37.249 3.406-2.306 2.041-4.603 4.073-6.908 6.115a81.7 81.7 0 0 0 16.824-4.972 29.2 29.2 0 0 1-6.972 10.744c10.426 1.434 21.354-1.047 30.085-6.828-7.838 7.655-16.469 14.501-25.692 20.466m1.904 105.076a17 17 0 0 1-.556-.334 35 35 0 0 0 2.89-1.76c-.775.713-1.55 1.399-2.334 2.094m-2.843-136.259c-.729.642-1.467 1.293-2.197 1.944a139 139 0 0 1-3.873-1.83c2.023-.044 4.047-.079 6.07-.114m-.52-3.66a63 63 0 0 1-6.963 3.07 129 129 0 0 1-8.22-4.531 125 125 0 0 0 15.183 1.461m10.7-6.969a61 61 0 0 1-1.923 1.452 77 77 0 0 1-3.664-2.631c1.814.572 3.691.959 5.587 1.179M1417.002 426.5c-11.155 3.986-22.402 7.98-33.894 10.796-12.769-4.514-24.936-10.673-36.037-18.346-2.597-1.795-5.258-3.871-6.99-6.423a30 30 0 0 0 1.987-1.381c-.921.035-1.841.061-2.762.088-.474-.924-.829-1.901-1.002-2.948 14.846 4.813 31.087 5.42 46.271 1.742a128 128 0 0 1-13.233-6.212l11.374-1.399c5.322.132 10.654-.079 15.949-.633-.693-.343-1.367-.713-2.051-1.074l10.737-1.32c-3.847 3.775-7.702 7.55-11.557 11.325a77.4 77.4 0 0 0 32.163-2.825c-2.926 1.109-5.031 4.03-5.122 7.101 9.506 1.214 19.385 1.284 28.663-.81-11.502 4.109-22.994 8.21-34.496 12.319m-.273 38.081c.246-.123.492-.237.738-.36-.036.352-.082.712-.119 1.064-.2-.237-.419-.475-.619-.704m-10.709 30.788c-11.739-4.162-23.095-9.345-33.867-15.522 6.853-.871 13.324-2.912 18.446-7.294a87.8 87.8 0 0 0 23.159-6.59c1.13.325 2.278.633 3.417.95l-.711 6.458c11.293.203 23.514-1.803 32.537-7.954-12.86 11.835-27.378 21.901-42.981 29.952m31.37 38.248c-.237-.149-.474-.281-.711-.431 1.212-.695 2.424-1.39 3.627-2.085a424 424 0 0 1-2.916 2.516m-12.313 9.239c-5.997 3.757-12.55 6.529-19.239 8.896a110 110 0 0 1-7.647-2.816c12.632-2.05 24.717-8.024 36.2-14.456.62.026 1.249.061 1.878.088-3.536 2.983-6.927 5.613-11.192 8.288m-9.697 73.911a106 106 0 0 1-3.819-2.508 93 93 0 0 0 6.188 1.417c-.783.369-1.576.73-2.369 1.091m-29.037-73.568c-.365-.202-.72-.413-1.075-.616.492-.351.984-.695 1.458-1.064zm-.775-81.099q3.088-.038 6.161-.114a27 27 0 0 1-2.351 3.766 730 730 0 0 0-3.81-3.652m-35.115-.607c11.219 5.807 24.242 8.174 36.847 6.793a29.4 29.4 0 0 1-4.776 4.144 211 211 0 0 1-22.985-.66c-3.645-2.895-7.009-6.414-9.086-10.277m20.378-59.947c-.61.317-1.221.634-1.823.959-.929-.528-1.859-1.047-2.77-1.592 1.531.246 3.053.448 4.593.633m15.968-7.241c-.028.008-.064.026-.101.035-.054-.035-.109-.079-.164-.115.092.027.183.044.265.08m-141.457-53.295c-6.024-3.353-11.611-7.4-16.451-12.257 9.543.211 19.103-.097 28.618-.906-7.163-3.08-14.336-6.16-21.5-9.239 11.128.017 22.257.044 33.385.061-7.109-2.472-14.692-5.297-18.93-11.429a134.4 134.4 0 0 0 26.558 4.408c-7.829 12.239-18.556 23.097-31.68 29.362m6.471 86.959a16 16 0 0 1-.346-.537c.346-.061.701-.114 1.048-.176l.547.264q-.632.225-1.249.449m-9.98-48.816c-1.522-1.707-2.679-3.643-3.062-5.887a81 81 0 0 0 8.895 2.341 170 170 0 0 1-5.833 3.546m-89.626 195.538a17 17 0 0 1-.692-.361c.984-.484 1.968-.968 2.934-1.47-.738.616-1.485 1.232-2.242 1.831m-4.137 3.167q-2.708.277-5.414.502a165 165 0 0 0 6.863-3.071 44 44 0 0 0 2.132-.167 118 118 0 0 1-3.581 2.736M1133.642 458.8c-16.952 11.905-35.836 21.171-55.704 27.374a204 204 0 0 1-20.388-11.43c-5.122-3.282-10.389-7.945-13.251-13.251 12.458 6.441 27.123 8.667 40.967 6.212l-15.968-15.31a337 337 0 0 0 43.756 15.081 121 121 0 0 0-16.697-16.621c9.852 1.434 20.634 2.649 29.885-.097 9.688-.448 19.576-2.683 27.186-7.866a194 194 0 0 1-15.311 12.67c-3.044.476-6.07 1.118-9.041 2.007 1.522.431 3.044.836 4.566 1.231m-13.543 66.511a81 81 0 0 1-2.989-2.877 109 109 0 0 0 5.887-2.411c1.878.299 3.764.572 5.66.81-2.752 1.671-5.614 3.141-8.558 4.478m-25.081 6.291c-2.042-1.522-4.083-3.035-6.125-4.557a149 149 0 0 0 13.179 3.739 91 91 0 0 0-7.054.818m-.912 48.403c-.273 0-.547 0-.82.009a133 133 0 0 1-3.472-2.033 78 78 0 0 0 5.003-2.93c.684.15 1.376.291 2.069.432-.93 1.504-1.85 3.009-2.78 4.522m-20.47-40.871a85 85 0 0 1-10.207-8.121 124 124 0 0 0 21.499 5.658 257 257 0 0 1-11.292 2.463m-10.198-109.88c4.238.484 8.485.853 12.741 1.082a80 80 0 0 0-10.836 2.332 184 184 0 0 1-4.648-2.182c.938-.37 1.85-.775 2.743-1.232m32.719 10.207a28 28 0 0 1-1.741 2.894c-3.5-.792-6.963-1.715-10.399-2.745 4.047-.009 8.093-.053 12.14-.149m25.737 2.234c-.164 1.461-.328 2.93-.483 4.4a152 152 0 0 1-8.248-.634 84 84 0 0 0 8.731-3.766M968.672 314.93a77 77 0 0 1-3.536-2.543c1.494.466 3.025.809 4.566 1.047-.338.502-.684.994-1.03 1.496m-2.898 41.9-.985-.317a42 42 0 0 0 3.473-2.059q-1.231 1.202-2.488 2.376m-6.617-30.347a126 126 0 0 1-14.309-7.409 123 123 0 0 0 19.54 1.531 91 91 0 0 1-5.231 5.878m-24.371 16.436a152 152 0 0 1-9.114-5.807c-3.909-2.71-7.974-6.036-8.767-10.664 12.504 4.047 25.993 5.112 39.007 3.15-6.206 5.666-13.279 10.321-21.126 13.321m4.74 2.684a177 177 0 0 1-3.181-1.769l5.286-.105zm-8.996 36.427a24 24 0 0 1-1.476-2.384 64 64 0 0 0 3.117 1.495c-.547.3-1.085.599-1.641.889m-119.92-28.834c-4.749-.888-9.461-1.962-14.1-3.299-11.975-3.458-23.595-8.782-33.138-16.604 8.841-1.082 17.69-2.173 26.54-3.255-3.855 3.774-7.71 7.549-11.557 11.324a77.5 77.5 0 0 0 32.154-2.825c-2.916 1.1-5.031 4.03-5.113 7.101 9.497 1.205 19.386 1.285 28.654-.81q-11.713 4.185-23.44 8.368m10.59 51.729a155 155 0 0 1-6.763-2.156c6.216-1.197 12.158-3.317 17.125-6.705a188 188 0 0 1-10.362 8.861m-21.4-8.016c-.683-.317-1.367-.633-2.041-.95a77 77 0 0 0 2.26-1.091zm-17.717 32.292a24 24 0 0 1-1.722-2.728 65 65 0 0 0 3.745 1.769c-.665.325-1.348.642-2.023.959m-23.067-99.788c-.228-.22-.465-.44-.693-.66.693.009 1.385 0 2.069.017-.456.212-.92.423-1.376.643m16.487-6.749a4 4 0 0 0-.337.123c-.137-.061-.265-.114-.401-.176zm17.672-12.538a174 174 0 0 1-7.565 2.587c-2.215-1.488-4.183-3.265-5.705-5.473a134 134 0 0 0 13.27 2.886m-142.305 93.84c-12.085 4.32-24.27 8.649-36.765 11.474-16.897-5.447-33.083-13.005-47.985-22.543-5.122-3.273-10.389-7.946-13.251-13.251 12.458 6.449 27.123 8.675 40.976 6.22-5.323-5.103-10.645-10.206-15.977-15.31a336 336 0 0 0 24.99 9.424 193 193 0 0 0-3.745 2.05c2.433-.299 4.857-.598 7.291-.889a349 349 0 0 0 15.22 4.497 118 118 0 0 0-5.067-5.746c8.22-1.012 16.441-2.024 24.662-3.027-3.855 3.775-7.701 7.55-11.557 11.324a77.46 77.46 0 0 0 32.154-2.824c-2.916 1.1-5.031 4.03-5.113 7.101 9.497 1.205 19.386 1.284 28.654-.81-11.492 4.1-22.994 8.21-34.487 12.31m-26.257 35.512c.328-.009.657-.009.985-.017q-.18.329-.374.659zm50.637 10.04a80 80 0 0 0-3.199.501c.51.291 1.03.581 1.54.862-12.076 9.758-25.354 18.082-39.435 24.787a152 152 0 0 1-14.455-2.552c-17.599-4.038-34.606-11.72-47.702-23.942a125.1 125.1 0 0 0 40.794 7.427l-15.33-11.395a147 147 0 0 0 18.62 4.892c-.374.256-.739.511-1.121.739a84 84 0 0 0 3.937-.211 149 149 0 0 0 22.63 2.182 73 73 0 0 1-7.237-4.751 86.6 86.6 0 0 0 17.034-6.362c-.328 3.045-.665 6.098-.993 9.142 11.292.212 23.514-1.795 32.536-7.945a191 191 0 0 1-7.619 6.626m-16.897 67.707c5.404-2.692 10.681-5.684 15.822-8.649-3.983 3.449-7.383 6.37-11.384 9.186a152 152 0 0 1-4.438-.537m15.375 63.326a369 369 0 0 1-23.231 5.939c-.711-.123-1.413-.255-2.115-.387 9.497-2.306 18.784-5.464 27.679-9.459.802.167 1.604.352 2.406.502a153 153 0 0 1-4.739 3.405m-30.377-52.67c-.956-.537-1.913-1.083-2.87-1.628 1.166.492 2.351.95 3.545 1.372a16 16 0 0 1-.675.256m-14.81 74.201c-.027-.018-.054-.044-.082-.062l.128.053c-.009 0-.027.009-.046.009m-4.219-23.344a138 138 0 0 1-3.518-1.592 72 72 0 0 0 7.473-4.849c-1.312 2.147-2.634 4.285-3.955 6.441m-10.335-46.317a92 92 0 0 0 9.232 1.953c-1.458.405-2.935.792-4.402 1.179a95 95 0 0 1-4.83-3.132m-23.934-41.681a138 138 0 0 1-3.053-2.182 118 118 0 0 0 5.15 1.707c-.702.159-1.395.326-2.097.475m33.868-120.21a173 173 0 0 0-11.803 4.866 124 124 0 0 0-7.191-6.388c6.17.906 12.705 1.716 18.994 1.522m-200.542-13.383c-3.81 1.355-7.629 2.719-11.466 4.039-4.511-2.851-8.713-6.133-12.477-9.908a266 266 0 0 0 28.618-.906c-5.824-2.499-11.647-5.007-17.471-7.506a29 29 0 0 0 2.552-.95 78 78 0 0 0 9.405-.748c2.762.009 5.532.009 8.303.018-.975 1.284-1.586 2.842-1.631 4.452 9.496 1.205 19.385 1.285 28.654-.81-11.493 4.11-22.995 8.21-34.487 12.319m32.181 169.572c-.164-.009-.328-.009-.492-.018.446-.228.893-.439 1.33-.668-.273.229-.556.457-.838.686M454.074 396.9c.438-.272.875-.545 1.304-.836-.347.317-.702.625-1.049.942-.082-.035-.164-.071-.255-.106m-2.889 2.895c-.893-.009-1.786-.035-2.67-.053a40 40 0 0 0 2.798-1.293c.601-.115 1.203-.229 1.804-.352-.638.572-1.285 1.135-1.932 1.698m-9.852 66.511-1.294-.774a519 519 0 0 0 6.644-3.784 252 252 0 0 1-5.35 4.558m-10.089-58.715c3.336.123 6.762.211 10.18.132a188 188 0 0 1-3.7 2.728c-2.16-.951-4.32-1.901-6.48-2.86m.301 7.153-.383-.211c.228 0 .456.009.683.009-.1.07-.2.141-.3.202m2.779-76.207c-.227.088-.446.203-.665.317-.055-.026-.118-.044-.173-.07.282-.08.565-.159.838-.247m-84.64-42.014a123 123 0 0 1-5.897-3.309c2.415.387 4.849.686 7.282.933-.456.792-.911 1.592-1.385 2.376m-16.314 20.325a147 147 0 0 1-8.749-5.596c-3.919-2.701-7.984-6.036-8.777-10.664 9.141 2.956 18.793 4.32 28.408 4.082-3.245 4.373-6.881 8.491-10.882 12.178m-4.138 38.979a23 23 0 0 1-1.23-2.041c.784.413 1.576.8 2.379 1.17zm-123.384-27.162a154.3 154.3 0 0 1-26.585-12.943 77.5 77.5 0 0 0 30.185-3.045c-2.916 1.1-5.021 4.03-5.113 7.101 9.506 1.205 19.386 1.285 28.664-.809-9.05 3.229-18.101 6.458-27.151 9.696m10.755 53.154a211 211 0 0 1-8.722-4.091c8.166-.88 16.204-3.151 22.62-7.524a192 192 0 0 1-13.898 11.615m1.668 57.105c-.319-.15-.648-.299-.976-.458a538 538 0 0 0 4.512-2.578 285 285 0 0 1-3.536 3.036m-19.723-66.15a258 258 0 0 1-3.408-1.98 83 83 0 0 0 3.827-1.786 594 594 0 0 0-.419 3.766m-26.166-61.522c-1.877-1.302-3.782-2.737-5.35-4.4l18.52-2.27c.929.044 1.859.08 2.789.097-3.473 3.405-6.945 6.81-10.427 10.216a166 166 0 0 1-5.532-3.643m-8.685-10.286c-.028-.123-.064-.255-.092-.378.192.061.392.114.584.176-.164.061-.328.132-.492.202M64.902 272.73c-9.478-4.012-18.301-9.45-25.491-16.665 9.542.211 19.102-.088 28.617-.906-7.163-3.08-14.336-6.159-21.5-9.239 5.122.009 10.235.018 15.357.035-.701.616-1.403 1.232-2.105 1.857a83 83 0 0 0 7.884-1.848c2.515 0 5.04.009 7.564.009a29.4 29.4 0 0 1-5.587 7.611c10.427 1.425 21.354-1.056 30.076-6.837-10.362 10.137-22.128 18.856-34.815 25.983m9.706 48.438c-.592-.308-1.184-.616-1.768-.932 2.671-.273 5.323-.678 7.92-1.267-2.05.73-4.101 1.46-6.152 2.199m-9.469-85.56c-.565.202-1.13.422-1.704.607l4.028-.079c1.495.325 2.989.633 4.484.906-1.385 1.232-2.771 2.455-4.165 3.687-2.661-1.628-5.022-3.608-6.799-6.168 1.376.369 2.771.712 4.156 1.047m11.465 7.233a31 31 0 0 1-.692 1.707c-.611-.238-1.213-.476-1.823-.722a79 79 0 0 0 2.515-.985m-144.655 88.446c-2.971 1.056-5.961 2.12-8.95 3.168-18.811-4.417-36.793-12.266-52.615-23.203-3.91-2.701-7.974-6.036-8.767-10.664 8.822 2.859 18.146 4.223 27.442 4.091a169 169 0 0 0-8.868 4.672l42.106-5.173c-3.846 3.774-7.701 7.549-11.556 11.324a77.5 77.5 0 0 0 32.163-2.825c-2.926 1.1-5.031 4.03-5.122 7.101 9.505 1.205 19.385 1.285 28.663-.809-11.502 4.109-22.995 8.209-34.496 12.318m5.778 59.155a209 209 0 0 1-32.528-13.058c9.461-1.293 18.702-4.126 27.214-8.376-.337 3.044-.665 6.097-1.002 9.142 11.292.211 23.514-1.795 32.537-7.946-8.121 7.48-16.916 14.237-26.221 20.238m8.503 122.894a107 107 0 0 1-5.55-3.071 146 146 0 0 0 4.639-1.566 97 97 0 0 0 7.118.765 148 148 0 0 1-6.207 3.872m-5.641-66.08a131 131 0 0 1-4.457-1.117 155 155 0 0 0 3.645-1.769c1.231.352 2.47.678 3.719.968a76 76 0 0 1-2.88 1.918zm-40.193-72.371a200 200 0 0 1-13.388-7.848c-.091-.053-.173-.115-.264-.176q9.966.147 19.932-.088a28.9 28.9 0 0 1-6.28 8.112m-22.547-15.442a34 34 0 0 1-2.197-2.683c2.133.229 4.275.413 6.407.58.729.247 1.449.493 2.178.713a81 81 0 0 0-6.388 1.39m11.839-66.211c-.028 0-.055.009-.082.009l-.055-.027c.045.009.091.009.137.018m18.2 3.572a154 154 0 0 0-6.799 2.543c-2.324-1.1-4.621-2.235-6.872-3.467zm7.4-9.116c-.92.273-1.841.546-2.761.801a64 64 0 0 1-2.68-1.962c1.769.554 3.591.933 5.441 1.161m-160.86 39.965c-5.723-3.379-11.073-7.382-16.122-11.799a77 77 0 0 0 16.915-3.177c-2.925 1.1-5.031 4.03-5.122 7.101 9.506 1.205 19.385 1.285 28.663-.809zm15.631 48.016c-1.176-.22-2.352-.458-3.518-.704 3.49-1.188 6.78-2.754 9.724-4.761a190 190 0 0 1-6.206 5.465m-30.404-45.895c1.731.466 3.472.888 5.222 1.293-.201.07-.401.141-.611.22-.856.308-1.722.616-2.588.924a18.3 18.3 0 0 1-2.023-2.437m2.953 122.999a27 27 0 0 1-2.17-3.203c.155-.061.31-.123.465-.176a65 65 0 0 0 4.539 2.051c-.939.457-1.877.897-2.834 1.328m-11.821-51.368c-1.404-1.636-2.461-3.484-2.825-5.605a85 85 0 0 0 9.059 2.376 196 196 0 0 1-6.234 3.229m3.828-97.227c-1.422 1.399-2.853 2.798-4.284 4.197a235 235 0 0 1-3.181-3.282c2.489-.308 4.977-.607 7.465-.915m-14.847-7.215-.182-.203c.21.018.419.027.62.044zm-63.123 51.807a62 62 0 0 0-4.256 1.1c.748.211 1.495.405 2.242.607-16.432 13.709-35.59 24.241-56.032 30.972a150 150 0 0 1-18.264-10.796c-3.91-2.701-7.984-6.027-8.777-10.664 14.856 4.813 31.097 5.42 46.28 1.742a126 126 0 0 1-18.337-9.116 123.5 123.5 0 0 0 32.428.872 70.6 70.6 0 0 1-12.131-7.559c5.231 1.646 10.918 1.822 16.277.599a29 29 0 0 1-2.087 2.27c10.427 1.425 21.354-1.056 30.085-6.828a167 167 0 0 1-7.428 6.801m-42.106 60.915a76 76 0 0 0 5.022-1.205c.173.061.346.132.519.193a8.2 8.2 0 0 0-2.952 3.493 688 688 0 0 1-2.589-2.481m2.98 14.351c-.255.044-.51.079-.756.123.055.035.1.062.155.088-2.096.748-4.202 1.505-6.298 2.253-2.871 1.02-5.741 2.05-8.621 3.053a180 180 0 0 1-5.04-3.106c-5.122-3.273-10.39-7.945-13.243-13.251 12.45 6.441 27.114 8.667 40.967 6.221l-4.147-3.977c6.143.554 12.386.571 18.474-.194.556.176 1.103.352 1.659.519-7.72 2.763-15.43 5.517-23.15 8.271m15.494 107.857c-.082-.044-.155-.088-.237-.132l1.148-.66c-.309.273-.61.528-.911.792m-22.302-42.692a84 84 0 0 1-7.874-6.485 125 125 0 0 0 12.313 3.748 204 204 0 0 1-4.439 2.737m30.249-151.148a29.4 29.4 0 0 1-2.561 5.227 490 490 0 0 1-10.034-1.144 82 82 0 0 0 12.595-4.083m-169.554 46.502a100 100 0 0 1-7.647-4.962c8.339.783 16.879.607 24.954-1.214zm12.467 47.162c-.282-.061-.565-.114-.847-.175a37 37 0 0 0 3.19-1.927c-.775.703-1.559 1.407-2.343 2.102m-23.45-54.597a147 147 0 0 1-3.682-2.965 79 79 0 0 0 8.422-2.068c-2.252.845-4.001 2.781-4.74 5.033m-1.932 12.046a19 19 0 0 1-2.433-2.833c2.041.554 4.092 1.047 6.161 1.504-1.249.44-2.488.889-3.728 1.329m.328 119.903c-.118-.159-.246-.317-.364-.484a29 29 0 0 0 1.622-1.338c.365.159.72.326 1.085.475-.775.458-1.55.915-2.343 1.347m-1.914-2.834c.174-.079.347-.149.52-.228.738.36 1.485.721 2.242 1.055-.72.053-1.449.088-2.169.132-.21-.316-.401-.633-.593-.959m-9.998-48.622c-1.266-1.549-2.196-3.282-2.533-5.253a84 84 0 0 0 8.029 2.155 221 221 0 0 1-5.496 3.098m-76.292-50.224c-2.789.466-5.55 1.073-8.275 1.891 1.476.423 2.953.81 4.438 1.197-9.743 7.593-20.351 14.105-31.552 19.428a151 151 0 0 1-18.574-10.955c-3.919-2.701-7.984-6.036-8.777-10.664 14.856 4.813 31.088 5.42 46.28 1.742a127 127 0 0 1-18.337-9.115 123.6 123.6 0 0 0 17.189 1.513 29 29 0 0 1-2.606 2.93c10.426 1.425 21.353-1.056 30.084-6.837a160 160 0 0 1-9.87 8.87m-31.069 71.2a212 212 0 0 1-6.27-3.845c-3.136-2.015-6.326-4.54-8.987-7.417a77 77 0 0 0 7.355-1.232c1.003.29 2.005.563 3.017.8-1.076 1.329-1.75 2.966-1.805 4.655 9.506 1.206 19.386 1.285 28.663-.809-7.327 2.613-14.646 5.226-21.973 7.848m.209 52.961c-.2-.176-.401-.352-.601-.537.501.185 1.002.352 1.504.528-.301 0-.602.009-.903.009m14.1-143.748-.994.88a164 164 0 0 1-4.201-.783c1.731-.026 3.463-.062 5.195-.097m3.509 6.811c-.046.132-.11.272-.165.413-.1-.079-.2-.149-.309-.229.164-.061.319-.123.474-.184M-776.811 608.17q-.096-.002-.192-.017c.183-.097.374-.185.556-.282a6 6 0 0 1-.364.299m-44.84-99.717c-17.59-6.952-31.699-19.903-44.403-34.175a517 517 0 0 0 31.315.193c-2.406 4.655-6.125 8.632-10.636 11.386 12.605-.378 25.127-3.528 36.364-9.151-.328 3.053-.665 6.098-.993 9.151 11.292.202 23.514-1.804 32.537-7.954-13.188 12.134-28.126 22.402-44.184 30.55m31.324 109.59a105 105 0 0 0-2.98-2.675c1.075-.405 2.141-.818 3.208-1.25 1.613.194 3.226.37 4.857.502a150 150 0 0 1-5.085 3.423m-13.015-65.13c5.879-2.868 11.602-6.115 17.18-9.326-4.32 3.748-7.956 6.854-12.404 9.898a409 409 0 0 1-4.776-.572m-8.321 3.819c1.869.59 3.792.986 5.733 1.206-.793.413-1.586.827-2.388 1.214a64 64 0 0 1-3.345-2.42m11.074 67.347c-4.147.053-8.294.097-12.441.141-.802-.766-1.604-1.531-2.406-2.306 2.16-.475 4.311-.976 6.453-1.54a329 329 0 0 0 9.187 3.274c-.265.14-.529.29-.793.431m-33.175 13.638c-.246-.158-.492-.308-.738-.466-5.122-3.273-10.39-7.946-13.243-13.251 9.862 5.103 21.108 7.549 32.245 7.136.009 0 .019.008.028.008a196 196 0 0 1-18.292 6.573m-24.753-63.308c-.665-1.109-1.158-2.305-1.385-3.616a83 83 0 0 0 8.248 2.208 270 270 0 0 1-6.863 1.408m19.704-58.231a199 199 0 0 1-12.969 4.628l-10.882-4.672c7.947.018 15.904.035 23.851.044m17.134 48.429c-1.203.422-2.415.836-3.627 1.232-.511.167-1.039.317-1.55.484a138 138 0 0 1-5.103-2.895c3.408.546 6.844.924 10.28 1.179m-12.659-50.259c-5.441-2.138-10.636-4.892-13.871-9.573a135 135 0 0 0 25.282 4.32 199 199 0 0 1-11.411 5.253m-41.195-51.166a215 215 0 0 0 20.816 2.174 81 81 0 0 0-15.721 3.889 447 447 0 0 1-5.095-6.063m-64.18 67.426a153 153 0 0 1-23.997-12.591 81.6 81.6 0 0 0 16.806-4.971 29 29 0 0 1-6.963 10.743c10.427 1.434 21.354-1.047 30.076-6.828a161 161 0 0 1-15.922 13.647m-28.007-15.248c-3.91-2.71-7.974-6.036-8.767-10.673 7.5 2.428 15.347 3.783 23.24 4.065l-10.472 9.265a174 174 0 0 1-4.001-2.657m24.261-17.352c-.583.414-1.175.827-1.777 1.215-1.112-.625-2.224-1.25-3.308-1.901 1.686.264 3.381.484 5.085.686m-146.031 97.474c-6.052-1.02-12.052-2.287-17.947-3.985-13.939-4.022-27.387-10.568-37.66-20.651 8.663.228 17.332.246 25.995.035-2.406 4.646-6.129 8.631-10.64 11.377 12.61-.379 25.125-3.529 36.369-9.142-.328 3.044-.665 6.097-.993 9.142 11.292.211 23.513-1.795 32.536-7.946-8.54 7.858-17.817 14.941-27.66 21.17m9.979 51.949c-.975-.255-1.941-.528-2.898-.809 4.028-2.13 7.993-4.391 11.885-6.626-3.172 2.745-5.97 5.147-8.987 7.435m-55.636-30.541a10 10 0 0 1-.586-2.024c1.168.379 2.345.722 3.528 1.047q-1.467.502-2.942.977m-106.416 24.567c-3.302-2.323-6.417-4.893-9.27-7.761 1.209.026 2.417.026 3.626.035-.008.115-.033.22-.037.335 9.502 1.205 19.385 1.284 28.66-.81q-11.49 4.094-22.979 8.201m12.806 49.713a231 231 0 0 1-2.607-1.733c2.714-.898 5.313-2.015 7.733-3.379.245.027.488.044.733.071a202 202 0 0 1-5.859 5.041m-129.534 17.748c-4.728 1.689-9.473 3.378-14.245 4.98-12.998-4.435-25.198-11.096-35.147-20.378a124.9 124.9 0 0 0 40.79 7.435c-3.386-2.517-6.774-5.042-10.161-7.559a77 77 0 0 0 9.697.273c4.966 1.1 9.987 1.954 15.042 2.534a7.4 7.4 0 0 0-.143 1.215c9.501 1.205 19.383 1.284 28.659-.81-11.497 4.1-22.995 8.209-34.492 12.31m8.2 116.277a140 140 0 0 1-3.833-1.505c3.799-1.795 7.539-3.757 11.219-5.789q1.292.014 2.586 0c-3.119 2.578-6.207 4.927-9.972 7.294m-8.304-73.374q-2.85-1.135-5.65-2.376a91 91 0 0 0 5.174-2.296c.319.079.64.149.961.22zm-18.999-60.747c-.4.395-.8.783-1.2 1.179l-3.621-2.693c1.597.537 3.205 1.038 4.821 1.514m30.052-.766c-.163.07-.314.15-.472.229-.025-.027-.051-.044-.076-.062.182-.053.366-.105.548-.167m-208.962-88.807c-4.598 1.636-9.211 3.282-13.85 4.848-6.71-2.886-13.419-5.772-20.127-8.649 11.128.017 22.256.044 33.384.061-7.107-2.472-14.694-5.297-18.93-11.429a135 135 0 0 0 28.834 4.549 63 63 0 0 1-1.822-.696c8.989 1.012 18.266.968 27.004-1.003-11.498 4.101-22.995 8.21-34.493 12.319m27.08 43.273c-.522-.282-1.044-.555-1.56-.845 2.288-.985 4.467-2.138 6.48-3.511a194 194 0 0 1-4.92 4.356m1.859 128.877a67 67 0 0 1-1.018-.757c.43-.202.864-.396 1.293-.598l1.059.317c-.443.352-.887.695-1.334 1.038m-32.211-128.666c1.016.167 2.035.299 3.056.44l-.136 1.241c-.978-.555-1.958-1.1-2.92-1.681m-7.552 25.297a150 150 0 0 1-11.617-7.259c-3.911-2.702-7.978-6.028-8.771-10.665 14.854 4.813 31.09 5.421 46.276 1.743a127 127 0 0 1-12.335-5.746c4.989-.097 10.075-.66 14.926-1.839q3.894-.037 7.778-.326c-11.118 9.318-23.314 17.396-36.257 24.092m30.267 39.137c-.242-.229-.482-.466-.725-.695 1.541-.871 3.072-1.751 4.589-2.622a387 387 0 0 1-3.864 3.317m-7.015 75.196a90 90 0 0 1-5.285-3.643c2-.625 3.993-1.267 5.967-1.962 2.093.501 4.2.959 6.318 1.355a146 146 0 0 1-7 4.25m-16.535-64.734c5.271-1.988 10.436-4.461 15.488-7.127a67 67 0 0 0 4.207-.194 85 85 0 0 1-7.517 5.297c-2.643 1.655-5.397 3.115-8.221 4.444a220 220 0 0 1-3.957-2.42m-36.99-112.045c8.208.185 16.424-.035 24.613-.616-6.325 2.085-12.704 3.986-19.166 5.499a67 67 0 0 1-5.447-4.883m17.038-40.818c-.652.22-1.299.466-1.949.704q-.462-.448-.922-.898 1.436.091 2.871.194m14.409 7.373c-1.325 1.294-2.65 2.596-3.974 3.89a107 107 0 0 1-3.777-2.939zm20.6 8.5c-2.777 1.047-4.798 3.749-5.068 6.652a82 82 0 0 1-8.048-3.854 77.4 77.4 0 0 0 13.116-2.798m-127.732 33.436c-9.129-3.96-17.87-8.773-26.032-14.421-3.912-2.702-7.98-6.028-8.772-10.665 6.942 2.253 14.187 3.573 21.484 3.977-1.645 1.452-3.291 2.913-4.938 4.365a81.7 81.7 0 0 0 15.441-4.417q.6-.043 1.2-.097a29.2 29.2 0 0 1-6.783 10.286c10.424 1.434 21.354-1.047 30.081-6.828-6.688 6.537-13.959 12.477-21.681 17.8m-5.36-32.239c-.199.105-.399.202-.598.308-.3-.185-.607-.343-.906-.528.5.088 1.003.141 1.504.22m-174.681 114.473a121.5 121.5 0 0 0-13.055-12.415c13.371 1.945 28.443 3.493 39.087-4.698-33.397 1.416-67.182-8.307-94.522-27.207-3.911-2.701-7.978-6.027-8.77-10.664 13.128 4.25 27.333 5.218 40.94 2.842a211 211 0 0 0 18.964 1.892 81.3 81.3 0 0 0-25.721 8.209 521 521 0 0 0 45.699.915c-2.406 4.646-6.129 8.632-10.639 11.377 12.61-.378 25.126-3.528 36.371-9.142l-.999 9.142c11.292.212 23.517-1.795 32.538-7.945-17.398 16.005-37.841 28.781-59.893 37.694m35.965 39.745a72 72 0 0 1-4.266 2.446 225 225 0 0 1-6.429-.994c8.966-3.555 17.618-8.421 25.93-13.207-5.197 4.505-9.391 8.095-15.235 11.755m1.176 68.535a108 108 0 0 1-6.401-4.162 161 161 0 0 0 12.887-4.189 52 52 0 0 0 3.694-.959c1.271.273 2.548.511 3.829.722a151 151 0 0 1-14.009 8.588m-32.656-15.997c.272-.193.55-.378.819-.581-.137.229-.275.449-.411.669a7 7 0 0 1-.408-.088m-6.597 31.483c-10.201-4.497-19.909-10.058-28.868-16.63a132.6 132.6 0 0 0 47.25 7.602l-8.438-5.992c1.942-.247 3.879-.537 5.812-.854 5.53 1.76 11.145 3.15 16.809 3.801-10.388 5.016-21.345 8.993-32.565 12.073m-49.75-112.292c-5.122-3.282-10.39-7.945-13.247-13.251 12.452 6.441 27.117 8.667 40.969 6.212-5.323-5.103-10.647-10.198-15.97-15.301a336 336 0 0 0 35.407 12.697c-14.403 5.411-29.436 9.194-44.717 11.165-.816-.501-1.634-1.003-2.442-1.522m10.288-72.846c-1.795.106-3.587.229-5.373.378-.792-.448-1.592-.888-2.374-1.363q3.858.618 7.747.985m5356.368 236.514V364.142c-13.835 11.28-29.538 20.343-46.272 26.819-11.109-1.276-22.165-2.965-32.882-6.054-14.182-4.082-27.853-10.778-38.188-21.143 9.552.211 19.112-.088 28.627-.907-7.173-3.079-14.336-6.15-21.509-9.23 11.128.018 22.256.036 33.394.062-7.109-2.473-14.701-5.306-18.93-11.43a134 134 0 0 0 28.827 4.54c-25.418-9.133-43.646-30.796-60.589-51.526-8.148-9.96-16.87-19.305-20.816-31.482-5.295 16.366-10.882 32.855-20.114 47.434-9.233 14.589-22.575 27.312-39.172 32.688l9.652-.184c-4.439 3.933-8.877 7.857-13.307 11.781a81.7 81.7 0 0 0 16.825-4.971 29.3 29.3 0 0 1-6.972 10.743c10.426 1.435 21.353-1.047 30.085-6.828-18.21 17.792-40.685 31.254-65.001 39.331-21.928-10.285-38.369-29.872-53.763-48.701-8.138-9.961-16.869-19.305-20.807-31.483-5.295 16.366-10.882 32.855-20.123 47.444-9.232 14.58-22.566 27.303-39.172 32.679 3.218-.062 6.444-.123 9.661-.176l-13.315 11.773a81.5 81.5 0 0 0 16.824-4.972 29.04 29.04 0 0 1-6.963 10.744c10.426 1.434 21.354-1.047 30.076-6.828-20.133 19.674-45.497 34.052-72.784 41.715-7.92-3.792-15.256-8.658-21.408-14.826 9.551.212 19.103-.088 28.617-.897q-10.743-4.62-21.499-9.239c11.128.018 22.256.044 33.384.062-7.1-2.473-14.692-5.297-18.93-11.43a135 135 0 0 0 28.837 4.549c-25.419-9.142-43.647-30.796-60.598-51.535-4.393-5.376-8.959-10.585-12.851-16.155a30.7 30.7 0 0 0 7.346-2.71c-3.272-.326-6.544-.66-9.816-1.029-2.242-3.626-4.147-7.444-5.486-11.589a751 751 0 0 1-3.464 10.48c-8.403-1.162-16.733-2.701-24.872-5.042-14.172-4.091-27.842-10.779-38.187-21.152 9.552.22 19.112-.088 28.627-.898a51371 51371 0 0 1-21.5-9.239c11.128.018 22.256.044 33.384.062-7.108-2.473-14.7-5.297-18.929-11.43a134.7 134.7 0 0 0 28.827 4.549c-25.418-9.142-43.637-30.796-60.589-51.535-8.148-9.96-16.87-19.305-20.816-31.482-5.295 16.374-10.882 32.855-20.114 47.443s-22.566 27.303-39.172 32.688l9.652-.185q-6.647 5.887-13.307 11.773a81.7 81.7 0 0 0 16.825-4.971 29.3 29.3 0 0 1-6.963 10.743c10.417 1.434 21.353-1.047 30.075-6.828-26.202 25.605-61.263 42.244-97.91 46.766a959 959 0 0 1-6.471-7.839c-8.139-9.961-16.87-19.305-20.807-31.483-5.304 16.366-10.891 32.855-20.123 47.444-9.233 14.58-22.566 27.303-39.172 32.679q4.824-.095 9.661-.176l-13.316 11.773a81.7 81.7 0 0 0 16.825-4.972 29.1 29.1 0 0 1-6.963 10.744c10.417 1.434 21.354-1.047 30.075-6.828-29.155 28.491-69.283 45.886-110.369 47.84 10.955.739 21.91 1.469 32.856 2.208a169.4 169.4 0 0 0-27.697 12.547l42.106-5.174c-3.855 3.775-7.701 7.55-11.556 11.333a77.5 77.5 0 0 0 32.162-2.833c-2.925 1.109-5.03 4.03-5.122 7.11 9.506 1.205 19.386 1.284 28.664-.819-11.502 4.11-22.995 8.219-34.496 12.319-9.406 3.361-18.875 6.731-28.5 9.397a27 27 0 0 0 3.427-2.226c-33.402 1.417-67.187-8.306-94.529-27.206-3.91-2.701-7.975-6.027-8.768-10.664 14.856 4.813 31.088 5.42 46.272 1.742a127.4 127.4 0 0 1-18.328-9.116 123.4 123.4 0 0 0 32.418.871 72 72 0 0 1-12.131-7.558c7.765 2.446 16.524 1.654 23.705-2.138-14.7-1.461-29.465-3.089-43.637-7.18-14.181-4.083-27.852-10.779-38.187-21.144 9.551.211 19.112-.088 28.627-.906-7.173-3.071-14.337-6.151-21.5-9.23q16.692.024 33.384.061c-7.109-2.472-14.701-5.296-18.929-11.429a134.8 134.8 0 0 0 28.827 4.549c-25.419-9.142-43.647-30.805-60.589-51.535-8.148-9.961-16.87-19.305-20.816-31.483-5.296 16.366-10.882 32.855-20.115 47.444-9.232 14.58-22.566 27.303-39.171 32.679q4.825-.095 9.651-.176a17643 17643 0 0 0-13.306 11.773 81.7 81.7 0 0 0 16.824-4.972 29.2 29.2 0 0 1-6.972 10.744c10.426 1.434 21.354-1.047 30.085-6.828-26.111 25.517-61.027 42.12-97.546 46.713a850 850 0 0 1-7.091-8.579c-8.147-9.96-16.869-19.313-20.807-31.491-5.304 16.375-10.891 32.855-20.123 47.444-3.965 6.256-8.686 12.169-14.09 17.307-14.035-1.416-28.107-3.079-41.641-6.977-14.173-4.083-27.843-10.779-38.178-21.144 9.542.211 19.102-.097 28.617-.906-7.163-3.08-14.336-6.16-21.5-9.239q16.693.037 33.385.061c-7.109-2.472-14.692-5.297-18.93-11.421a135 135 0 0 0 28.836 4.541c-25.418-9.142-43.646-30.796-60.598-51.527-8.139-9.96-16.87-19.313-20.807-31.491-5.295 16.375-10.882 32.855-20.123 47.444-9.233 14.588-22.566 27.303-39.172 32.688l9.661-.185c-4.439 3.924-8.877 7.848-13.315 11.782a82 82 0 0 0 16.824-4.981 29.1 29.1 0 0 1-6.963 10.744c10.426 1.434 21.354-1.047 30.085-6.828-24.189 23.634-55.914 39.621-89.462 45.499-7.382-8.878-14.801-17.536-18.346-28.491-5.296 16.375-10.882 32.855-20.115 47.444-9.232 14.588-22.566 27.303-39.171 32.688l9.651-.185c-4.438 3.924-8.877 7.848-13.306 11.782a82.2 82.2 0 0 0 16.824-4.981 29.2 29.2 0 0 1-6.972 10.744c10.426 1.434 21.354-1.047 30.085-6.828-16.533 16.155-36.583 28.737-58.338 36.964-18.82-5.473-36.856-13.55-53.344-24.021a27 27 0 0 0 2.489-1.997c-1.687.114-3.373.202-5.059.281-4.429-3.15-8.713-7.259-11.182-11.861 12.449 6.45 27.113 8.667 40.967 6.221-5.323-5.103-10.645-10.207-15.977-15.31a337.5 337.5 0 0 0 43.756 15.081 121 121 0 0 0-16.697-16.63c13.37 1.954 28.444 3.494 39.09-4.689-33.403 1.408-67.188-8.315-94.521-27.206-3.909-2.711-7.983-6.037-8.776-10.674 14.855 4.813 31.096 5.429 46.28 1.751a127 127 0 0 1-18.337-9.115 124 124 0 0 0 32.427.862 70.6 70.6 0 0 1-12.13-7.558c7.755 2.446 16.514 1.654 23.696-2.129-14.692-1.461-29.466-3.098-43.638-7.18-14.172-4.083-27.843-10.779-38.178-21.144 9.542.211 19.103-.097 28.618-.906-7.164-3.08-14.336-6.16-21.5-9.239q16.692.037 33.384.061c-7.108-2.472-14.691-5.297-18.929-11.421a134.8 134.8 0 0 0 28.827 4.541c-25.409-9.142-43.637-30.796-60.589-51.527-8.139-9.96-16.87-19.313-20.807-31.491-5.304 16.375-10.891 32.855-20.124 47.444-9.232 14.588-22.566 27.303-39.171 32.688l9.652-.185c-2.47 2.191-4.94 4.373-7.419 6.564-13.388-4.127-26.203-10.656-36.009-20.493 9.551.211 19.112-.088 28.627-.906-7.173-3.071-14.337-6.151-21.509-9.23 11.137.017 22.265.035 33.393.061-7.109-2.472-14.701-5.296-18.929-11.429a134.8 134.8 0 0 0 28.827 4.549c-25.419-9.142-43.647-30.805-60.589-51.535-8.148-9.961-16.87-19.305-20.816-31.483-5.296 16.366-10.882 32.855-20.115 47.444-9.223 14.571-22.548 27.285-39.144 32.67-21.846-10.303-38.251-29.846-53.599-48.631-8.148-9.961-16.87-19.305-20.816-31.483-5.295 16.366-10.882 32.855-20.114 47.444-3.937 6.212-8.622 12.081-13.981 17.193-10.435-1.25-20.807-2.913-30.887-5.816-14.172-4.083-27.843-10.779-38.178-21.144 9.542.211 19.103-.088 28.618-.906-7.164-3.08-14.337-6.159-21.5-9.23q16.692.024 33.384.061c-7.109-2.481-14.691-5.305-18.929-11.429a134.4 134.4 0 0 0 28.836 4.54c-25.419-9.133-43.646-30.796-60.598-51.527-8.139-9.96-16.87-19.313-20.807-31.482-5.295 16.366-10.891 32.855-20.124 47.435-9.232 14.588-22.566 27.312-39.171 32.688l9.66-.185c-4.438 3.933-8.876 7.857-13.315 11.782a81.7 81.7 0 0 0 16.824-4.972 29.1 29.1 0 0 1-6.963 10.744c10.427 1.425 21.354-1.056 30.076-6.828-24.708 24.144-57.29 40.316-91.658 45.877-4.102-.818-8.175-1.777-12.204-2.939-14.172-4.082-27.843-10.778-38.178-21.143 9.552.211 19.103-.088 28.618-.907-7.164-3.079-14.327-6.15-21.5-9.23 11.128.018 22.256.036 33.384.062-7.109-2.473-14.691-5.306-18.929-11.43a134.3 134.3 0 0 0 28.836 4.54c-25.419-9.133-43.646-30.796-60.598-51.526-8.139-9.96-16.861-19.305-20.807-31.482-5.277 16.313-10.846 32.732-20.023 47.276-24.435-9.511-42.17-30.594-58.694-50.805-8.139-9.969-16.87-19.313-20.807-31.491-5.304 16.375-10.891 32.855-20.123 47.444-9.233 14.588-22.566 27.303-39.172 32.688l9.652-.185c-4.43 3.924-8.868 7.848-13.306 11.782a82.3 82.3 0 0 0 16.824-4.981 29.3 29.3 0 0 1-6.963 10.744c10.417 1.434 21.354-1.047 30.076-6.828-29.156 28.499-69.284 45.895-110.37 47.839 10.955.74 21.901 1.479 32.856 2.209a169 169 0 0 0-27.697 12.547c14.035-1.724 28.071-3.449 42.106-5.165-3.855 3.775-7.701 7.55-11.556 11.324a77.45 77.45 0 0 0 32.153-2.824c-2.916 1.1-5.021 4.03-5.112 7.101 9.496 1.205 19.385 1.284 28.663-.81-11.502 4.1-23.004 8.21-34.496 12.31-16.788 6.001-33.767 12.037-51.521 14.016-9.087 1.012-18.365.968-27.424 2.024-.519-.352-1.048-.695-1.567-1.056-3.91-2.701-7.975-6.036-8.768-10.664 14.856 4.813 31.087 5.42 46.271 1.742a127.5 127.5 0 0 1-18.328-9.115 123.8 123.8 0 0 0 32.418.871 72 72 0 0 1-12.13-7.559c7.765 2.438 16.523 1.655 23.705-2.138-14.701-1.46-29.465-3.088-43.637-7.18-14.182-4.082-27.852-10.778-38.188-21.143 9.552.211 19.112-.088 28.627-.907-7.173-3.079-14.336-6.15-21.509-9.23 11.138.018 22.266.036 33.394.062-7.109-2.473-14.701-5.306-18.93-11.43a134 134 0 0 0 28.827 4.54c-25.418-9.133-43.646-30.796-60.589-51.526-8.148-9.96-16.87-19.305-20.816-31.482-4.967 15.345-10.189 30.796-18.428 44.689-9.342-1.205-18.611-2.807-27.634-5.411-14.181-4.083-27.852-10.779-38.187-21.144a266 266 0 0 0 28.627-.906 51371 51371 0 0 1-21.5-9.239c11.128.026 22.256.044 33.385.062-7.109-2.473-14.701-5.297-18.93-11.421a134.7 134.7 0 0 0 28.827 4.54c-25.418-9.142-43.646-30.796-60.589-51.526-8.148-9.961-16.87-19.314-20.816-31.483-5.295 16.366-10.882 32.846-20.114 47.435s-22.566 27.312-39.172 32.688l9.652-.185c-4.439 3.924-8.868 7.858-13.307 11.782a82.8 82.8 0 0 0 16.825-4.972 29.34 29.34 0 0 1-6.972 10.744c10.426 1.425 21.353-1.056 30.084-6.828-15.338 14.976-33.703 26.889-53.644 35.099-20.67-10.568-36.437-29.362-51.229-47.453-8.148-9.969-16.87-19.313-20.807-31.491-5.304 16.375-10.891 32.855-20.124 47.444-9.232 14.588-22.566 27.303-39.171 32.688l9.652-.185c-4.43 3.924-8.868 7.848-13.307 11.782a82.3 82.3 0 0 0 16.825-4.981 29.3 29.3 0 0 1-6.963 10.744c10.417 1.434 21.353-1.047 30.075-6.828-22.547 22.041-51.666 37.43-82.699 44.179-25.801-2.701-50.91-11.834-72.127-26.502-3.919-2.71-7.984-6.036-8.777-10.664 14.856 4.804 31.087 5.42 46.28 1.742a127 127 0 0 1-18.337-9.116 124.3 124.3 0 0 0 32.427.871 71.7 71.7 0 0 1-12.139-7.558c7.765 2.437 16.523 1.645 23.705-2.138-14.692-1.461-29.465-3.097-43.637-7.18s-27.843-10.779-38.188-21.144a266 266 0 0 0 28.627-.906 51371 51371 0 0 1-21.5-9.239c11.129.026 22.257.044 33.385.062-7.109-2.473-14.692-5.297-18.93-11.421a134.7 134.7 0 0 0 28.827 4.54c-25.418-9.142-43.637-30.796-60.589-51.526-8.148-9.961-16.87-19.314-20.807-31.483-5.304 16.366-10.891 32.846-20.123 47.435s-22.566 27.312-39.172 32.688l9.652-.185c-4.43 3.924-8.868 7.858-13.306 11.782a82.8 82.8 0 0 0 16.824-4.972 29.4 29.4 0 0 1-6.963 10.744c10.417 1.425 21.344-1.056 30.076-6.828-17.554 17.149-39.09 30.277-62.412 38.434-9.069-8.711-17.253-18.584-25.164-28.263-8.148-9.96-16.87-19.313-20.816-31.482-3.172 9.82-6.462 19.674-10.572 29.142-4.621-.88-9.205-1.936-13.726-3.238-14.172-4.083-27.842-10.779-38.178-21.144 9.543.211 19.103-.088 28.618-.906a51371 51371 0 0 1-21.5-9.239c11.128.027 22.256.044 33.385.062-7.109-2.473-14.692-5.297-18.93-11.421a134.8 134.8 0 0 0 28.827 4.54c-25.418-9.142-43.637-30.796-60.589-51.526-8.139-9.961-16.87-19.314-20.807-31.483-5.304 16.366-10.891 32.847-20.123 47.435s-22.566 27.312-39.172 32.688l9.652-.185c-4.43 3.924-8.868 7.858-13.307 11.782a83 83 0 0 0 16.825-4.971 29.4 29.4 0 0 1-6.963 10.743c10.417 1.425 21.354-1.056 30.076-6.837-14.154 13.841-30.906 25.042-49.079 33.146a142 142 0 0 1-10.973-2.684c-14.172-4.083-27.843-10.779-38.178-21.144 9.542.211 19.103-.088 28.618-.906-7.164-3.08-14.337-6.159-21.5-9.239 11.128.027 22.256.044 33.384.062-7.109-2.473-14.691-5.297-18.929-11.421a135 135 0 0 0 28.836 4.54c-25.419-9.142-43.646-30.796-60.598-51.526-8.139-9.961-16.87-19.314-20.807-31.483-5.295 16.366-10.891 32.847-20.124 47.435-7.145 11.289-16.76 21.443-28.435 27.963-17.654-10.919-31.689-27.699-44.95-43.915-8.139-9.961-16.87-19.314-20.807-31.483-5.295 16.366-10.891 32.847-20.123 47.435s-22.566 27.312-39.172 32.688l9.661-.185c-4.439 3.924-8.877 7.858-13.315 11.782a83 83 0 0 0 16.824-4.971 29.2 29.2 0 0 1-6.963 10.743c10.417 1.425 21.354-1.056 30.076-6.837-16.533 16.164-36.602 28.746-58.366 36.973-12.531-1.328-25.045-3.027-37.13-6.511-14.172-4.083-27.843-10.779-38.178-21.144 9.542.211 19.103-.088 28.618-.906-7.164-3.08-14.336-6.159-21.5-9.239 11.128.027 22.256.044 33.384.062-7.109-2.473-14.691-5.297-18.929-11.421a135 135 0 0 0 28.836 4.54c-25.419-9.142-43.646-30.796-60.598-51.526-8.139-9.961-16.87-19.314-20.807-31.483-5.295 16.366-10.882 32.847-20.124 47.435-9.232 14.589-22.566 27.312-39.171 32.688l9.661-.185c-4.439 3.924-8.877 7.858-13.316 11.782a82.7 82.7 0 0 0 16.824-4.971 29.2 29.2 0 0 1-6.963 10.743c10.427 1.425 21.354-1.056 30.085-6.837-22.639 22.121-51.885 37.545-83.054 44.259a892 892 0 0 1-6.781-8.219c-8.148-9.96-16.87-19.313-20.816-31.482-5.295 16.366-10.882 32.855-20.115 47.435-9.232 14.588-22.566 27.312-39.171 32.688l9.651-.185q-5.946 5.268-11.893 10.523c-8.677-1.17-17.289-2.727-25.692-5.147-14.172-4.091-27.843-10.779-38.178-21.152 9.542.22 19.102-.088 28.617-.898-7.163-3.08-14.336-6.159-21.499-9.239 11.128.018 22.256.044 33.384.062-7.109-2.473-14.692-5.297-18.93-11.43a134.8 134.8 0 0 0 28.837 4.549c-25.419-9.142-43.647-30.796-60.599-51.535-8.138-9.96-16.869-19.305-20.807-31.482-5.304 16.374-10.891 32.855-20.123 47.443s-22.566 27.303-39.172 32.688l9.652-.185c-4.429 3.925-8.868 7.849-13.306 11.773a81.7 81.7 0 0 0 16.824-4.971 29.3 29.3 0 0 1-6.963 10.743c10.417 1.434 21.354-1.047 30.076-6.828-20.835 20.37-47.283 35.055-75.664 42.499a702 702 0 0 1-7.701-9.309c-8.148-9.961-16.87-19.314-20.816-31.483-5.295 16.366-10.882 32.847-20.114 47.435-8.905 14.061-21.619 26.362-37.395 32.054a140 140 0 0 1-9.806-2.446c-14.172-4.082-27.843-10.778-38.187-21.143 9.551.211 19.111-.088 28.626-.907-7.172-3.079-14.336-6.15-21.499-9.23 11.128.018 22.256.036 33.384.062-7.109-2.473-14.692-5.306-18.93-11.43a134.2 134.2 0 0 0 28.827 4.54c-25.418-9.133-43.637-30.796-60.589-51.526-8.148-9.96-16.869-19.305-20.807-31.482-5.304 16.366-10.891 32.855-20.123 47.434-9.233 14.589-22.566 27.312-39.172 32.688l9.652-.184c-4.429 3.933-8.868 7.857-13.306 11.781a81.7 81.7 0 0 0 16.824-4.971 29.4 29.4 0 0 1-6.963 10.743c10.417 1.435 21.354-1.047 30.076-6.828-29.156 28.491-69.284 45.887-110.369 47.84 10.954.73 21.9 1.469 32.855 2.209a169 169 0 0 0-27.697 12.547l42.106-5.174c-3.855 3.775-7.701 7.549-11.556 11.324a77.3 77.3 0 0 0 32.154-2.824c-2.917 1.108-5.031 4.03-5.113 7.1 9.496 1.215 19.385 1.285 28.654-.809-11.493 4.109-22.995 8.209-34.487 12.318-16.788 5.992-33.767 12.037-51.521 14.017-7.191.801-14.491.941-21.709 1.478-7.291-8.763-14.583-17.36-18.082-28.174-5.295 16.366-10.891 32.846-20.124 47.435a95 95 0 0 1-8.694 11.667c-6.28-1.029-12.496-2.331-18.593-4.091-14.181-4.083-27.852-10.779-38.187-21.144 9.551.211 19.112-.097 28.627-.906-7.173-3.08-14.336-6.159-21.509-9.239 11.128.018 22.265.044 33.393.062-7.109-2.473-14.7-5.297-18.929-11.43a134.2 134.2 0 0 0 28.827 4.549c-25.419-9.142-43.646-30.796-60.589-51.526-8.148-9.961-16.87-19.314-20.816-31.492-5.295 16.375-10.882 32.855-20.115 47.444-9.232 14.588-22.566 27.303-39.18 32.688l9.661-.185a8288 8288 0 0 0-13.307 11.782 82.3 82.3 0 0 0 16.824-4.98 29.3 29.3 0 0 1-6.972 10.752c10.427 1.425 21.354-1.056 30.085-6.837-29.164 28.5-69.29 45.895-110.372 47.84l32.857 2.217a170 170 0 0 0-27.695 12.538c14.034-1.724 28.069-3.44 42.104-5.165l-11.558 11.325a77.5 77.5 0 0 0 32.157-2.825c-2.916 1.1-5.031 4.03-5.113 7.101 9.497 1.205 19.376 1.284 28.654-.81-11.492 4.101-22.994 8.21-34.487 12.31-7.153 2.56-14.339 5.112-21.602 7.365-15.539-10.849-28.282-26.107-40.372-40.898-8.143-9.96-16.868-19.304-20.811-31.482-5.298 16.375-10.884 32.855-20.119 47.444-9.233 14.588-22.568 27.303-39.174 32.679 3.219-.053 6.438-.115 9.657-.176l-13.311 11.773a81.6 81.6 0 0 0 16.825-4.972 29.1 29.1 0 0 1-6.966 10.744c10.423 1.434 21.354-1.047 30.081-6.828-11.752 11.482-25.287 21.161-39.947 28.755-7.612-7.761-14.635-16.243-21.449-24.585-8.144-9.96-16.869-19.304-20.811-31.482-5.298 16.375-10.886 32.855-20.12 47.444-9.233 14.588-22.569 27.303-39.174 32.679 3.22-.053 6.439-.115 9.658-.176l-13.311 11.773a81.6 81.6 0 0 0 16.823-4.972 29.1 29.1 0 0 1-6.965 10.744c10.424 1.434 21.353-1.047 30.081-6.828-16.237 15.864-35.876 28.288-57.186 36.515-18.18-5.508-35.595-13.445-51.54-23.651-5.121-3.273-10.389-7.946-13.246-13.251 12.452 6.449 27.117 8.675 40.969 6.22l-15.97-15.31a337 337 0 0 0 43.756 15.082 121.4 121.4 0 0 0-16.7-16.63c13.37 1.953 28.442 3.493 39.086-4.69-33.397 1.408-67.182-8.315-94.522-27.206-3.911-2.71-7.978-6.036-8.771-10.673 14.854 4.813 31.09 5.429 46.276 1.742a126 126 0 0 1-18.335-9.107 124 124 0 0 0 32.425.862 71 71 0 0 1-12.132-7.558c7.763 2.446 16.521 1.654 23.702-2.129-14.696-1.461-29.467-3.097-43.64-7.18s-27.846-10.779-38.181-21.144c9.547.211 19.107-.097 28.62-.906l-21.501-9.239q16.693.037 33.385.062c-7.107-2.473-14.694-5.297-18.929-11.421a134.8 134.8 0 0 0 28.832 4.54c-25.417-9.142-43.643-30.796-60.592-51.526-8.144-9.961-16.869-19.314-20.811-31.483-5.298 16.366-10.886 32.846-20.119 47.435s-22.569 27.303-39.174 32.688l9.657-.185q-6.655 5.884-13.311 11.782a82.2 82.2 0 0 0 16.824-4.98 29.14 29.14 0 0 1-6.965 10.743c10.423 1.434 21.353-1.047 30.081-6.828-23.211 22.684-53.374 38.319-85.434 44.742-6.793-7.144-13.135-14.808-19.305-22.358-8.143-9.96-16.869-19.304-20.81-31.482-5.298 16.375-10.885 32.855-20.119 47.444-3.763 5.939-8.219 11.561-13.289 16.524-6-1.012-11.946-2.279-17.789-3.96-14.174-4.091-27.846-10.778-38.182-21.152 9.548.22 19.107-.088 28.621-.898l-21.501-9.238c11.128.017 22.256.044 33.385.061-7.107-2.472-14.694-5.297-18.929-11.43a135 135 0 0 0 28.832 4.55c-25.418-9.143-43.644-30.797-60.592-51.536-8.144-9.96-16.869-19.304-20.812-31.482-5.297 16.375-10.885 32.855-20.118 47.444-9.234 14.588-22.569 27.303-39.174 32.687l9.657-.184-13.311 11.773a81.6 81.6 0 0 0 16.823-4.972 29.1 29.1 0 0 1-6.964 10.744c10.423 1.434 21.353-1.047 30.08-6.828-29.16 28.499-69.288 45.886-110.37 47.839 10.952.739 21.904 1.479 32.856 2.209a169 169 0 0 0-27.695 12.547q21.052-2.59 42.104-5.165l-11.558 11.324a77.5 77.5 0 0 0 32.158-2.824c-2.921 1.1-5.029 4.03-5.117 7.101 9.501 1.205 19.384 1.284 28.66-.81-11.497 4.1-22.996 8.209-34.493 12.31-15.622 5.578-31.412 11.192-47.83 13.541a71.4 71.4 0 0 1-9.09-5.965c7.763 2.446 16.521 1.654 23.702-2.139-14.696-1.451-29.466-3.088-43.64-7.171-14.174-4.091-27.846-10.778-38.181-21.152 9.547.211 19.106-.088 28.62-.898l-21.5-9.239c11.128.018 22.256.044 33.385.062-7.107-2.472-14.694-5.297-18.93-11.43a134.8 134.8 0 0 0 28.833 4.549c-25.419-9.142-43.644-30.805-60.594-51.535-8.142-9.96-16.868-19.305-20.81-31.482-5.298 16.375-10.885 32.855-20.119 47.443-4.248 6.705-9.375 13.014-15.279 18.399v30.435c4.398-1.223 8.602-3.106 12.391-5.613a163 163 0 0 1-12.391 10.91v719.177h5468.334z"/></g></g></g></g></g></svg>