<?xml version="1.0" encoding="UTF-8" standalone="no"?><!-- Generator: Gravit.io --><svg xmlns="http://www.w3.org/2000/svg" xmlns:xlink="http://www.w3.org/1999/xlink" style="isolation:isolate" viewBox="0 0 1920 1080" width="1920pt" height="1080pt"><defs><clipPath id="_clipPath_jO9ZQfNEvIrPRL4sLeJMsu1WQqhl7fpa"><rect width="1920" height="1080"/></clipPath></defs><g clip-path="url(#_clipPath_jO9ZQfNEvIrPRL4sLeJMsu1WQqhl7fpa)"><clipPath id="_clipPath_LHGm4uVSsIzydel0UbQ0nEaSuCxJpGqu"><rect x="0" y="0" width="1920" height="1080" transform="matrix(1,0,0,1,0,0)" fill="rgb(255,255,255)"/></clipPath><g clip-path="url(#_clipPath_LHGm4uVSsIzydel0UbQ0nEaSuCxJpGqu)"><g><clipPath id="_clipPath_eOG65Z9cJovAT2cf8PmR9tI6Cz669ts6"><rect x="0" y="0" width="1920" height="1080" transform="matrix(1,0,0,1,0,0)" fill="rgb(255,255,255)"/></clipPath><g clip-path="url(#_clipPath_eOG65Z9cJovAT2cf8PmR9tI6Cz669ts6)"><g><g><clipPath id="_clipPath_nukayDqFNGpwSOaHvfLQp8FTEWAwWEwS"><rect x="-2006.667" y="-1319.833" width="5468.333" height="2639.667" transform="matrix(1,0,0,1,0,0)" fill="rgb(255,255,255)"/></clipPath><g clip-path="url(#_clipPath_nukayDqFNGpwSOaHvfLQp8FTEWAwWEwS)"><g><g><g><clipPath id="_clipPath_NZH57DQy4mXGXm8mvkKWFyhGuyShRnWh"><path d=" M 0 -1319.833 L 0 1319.833 L 5468.334 1319.833 L 5468.334 -1319.833 L 0 -1319.833 L 0 -1319.833 Z " fill="rgb(255,255,255)"/></clipPath><g clip-path="url(#_clipPath_NZH57DQy4mXGXm8mvkKWFyhGuyShRnWh)"><g><g><g><g filter="url(#pIQQDAKZaZ5wNKqn8KEvmRX5Wg838e81)"><linearGradient id="_lgradient_0" x1="0.4999999999999999" y1="1.0000000000000002" x2="0.49999999999999994" y2="0" gradientTransform="matrix(5468.334,0,0,1163.741,0,156.092)" gradientUnits="userSpaceOnUse"><stop offset="0.4166666666666667%" stop-opacity="1" style="stop-color:rgb(1,12,15)"/><stop offset="97.5%" stop-opacity="1" style="stop-color:rgb(3,30,37)"/></linearGradient><path d=" M 5433.336 496.979 C 5422.956 493.582 5412.857 489.385 5403.16 484.414 C 5411.162 482.927 5418.955 480.34 5426.218 476.706 C 5425.881 479.759 5425.553 482.804 5425.216 485.857 C 5436.508 486.059 5448.739 484.053 5457.752 477.903 C 5450.161 484.898 5441.976 491.268 5433.336 496.979 Z  M 5435.934 553.987 C 5434.603 553.635 5433.282 553.265 5431.969 552.869 C 5437.811 550.019 5443.517 546.789 5449.067 543.587 C 5444.51 547.537 5440.728 550.775 5435.934 553.987 Z  M 5442.596 619.486 C 5441.047 618.632 5439.516 617.726 5438.003 616.785 C 5438.95 616.459 5439.889 616.116 5440.828 615.773 C 5442.851 616.151 5444.884 616.468 5446.925 616.714 C 5445.503 617.664 5444.054 618.588 5442.596 619.486 Z  M 5433.054 697.954 C 5432.835 697.857 5432.607 697.761 5432.388 697.655 C 5430.557 696.846 5428.661 695.922 5427.194 694.619 C 5428.324 694.285 5429.454 693.933 5430.575 693.572 C 5432.972 694.065 5435.387 694.479 5437.811 694.804 C 5436.253 695.895 5434.667 696.951 5433.054 697.954 Z  M 5396.152 480.657 C 5392.807 478.774 5389.508 476.812 5386.281 474.744 C 5386.218 474.7 5386.145 474.656 5386.081 474.612 C 5390.884 474.63 5395.687 474.594 5400.481 474.471 C 5399.323 476.715 5397.856 478.792 5396.152 480.657 Z  M 5376.21 466.095 C 5375.91 465.743 5375.618 465.373 5375.336 465.004 C 5377.058 465.136 5378.781 465.259 5380.503 465.356 C 5379.063 465.558 5377.632 465.813 5376.21 466.095 Z  M 5360.881 408.286 C 5368.035 410.6 5375.518 411.938 5383.037 412.29 C 5379.984 413.794 5376.967 415.369 5374.005 417.05 C 5388.04 415.325 5402.067 413.601 5416.102 411.876 C 5412.256 415.651 5408.401 419.425 5404.546 423.2 C 5415.309 424.538 5426.355 423.561 5436.708 420.376 C 5433.783 421.484 5431.678 424.406 5431.586 427.476 C 5441.092 428.691 5450.972 428.761 5460.25 426.667 C 5448.748 430.776 5437.255 434.876 5425.754 438.985 C 5423.53 439.777 5421.297 440.578 5419.055 441.361 C 5401.41 436.838 5384.568 429.263 5369.648 418.95 C 5365.739 416.249 5361.674 412.914 5360.881 408.286 Z  M 5401.693 404.503 C 5400.426 404.942 5399.159 405.409 5397.892 405.884 C 5396.68 405.277 5395.486 404.643 5394.292 404.001 C 5396.753 404.168 5399.232 404.335 5401.693 404.503 Z  M 5411.126 394.771 C 5410.825 394.859 5410.533 394.956 5410.242 395.044 C 5409.868 394.771 5409.485 394.507 5409.112 394.225 C 5409.777 394.437 5410.451 394.613 5411.126 394.771 Z  M 5244.387 438.677 C 5238.39 437.674 5232.439 436.407 5226.597 434.718 C 5214.056 431.11 5201.916 425.444 5192.119 417.006 C 5206.045 415.299 5219.962 413.583 5233.888 411.876 C 5230.033 415.651 5226.178 419.425 5222.332 423.2 C 5233.086 424.538 5244.141 423.561 5254.485 420.376 C 5251.569 421.484 5249.455 424.406 5249.372 427.476 C 5258.869 428.691 5268.749 428.761 5278.027 426.667 C 5266.816 430.67 5255.606 434.674 5244.387 438.677 Z  M 5258.678 491.726 C 5249.026 489.394 5239.602 486.156 5230.58 482.056 C 5235.2 480.648 5239.694 478.862 5243.995 476.706 C 5243.667 479.759 5243.33 482.804 5243.002 485.857 C 5254.285 486.059 5266.516 484.053 5275.538 477.903 C 5270.189 482.821 5264.556 487.441 5258.678 491.726 Z  M 5265.294 544.924 C 5265.14 544.862 5264.975 544.81 5264.811 544.757 C 5265.495 544.37 5266.169 543.974 5266.844 543.587 C 5266.315 544.044 5265.805 544.484 5265.294 544.924 Z  M 5251.141 624.756 C 5248.917 623.296 5246.729 621.791 5244.588 620.225 C 5244.597 620.216 5244.597 620.216 5244.597 620.216 C 5247.714 621.325 5250.867 622.31 5254.057 623.181 C 5253.091 623.718 5252.116 624.237 5251.141 624.756 Z  M 5238.181 504.827 C 5237.269 503.956 5236.367 503.085 5235.456 502.214 C 5236.868 502.813 5238.29 503.393 5239.712 503.974 C 5239.201 504.256 5238.691 504.537 5238.181 504.827 Z  M 5217.711 475.466 C 5217.164 475.158 5216.626 474.832 5216.089 474.515 C 5216.818 474.498 5217.538 474.489 5218.267 474.471 C 5218.094 474.814 5217.893 475.14 5217.711 475.466 Z  M 5213.947 516.275 C 5212.589 514.7 5211.386 513.037 5210.456 511.303 C 5212.908 512.57 5215.451 513.67 5218.048 514.612 C 5216.69 515.184 5215.323 515.738 5213.947 516.275 Z  M 5188.419 413.574 C 5191.682 413.645 5194.944 413.636 5198.216 413.592 C 5196.12 414.656 5194.06 415.765 5192.019 416.918 C 5190.779 415.844 5189.576 414.736 5188.419 413.574 Z  M 5203.858 403.447 C 5209.062 403.799 5214.266 404.151 5219.479 404.503 C 5215.678 405.831 5211.924 407.292 5208.223 408.884 C 5203.994 407.072 5199.766 405.25 5195.537 403.438 C 5198.307 403.438 5201.078 403.447 5203.858 403.447 Z  M 5226.615 395.457 C 5223.298 396.443 5219.962 397.331 5216.59 398.115 C 5214.011 396.513 5211.723 394.569 5209.991 392.07 C 5215.451 393.557 5221.01 394.674 5226.615 395.457 Z  M 5080.957 488.796 C 5077.074 490.186 5073.183 491.568 5069.273 492.914 C 5065.719 490.864 5062.246 488.673 5058.874 486.341 C 5054.964 483.64 5050.899 480.314 5050.106 475.677 C 5064.16 480.235 5079.462 481.018 5093.935 477.964 C 5101.172 478.404 5108.481 478.052 5115.453 476.477 C 5103.951 480.587 5092.459 484.696 5080.957 488.796 Z  M 5086.024 548.417 C 5082.452 546.429 5078.943 544.334 5075.498 542.135 C 5071.67 539.68 5067.76 536.459 5064.844 532.764 C 5066.083 532.438 5067.323 532.086 5068.553 531.699 C 5072.408 533.186 5076.409 534.304 5080.492 535.034 C 5080.465 535.245 5080.447 535.456 5080.419 535.668 C 5081.795 535.694 5083.19 535.685 5084.584 535.641 C 5090.782 536.354 5097.089 536.187 5103.222 535.096 C 5102.539 534.445 5101.855 533.785 5101.172 533.133 C 5104.726 532.086 5108.107 530.687 5111.179 528.857 C 5111.297 528.901 5111.425 528.936 5111.552 528.98 C 5103.614 536.143 5095.056 542.645 5086.024 548.417 Z  M 5089.351 604.95 C 5088.439 604.29 5087.546 603.621 5086.671 602.926 C 5087.829 602.363 5088.977 601.791 5090.126 601.202 C 5091.265 601.518 5092.404 601.826 5093.552 602.117 C 5092.222 603.067 5090.836 604.009 5089.351 604.95 Z  M 5091.912 470.186 C 5090.208 470.829 5088.804 472.096 5087.893 473.644 C 5086.817 473.116 5085.76 472.571 5084.712 472.025 C 5087.136 471.524 5089.542 470.917 5091.912 470.186 Z  M 5003.553 347.926 C 5002.623 347.283 5001.712 346.615 5000.828 345.928 C 5001.857 346.254 5002.915 346.518 5003.981 346.729 C 5003.844 347.134 5003.698 347.53 5003.553 347.926 Z  M 4998.166 361.441 C 4992.069 358.951 4986.154 356.012 4980.531 352.615 C 4987.357 353.707 4994.284 354.217 5001.201 354.155 C 5000.235 356.601 4999.233 359.03 4998.166 361.441 Z  M 4989.107 378.625 C 4987.913 380.508 4986.646 382.356 4985.325 384.159 C 4976.94 380.385 4968.902 375.871 4961.355 370.653 C 4957.446 367.952 4953.381 364.626 4952.588 359.989 C 4967.143 364.705 4983.019 365.374 4997.939 361.942 C 4995.368 367.688 4992.479 373.284 4989.107 378.625 Z  M 4979.929 427.661 C 4979.282 427.256 4978.626 426.86 4977.988 426.447 C 4977.87 426.368 4977.751 426.289 4977.633 426.209 C 4980.649 425.083 4983.539 423.623 4986.218 421.845 C 4984.177 423.842 4982.071 425.778 4979.929 427.661 Z  M 4835.246 390.688 C 4834.609 390.917 4833.971 391.146 4833.333 391.375 C 4821.813 385.048 4811.815 376.188 4802.637 366.403 C 4810.293 365.462 4817.939 364.52 4825.595 363.579 C 4821.74 367.362 4817.894 371.137 4814.038 374.912 C 4824.793 376.24 4835.848 375.273 4846.192 372.087 C 4843.276 373.187 4841.161 376.117 4841.079 379.188 C 4850.576 380.394 4860.465 380.473 4869.743 378.379 C 4858.241 382.479 4846.739 386.588 4835.246 390.688 Z  M 4855.598 439.487 C 4851.396 438.871 4847.213 438.158 4843.075 437.287 C 4851.77 436.539 4860.419 434.26 4867.245 429.615 C 4863.5 433.055 4859.608 436.346 4855.598 439.487 Z  M 4845.272 505.787 C 4844.561 505.1 4843.85 504.423 4843.139 503.745 C 4843.458 503.587 4843.768 503.42 4844.087 503.261 C 4845.099 503.684 4846.11 504.106 4847.122 504.511 C 4846.52 504.942 4845.91 505.364 4845.272 505.787 Z  M 4836.131 452.914 C 4834.855 452.201 4833.588 451.48 4832.33 450.723 C 4834.344 451.049 4836.367 451.304 4838.391 451.524 C 4837.643 451.99 4836.887 452.456 4836.131 452.914 Z  M 4825.95 432.553 C 4829.286 431.374 4832.549 429.993 4835.702 428.418 C 4835.456 430.723 4835.201 433.037 4834.946 435.351 C 4834.198 435.149 4833.442 434.938 4832.685 434.718 C 4830.425 434.067 4828.174 433.345 4825.95 432.553 Z  M 4820.755 517.093 C 4819.552 515.773 4818.45 514.392 4817.52 512.949 C 4818.094 512.843 4818.668 512.729 4819.242 512.614 C 4821.448 513.618 4823.708 514.506 4826.014 515.254 C 4824.273 515.896 4822.514 516.504 4820.755 517.093 Z  M 4816.08 392.07 C 4819.124 392.897 4822.195 393.601 4825.285 394.208 C 4823.462 394.841 4821.63 395.466 4819.808 396.073 C 4818.395 394.912 4817.137 393.592 4816.08 392.07 Z  M 4804.387 458.097 C 4809.545 459.768 4814.868 460.921 4820.254 461.572 C 4816.836 463.235 4813.364 464.801 4809.855 466.271 C 4807.194 464.053 4804.961 461.405 4804.387 458.097 Z  M 4792.493 354.947 C 4798.727 355.37 4804.952 355.792 4811.186 356.205 C 4806.747 357.754 4802.373 359.496 4798.08 361.406 C 4796.193 359.276 4794.325 357.121 4792.493 354.947 Z  M 4703.697 669.419 C 4699.65 669.279 4695.594 669.155 4691.548 669.076 C 4701.4 666.208 4710.979 662.398 4720.074 657.682 C 4714.898 662.002 4709.42 665.9 4703.697 669.419 Z  M 4677.913 608.918 C 4682.716 607.422 4687.437 605.469 4692.067 603.261 C 4693.207 603.824 4694.364 604.378 4695.521 604.888 C 4695.385 604.976 4695.257 605.064 4695.12 605.152 C 4693.006 606.481 4690.81 607.669 4688.577 608.778 C 4685.031 608.883 4681.468 608.936 4677.913 608.918 Z  M 4678.141 682.143 C 4664.662 679.829 4651.647 675.605 4639.872 669.006 C 4642.205 668.364 4644.511 667.616 4646.78 666.753 C 4650.608 667.123 4654.454 667.246 4658.3 667.141 C 4656.632 669.859 4654.965 672.578 4653.297 675.297 C 4661.946 674.963 4670.559 673.907 4679.025 672.174 C 4682.015 674.25 4685.177 676.08 4688.467 677.655 C 4685.086 679.257 4681.641 680.752 4678.141 682.143 Z  M 4650.955 621.404 C 4649.004 621.879 4647.045 622.337 4645.085 622.759 C 4641.822 620.454 4638.569 618.14 4635.306 615.825 C 4640.428 617.823 4645.659 619.785 4650.955 621.404 Z  M 4617.379 627.352 C 4616.878 627.405 4616.376 627.449 4615.866 627.502 C 4612.129 625.231 4608.484 622.803 4604.957 620.216 C 4612.23 622.803 4619.739 624.739 4627.368 626.015 C 4624.041 626.516 4620.715 626.974 4617.379 627.352 Z  M 4616.932 577.348 C 4616.695 577.383 4616.458 577.418 4616.231 577.462 C 4615.957 577.26 4615.693 577.058 4615.419 576.855 C 4615.921 577.022 4616.422 577.181 4616.932 577.348 Z  M 4647.938 569.578 C 4646.197 570.159 4644.447 570.722 4642.697 571.259 C 4641.695 570.203 4640.711 569.13 4639.772 568.021 C 4642.479 568.602 4645.204 569.121 4647.938 569.578 Z  M 4656.769 603.824 C 4656.468 605.135 4656.159 606.446 4655.858 607.766 C 4654.445 607.607 4653.042 607.449 4651.638 607.264 C 4653.415 606.226 4655.138 605.082 4656.769 603.824 Z  M 4662.93 659.609 C 4662.793 659.82 4662.666 660.031 4662.538 660.242 C 4662.064 659.969 4661.59 659.705 4661.117 659.433 C 4661.271 659.336 4661.426 659.239 4661.572 659.134 C 4662.019 659.301 4662.474 659.459 4662.93 659.609 Z  M 4661.791 613.564 C 4667.104 614.4 4672.554 614.303 4677.85 613.344 C 4675.653 614.154 4673.429 614.919 4671.206 615.649 C 4669.665 616.151 4668.107 616.626 4666.548 617.11 C 4664.926 615.966 4663.34 614.787 4661.791 613.564 Z  M 4710.35 593.397 C 4706.969 596.336 4704.006 598.879 4700.744 601.307 C 4699.167 601.307 4697.599 601.298 4696.023 601.298 C 4700.908 598.808 4705.683 596.09 4710.35 593.397 Z  M 4570.825 511.303 C 4583.284 517.744 4597.948 519.97 4611.801 517.515 C 4609.022 514.858 4606.251 512.201 4603.48 509.544 C 4611.573 511.497 4619.785 512.975 4628.06 513.961 C 4630.649 514.761 4633.246 515.518 4635.853 516.248 C 4628.981 517.762 4622.31 520.155 4616.076 523.376 C 4631.287 524.352 4646.534 524.651 4661.773 524.291 C 4659.367 528.936 4655.648 532.914 4651.137 535.668 C 4663.75 535.289 4676.264 532.139 4687.51 526.517 C 4687.31 528.329 4687.109 530.142 4686.918 531.954 C 4685.068 531.972 4683.218 531.998 4681.368 532.016 C 4687.118 537.551 4694.738 540.005 4702.822 541.061 C 4695.048 546.789 4686.827 551.946 4678.269 556.495 C 4644.866 553.512 4612.184 542.539 4584.077 524.555 C 4578.955 521.273 4573.687 516.609 4570.825 511.303 Z  M 4603.763 505.443 C 4602.487 505.655 4601.211 505.883 4599.944 506.156 C 4598.568 504.845 4597.201 503.525 4595.825 502.214 C 4598.459 503.323 4601.111 504.396 4603.763 505.443 Z  M 4641.795 515.166 C 4640.619 515.333 4639.444 515.527 4638.277 515.747 C 4638.031 515.457 4637.785 515.166 4637.53 514.876 C 4638.952 514.981 4640.373 515.087 4641.795 515.166 Z  M 4640.036 502.214 C 4638.532 502.434 4637.038 502.645 4635.525 502.813 C 4632.462 503.156 4629.364 503.376 4626.274 503.552 C 4625.153 502.575 4624.032 501.607 4622.884 500.666 C 4628.452 501.475 4634.313 502.214 4640.036 502.214 Z  M 4719.044 527.713 C 4717.595 529.051 4716.128 530.353 4714.633 531.638 C 4713.594 531.646 4712.546 531.664 4711.507 531.673 C 4714.187 530.608 4716.72 529.297 4719.044 527.713 Z  M 4441.335 488.796 C 4440.943 488.937 4440.551 489.077 4440.169 489.218 C 4428.512 483.015 4418.423 474.216 4409.172 464.449 C 4416.673 463.534 4424.174 462.61 4431.683 461.686 C 4427.828 465.461 4423.973 469.236 4420.127 473.019 C 4430.881 474.348 4441.937 473.371 4452.281 470.186 C 4449.364 471.295 4447.25 474.216 4447.168 477.296 C 4456.665 478.501 4466.553 478.58 4475.822 476.477 C 4464.329 480.587 4452.828 484.696 4441.335 488.796 Z  M 4462.498 536.952 C 4458.852 536.433 4455.216 535.844 4451.606 535.14 C 4459.463 534.198 4467.146 531.928 4473.334 527.713 C 4469.843 530.925 4466.225 534.005 4462.498 536.952 Z  M 4451.698 603.665 C 4450.996 602.997 4450.303 602.328 4449.601 601.659 C 4450.039 601.439 4450.476 601.21 4450.914 600.991 C 4451.889 601.386 4452.864 601.782 4453.839 602.17 C 4453.147 602.671 4452.436 603.173 4451.698 603.665 Z  M 4442.775 550.678 C 4441.217 549.825 4439.676 548.945 4438.163 548.039 C 4440.606 548.426 4443.067 548.734 4445.537 548.98 C 4444.616 549.552 4443.696 550.115 4442.775 550.678 Z  M 4441.581 678.201 C 4441.554 678.183 4441.526 678.157 4441.499 678.13 C 4441.545 678.148 4441.59 678.166 4441.627 678.183 C 4441.618 678.192 4441.599 678.201 4441.581 678.201 Z  M 4433.032 530.309 C 4436.022 529.209 4438.947 527.942 4441.791 526.517 C 4441.563 528.593 4441.335 530.679 4441.116 532.755 C 4440.251 532.518 4439.376 532.28 4438.519 532.034 C 4436.678 531.506 4434.846 530.925 4433.032 530.309 Z  M 4427.218 615.069 C 4425.978 613.784 4424.839 612.429 4423.855 611.012 C 4424.693 610.854 4425.532 610.678 4426.37 610.493 C 4428.576 611.444 4430.836 612.262 4433.142 612.966 C 4431.182 613.705 4429.205 614.4 4427.218 615.069 Z  M 4421.913 489.385 C 4425.486 490.353 4429.095 491.172 4432.732 491.84 C 4430.635 492.571 4428.539 493.292 4426.425 493.996 C 4424.702 492.694 4423.162 491.18 4421.913 489.385 Z  M 4410.22 555.403 C 4415.853 557.234 4421.676 558.448 4427.573 559.064 C 4423.909 560.876 4420.191 562.583 4416.418 564.176 C 4413.447 561.835 4410.84 559.02 4410.22 555.403 Z  M 4399.019 453.081 C 4405.107 453.495 4411.186 453.908 4417.274 454.313 C 4412.945 455.826 4408.68 457.516 4404.497 459.372 C 4402.647 457.296 4400.824 455.202 4399.019 453.081 Z  M 4318.07 523.675 C 4302.357 519.055 4287.383 511.99 4273.968 502.725 C 4270.058 500.014 4265.993 496.688 4265.2 492.051 C 4280.047 496.864 4296.288 497.48 4311.471 493.802 C 4305.119 491.26 4298.985 488.206 4293.134 484.687 C 4302.503 486.183 4312.045 486.587 4321.515 485.91 C 4317.887 487.995 4314.069 489.737 4310.05 491.04 C 4313.267 490.978 4316.484 490.916 4319.701 490.855 C 4315.272 494.779 4310.833 498.703 4306.395 502.637 C 4312.164 501.581 4317.815 499.909 4323.219 497.656 C 4321.734 501.686 4319.337 505.382 4316.256 508.4 C 4326.673 509.834 4337.61 507.353 4346.332 501.572 C 4337.774 509.94 4328.268 517.339 4318.07 523.675 Z  M 4323.009 575.351 C 4322.572 575.166 4322.135 574.981 4321.697 574.796 C 4323.602 574.541 4325.498 574.215 4327.375 573.793 C 4325.917 574.312 4324.468 574.831 4323.009 575.351 Z  M 4319.528 629.754 C 4319.191 629.754 4318.863 629.763 4318.525 629.763 C 4318.061 629.534 4317.596 629.297 4317.14 629.059 C 4319.893 627.977 4322.499 626.648 4324.878 625.029 C 4323.128 626.639 4321.333 628.205 4319.528 629.754 Z  M 4332.916 477.683 C 4330.027 480.226 4326.956 482.54 4323.702 484.581 C 4320.102 482.672 4316.648 480.481 4313.431 477.991 C 4319.728 479.979 4326.682 479.83 4332.916 477.683 Z  M 4148.132 522.654 C 4142.463 518.035 4137.15 512.878 4132.092 507.441 C 4141.096 507.907 4150.192 506.798 4158.805 504.15 C 4155.879 505.25 4153.774 508.18 4153.683 511.251 C 4163.188 512.456 4173.068 512.535 4182.346 510.441 C 4170.944 514.515 4159.543 518.58 4148.132 522.654 Z  M 4162.058 576.16 C 4153.282 573.582 4144.714 569.992 4137.031 565.144 C 4140.896 563.85 4144.669 562.293 4148.314 560.48 C 4147.977 563.525 4147.649 566.578 4147.312 569.622 C 4158.604 569.834 4170.835 567.827 4179.849 561.677 C 4174.225 566.851 4168.274 571.681 4162.058 576.16 Z  M 4123.26 497.48 C 4128.237 496.873 4133.222 496.257 4138.198 495.65 C 4135.227 498.563 4132.256 501.475 4129.285 504.388 C 4127.243 502.117 4125.238 499.812 4123.26 497.48 Z  M 4115.113 487.687 C 4118.011 487.881 4120.9 488.083 4123.789 488.277 C 4121.684 489.007 4119.587 489.79 4117.51 490.608 C 4116.707 489.632 4115.915 488.664 4115.113 487.687 Z  M 4017.047 630.423 C 4011.87 632.271 4006.676 634.127 4001.453 635.861 C 3987.664 631.435 3974.677 624.563 3964.187 614.778 C 3977.229 619.503 3991.082 622.029 4004.98 622.213 C 3999.867 618.412 3994.764 614.62 3989.651 610.819 C 3992.203 611.672 3994.764 612.447 3997.352 613.159 C 3996.851 613.652 3996.34 614.154 3995.839 614.646 C 3999.147 615.051 4002.492 615.245 4005.828 615.218 C 4011.497 616.424 4017.229 617.286 4022.998 617.823 C 4022.935 618.184 4022.889 618.553 4022.88 618.923 C 4024.53 619.134 4026.188 619.301 4027.856 619.442 C 4031.019 620.85 4034.272 622.073 4037.59 623.093 C 4030.745 625.531 4023.892 627.985 4017.047 630.423 Z  M 4026.316 677.55 C 4025.76 677.382 4025.213 677.206 4024.666 677.039 C 4025.833 676.943 4026.999 676.811 4028.166 676.661 C 4027.555 676.969 4026.936 677.259 4026.316 677.55 Z  M 4016.828 674.364 C 4015.361 673.819 4013.903 673.256 4012.445 672.666 C 4013.93 672.93 4015.425 673.141 4016.938 673.309 C 4016.901 673.661 4016.865 674.012 4016.828 674.364 Z  M 4007.177 698.702 C 4006.84 698.482 4006.502 698.262 4006.174 698.033 C 4006.685 698.165 4007.195 698.289 4007.714 698.421 C 4007.532 698.517 4007.359 698.605 4007.177 698.702 Z  M 4027.993 611.822 C 4027.173 612.13 4026.434 612.587 4025.769 613.151 C 4025.55 612.983 4025.332 612.807 4025.113 612.64 C 4026.079 612.376 4027.036 612.112 4027.993 611.822 Z  M 3866.759 440.384 C 3866.385 440.332 3866.012 440.288 3865.638 440.235 C 3866.796 439.619 3867.926 438.95 3869.019 438.22 C 3868.281 438.95 3867.516 439.663 3866.759 440.384 Z  M 3860.142 446.271 C 3859.103 445.549 3858.083 444.81 3857.08 444.036 C 3858.538 444.493 3860.033 444.837 3861.546 445.074 C 3861.081 445.47 3860.616 445.875 3860.142 446.271 Z  M 3847.018 456.24 C 3843.528 454.551 3840.101 452.72 3836.793 450.723 C 3842.033 451.559 3847.337 452.052 3852.642 452.21 C 3850.801 453.592 3848.923 454.938 3847.018 456.24 Z  M 3820.88 470.943 C 3819.786 470.23 3818.692 469.509 3817.617 468.761 C 3813.707 466.06 3809.642 462.734 3808.849 458.097 C 3818.127 461.106 3827.952 462.47 3837.722 462.17 C 3832.281 465.4 3826.658 468.33 3820.88 470.943 Z  M 3826.822 518.738 C 3824.489 516.486 3822.438 513.969 3820.998 511.303 C 3825.072 513.406 3829.374 515.052 3833.812 516.24 C 3831.479 517.076 3829.155 517.903 3826.822 518.738 Z  M 3845.907 434.304 C 3845.606 435.123 3845.259 435.923 3844.886 436.706 C 3843.81 436.46 3842.735 436.205 3841.669 435.932 C 3843.099 435.431 3844.512 434.885 3845.907 434.304 Z  M 3702.326 434.375 C 3688.564 430.266 3675.349 423.667 3665.287 413.574 C 3674.839 413.785 3684.399 413.486 3693.914 412.668 C 3686.742 409.597 3679.578 406.517 3672.405 403.438 C 3683.533 403.455 3694.662 403.473 3705.799 403.499 C 3698.69 401.027 3691.098 398.203 3686.869 392.07 C 3696.019 394.551 3705.434 396.056 3714.913 396.566 C 3711.613 399.487 3708.323 402.4 3705.024 405.321 C 3710.793 404.274 3716.444 402.602 3721.848 400.349 C 3720.363 404.379 3717.966 408.075 3714.876 411.093 C 3725.302 412.527 3736.23 410.046 3744.961 404.265 C 3732.493 416.443 3718.02 426.597 3702.326 434.375 Z  M 3708.752 482.637 C 3705.106 481.026 3701.524 479.267 3698.015 477.375 C 3707.312 478.501 3716.945 478.528 3725.995 476.477 C 3720.244 478.536 3714.502 480.587 3708.752 482.637 Z  M 3716.58 533.776 C 3715.715 533.327 3714.849 532.878 3713.983 532.412 C 3717.392 531.224 3720.618 529.684 3723.507 527.713 C 3721.247 529.799 3718.941 531.814 3716.58 533.776 Z  M 3690.25 472.879 C 3694.379 472.307 3698.471 471.418 3702.454 470.186 C 3699.619 471.26 3697.569 474.049 3697.368 477.023 C 3694.953 475.712 3692.584 474.322 3690.25 472.879 Z  M 3678.849 464.634 C 3678.129 463.895 3677.482 463.121 3676.926 462.294 C 3678.566 462.091 3680.207 461.889 3681.857 461.686 C 3680.854 462.672 3679.851 463.649 3678.849 464.634 Z  M 3718.33 393.548 C 3717.255 394.489 3716.189 395.44 3715.113 396.39 C 3712.935 395.589 3710.811 394.701 3708.733 393.724 C 3711.932 393.662 3715.131 393.601 3718.33 393.548 Z  M 3585.596 424.731 C 3572.909 420.226 3560.824 414.093 3549.787 406.465 C 3545.877 403.763 3541.803 400.429 3541.01 395.8 C 3552.959 399.663 3565.791 400.816 3578.259 399.206 C 3575.953 401.247 3573.656 403.279 3571.351 405.321 C 3577.12 404.274 3582.77 402.602 3588.175 400.349 C 3586.689 404.379 3584.292 408.075 3581.203 411.093 C 3591.629 412.527 3602.557 410.046 3611.288 404.265 C 3603.45 411.92 3594.819 418.766 3585.596 424.731 Z  M 3587.5 529.807 C 3587.318 529.702 3587.127 529.588 3586.944 529.473 C 3587.938 528.928 3588.904 528.347 3589.834 527.713 C 3589.059 528.426 3588.284 529.112 3587.5 529.807 Z  M 3584.657 393.548 C 3583.928 394.19 3583.19 394.841 3582.46 395.492 C 3581.157 394.903 3579.863 394.287 3578.587 393.662 C 3580.61 393.618 3582.634 393.583 3584.657 393.548 Z  M 3584.137 389.888 C 3581.886 391.049 3579.562 392.07 3577.174 392.958 C 3574.376 391.542 3571.633 390.037 3568.954 388.427 C 3573.975 389.228 3579.052 389.703 3584.137 389.888 Z  M 3594.837 382.919 C 3594.208 383.42 3593.561 383.896 3592.914 384.371 C 3591.675 383.526 3590.435 382.655 3589.25 381.74 C 3591.064 382.312 3592.941 382.699 3594.837 382.919 Z  M 3423.669 426.5 C 3412.514 430.486 3401.267 434.48 3389.775 437.296 C 3377.006 432.782 3364.839 426.623 3353.738 418.95 C 3351.141 417.155 3348.48 415.079 3346.748 412.527 C 3347.422 412.096 3348.088 411.638 3348.735 411.146 C 3347.814 411.181 3346.894 411.207 3345.973 411.234 C 3345.499 410.31 3345.144 409.333 3344.971 408.286 C 3359.817 413.099 3376.058 413.706 3391.242 410.028 C 3386.712 408.216 3382.292 406.13 3378.009 403.816 C 3381.8 403.35 3385.591 402.884 3389.383 402.417 C 3394.705 402.549 3400.037 402.338 3405.332 401.784 C 3404.639 401.441 3403.965 401.071 3403.281 400.71 C 3406.863 400.27 3410.445 399.83 3414.018 399.39 C 3410.171 403.165 3406.316 406.94 3402.461 410.715 C 3413.225 412.052 3424.271 411.075 3434.624 407.89 C 3431.698 408.999 3429.593 411.92 3429.502 414.991 C 3439.008 416.205 3448.887 416.275 3458.165 414.181 C 3446.663 418.29 3435.171 422.391 3423.669 426.5 Z  M 3423.396 464.581 C 3423.642 464.458 3423.888 464.344 3424.134 464.221 C 3424.098 464.573 3424.052 464.933 3424.015 465.285 C 3423.815 465.048 3423.596 464.81 3423.396 464.581 Z  M 3412.687 495.369 C 3400.948 491.207 3389.592 486.024 3378.82 479.847 C 3385.673 478.976 3392.144 476.935 3397.266 472.553 C 3405.25 471.436 3413.07 469.201 3420.425 465.963 C 3421.555 466.288 3422.703 466.596 3423.842 466.913 C 3423.605 469.06 3423.368 471.216 3423.131 473.371 C 3434.424 473.574 3446.645 471.568 3455.668 465.417 C 3442.808 477.252 3428.29 487.318 3412.687 495.369 Z  M 3444.057 533.617 C 3443.82 533.468 3443.583 533.336 3443.346 533.186 C 3444.558 532.491 3445.77 531.796 3446.973 531.101 C 3445.971 531.972 3445.005 532.808 3444.057 533.617 Z  M 3431.744 542.856 C 3425.747 546.613 3419.194 549.385 3412.505 551.752 C 3409.916 550.907 3407.364 549.966 3404.858 548.936 C 3417.49 546.886 3429.575 540.912 3441.058 534.48 C 3441.678 534.506 3442.307 534.541 3442.936 534.568 C 3439.4 537.551 3436.009 540.181 3431.744 542.856 Z  M 3422.047 616.767 C 3420.762 615.957 3419.486 615.13 3418.228 614.259 C 3420.27 614.805 3422.339 615.271 3424.416 615.676 C 3423.633 616.045 3422.84 616.406 3422.047 616.767 Z  M 3393.01 543.199 C 3392.645 542.997 3392.29 542.786 3391.935 542.583 C 3392.427 542.232 3392.919 541.888 3393.393 541.519 C 3393.265 542.082 3393.138 542.636 3393.01 543.199 Z  M 3392.235 462.1 C 3394.295 462.074 3396.346 462.038 3398.396 461.986 C 3397.722 463.305 3396.929 464.555 3396.045 465.752 C 3394.778 464.529 3393.511 463.314 3392.235 462.1 Z  M 3357.12 461.493 C 3368.339 467.3 3381.362 469.667 3393.967 468.286 C 3392.536 469.825 3390.932 471.224 3389.191 472.43 C 3381.527 472.632 3373.844 472.404 3366.206 471.77 C 3362.561 468.875 3359.197 465.356 3357.12 461.493 Z  M 3377.498 401.546 C 3376.888 401.863 3376.277 402.18 3375.675 402.505 C 3374.746 401.977 3373.816 401.458 3372.905 400.913 C 3374.436 401.159 3375.958 401.361 3377.498 401.546 Z  M 3393.466 394.305 C 3393.438 394.313 3393.402 394.331 3393.365 394.34 C 3393.311 394.305 3393.256 394.261 3393.201 394.225 C 3393.293 394.252 3393.384 394.269 3393.466 394.305 Z  M 3252.009 341.01 C 3245.985 337.657 3240.398 333.61 3235.558 328.753 C 3245.101 328.964 3254.661 328.656 3264.176 327.847 C 3257.013 324.767 3249.84 321.687 3242.676 318.608 C 3253.804 318.625 3264.933 318.652 3276.061 318.669 C 3268.952 316.197 3261.369 313.372 3257.131 307.24 C 3265.798 309.598 3274.721 311.067 3283.689 311.648 C 3275.86 323.887 3265.133 334.745 3252.009 341.01 Z  M 3258.48 427.969 C 3258.361 427.793 3258.243 427.608 3258.134 427.432 C 3258.48 427.371 3258.835 427.318 3259.182 427.256 C 3259.364 427.344 3259.546 427.432 3259.729 427.52 C 3259.309 427.67 3258.89 427.82 3258.48 427.969 Z  M 3248.5 379.153 C 3246.978 377.446 3245.821 375.51 3245.438 373.266 C 3248.354 374.217 3251.326 374.991 3254.333 375.607 C 3252.41 376.83 3250.469 378.009 3248.5 379.153 Z  M 3158.874 574.691 C 3158.637 574.576 3158.409 574.453 3158.182 574.33 C 3159.166 573.846 3160.15 573.362 3161.116 572.86 C 3160.378 573.476 3159.631 574.092 3158.874 574.691 Z  M 3154.737 577.858 C 3152.932 578.043 3151.127 578.21 3149.323 578.36 C 3151.638 577.392 3153.916 576.362 3156.186 575.289 C 3156.897 575.254 3157.607 575.192 3158.318 575.122 C 3157.143 576.054 3155.949 576.97 3154.737 577.858 Z  M 3140.309 458.8 C 3123.357 470.705 3104.473 479.971 3084.605 486.174 C 3077.597 482.751 3070.779 478.941 3064.217 474.744 C 3059.095 471.462 3053.828 466.799 3050.966 461.493 C 3063.424 467.934 3078.089 470.16 3091.933 467.705 C 3086.61 462.602 3081.288 457.498 3075.965 452.395 C 3090.174 458.413 3104.802 463.455 3119.721 467.476 C 3114.727 461.423 3109.122 455.844 3103.024 450.855 C 3112.876 452.289 3123.658 453.504 3132.909 450.758 C 3142.597 450.31 3152.485 448.075 3160.095 442.892 C 3155.22 447.371 3150.107 451.594 3144.784 455.562 C 3141.74 456.038 3138.714 456.68 3135.743 457.569 C 3137.265 458 3138.787 458.405 3140.309 458.8 Z  M 3126.766 525.311 C 3125.745 524.379 3124.752 523.42 3123.777 522.434 C 3125.754 521.695 3127.714 520.885 3129.664 520.023 C 3131.542 520.322 3133.428 520.595 3135.324 520.833 C 3132.572 522.504 3129.71 523.974 3126.766 525.311 Z  M 3101.685 531.602 C 3099.643 530.08 3097.602 528.567 3095.56 527.045 C 3099.889 528.496 3104.291 529.737 3108.739 530.784 C 3106.378 530.969 3104.027 531.233 3101.685 531.602 Z  M 3100.773 580.005 C 3100.5 580.005 3100.226 580.005 3099.953 580.014 C 3098.786 579.354 3097.629 578.677 3096.481 577.981 C 3098.185 577.066 3099.853 576.09 3101.484 575.051 C 3102.168 575.201 3102.86 575.342 3103.553 575.483 C 3102.623 576.987 3101.703 578.492 3100.773 580.005 Z  M 3080.303 539.134 C 3076.703 536.688 3073.286 533.987 3070.096 531.013 C 3077.068 533.538 3084.277 535.43 3091.595 536.671 C 3087.859 537.577 3084.086 538.395 3080.303 539.134 Z  M 3070.105 429.254 C 3074.343 429.738 3078.59 430.107 3082.846 430.336 C 3079.182 430.855 3075.564 431.647 3072.01 432.668 C 3070.451 431.964 3068.902 431.234 3067.362 430.486 C 3068.3 430.116 3069.212 429.711 3070.105 429.254 Z  M 3102.824 439.461 C 3102.304 440.464 3101.721 441.423 3101.083 442.355 C 3097.583 441.563 3094.12 440.64 3090.684 439.61 C 3094.731 439.601 3098.777 439.557 3102.824 439.461 Z  M 3128.561 441.695 C 3128.397 443.156 3128.233 444.625 3128.078 446.095 C 3125.326 445.954 3122.574 445.752 3119.83 445.461 C 3122.811 444.37 3125.727 443.112 3128.561 441.695 Z  M 2975.339 314.93 C 2974.136 314.112 2972.951 313.267 2971.803 312.387 C 2973.297 312.853 2974.828 313.196 2976.369 313.434 C 2976.031 313.936 2975.685 314.428 2975.339 314.93 Z  M 2972.441 356.83 C 2972.112 356.725 2971.784 356.619 2971.456 356.513 C 2972.65 355.88 2973.808 355.194 2974.929 354.454 C 2974.108 355.255 2973.279 356.047 2972.441 356.83 Z  M 2965.824 326.483 C 2960.893 324.309 2956.108 321.846 2951.515 319.074 C 2957.968 320.104 2964.511 320.614 2971.055 320.605 C 2969.387 322.638 2967.656 324.609 2965.824 326.483 Z  M 2941.453 342.919 C 2938.345 341.089 2935.301 339.153 2932.339 337.112 C 2928.43 334.402 2924.365 331.076 2923.572 326.448 C 2936.076 330.495 2949.565 331.56 2962.579 329.598 C 2956.373 335.264 2949.3 339.919 2941.453 342.919 Z  M 2946.193 345.603 C 2945.126 345.022 2944.06 344.433 2943.012 343.834 C 2944.771 343.799 2946.539 343.764 2948.298 343.729 C 2947.596 344.353 2946.894 344.978 2946.193 345.603 Z  M 2937.197 382.03 C 2936.659 381.256 2936.158 380.464 2935.721 379.646 C 2936.751 380.182 2937.79 380.666 2938.838 381.141 C 2938.291 381.441 2937.753 381.74 2937.197 382.03 Z  M 2817.277 353.196 C 2812.528 352.308 2807.816 351.234 2803.177 349.897 C 2791.202 346.439 2779.582 341.115 2770.039 333.293 C 2778.88 332.211 2787.729 331.12 2796.579 330.038 C 2792.724 333.812 2788.869 337.587 2785.022 341.362 C 2795.777 342.69 2806.832 341.722 2817.176 338.537 C 2814.26 339.637 2812.145 342.567 2812.063 345.638 C 2821.56 346.843 2831.449 346.923 2840.717 344.828 C 2832.907 347.618 2825.096 350.407 2817.277 353.196 Z  M 2827.867 404.925 C 2825.598 404.256 2823.346 403.543 2821.104 402.769 C 2827.32 401.572 2833.262 399.452 2838.229 396.064 C 2834.885 399.144 2831.43 402.092 2827.867 404.925 Z  M 2806.467 396.909 C 2805.784 396.592 2805.1 396.276 2804.426 395.959 C 2805.182 395.607 2805.939 395.246 2806.686 394.868 C 2806.613 395.545 2806.54 396.232 2806.467 396.909 Z  M 2788.75 429.201 C 2788.112 428.321 2787.529 427.406 2787.028 426.473 C 2788.258 427.107 2789.507 427.688 2790.773 428.242 C 2790.108 428.567 2789.425 428.884 2788.75 429.201 Z  M 2765.683 329.413 C 2765.455 329.193 2765.218 328.973 2764.99 328.753 C 2765.683 328.762 2766.375 328.753 2767.059 328.77 C 2766.603 328.982 2766.139 329.193 2765.683 329.413 Z  M 2782.17 322.664 C 2782.051 322.699 2781.942 322.743 2781.833 322.787 C 2781.696 322.726 2781.568 322.673 2781.432 322.611 C 2781.678 322.629 2781.924 322.646 2782.17 322.664 Z  M 2799.842 310.126 C 2797.344 311.041 2794.82 311.912 2792.277 312.713 C 2790.062 311.225 2788.094 309.448 2786.572 307.24 C 2790.937 308.427 2795.376 309.387 2799.842 310.126 Z  M 2657.537 403.966 C 2645.452 408.286 2633.267 412.615 2620.772 415.44 C 2603.875 409.993 2587.689 402.435 2572.787 392.897 C 2567.665 389.624 2562.398 384.951 2559.536 379.646 C 2571.994 386.095 2586.659 388.321 2600.512 385.866 C 2595.189 380.763 2589.867 375.66 2584.535 370.556 C 2592.729 374.032 2601.077 377.164 2609.525 379.98 C 2608.268 380.649 2607.019 381.335 2605.78 382.03 C 2608.213 381.731 2610.637 381.432 2613.071 381.141 C 2618.111 382.752 2623.178 384.256 2628.291 385.638 C 2626.669 383.667 2624.973 381.757 2623.224 379.892 C 2631.444 378.88 2639.665 377.868 2647.886 376.865 C 2644.031 380.64 2640.185 384.415 2636.329 388.189 C 2647.093 389.518 2658.139 388.55 2668.483 385.365 C 2665.567 386.465 2663.452 389.395 2663.37 392.466 C 2672.867 393.671 2682.756 393.75 2692.024 391.656 C 2680.532 395.756 2669.03 399.866 2657.537 403.966 Z  M 2631.28 439.478 C 2631.608 439.469 2631.937 439.469 2632.265 439.461 C 2632.146 439.68 2632.019 439.9 2631.891 440.12 C 2631.69 439.909 2631.481 439.689 2631.28 439.478 Z  M 2681.917 449.518 C 2680.851 449.667 2679.784 449.826 2678.718 450.019 C 2679.228 450.31 2679.748 450.6 2680.258 450.881 C 2668.182 460.639 2654.904 468.963 2640.823 475.668 C 2635.965 475.043 2631.144 474.207 2626.368 473.116 C 2608.769 469.078 2591.762 461.396 2578.666 449.174 C 2591.699 453.891 2605.561 456.416 2619.46 456.601 C 2614.347 452.8 2609.243 449.007 2604.13 445.206 C 2610.218 447.239 2616.443 448.875 2622.75 450.098 C 2622.376 450.354 2622.011 450.609 2621.629 450.837 C 2622.941 450.802 2624.253 450.723 2625.566 450.626 C 2633.039 451.929 2640.613 452.659 2648.196 452.808 C 2645.689 451.374 2643.274 449.773 2640.959 448.057 C 2646.847 446.535 2652.57 444.405 2657.993 441.695 C 2657.665 444.74 2657.328 447.793 2657 450.837 C 2668.292 451.049 2680.514 449.042 2689.536 442.892 C 2687.057 445.171 2684.515 447.371 2681.917 449.518 Z  M 2665.02 517.225 C 2670.424 514.533 2675.701 511.541 2680.842 508.576 C 2676.859 512.025 2673.459 514.946 2669.458 517.762 C 2667.973 517.603 2666.496 517.427 2665.02 517.225 Z  M 2680.395 580.551 C 2672.721 582.777 2664.974 584.765 2657.164 586.49 C 2656.453 586.367 2655.751 586.235 2655.049 586.103 C 2664.546 583.797 2673.833 580.639 2682.728 576.644 C 2683.53 576.811 2684.332 576.996 2685.134 577.146 C 2683.585 578.307 2681.999 579.442 2680.395 580.551 Z  M 2650.018 527.881 C 2649.062 527.344 2648.105 526.798 2647.148 526.253 C 2648.314 526.745 2649.499 527.203 2650.693 527.625 C 2650.474 527.713 2650.246 527.801 2650.018 527.881 Z  M 2635.208 602.082 C 2635.181 602.064 2635.154 602.038 2635.126 602.02 C 2635.172 602.038 2635.208 602.055 2635.254 602.073 C 2635.245 602.073 2635.227 602.082 2635.208 602.082 Z  M 2630.989 578.738 C 2629.813 578.228 2628.637 577.691 2627.471 577.146 C 2630.059 575.685 2632.556 574.066 2634.944 572.297 C 2633.632 574.444 2632.31 576.582 2630.989 578.738 Z  M 2620.654 532.421 C 2623.688 533.23 2626.778 533.881 2629.886 534.374 C 2628.428 534.779 2626.951 535.166 2625.484 535.553 C 2623.843 534.559 2622.23 533.512 2620.654 532.421 Z  M 2596.72 490.74 C 2595.7 490.028 2594.679 489.306 2593.667 488.558 C 2595.372 489.165 2597.085 489.737 2598.817 490.265 C 2598.115 490.424 2597.422 490.591 2596.72 490.74 Z  M 2630.588 370.53 C 2626.596 372.008 2622.659 373.627 2618.785 375.396 C 2616.47 373.178 2614.073 371.04 2611.594 369.008 C 2617.764 369.914 2624.299 370.724 2630.588 370.53 Z  M 2430.046 357.147 C 2426.236 358.502 2422.417 359.866 2418.58 361.186 C 2414.069 358.335 2409.867 355.053 2406.103 351.278 C 2415.655 351.489 2425.215 351.19 2434.721 350.372 C 2428.897 347.873 2423.074 345.365 2417.25 342.866 C 2418.116 342.585 2418.963 342.277 2419.802 341.916 C 2422.946 341.854 2426.09 341.608 2429.207 341.168 C 2431.969 341.177 2434.739 341.177 2437.51 341.186 C 2436.535 342.47 2435.924 344.028 2435.879 345.638 C 2445.375 346.843 2455.264 346.923 2464.533 344.828 C 2453.04 348.938 2441.538 353.038 2430.046 357.147 Z  M 2462.227 526.719 C 2462.063 526.71 2461.899 526.71 2461.735 526.701 C 2462.181 526.473 2462.628 526.262 2463.065 526.033 C 2462.792 526.262 2462.509 526.49 2462.227 526.719 Z  M 2460.741 396.9 C 2461.179 396.628 2461.616 396.355 2462.045 396.064 C 2461.698 396.381 2461.343 396.689 2460.996 397.006 C 2460.914 396.971 2460.832 396.935 2460.741 396.9 Z  M 2457.852 399.795 C 2456.959 399.786 2456.066 399.76 2455.182 399.742 C 2456.13 399.346 2457.068 398.915 2457.98 398.449 C 2458.581 398.334 2459.183 398.22 2459.784 398.097 C 2459.146 398.669 2458.499 399.232 2457.852 399.795 Z  M 2448 466.306 C 2447.572 466.051 2447.134 465.787 2446.706 465.532 C 2448.939 464.282 2451.163 463.015 2453.35 461.748 C 2451.482 463.376 2449.741 464.872 2448 466.306 Z  M 2437.911 407.591 C 2441.247 407.714 2444.673 407.802 2448.091 407.723 C 2446.87 408.647 2445.64 409.553 2444.391 410.451 C 2442.231 409.5 2440.071 408.55 2437.911 407.591 Z  M 2438.212 414.744 C 2438.084 414.674 2437.956 414.604 2437.829 414.533 C 2438.057 414.533 2438.285 414.542 2438.512 414.542 C 2438.412 414.612 2438.312 414.683 2438.212 414.744 Z  M 2440.991 338.537 C 2440.764 338.625 2440.545 338.74 2440.326 338.854 C 2440.271 338.828 2440.208 338.81 2440.153 338.784 C 2440.435 338.704 2440.718 338.625 2440.991 338.537 Z  M 2356.351 296.523 C 2354.355 295.467 2352.386 294.376 2350.454 293.214 C 2352.869 293.601 2355.303 293.9 2357.736 294.147 C 2357.28 294.939 2356.825 295.739 2356.351 296.523 Z  M 2340.037 316.848 C 2337.057 315.079 2334.131 313.223 2331.288 311.252 C 2327.369 308.551 2323.304 305.216 2322.511 300.588 C 2331.652 303.544 2341.304 304.908 2350.919 304.67 C 2347.674 309.043 2344.038 313.161 2340.037 316.848 Z  M 2335.899 355.827 C 2335.453 355.158 2335.033 354.481 2334.669 353.786 C 2335.453 354.199 2336.245 354.586 2337.048 354.956 C 2336.665 355.246 2336.282 355.537 2335.899 355.827 Z  M 2212.515 328.665 C 2203.256 325.207 2194.333 320.869 2185.93 315.722 C 2196.065 316.707 2206.4 315.669 2216.115 312.677 C 2213.199 313.777 2211.094 316.707 2211.002 319.778 C 2220.508 320.983 2230.388 321.063 2239.666 318.969 C 2230.616 322.198 2221.565 325.427 2212.515 328.665 Z  M 2223.27 381.819 C 2220.335 380.517 2217.419 379.162 2214.548 377.728 C 2222.714 376.848 2230.752 374.577 2237.168 370.204 C 2232.73 374.287 2228.082 378.167 2223.27 381.819 Z  M 2224.938 438.924 C 2224.619 438.774 2224.29 438.625 2223.962 438.466 C 2225.475 437.613 2226.979 436.75 2228.474 435.888 C 2227.252 436.953 2226.086 437.956 2224.938 438.924 Z  M 2205.215 372.774 C 2204.076 372.123 2202.937 371.463 2201.807 370.794 C 2203.092 370.231 2204.368 369.641 2205.634 369.008 C 2205.489 370.266 2205.352 371.515 2205.215 372.774 Z  M 2179.049 311.252 C 2177.172 309.95 2175.267 308.515 2173.699 306.852 C 2179.869 306.096 2186.049 305.339 2192.219 304.582 C 2193.148 304.626 2194.078 304.662 2195.008 304.679 C 2191.535 308.084 2188.063 311.489 2184.581 314.895 C 2182.713 313.716 2180.863 312.501 2179.049 311.252 Z  M 2170.364 300.966 C 2170.336 300.843 2170.3 300.711 2170.272 300.588 C 2170.464 300.649 2170.664 300.702 2170.856 300.764 C 2170.692 300.825 2170.528 300.896 2170.364 300.966 Z  M 2071.569 272.73 C 2062.091 268.718 2053.268 263.28 2046.078 256.065 C 2055.62 256.276 2065.18 255.977 2074.695 255.159 C 2067.532 252.079 2060.359 249 2053.195 245.92 C 2058.317 245.929 2063.43 245.938 2068.552 245.955 C 2067.851 246.571 2067.149 247.187 2066.447 247.812 C 2069.108 247.328 2071.733 246.703 2074.331 245.964 C 2076.846 245.964 2079.371 245.973 2081.895 245.973 C 2080.464 248.78 2078.569 251.367 2076.308 253.584 C 2086.735 255.009 2097.662 252.528 2106.384 246.747 C 2096.022 256.884 2084.256 265.603 2071.569 272.73 Z  M 2081.275 321.168 C 2080.683 320.86 2080.091 320.552 2079.507 320.236 C 2082.178 319.963 2084.83 319.558 2087.427 318.969 C 2085.377 319.699 2083.326 320.429 2081.275 321.168 Z  M 2071.806 235.608 C 2071.241 235.81 2070.676 236.03 2070.102 236.215 C 2071.441 236.189 2072.79 236.162 2074.13 236.136 C 2075.625 236.461 2077.119 236.769 2078.614 237.042 C 2077.229 238.274 2075.843 239.497 2074.449 240.729 C 2071.788 239.101 2069.427 237.121 2067.65 234.561 C 2069.026 234.93 2070.421 235.273 2071.806 235.608 Z  M 2083.271 242.841 C 2083.062 243.412 2082.825 243.984 2082.579 244.548 C 2081.968 244.31 2081.366 244.072 2080.756 243.826 C 2081.603 243.509 2082.442 243.184 2083.271 242.841 Z  M 1938.616 331.287 C 1935.645 332.343 1932.655 333.407 1929.666 334.455 C 1910.855 330.038 1892.873 322.189 1877.051 311.252 C 1873.141 308.551 1869.077 305.216 1868.284 300.588 C 1877.106 303.447 1886.43 304.811 1895.726 304.679 C 1892.727 306.149 1889.765 307.706 1886.858 309.351 C 1900.893 307.627 1914.929 305.902 1928.964 304.178 C 1925.118 307.952 1921.263 311.727 1917.408 315.502 C 1928.171 316.83 1939.217 315.863 1949.571 312.677 C 1946.645 313.777 1944.54 316.707 1944.449 319.778 C 1953.954 320.983 1963.834 321.063 1973.112 318.969 C 1961.61 323.078 1950.117 327.178 1938.616 331.287 Z  M 1944.394 390.442 C 1933.202 387.002 1922.302 382.637 1911.866 377.384 C 1921.327 376.091 1930.568 373.258 1939.08 369.008 C 1938.743 372.052 1938.415 375.105 1938.078 378.15 C 1949.37 378.361 1961.592 376.355 1970.615 370.204 C 1962.494 377.684 1953.699 384.441 1944.394 390.442 Z  M 1952.897 513.336 C 1951.02 512.368 1949.17 511.347 1947.347 510.265 C 1948.905 509.772 1950.445 509.244 1951.986 508.699 C 1954.346 509.042 1956.725 509.297 1959.104 509.464 C 1957.071 510.802 1955.002 512.095 1952.897 513.336 Z  M 1947.256 447.256 C 1945.761 446.913 1944.284 446.535 1942.799 446.139 C 1944.02 445.567 1945.232 444.977 1946.444 444.37 C 1947.675 444.722 1948.914 445.048 1950.163 445.338 C 1949.242 445.98 1948.285 446.623 1947.283 447.256 C 1947.274 447.256 1947.265 447.256 1947.256 447.256 Z  M 1907.063 374.885 C 1902.497 372.439 1898.031 369.826 1893.675 367.037 C 1893.584 366.984 1893.502 366.922 1893.411 366.861 C 1900.055 366.958 1906.699 366.931 1913.343 366.773 C 1911.766 369.817 1909.624 372.571 1907.063 374.885 Z  M 1884.516 359.443 C 1883.732 358.572 1882.994 357.684 1882.319 356.76 C 1884.452 356.989 1886.594 357.173 1888.726 357.34 C 1889.455 357.587 1890.175 357.833 1890.904 358.053 C 1888.763 358.432 1886.63 358.889 1884.516 359.443 Z  M 1896.355 293.232 C 1896.327 293.232 1896.3 293.241 1896.273 293.241 C 1896.254 293.232 1896.236 293.223 1896.218 293.214 C 1896.263 293.223 1896.309 293.223 1896.355 293.232 Z  M 1914.555 296.804 C 1912.267 297.596 1909.998 298.45 1907.756 299.347 C 1905.432 298.247 1903.135 297.112 1900.884 295.88 C 1905.441 296.188 1909.998 296.496 1914.555 296.804 Z  M 1921.955 287.688 C 1921.035 287.961 1920.114 288.234 1919.194 288.489 C 1918.283 287.856 1917.389 287.205 1916.514 286.527 C 1918.283 287.081 1920.105 287.46 1921.955 287.688 Z  M 1761.095 327.653 C 1755.372 324.274 1750.022 320.271 1744.973 315.854 C 1750.705 315.431 1756.393 314.367 1761.888 312.677 C 1758.963 313.777 1756.857 316.707 1756.766 319.778 C 1766.272 320.983 1776.151 321.063 1785.429 318.969 C 1777.318 321.863 1769.207 324.758 1761.095 327.653 Z  M 1776.726 375.669 C 1775.55 375.449 1774.374 375.211 1773.208 374.965 C 1776.698 373.777 1779.988 372.211 1782.932 370.204 C 1780.909 372.07 1778.831 373.891 1776.726 375.669 Z  M 1746.322 329.774 C 1748.053 330.24 1749.794 330.662 1751.544 331.067 C 1751.343 331.137 1751.143 331.208 1750.933 331.287 C 1750.077 331.595 1749.211 331.903 1748.345 332.211 C 1747.607 331.454 1746.923 330.653 1746.322 329.774 Z  M 1749.275 452.773 C 1748.463 451.735 1747.734 450.67 1747.105 449.57 C 1747.26 449.509 1747.415 449.447 1747.57 449.394 C 1749.056 450.134 1750.569 450.82 1752.109 451.445 C 1751.17 451.902 1750.232 452.342 1749.275 452.773 Z  M 1737.454 401.405 C 1736.05 399.769 1734.993 397.921 1734.629 395.8 C 1737.6 396.759 1740.626 397.551 1743.688 398.176 C 1741.637 399.294 1739.55 400.358 1737.454 401.405 Z  M 1741.282 304.178 C 1739.86 305.577 1738.429 306.976 1736.998 308.375 C 1735.932 307.292 1734.866 306.201 1733.817 305.093 C 1736.306 304.785 1738.794 304.486 1741.282 304.178 Z  M 1726.435 296.963 C 1726.371 296.892 1726.317 296.831 1726.253 296.76 C 1726.463 296.778 1726.672 296.787 1726.873 296.804 C 1726.727 296.857 1726.581 296.91 1726.435 296.963 Z  M 1663.312 348.77 C 1661.891 349.087 1660.469 349.448 1659.056 349.87 C 1659.804 350.081 1660.551 350.275 1661.298 350.477 C 1644.866 364.186 1625.708 374.718 1605.266 381.449 C 1598.932 378.282 1592.816 374.674 1587.002 370.653 C 1583.092 367.952 1579.018 364.626 1578.225 359.989 C 1593.081 364.802 1609.322 365.409 1624.505 361.731 C 1618.153 359.188 1612.01 356.144 1606.168 352.615 C 1616.868 354.331 1627.814 354.622 1638.596 353.487 C 1634.303 351.384 1630.229 348.841 1626.465 345.928 C 1631.696 347.574 1637.383 347.75 1642.742 346.527 C 1642.086 347.319 1641.393 348.075 1640.655 348.797 C 1651.082 350.222 1662.009 347.741 1670.74 341.969 C 1668.343 344.309 1665.855 346.571 1663.312 348.77 Z  M 1621.206 409.685 C 1622.892 409.342 1624.569 408.937 1626.228 408.48 C 1626.401 408.541 1626.574 408.612 1626.747 408.673 C 1625.453 409.527 1624.423 410.759 1623.795 412.166 C 1622.929 411.339 1622.063 410.512 1621.206 409.685 Z  M 1624.186 424.036 C 1623.931 424.08 1623.676 424.115 1623.43 424.159 C 1623.485 424.194 1623.53 424.221 1623.585 424.247 C 1621.489 424.995 1619.383 425.752 1617.287 426.5 C 1614.416 427.52 1611.546 428.55 1608.666 429.553 C 1606.97 428.541 1605.284 427.512 1603.626 426.447 C 1598.504 423.174 1593.236 418.502 1590.383 413.196 C 1602.833 419.637 1617.497 421.863 1631.35 419.417 C 1629.965 418.088 1628.579 416.759 1627.203 415.44 C 1633.346 415.994 1639.589 416.011 1645.677 415.246 C 1646.233 415.422 1646.78 415.598 1647.336 415.765 C 1639.616 418.528 1631.906 421.282 1624.186 424.036 Z  M 1639.68 531.893 C 1639.598 531.849 1639.525 531.805 1639.443 531.761 C 1639.826 531.541 1640.209 531.321 1640.591 531.101 C 1640.282 531.374 1639.981 531.629 1639.68 531.893 Z  M 1617.378 489.201 C 1614.626 487.194 1611.992 485.039 1609.504 482.716 C 1613.541 484.176 1617.652 485.426 1621.817 486.464 C 1620.35 487.397 1618.873 488.303 1617.378 489.201 Z  M 1647.627 338.053 C 1646.953 339.875 1646.087 341.626 1645.066 343.28 C 1641.722 342.928 1638.377 342.558 1635.032 342.136 C 1639.334 341.115 1643.553 339.751 1647.627 338.053 Z  M 1478.073 384.555 C 1475.448 383.024 1472.905 381.361 1470.426 379.593 C 1478.765 380.376 1487.305 380.2 1495.38 378.379 C 1489.611 380.438 1483.842 382.496 1478.073 384.555 Z  M 1490.54 431.717 C 1490.258 431.656 1489.975 431.603 1489.693 431.542 C 1490.796 430.943 1491.862 430.31 1492.883 429.615 C 1492.108 430.318 1491.324 431.022 1490.54 431.717 Z  M 1467.09 377.12 C 1465.851 376.152 1464.621 375.167 1463.408 374.155 C 1466.252 373.618 1469.068 372.932 1471.83 372.087 C 1469.578 372.932 1467.829 374.868 1467.09 377.12 Z  M 1465.158 389.166 C 1464.265 388.304 1463.445 387.371 1462.725 386.333 C 1464.766 386.887 1466.817 387.38 1468.886 387.837 C 1467.637 388.277 1466.398 388.726 1465.158 389.166 Z  M 1465.486 509.069 C 1465.368 508.91 1465.24 508.752 1465.122 508.585 C 1465.678 508.162 1466.215 507.713 1466.744 507.247 C 1467.109 507.406 1467.464 507.573 1467.829 507.722 C 1467.054 508.18 1466.279 508.637 1465.486 509.069 Z  M 1463.572 506.235 C 1463.746 506.156 1463.919 506.086 1464.092 506.007 C 1464.83 506.367 1465.577 506.728 1466.334 507.062 C 1465.614 507.115 1464.885 507.15 1464.165 507.194 C 1463.955 506.878 1463.764 506.561 1463.572 506.235 Z  M 1453.574 457.613 C 1452.308 456.064 1451.378 454.331 1451.041 452.36 C 1453.675 453.213 1456.354 453.926 1459.07 454.515 C 1457.247 455.571 1455.425 456.61 1453.574 457.613 Z  M 1377.282 407.389 C 1374.493 407.855 1371.732 408.462 1369.007 409.28 C 1370.483 409.703 1371.96 410.09 1373.445 410.477 C 1363.702 418.07 1353.094 424.582 1341.893 429.905 C 1335.449 426.693 1329.234 423.042 1323.319 418.95 C 1319.4 416.249 1315.335 412.914 1314.542 408.286 C 1329.398 413.099 1345.63 413.706 1360.822 410.028 C 1354.47 407.485 1348.327 404.432 1342.485 400.913 C 1348.163 401.819 1353.914 402.32 1359.674 402.426 C 1358.872 403.455 1358.006 404.441 1357.068 405.356 C 1367.494 406.781 1378.421 404.3 1387.152 398.519 C 1383.99 401.616 1380.691 404.564 1377.282 407.389 Z  M 1346.213 478.589 C 1344.098 477.34 1342.011 476.064 1339.943 474.744 C 1336.807 472.729 1333.617 470.204 1330.956 467.327 C 1333.426 467.036 1335.887 466.623 1338.311 466.095 C 1339.314 466.385 1340.316 466.658 1341.328 466.895 C 1340.252 468.224 1339.578 469.861 1339.523 471.55 C 1349.029 472.756 1358.909 472.835 1368.186 470.741 C 1360.859 473.354 1353.54 475.967 1346.213 478.589 Z  M 1346.422 531.55 C 1346.222 531.374 1346.021 531.198 1345.821 531.013 C 1346.322 531.198 1346.823 531.365 1347.325 531.541 C 1347.024 531.541 1346.723 531.55 1346.422 531.55 Z  M 1360.522 387.802 C 1360.194 388.093 1359.856 388.392 1359.528 388.682 C 1358.125 388.436 1356.721 388.181 1355.327 387.899 C 1357.058 387.873 1358.79 387.837 1360.522 387.802 Z  M 1364.031 394.613 C 1363.985 394.745 1363.921 394.885 1363.866 395.026 C 1363.766 394.947 1363.666 394.877 1363.557 394.797 C 1363.721 394.736 1363.876 394.674 1364.031 394.613 Z  M 1229.856 608.17 C 1229.792 608.17 1229.728 608.162 1229.664 608.153 C 1229.847 608.056 1230.038 607.968 1230.22 607.871 C 1230.102 607.977 1229.983 608.074 1229.856 608.17 Z  M 1185.016 508.453 C 1167.426 501.501 1153.317 488.55 1140.613 474.278 C 1151.048 474.656 1161.493 474.726 1171.928 474.471 C 1169.522 479.126 1165.803 483.103 1161.292 485.857 C 1173.897 485.479 1186.419 482.329 1197.656 476.706 C 1197.328 479.759 1196.991 482.804 1196.663 485.857 C 1207.955 486.059 1220.177 484.053 1229.2 477.903 C 1216.012 490.037 1201.074 500.305 1185.016 508.453 Z  M 1216.34 618.043 C 1215.365 617.136 1214.371 616.239 1213.36 615.368 C 1214.435 614.963 1215.501 614.55 1216.568 614.118 C 1218.181 614.312 1219.794 614.488 1221.425 614.62 C 1219.749 615.799 1218.062 616.934 1216.34 618.043 Z  M 1203.325 552.913 C 1209.204 550.045 1214.927 546.798 1220.505 543.587 C 1216.185 547.335 1212.549 550.441 1208.101 553.485 C 1206.506 553.301 1204.92 553.116 1203.325 552.913 Z  M 1195.004 556.732 C 1196.873 557.322 1198.796 557.718 1200.737 557.938 C 1199.944 558.351 1199.151 558.765 1198.349 559.152 C 1197.21 558.377 1196.089 557.577 1195.004 556.732 Z  M 1206.078 624.079 C 1201.931 624.132 1197.784 624.176 1193.637 624.22 C 1192.835 623.454 1192.033 622.689 1191.231 621.914 C 1193.391 621.439 1195.542 620.938 1197.684 620.374 C 1200.728 621.51 1203.79 622.601 1206.871 623.648 C 1206.606 623.788 1206.342 623.938 1206.078 624.079 Z  M 1172.903 637.717 C 1172.657 637.559 1172.411 637.409 1172.165 637.251 C 1167.043 633.978 1161.775 629.305 1158.922 624 C 1168.784 629.103 1180.03 631.549 1191.167 631.136 C 1191.176 631.136 1191.186 631.144 1191.195 631.144 C 1185.234 633.634 1179.119 635.817 1172.903 637.717 Z  M 1148.15 574.409 C 1147.485 573.3 1146.992 572.104 1146.765 570.793 C 1149.471 571.673 1152.224 572.403 1155.013 573.001 C 1152.725 573.503 1150.437 573.969 1148.15 574.409 Z  M 1167.854 516.178 C 1163.589 517.867 1159.26 519.416 1154.885 520.806 C 1151.258 519.249 1147.63 517.691 1144.003 516.134 C 1151.95 516.152 1159.907 516.169 1167.854 516.178 Z  M 1184.988 564.607 C 1183.785 565.029 1182.573 565.443 1181.361 565.839 C 1180.85 566.006 1180.322 566.156 1179.811 566.323 C 1178.089 565.39 1176.385 564.431 1174.708 563.428 C 1178.116 563.974 1181.552 564.352 1184.988 564.607 Z  M 1172.329 514.348 C 1166.888 512.21 1161.693 509.456 1158.458 504.775 C 1166.715 507.01 1175.2 508.461 1183.74 509.095 C 1179.994 510.96 1176.193 512.72 1172.329 514.348 Z  M 1131.134 463.182 C 1138.033 464.238 1144.978 464.977 1151.95 465.356 C 1146.591 466.121 1141.314 467.432 1136.229 469.245 C 1134.506 467.239 1132.811 465.206 1131.134 463.182 Z  M 1066.954 530.608 C 1058.597 527.124 1050.549 522.909 1042.957 518.017 C 1048.717 516.97 1054.368 515.298 1059.763 513.046 C 1058.287 517.076 1055.89 520.771 1052.8 523.789 C 1063.227 525.223 1074.154 522.742 1082.876 516.961 C 1077.882 521.853 1072.55 526.402 1066.954 530.608 Z  M 1038.947 515.36 C 1035.037 512.65 1030.973 509.324 1030.18 504.687 C 1037.68 507.115 1045.527 508.47 1053.42 508.752 C 1049.929 511.84 1046.439 514.929 1042.948 518.017 C 1041.599 517.146 1040.269 516.266 1038.947 515.36 Z  M 1063.208 498.008 C 1062.625 498.422 1062.033 498.835 1061.431 499.223 C 1060.319 498.598 1059.207 497.973 1058.123 497.322 C 1059.809 497.586 1061.504 497.806 1063.208 498.008 Z  M 917.177 595.482 C 911.125 594.462 905.125 593.195 899.23 591.497 C 885.291 587.475 871.843 580.929 861.57 570.846 C 870.233 571.074 878.902 571.092 887.565 570.881 C 885.159 575.527 881.436 579.512 876.925 582.258 C 889.535 581.879 902.05 578.729 913.294 573.116 C 912.966 576.16 912.629 579.213 912.301 582.258 C 923.593 582.469 935.814 580.463 944.837 574.312 C 936.297 582.17 927.02 589.253 917.177 595.482 Z  M 927.156 647.431 C 926.181 647.176 925.215 646.903 924.258 646.622 C 928.286 644.492 932.251 642.231 936.143 639.996 C 932.971 642.741 930.173 645.143 927.156 647.431 Z  M 871.52 616.89 C 871.26 616.248 871.056 615.57 870.934 614.866 C 872.102 615.245 873.279 615.588 874.462 615.913 C 873.484 616.248 872.503 616.573 871.52 616.89 Z  M 765.104 641.457 C 761.802 639.134 758.687 636.564 755.834 633.696 C 757.043 633.722 758.251 633.722 759.46 633.731 C 759.452 633.846 759.427 633.951 759.423 634.066 C 768.925 635.271 778.808 635.35 788.083 633.256 C 780.424 635.984 772.763 638.72 765.104 641.457 Z  M 777.91 691.17 C 777.035 690.598 776.166 690.018 775.303 689.437 C 778.017 688.539 780.616 687.422 783.036 686.058 C 783.281 686.085 783.524 686.102 783.769 686.129 C 781.851 687.844 779.898 689.525 777.91 691.17 Z  M 648.376 708.918 C 643.648 710.607 638.903 712.296 634.131 713.898 C 621.133 709.463 608.933 702.802 598.984 693.52 C 612.022 698.245 625.88 700.77 639.774 700.955 C 636.388 698.438 633 695.913 629.613 693.396 C 632.836 693.687 636.076 693.784 639.31 693.669 C 644.276 694.769 649.297 695.623 654.352 696.203 C 654.273 696.608 654.221 697.004 654.209 697.418 C 663.71 698.623 673.592 698.702 682.868 696.608 C 671.371 700.708 659.873 704.817 648.376 708.918 Z  M 656.576 825.195 C 655.289 824.711 654.011 824.21 652.743 823.69 C 656.542 821.895 660.282 819.933 663.962 817.901 C 664.823 817.91 665.686 817.91 666.548 817.901 C 663.429 820.479 660.341 822.828 656.576 825.195 Z  M 648.272 751.821 C 646.372 751.064 644.489 750.272 642.622 749.445 C 644.371 748.733 646.097 747.967 647.796 747.149 C 648.115 747.228 648.436 747.298 648.757 747.369 C 648.596 748.856 648.433 750.334 648.272 751.821 Z  M 629.273 691.074 C 628.873 691.469 628.473 691.857 628.073 692.253 C 626.865 691.355 625.659 690.458 624.452 689.56 C 626.049 690.097 627.657 690.598 629.273 691.074 Z  M 659.325 690.308 C 659.162 690.378 659.011 690.458 658.853 690.537 C 658.828 690.51 658.802 690.493 658.777 690.475 C 658.959 690.422 659.143 690.37 659.325 690.308 Z  M 450.363 601.501 C 445.765 603.137 441.152 604.783 436.513 606.349 C 429.803 603.463 423.094 600.577 416.386 597.7 C 427.514 597.717 438.642 597.744 449.77 597.761 C 442.663 595.289 435.076 592.464 430.84 586.332 C 440.242 588.883 449.931 590.414 459.674 590.881 C 459.061 590.661 458.456 590.423 457.852 590.185 C 466.841 591.197 476.118 591.153 484.856 589.182 C 473.358 593.283 461.861 597.392 450.363 601.501 Z  M 477.443 644.774 C 476.921 644.492 476.399 644.219 475.883 643.929 C 478.171 642.944 480.35 641.791 482.363 640.418 C 480.752 641.897 479.106 643.348 477.443 644.774 Z  M 479.302 773.651 C 478.963 773.405 478.623 773.15 478.284 772.894 C 478.714 772.692 479.148 772.498 479.577 772.296 C 479.93 772.402 480.282 772.507 480.636 772.613 C 480.193 772.965 479.749 773.308 479.302 773.651 Z  M 447.091 644.985 C 448.107 645.152 449.126 645.284 450.147 645.425 C 450.102 645.838 450.056 646.252 450.011 646.666 C 449.033 646.111 448.053 645.566 447.091 644.985 Z  M 439.539 670.282 C 435.558 668.038 431.677 665.618 427.922 663.023 C 424.011 660.321 419.944 656.995 419.151 652.358 C 434.005 657.171 450.241 657.779 465.427 654.101 C 461.21 652.411 457.097 650.484 453.092 648.355 C 458.081 648.258 463.167 647.695 468.018 646.516 C 470.613 646.49 473.208 646.384 475.796 646.19 C 464.678 655.508 452.482 663.586 439.539 670.282 Z  M 469.806 709.419 C 469.564 709.19 469.324 708.953 469.081 708.724 C 470.622 707.853 472.153 706.973 473.67 706.102 C 472.33 707.263 471.058 708.363 469.806 709.419 Z  M 462.791 784.615 C 460.985 783.462 459.222 782.248 457.506 780.972 C 459.506 780.347 461.499 779.705 463.473 779.01 C 465.566 779.511 467.673 779.969 469.791 780.365 C 467.498 781.852 465.163 783.259 462.791 784.615 Z  M 446.256 719.881 C 451.527 717.893 456.692 715.42 461.744 712.754 C 463.148 712.736 464.551 712.666 465.951 712.56 C 463.628 714.382 461.221 716.115 458.434 717.857 C 455.791 719.512 453.037 720.972 450.213 722.301 C 448.884 721.509 447.565 720.699 446.256 719.881 Z  M 409.266 607.836 C 417.474 608.021 425.69 607.801 433.879 607.22 C 427.554 609.305 421.175 611.206 414.713 612.719 C 412.816 611.188 410.99 609.569 409.266 607.836 Z  M 426.304 567.018 C 425.652 567.238 425.005 567.484 424.355 567.722 C 424.046 567.423 423.741 567.124 423.433 566.824 C 424.39 566.886 425.347 566.948 426.304 567.018 Z  M 440.713 574.391 C 439.388 575.685 438.063 576.987 436.739 578.281 C 435.461 577.33 434.202 576.354 432.962 575.342 C 435.546 575.025 438.13 574.708 440.713 574.391 Z  M 461.313 582.891 C 458.536 583.938 456.515 586.64 456.245 589.543 C 453.481 588.399 450.798 587.115 448.197 585.689 C 452.642 585.135 457.038 584.202 461.313 582.891 Z  M 333.581 616.327 C 324.452 612.367 315.711 607.554 307.549 601.906 C 303.637 599.204 299.569 595.878 298.777 591.241 C 305.719 593.494 312.964 594.814 320.261 595.218 C 318.616 596.67 316.97 598.131 315.323 599.583 C 320.603 598.624 325.784 597.137 330.764 595.166 C 331.164 595.139 331.565 595.104 331.964 595.069 C 330.473 598.914 328.151 602.451 325.181 605.355 C 335.605 606.789 346.535 604.308 355.262 598.527 C 348.574 605.064 341.303 611.004 333.581 616.327 Z  M 328.221 584.088 C 328.022 584.193 327.822 584.29 327.623 584.396 C 327.323 584.211 327.016 584.053 326.717 583.868 C 327.217 583.956 327.72 584.009 328.221 584.088 Z  M 153.54 698.561 C 149.509 694.118 145.144 689.956 140.485 686.146 C 153.856 688.091 168.928 689.639 179.572 681.448 C 146.175 682.864 112.39 673.141 85.05 654.241 C 81.139 651.54 77.072 648.214 76.28 643.577 C 89.408 647.827 103.613 648.795 117.22 646.419 C 123.509 647.334 129.837 647.968 136.184 648.311 C 127.219 649.587 118.481 652.385 110.463 656.52 C 125.673 657.497 140.926 657.796 156.162 657.435 C 153.756 662.081 150.033 666.067 145.523 668.812 C 158.133 668.434 170.649 665.284 181.894 659.67 C 181.561 662.715 181.228 665.768 180.895 668.812 C 192.187 669.024 204.412 667.017 213.433 660.867 C 196.035 676.872 175.592 689.648 153.54 698.561 Z  M 189.505 738.306 C 188.114 739.177 186.685 739.978 185.239 740.752 C 183.092 740.453 180.947 740.119 178.81 739.758 C 187.776 736.203 196.428 731.337 204.74 726.551 C 199.543 731.056 195.349 734.646 189.505 738.306 Z  M 190.681 806.841 C 188.496 805.529 186.361 804.139 184.28 802.679 C 188.635 801.464 192.935 800.065 197.167 798.49 C 198.412 798.218 199.644 797.892 200.861 797.531 C 202.132 797.804 203.409 798.042 204.69 798.253 C 200.188 801.368 195.508 804.227 190.681 806.841 Z  M 158.025 790.844 C 158.297 790.651 158.575 790.466 158.844 790.263 C 158.707 790.492 158.569 790.712 158.433 790.932 C 158.297 790.906 158.161 790.879 158.025 790.844 Z  M 151.428 822.327 C 141.227 817.83 131.519 812.269 122.56 805.697 C 137.652 811.064 153.763 813.66 169.81 813.299 C 166.997 811.302 164.184 809.304 161.372 807.307 C 163.314 807.06 165.251 806.77 167.184 806.453 C 172.714 808.213 178.329 809.603 183.993 810.254 C 173.605 815.27 162.648 819.247 151.428 822.327 Z  M 101.678 710.035 C 96.556 706.753 91.288 702.09 88.431 696.784 C 100.883 703.225 115.548 705.451 129.4 702.996 C 124.077 697.893 118.753 692.798 113.43 687.695 C 124.975 692.587 136.804 696.819 148.837 700.392 C 134.434 705.803 119.401 709.586 104.12 711.557 C 103.304 711.056 102.486 710.554 101.678 710.035 Z  M 111.966 637.189 C 110.171 637.295 108.379 637.418 106.593 637.567 C 105.801 637.119 105.001 636.679 104.219 636.204 C 106.79 636.617 109.374 636.943 111.966 637.189 Z  M 5468.334 873.703 L 5468.334 743.7 L 5468.334 364.142 C 5454.499 375.422 5438.796 384.485 5422.062 390.961 C 5410.953 389.685 5399.897 387.996 5389.18 384.907 C 5374.998 380.825 5361.327 374.129 5350.992 363.764 C 5360.544 363.975 5370.104 363.676 5379.619 362.857 C 5372.446 359.778 5365.283 356.707 5358.11 353.627 C 5369.238 353.645 5380.366 353.663 5391.504 353.689 C 5384.395 351.216 5376.803 348.383 5372.574 342.259 C 5381.97 344.811 5391.659 346.342 5401.401 346.799 C 5375.983 337.666 5357.755 316.003 5340.812 295.273 C 5332.664 285.313 5323.942 275.968 5319.996 263.791 C 5314.701 280.157 5309.114 296.646 5299.882 311.225 C 5290.649 325.814 5277.307 338.537 5260.71 343.913 C 5263.927 343.852 5267.145 343.79 5270.362 343.729 C 5265.923 347.662 5261.485 351.586 5257.055 355.51 C 5262.825 354.463 5268.475 352.791 5273.88 350.539 C 5272.394 354.56 5269.997 358.264 5266.908 361.282 C 5277.334 362.717 5288.261 360.235 5296.993 354.454 C 5278.783 372.246 5256.308 385.708 5231.992 393.785 C 5210.064 383.5 5193.623 363.913 5178.229 345.084 C 5170.091 335.123 5161.36 325.779 5157.422 313.601 C 5152.127 329.967 5146.54 346.456 5137.299 361.045 C 5128.067 375.625 5114.733 388.348 5098.127 393.724 C 5101.345 393.662 5104.571 393.601 5107.788 393.548 C 5103.35 397.472 5098.911 401.397 5094.473 405.321 C 5100.242 404.274 5105.902 402.602 5111.297 400.349 C 5109.821 404.379 5107.424 408.075 5104.334 411.093 C 5114.76 412.527 5125.688 410.046 5134.41 404.265 C 5114.277 423.939 5088.913 438.317 5061.626 445.98 C 5053.706 442.188 5046.37 437.322 5040.218 431.154 C 5049.769 431.366 5059.321 431.066 5068.835 430.257 C 5061.672 427.177 5054.508 424.098 5047.336 421.018 C 5058.464 421.036 5069.592 421.062 5080.72 421.08 C 5073.62 418.607 5066.028 415.783 5061.79 409.65 C 5071.196 412.202 5080.884 413.733 5090.627 414.199 C 5065.208 405.057 5046.98 383.403 5030.029 362.664 C 5025.636 357.288 5021.07 352.079 5017.178 346.509 C 5019.73 345.92 5022.209 345.013 5024.524 343.799 C 5021.252 343.473 5017.98 343.139 5014.708 342.77 C 5012.466 339.144 5010.561 335.326 5009.222 331.181 C 5008.091 334.675 5006.943 338.176 5005.758 341.661 C 4997.355 340.499 4989.025 338.96 4980.886 336.619 C 4966.714 332.528 4953.044 325.84 4942.699 315.467 C 4952.251 315.687 4961.811 315.379 4971.326 314.569 C 4964.153 311.489 4956.99 308.41 4949.826 305.33 C 4960.954 305.348 4972.082 305.374 4983.21 305.392 C 4976.102 302.919 4968.51 300.095 4964.281 293.962 C 4973.677 296.514 4983.365 298.045 4993.108 298.511 C 4967.69 289.369 4949.471 267.715 4932.519 246.976 C 4924.371 237.016 4915.649 227.671 4911.703 215.494 C 4906.408 231.868 4900.821 248.349 4891.589 262.937 C 4882.356 277.526 4869.023 290.24 4852.417 295.625 C 4855.634 295.563 4858.851 295.502 4862.069 295.44 C 4857.639 299.365 4853.201 303.289 4848.762 307.213 C 4854.531 306.166 4860.182 304.494 4865.587 302.242 C 4864.101 306.272 4861.704 309.967 4858.624 312.985 C 4869.041 314.419 4879.977 311.938 4888.699 306.157 C 4862.497 331.762 4827.436 348.401 4790.789 352.923 C 4788.602 350.31 4786.451 347.688 4784.318 345.084 C 4776.179 335.123 4767.448 325.779 4763.511 313.601 C 4758.207 329.967 4752.62 346.456 4743.388 361.045 C 4734.155 375.625 4720.822 388.348 4704.216 393.724 C 4707.433 393.662 4710.651 393.601 4713.877 393.548 C 4709.438 397.472 4705 401.397 4700.561 405.321 C 4706.331 404.274 4711.981 402.602 4717.386 400.349 C 4715.909 404.379 4713.512 408.075 4710.423 411.093 C 4720.84 412.527 4731.777 410.046 4740.498 404.265 C 4711.343 432.756 4671.215 450.151 4630.129 452.105 C 4641.084 452.844 4652.039 453.574 4662.985 454.313 C 4653.397 457.657 4644.11 461.862 4635.288 466.86 C 4649.323 465.136 4663.359 463.411 4677.394 461.686 C 4673.539 465.461 4669.693 469.236 4665.838 473.019 C 4676.601 474.348 4687.647 473.371 4698 470.186 C 4695.075 471.295 4692.97 474.216 4692.878 477.296 C 4702.384 478.501 4712.264 478.58 4721.542 476.477 C 4710.04 480.587 4698.547 484.696 4687.046 488.796 C 4677.64 492.157 4668.171 495.527 4658.546 498.193 C 4659.731 497.542 4660.87 496.812 4661.973 495.967 C 4628.571 497.384 4594.786 487.661 4567.444 468.761 C 4563.534 466.06 4559.469 462.734 4558.676 458.097 C 4573.532 462.91 4589.764 463.517 4604.948 459.839 C 4598.604 457.296 4592.462 454.243 4586.62 450.723 C 4597.319 452.439 4608.256 452.729 4619.038 451.594 C 4614.754 449.482 4610.68 446.948 4606.907 444.036 C 4614.672 446.482 4623.431 445.69 4630.612 441.898 C 4615.912 440.437 4601.147 438.809 4586.975 434.718 C 4572.794 430.635 4559.123 423.939 4548.788 413.574 C 4558.339 413.785 4567.9 413.486 4577.415 412.668 C 4570.242 409.597 4563.078 406.517 4555.915 403.438 C 4567.043 403.455 4578.171 403.473 4589.299 403.499 C 4582.19 401.027 4574.598 398.203 4570.37 392.07 C 4579.766 394.621 4589.454 396.152 4599.197 396.619 C 4573.778 387.477 4555.55 365.814 4538.608 345.084 C 4530.46 335.123 4521.738 325.779 4517.792 313.601 C 4512.496 329.967 4506.91 346.456 4497.677 361.045 C 4488.445 375.625 4475.111 388.348 4458.506 393.724 C 4461.723 393.662 4464.94 393.601 4468.157 393.548 C 4463.719 397.472 4459.28 401.397 4454.851 405.321 C 4460.62 404.274 4466.271 402.602 4471.675 400.349 C 4470.19 404.379 4467.793 408.075 4464.703 411.093 C 4475.129 412.527 4486.057 410.046 4494.788 404.265 C 4468.677 429.782 4433.761 446.385 4397.242 450.978 C 4394.845 448.127 4392.485 445.25 4390.151 442.399 C 4382.004 432.439 4373.282 423.086 4369.344 410.908 C 4364.04 427.283 4358.453 443.763 4349.221 458.352 C 4345.256 464.608 4340.535 470.521 4335.131 475.659 C 4321.096 474.243 4307.024 472.58 4293.49 468.682 C 4279.317 464.599 4265.647 457.903 4255.312 447.538 C 4264.854 447.749 4274.414 447.441 4283.929 446.632 C 4276.766 443.552 4269.593 440.472 4262.429 437.393 C 4273.558 437.419 4284.686 437.437 4295.814 437.454 C 4288.705 434.982 4281.122 432.157 4276.884 426.033 C 4286.29 428.585 4295.978 430.107 4305.72 430.574 C 4280.302 421.432 4262.074 399.778 4245.122 379.047 C 4236.983 369.087 4228.252 359.734 4224.315 347.556 C 4219.02 363.931 4213.433 380.411 4204.192 395 C 4194.959 409.588 4181.626 422.303 4165.02 427.688 C 4168.237 427.626 4171.464 427.564 4174.681 427.503 C 4170.242 431.427 4165.804 435.351 4161.366 439.285 C 4167.135 438.229 4172.794 436.557 4178.19 434.304 C 4176.713 438.334 4174.316 442.03 4171.227 445.048 C 4181.653 446.482 4192.581 444.001 4201.312 438.22 C 4177.123 461.854 4145.398 477.841 4111.85 483.719 C 4104.468 474.841 4097.049 466.183 4093.504 455.228 C 4088.208 471.603 4082.622 488.083 4073.389 502.672 C 4064.157 517.26 4050.823 529.975 4034.218 535.36 C 4037.435 535.298 4040.652 535.236 4043.869 535.175 C 4039.431 539.099 4034.992 543.023 4030.563 546.957 C 4036.332 545.901 4041.983 544.229 4047.387 541.976 C 4045.902 546.006 4043.505 549.702 4040.415 552.72 C 4050.841 554.154 4061.769 551.673 4070.5 545.892 C 4053.967 562.047 4033.917 574.629 4012.162 582.856 C 3993.342 577.383 3975.306 569.306 3958.818 558.835 C 3959.684 558.219 3960.514 557.559 3961.307 556.838 C 3959.62 556.952 3957.934 557.04 3956.248 557.119 C 3951.819 553.969 3947.535 549.86 3945.066 545.258 C 3957.515 551.708 3972.179 553.925 3986.033 551.479 C 3980.71 546.376 3975.388 541.272 3970.056 536.169 C 3984.264 542.188 3998.901 547.229 4013.812 551.25 C 4008.817 545.188 4003.212 539.618 3997.115 534.62 C 4010.485 536.574 4025.559 538.114 4036.205 529.931 C 4002.802 531.339 3969.017 521.616 3941.684 502.725 C 3937.775 500.014 3933.701 496.688 3932.908 492.051 C 3947.763 496.864 3964.004 497.48 3979.188 493.802 C 3972.836 491.26 3966.693 488.206 3960.851 484.687 C 3971.551 486.394 3982.496 486.684 3993.278 485.549 C 3988.985 483.446 3984.912 480.903 3981.148 477.991 C 3988.903 480.437 3997.662 479.645 4004.844 475.862 C 3990.152 474.401 3975.378 472.764 3961.206 468.682 C 3947.034 464.599 3933.363 457.903 3923.028 447.538 C 3932.57 447.749 3942.131 447.441 3951.646 446.632 C 3944.482 443.552 3937.31 440.472 3930.146 437.393 C 3941.274 437.419 3952.402 437.437 3963.53 437.454 C 3956.422 434.982 3948.839 432.157 3944.601 426.033 C 3953.997 428.585 3963.694 430.107 3973.428 430.574 C 3948.019 421.432 3929.791 399.778 3912.839 379.047 C 3904.7 369.087 3895.969 359.734 3892.032 347.556 C 3886.728 363.931 3881.141 380.411 3871.908 395 C 3862.676 409.588 3849.342 422.303 3832.737 427.688 C 3835.954 427.626 3839.171 427.564 3842.389 427.503 C 3839.919 429.694 3837.449 431.876 3834.97 434.067 C 3821.582 429.94 3808.767 423.411 3798.961 413.574 C 3808.512 413.785 3818.073 413.486 3827.588 412.668 C 3820.415 409.597 3813.251 406.517 3806.079 403.438 C 3817.216 403.455 3828.344 403.473 3839.472 403.499 C 3832.363 401.027 3824.771 398.203 3820.543 392.07 C 3829.939 394.621 3839.627 396.152 3849.37 396.619 C 3823.951 387.477 3805.723 365.814 3788.781 345.084 C 3780.633 335.123 3771.911 325.779 3767.965 313.601 C 3762.669 329.967 3757.083 346.456 3747.85 361.045 C 3738.627 375.616 3725.302 388.33 3708.706 393.715 C 3686.86 383.412 3670.455 363.869 3655.107 345.084 C 3646.959 335.123 3638.237 325.779 3634.291 313.601 C 3628.996 329.967 3623.409 346.456 3614.177 361.045 C 3610.24 367.257 3605.555 373.126 3600.196 378.238 C 3589.761 376.988 3579.389 375.325 3569.309 372.422 C 3555.137 368.339 3541.466 361.643 3531.131 351.278 C 3540.673 351.489 3550.234 351.19 3559.749 350.372 C 3552.585 347.292 3545.412 344.213 3538.249 341.142 C 3549.377 341.159 3560.505 341.177 3571.633 341.203 C 3564.524 338.722 3556.942 335.898 3552.704 329.774 C 3562.109 332.325 3571.797 333.856 3581.54 334.314 C 3556.121 325.181 3537.894 303.518 3520.942 282.787 C 3512.803 272.827 3504.072 263.474 3500.135 251.305 C 3494.84 267.671 3489.244 284.16 3480.011 298.74 C 3470.779 313.328 3457.445 326.052 3440.84 331.428 C 3444.057 331.366 3447.283 331.305 3450.5 331.243 C 3446.062 335.176 3441.624 339.1 3437.185 343.025 C 3442.954 341.978 3448.605 340.306 3454.009 338.053 C 3452.533 342.074 3450.136 345.779 3447.046 348.797 C 3457.473 350.222 3468.4 347.741 3477.122 341.969 C 3452.414 366.113 3419.832 382.285 3385.464 387.846 C 3381.362 387.028 3377.289 386.069 3373.26 384.907 C 3359.088 380.825 3345.417 374.129 3335.082 363.764 C 3344.634 363.975 3354.185 363.676 3363.7 362.857 C 3356.536 359.778 3349.373 356.707 3342.2 353.627 C 3353.328 353.645 3364.456 353.663 3375.584 353.689 C 3368.475 351.216 3360.893 348.383 3356.655 342.259 C 3366.06 344.811 3375.748 346.342 3385.491 346.799 C 3360.072 337.666 3341.845 316.003 3324.893 295.273 C 3316.754 285.313 3308.032 275.968 3304.086 263.791 C 3298.809 280.104 3293.24 296.523 3284.063 311.067 C 3259.628 301.556 3241.893 280.473 3225.369 260.262 C 3217.23 250.293 3208.499 240.949 3204.562 228.771 C 3199.258 245.146 3193.671 261.626 3184.439 276.215 C 3175.206 290.803 3161.873 303.518 3145.267 308.903 C 3148.484 308.841 3151.702 308.779 3154.919 308.718 C 3150.489 312.642 3146.051 316.566 3141.613 320.5 C 3147.382 319.444 3153.032 317.772 3158.437 315.519 C 3156.951 319.549 3154.554 323.245 3151.474 326.263 C 3161.891 327.697 3172.828 325.216 3181.55 319.435 C 3152.394 347.934 3112.266 365.33 3071.18 367.274 C 3082.135 368.014 3093.081 368.753 3104.036 369.483 C 3094.439 372.827 3085.161 377.032 3076.339 382.03 C 3090.374 380.306 3104.41 378.581 3118.445 376.865 C 3114.59 380.64 3110.744 384.415 3106.889 388.189 C 3117.652 389.518 3128.698 388.55 3139.042 385.365 C 3136.126 386.465 3134.021 389.395 3133.93 392.466 C 3143.426 393.671 3153.315 393.75 3162.593 391.656 C 3151.091 395.756 3139.589 399.866 3128.097 403.966 C 3111.309 409.967 3094.33 416.003 3076.576 417.982 C 3067.489 418.994 3058.211 418.95 3049.152 420.006 C 3048.633 419.654 3048.104 419.311 3047.585 418.95 C 3043.675 416.249 3039.61 412.914 3038.817 408.286 C 3053.673 413.099 3069.904 413.706 3085.088 410.028 C 3078.745 407.485 3072.602 404.432 3066.76 400.913 C 3077.46 402.62 3088.397 402.919 3099.178 401.784 C 3094.895 399.672 3090.821 397.138 3087.048 394.225 C 3094.813 396.663 3103.571 395.88 3110.753 392.087 C 3096.052 390.627 3081.288 388.999 3067.116 384.907 C 3052.934 380.825 3039.264 374.129 3028.928 363.764 C 3038.48 363.975 3048.04 363.676 3057.555 362.857 C 3050.382 359.778 3043.219 356.707 3036.046 353.627 C 3047.184 353.645 3058.312 353.663 3069.44 353.689 C 3062.331 351.216 3054.739 348.383 3050.51 342.259 C 3059.907 344.811 3069.595 346.342 3079.337 346.799 C 3053.919 337.666 3035.691 316.003 3018.748 295.273 C 3010.6 285.313 3001.878 275.968 2997.932 263.791 C 2992.965 279.136 2987.743 294.587 2979.504 308.48 C 2970.162 307.275 2960.893 305.673 2951.87 303.069 C 2937.689 298.986 2924.018 292.29 2913.683 281.925 C 2923.235 282.136 2932.795 281.837 2942.31 281.019 C 2935.137 277.939 2927.974 274.86 2920.81 271.78 C 2931.938 271.806 2943.066 271.824 2954.195 271.842 C 2947.086 269.369 2939.494 266.545 2935.265 260.421 C 2944.661 262.972 2954.349 264.495 2964.092 264.961 C 2938.674 255.819 2920.446 234.165 2903.503 213.435 C 2895.355 203.474 2886.633 194.121 2882.687 181.952 C 2877.392 198.318 2871.805 214.798 2862.573 229.387 C 2853.34 243.976 2840.007 256.699 2823.401 262.075 C 2826.618 262.013 2829.835 261.952 2833.053 261.89 C 2828.614 265.814 2824.185 269.748 2819.746 273.672 C 2825.516 272.616 2831.166 270.944 2836.571 268.7 C 2835.085 272.722 2832.688 276.417 2829.599 279.444 C 2840.025 280.869 2850.952 278.388 2859.683 272.616 C 2844.345 287.592 2825.98 299.505 2806.039 307.715 C 2785.369 297.147 2769.602 278.353 2754.81 260.262 C 2746.662 250.293 2737.94 240.949 2734.003 228.771 C 2728.699 245.146 2723.112 261.626 2713.879 276.215 C 2704.647 290.803 2691.313 303.518 2674.708 308.903 C 2677.925 308.841 2681.142 308.779 2684.36 308.718 C 2679.93 312.642 2675.492 316.566 2671.053 320.5 C 2676.822 319.444 2682.473 317.772 2687.878 315.519 C 2686.392 319.549 2683.995 323.245 2680.915 326.263 C 2691.332 327.697 2702.268 325.216 2710.99 319.435 C 2688.443 341.476 2659.324 356.865 2628.291 363.614 C 2602.49 360.913 2577.381 351.78 2556.164 337.112 C 2552.245 334.402 2548.18 331.076 2547.387 326.448 C 2562.243 331.252 2578.474 331.868 2593.667 328.19 C 2587.315 325.647 2581.172 322.594 2575.33 319.074 C 2586.03 320.781 2596.967 321.071 2607.757 319.945 C 2603.465 317.833 2599.391 315.299 2595.618 312.387 C 2603.383 314.824 2612.141 314.032 2619.323 310.249 C 2604.631 308.788 2589.858 307.152 2575.686 303.069 C 2561.513 298.986 2547.843 292.29 2537.498 281.925 C 2547.05 282.136 2556.61 281.837 2566.125 281.019 C 2558.952 277.939 2551.789 274.86 2544.625 271.78 C 2555.754 271.806 2566.882 271.824 2578.01 271.842 C 2570.901 269.369 2563.318 266.545 2559.08 260.421 C 2568.476 262.972 2578.165 264.495 2587.907 264.961 C 2562.489 255.819 2544.27 234.165 2527.318 213.435 C 2519.17 203.474 2510.448 194.121 2506.511 181.952 C 2501.207 198.318 2495.62 214.798 2486.388 229.387 C 2477.155 243.976 2463.822 256.699 2447.216 262.075 C 2450.433 262.013 2453.651 261.952 2456.868 261.89 C 2452.438 265.814 2448 269.748 2443.562 273.672 C 2449.331 272.616 2454.981 270.944 2460.386 268.7 C 2458.9 272.722 2456.503 276.417 2453.423 279.444 C 2463.84 280.869 2474.767 278.388 2483.499 272.616 C 2465.945 289.765 2444.409 302.893 2421.087 311.05 C 2412.018 302.339 2403.834 292.466 2395.923 282.787 C 2387.775 272.827 2379.053 263.474 2375.107 251.305 C 2371.935 261.125 2368.645 270.979 2364.535 280.447 C 2359.914 279.567 2355.33 278.511 2350.809 277.209 C 2336.637 273.126 2322.967 266.43 2312.631 256.065 C 2322.174 256.276 2331.734 255.977 2341.249 255.159 C 2334.076 252.079 2326.913 249 2319.749 245.92 C 2330.877 245.947 2342.005 245.964 2353.134 245.982 C 2346.025 243.509 2338.442 240.685 2334.204 234.561 C 2343.6 237.112 2353.298 238.635 2363.031 239.101 C 2337.613 229.959 2319.394 208.305 2302.442 187.575 C 2294.303 177.614 2285.572 168.261 2281.635 156.092 C 2276.331 172.458 2270.744 188.939 2261.512 203.527 C 2252.279 218.116 2238.946 230.839 2222.34 236.215 C 2225.557 236.153 2228.775 236.092 2231.992 236.03 C 2227.562 239.954 2223.124 243.888 2218.685 247.812 C 2224.455 246.756 2230.105 245.084 2235.51 242.841 C 2234.024 246.862 2231.627 250.557 2228.547 253.584 C 2238.964 255.009 2249.901 252.528 2258.623 246.747 C 2244.469 260.588 2227.717 271.789 2209.544 279.893 C 2205.853 279.136 2202.189 278.256 2198.571 277.209 C 2184.399 273.126 2170.728 266.43 2160.393 256.065 C 2169.935 256.276 2179.496 255.977 2189.011 255.159 C 2181.847 252.079 2174.674 249 2167.511 245.92 C 2178.639 245.947 2189.767 245.964 2200.895 245.982 C 2193.786 243.509 2186.204 240.685 2181.966 234.561 C 2191.371 237.112 2201.059 238.635 2210.802 239.101 C 2185.383 229.959 2167.156 208.305 2150.204 187.575 C 2142.065 177.614 2133.334 168.261 2129.397 156.092 C 2124.102 172.458 2118.506 188.939 2109.273 203.527 C 2102.128 214.816 2092.513 224.97 2080.838 231.49 C 2063.184 220.571 2049.149 203.791 2035.888 187.575 C 2027.749 177.614 2019.018 168.261 2015.081 156.092 C 2009.786 172.458 2004.19 188.939 1994.958 203.527 C 1985.725 218.116 1972.392 230.839 1955.786 236.215 C 1959.003 236.153 1962.221 236.092 1965.447 236.03 C 1961.008 239.954 1956.57 243.888 1952.132 247.812 C 1957.901 246.756 1963.551 245.084 1968.956 242.841 C 1967.479 246.862 1965.082 250.557 1961.993 253.584 C 1972.41 255.009 1983.347 252.528 1992.069 246.747 C 1975.536 262.911 1955.467 275.493 1933.703 283.72 C 1921.172 282.392 1908.658 280.693 1896.573 277.209 C 1882.401 273.126 1868.73 266.43 1858.395 256.065 C 1867.937 256.276 1877.498 255.977 1887.013 255.159 C 1879.849 252.079 1872.677 249 1865.513 245.92 C 1876.641 245.947 1887.769 245.964 1898.897 245.982 C 1891.788 243.509 1884.206 240.685 1879.968 234.561 C 1889.373 237.112 1899.061 238.635 1908.804 239.101 C 1883.385 229.959 1865.158 208.305 1848.206 187.575 C 1840.067 177.614 1831.336 168.261 1827.399 156.092 C 1822.104 172.458 1816.517 188.939 1807.275 203.527 C 1798.043 218.116 1784.709 230.839 1768.104 236.215 C 1771.321 236.153 1774.547 236.092 1777.765 236.03 C 1773.326 239.954 1768.888 243.888 1764.449 247.812 C 1770.218 246.756 1775.878 245.084 1781.273 242.841 C 1779.797 246.862 1777.4 250.557 1774.31 253.584 C 1784.737 255.009 1795.664 252.528 1804.395 246.747 C 1781.756 268.868 1752.51 284.292 1721.341 291.006 C 1719.053 288.269 1716.793 285.524 1714.56 282.787 C 1706.412 272.827 1697.69 263.474 1693.744 251.305 C 1688.449 267.671 1682.862 284.16 1673.629 298.74 C 1664.397 313.328 1651.063 326.052 1634.458 331.428 C 1637.675 331.366 1640.892 331.305 1644.109 331.243 C 1640.145 334.754 1636.18 338.264 1632.216 341.766 C 1623.539 340.596 1614.927 339.039 1606.524 336.619 C 1592.352 332.528 1578.681 325.84 1568.346 315.467 C 1577.888 315.687 1587.448 315.379 1596.963 314.569 C 1589.8 311.489 1582.627 308.41 1575.464 305.33 C 1586.592 305.348 1597.72 305.374 1608.848 305.392 C 1601.739 302.919 1594.156 300.095 1589.918 293.962 C 1599.315 296.514 1609.012 298.045 1618.755 298.511 C 1593.336 289.369 1575.108 267.715 1558.156 246.976 C 1550.018 237.016 1541.287 227.671 1537.349 215.494 C 1532.045 231.868 1526.458 248.349 1517.226 262.937 C 1507.994 277.526 1494.66 290.24 1478.054 295.625 C 1481.272 295.563 1484.489 295.502 1487.706 295.44 C 1483.277 299.365 1478.838 303.289 1474.4 307.213 C 1480.169 306.166 1485.819 304.494 1491.224 302.242 C 1489.738 306.272 1487.341 309.967 1484.261 312.985 C 1494.678 314.419 1505.615 311.938 1514.337 306.157 C 1493.502 326.527 1467.054 341.212 1438.673 348.656 C 1436.058 345.559 1433.497 342.444 1430.972 339.347 C 1422.824 329.386 1414.102 320.033 1410.156 307.864 C 1404.861 324.23 1399.274 340.711 1390.042 355.299 C 1381.137 369.36 1368.423 381.661 1352.647 387.353 C 1349.357 386.65 1346.085 385.849 1342.841 384.907 C 1328.669 380.825 1314.998 374.129 1304.654 363.764 C 1314.205 363.975 1323.765 363.676 1333.28 362.857 C 1326.108 359.778 1318.944 356.707 1311.781 353.627 C 1322.909 353.645 1334.037 353.663 1345.165 353.689 C 1338.056 351.216 1330.473 348.383 1326.235 342.259 C 1335.632 344.811 1345.329 346.342 1355.062 346.799 C 1329.644 337.666 1311.425 316.003 1294.473 295.273 C 1286.325 285.313 1277.604 275.968 1273.666 263.791 C 1268.362 280.157 1262.775 296.646 1253.543 311.225 C 1244.31 325.814 1230.977 338.537 1214.371 343.913 C 1217.589 343.852 1220.806 343.79 1224.023 343.729 C 1219.594 347.662 1215.155 351.586 1210.717 355.51 C 1216.486 354.463 1222.136 352.791 1227.541 350.539 C 1226.055 354.56 1223.658 358.264 1220.578 361.282 C 1230.995 362.717 1241.932 360.235 1250.654 354.454 C 1221.498 382.945 1181.37 400.341 1140.285 402.294 C 1151.239 403.024 1162.185 403.763 1173.14 404.503 C 1163.543 407.846 1154.265 412.052 1145.443 417.05 C 1159.478 415.325 1173.514 413.601 1187.549 411.876 C 1183.694 415.651 1179.848 419.425 1175.993 423.2 C 1186.747 424.538 1197.802 423.561 1208.147 420.376 C 1205.23 421.484 1203.116 424.406 1203.034 427.476 C 1212.53 428.691 1222.419 428.761 1231.688 426.667 C 1220.195 430.776 1208.693 434.876 1197.201 438.985 C 1180.413 444.977 1163.434 451.022 1145.68 453.002 C 1138.489 453.803 1131.189 453.943 1123.971 454.48 C 1116.68 445.717 1109.388 437.12 1105.889 426.306 C 1100.594 442.672 1094.998 459.152 1085.765 473.741 C 1083.186 477.824 1080.27 481.739 1077.071 485.408 C 1070.791 484.379 1064.575 483.077 1058.478 481.317 C 1044.297 477.234 1030.626 470.538 1020.291 460.173 C 1029.842 460.384 1039.403 460.076 1048.918 459.267 C 1041.745 456.187 1034.582 453.108 1027.409 450.028 C 1038.537 450.046 1049.674 450.072 1060.802 450.09 C 1053.693 447.617 1046.102 444.793 1041.873 438.66 C 1051.269 441.22 1060.957 442.742 1070.7 443.209 C 1045.281 434.067 1027.054 412.413 1010.111 391.683 C 1001.963 381.722 993.241 372.369 989.295 360.191 C 984 376.566 978.413 393.046 969.18 407.635 C 959.948 422.223 946.614 434.938 930 440.323 C 933.226 440.261 936.443 440.2 939.661 440.138 C 935.222 444.062 930.784 447.987 926.354 451.92 C 932.123 450.864 937.774 449.192 943.178 446.94 C 941.693 450.969 939.296 454.665 936.206 457.692 C 946.633 459.117 957.56 456.636 966.291 450.855 C 937.127 479.355 897.001 496.75 855.919 498.695 C 866.872 499.434 877.824 500.173 888.776 500.912 C 879.183 504.256 869.899 508.461 861.081 513.45 C 875.115 511.726 889.15 510.01 903.185 508.285 C 899.332 512.06 895.479 515.835 891.627 519.61 C 902.387 520.938 913.44 519.97 923.784 516.785 C 920.868 517.885 918.753 520.815 918.671 523.886 C 928.168 525.091 938.047 525.17 947.325 523.076 C 935.833 527.177 924.331 531.286 912.838 535.386 C 905.685 537.946 898.499 540.498 891.236 542.751 C 875.697 531.902 862.954 516.644 850.864 501.853 C 842.721 491.893 833.996 482.549 830.053 470.371 C 824.755 486.746 819.169 503.226 809.934 517.815 C 800.701 532.403 787.366 545.118 770.76 550.494 C 773.979 550.441 777.198 550.379 780.417 550.318 C 775.981 554.242 771.544 558.166 767.106 562.091 C 772.876 561.044 778.529 559.372 783.931 557.119 C 782.45 561.149 780.053 564.845 776.965 567.863 C 787.388 569.297 798.319 566.816 807.046 561.035 C 795.294 572.517 781.759 582.196 767.099 589.79 C 759.487 582.029 752.464 573.547 745.65 565.205 C 737.506 555.245 728.781 545.901 724.839 533.723 C 719.541 550.098 713.953 566.578 704.719 581.167 C 695.486 595.755 682.15 608.47 665.545 613.846 C 668.765 613.793 671.984 613.731 675.203 613.67 C 670.765 617.594 666.329 621.518 661.892 625.443 C 667.661 624.396 673.313 622.724 678.715 620.471 C 677.235 624.501 674.837 628.197 671.75 631.215 C 682.174 632.649 693.103 630.168 701.831 624.387 C 685.594 640.251 665.955 652.675 644.645 660.902 C 626.465 655.394 609.05 647.457 593.105 637.251 C 587.984 633.978 582.716 629.305 579.859 624 C 592.311 630.449 606.976 632.675 620.828 630.22 C 615.505 625.117 610.182 620.014 604.858 614.91 C 619.062 620.929 633.695 625.971 648.614 629.992 C 643.614 623.929 638.012 618.36 631.914 613.362 C 645.284 615.315 660.356 616.855 671 608.672 C 637.603 610.08 603.818 600.357 576.478 581.466 C 572.567 578.756 568.5 575.43 567.707 570.793 C 582.561 575.606 598.797 576.222 613.983 572.535 C 607.632 570.001 601.493 566.948 595.648 563.428 C 606.352 565.135 617.289 565.425 628.073 564.29 C 623.784 562.187 619.712 559.645 615.941 556.732 C 623.704 559.178 632.462 558.386 639.643 554.603 C 624.947 553.142 610.176 551.506 596.003 547.423 C 581.829 543.34 568.157 536.644 557.822 526.279 C 567.369 526.49 576.929 526.182 586.442 525.373 C 579.275 522.293 572.108 519.214 564.941 516.134 C 576.07 516.16 587.198 516.178 598.326 516.196 C 591.219 513.723 583.632 510.899 579.397 504.775 C 588.799 507.326 598.488 508.849 608.229 509.315 C 582.812 500.173 564.586 478.519 547.637 457.789 C 539.493 447.828 530.768 438.475 526.826 426.306 C 521.528 442.672 515.94 459.152 506.707 473.741 C 497.474 488.33 484.138 501.044 467.533 506.429 C 470.752 506.367 473.971 506.306 477.19 506.244 C 472.753 510.168 468.317 514.093 463.879 518.026 C 469.649 516.97 475.301 515.298 480.703 513.046 C 479.222 517.076 476.825 520.771 473.738 523.789 C 484.161 525.223 495.091 522.742 503.819 516.961 C 480.608 539.645 450.445 555.28 418.385 561.703 C 411.592 554.559 405.25 546.895 399.08 539.345 C 390.937 529.385 382.211 520.041 378.27 507.863 C 372.972 524.238 367.385 540.718 358.151 555.307 C 354.388 561.246 349.932 566.868 344.862 571.831 C 338.862 570.819 332.916 569.552 327.073 567.871 C 312.899 563.78 299.227 557.093 288.891 546.719 C 298.439 546.939 307.998 546.631 317.512 545.821 C 310.346 542.742 303.178 539.662 296.011 536.583 C 307.139 536.6 318.267 536.627 329.396 536.644 C 322.289 534.172 314.702 531.347 310.467 525.214 C 319.868 527.766 329.558 529.297 339.299 529.764 C 313.881 520.621 295.655 498.967 278.707 478.228 C 270.563 468.268 261.838 458.924 257.895 446.746 C 252.598 463.121 247.01 479.601 237.777 494.19 C 228.543 508.778 215.208 521.493 198.603 526.877 C 201.821 526.816 205.041 526.754 208.26 526.693 C 203.823 530.617 199.386 534.541 194.949 538.466 C 200.718 537.419 206.372 535.747 211.772 533.494 C 210.292 537.524 207.895 541.22 204.808 544.238 C 215.231 545.672 226.161 543.191 234.888 537.41 C 205.728 565.909 165.6 583.296 124.518 585.249 C 135.47 585.988 146.422 586.728 157.374 587.458 C 147.78 590.801 138.497 595.007 129.679 600.005 C 143.714 598.28 157.748 596.556 171.783 594.84 C 167.93 598.615 164.078 602.39 160.225 606.164 C 170.985 607.493 182.034 606.525 192.383 603.34 C 189.462 604.44 187.354 607.37 187.266 610.441 C 196.767 611.646 206.65 611.725 215.926 609.631 C 204.429 613.731 192.93 617.84 181.433 621.941 C 165.811 627.519 150.021 633.133 133.603 635.482 C 130.424 633.722 127.381 631.734 124.513 629.517 C 132.276 631.963 141.034 631.171 148.215 627.378 C 133.519 625.927 118.749 624.29 104.575 620.207 C 90.401 616.116 76.729 609.429 66.394 599.055 C 75.941 599.266 85.5 598.967 95.014 598.157 C 87.847 595.078 80.68 591.998 73.514 588.918 C 84.642 588.936 95.77 588.962 106.899 588.98 C 99.792 586.508 92.205 583.683 87.969 577.55 C 97.37 580.102 107.059 581.633 116.802 582.099 C 91.383 572.957 73.158 551.294 56.208 530.564 C 48.066 520.604 39.34 511.259 35.398 499.082 C 30.1 515.457 24.513 531.937 15.279 546.525 C 11.031 553.23 5.904 559.539 0 564.924 L 0 595.359 C 4.398 594.136 8.602 592.253 12.391 589.746 C 8.454 593.591 4.311 597.225 0 600.656 L 0 875.762 L 0 1075.814 L 0 1092.989 L 0 1109.725 L 0 1319.833 L 5468.334 1319.833 L 5468.334 873.703 Z " fill="url(#_lgradient_0)"/></g><defs><filter id="pIQQDAKZaZ5wNKqn8KEvmRX5Wg838e81" x="-200%" y="-200%" width="400%" height="400%" filterUnits="objectBoundingBox" color-interpolation-filters="sRGB"><feGaussianBlur xmlns="http://www.w3.org/2000/svg" in="SourceGraphic" stdDeviation="2.146804531419514"/><feOffset xmlns="http://www.w3.org/2000/svg" dx="0" dy="0" result="pf_100_offsetBlur"/><feFlood xmlns="http://www.w3.org/2000/svg" flood-color="#000000" flood-opacity="0.65"/><feComposite xmlns="http://www.w3.org/2000/svg" in2="pf_100_offsetBlur" operator="in" result="pf_100_dropShadow"/><feBlend xmlns="http://www.w3.org/2000/svg" in="SourceGraphic" in2="pf_100_dropShadow" mode="normal"/></filter></defs></g></g></g></g></g></g></g></g></g></g></g></g></g></g></svg>