<?xml version="1.0" encoding="utf-8"?>
<svg width="144" zoomAndPan="magnify" viewBox="0 0 108 36.000001" height="48" preserveAspectRatio="xMidYMid meet" version="1.0" xmlns="http://www.w3.org/2000/svg">
  <defs>
    <g/>
  </defs>
  <g fill="#a6a6a6" fillOpacity="0.4">
    <g transform="translate(15.56368, 15.893123)">
      <g>
        <path d="M 12.046875 -10.015625 C 12.585938 -10.015625 12.859375 -9.785156 12.859375 -9.328125 C 12.859375 -9.191406 12.832031 -9.019531 12.78125 -8.8125 L 12.421875 -7.59375 C 12.304688 -7.21875 12.164062 -6.953125 12 -6.796875 C 11.84375 -6.648438 11.613281 -6.578125 11.3125 -6.578125 C 11.0625 -6.578125 10.867188 -6.640625 10.734375 -6.765625 C 10.597656 -6.898438 10.472656 -7.109375 10.359375 -7.390625 L 10.09375 -8.015625 C 10.019531 -8.203125 9.9375 -8.328125 9.84375 -8.390625 C 9.75 -8.460938 9.609375 -8.5 9.421875 -8.5 L 9.078125 -8.5 L 7.171875 -1.78125 C 7.140625 -1.65625 7.125 -1.539062 7.125 -1.4375 C 7.125 -1.320312 7.140625 -1.222656 7.171875 -1.140625 C 7.210938 -1.054688 7.265625 -0.972656 7.328125 -0.890625 C 7.421875 -0.742188 7.46875 -0.628906 7.46875 -0.546875 C 7.46875 -0.523438 7.457031 -0.472656 7.4375 -0.390625 C 7.382812 -0.265625 7.285156 -0.171875 7.140625 -0.109375 C 6.992188 -0.046875 6.789062 -0.015625 6.53125 -0.015625 L 2.984375 -0.015625 C 2.773438 -0.015625 2.613281 -0.046875 2.5 -0.109375 C 2.382812 -0.179688 2.328125 -0.285156 2.328125 -0.421875 C 2.328125 -0.484375 2.34375 -0.539062 2.375 -0.59375 C 2.414062 -0.6875 2.460938 -0.753906 2.515625 -0.796875 C 2.566406 -0.847656 2.648438 -0.910156 2.765625 -0.984375 C 2.910156 -1.066406 3.035156 -1.160156 3.140625 -1.265625 C 3.242188 -1.378906 3.328125 -1.550781 3.390625 -1.78125 L 5.296875 -8.5 L 4.9375 -8.5 C 4.71875 -8.5 4.535156 -8.460938 4.390625 -8.390625 C 4.253906 -8.328125 4.109375 -8.203125 3.953125 -8.015625 L 3.453125 -7.390625 C 3.222656 -7.117188 3 -6.914062 2.78125 -6.78125 C 2.570312 -6.644531 2.34375 -6.578125 2.09375 -6.578125 C 1.863281 -6.578125 1.679688 -6.632812 1.546875 -6.75 C 1.421875 -6.875 1.359375 -7.046875 1.359375 -7.265625 C 1.359375 -7.359375 1.367188 -7.46875 1.390625 -7.59375 L 1.78125 -8.953125 C 1.863281 -9.234375 1.953125 -9.445312 2.046875 -9.59375 C 2.148438 -9.738281 2.296875 -9.84375 2.484375 -9.90625 C 2.671875 -9.976562 2.9375 -10.015625 3.28125 -10.015625 Z M 12.046875 -10.015625 "/>
      </g>
    </g>
  </g>
  <g fill="#a6a6a6" fillOpacity="0.4">
    <g transform="translate(26.966977, 15.893123)">
      <g>
        <path d="M 9.21875 -2.078125 C 9.195312 -2.035156 9.1875 -1.972656 9.1875 -1.890625 C 9.1875 -1.816406 9.203125 -1.757812 9.234375 -1.71875 C 9.273438 -1.6875 9.320312 -1.671875 9.375 -1.671875 C 9.5 -1.671875 9.601562 -1.722656 9.6875 -1.828125 C 9.769531 -1.929688 9.828125 -1.984375 9.859375 -1.984375 C 9.910156 -1.984375 9.953125 -1.945312 9.984375 -1.875 C 10.015625 -1.8125 10.03125 -1.738281 10.03125 -1.65625 C 10.039062 -1.363281 9.941406 -1.078125 9.734375 -0.796875 C 9.535156 -0.523438 9.242188 -0.300781 8.859375 -0.125 C 8.472656 0.0507812 8.007812 0.140625 7.46875 0.140625 C 6.8125 0.140625 6.285156 -0.0078125 5.890625 -0.3125 C 5.503906 -0.625 5.304688 -1.035156 5.296875 -1.546875 C 5.296875 -1.921875 5.382812 -2.335938 5.5625 -2.796875 L 6.390625 -4.953125 C 6.441406 -5.085938 6.46875 -5.195312 6.46875 -5.28125 C 6.46875 -5.40625 6.421875 -5.503906 6.328125 -5.578125 C 6.242188 -5.660156 6.144531 -5.703125 6.03125 -5.703125 C 5.832031 -5.703125 5.632812 -5.613281 5.4375 -5.4375 C 5.25 -5.257812 5.09375 -4.972656 4.96875 -4.578125 L 4.96875 -4.609375 L 4.03125 -1.5625 C 4 -1.445312 3.984375 -1.34375 3.984375 -1.25 C 3.984375 -1.113281 4.007812 -1.007812 4.0625 -0.9375 C 4.113281 -0.863281 4.179688 -0.789062 4.265625 -0.71875 C 4.335938 -0.644531 4.390625 -0.585938 4.421875 -0.546875 C 4.453125 -0.503906 4.457031 -0.445312 4.4375 -0.375 C 4.382812 -0.25 4.28125 -0.15625 4.125 -0.09375 C 3.976562 -0.03125 3.75 0 3.4375 0 L 0.015625 0 C -0.242188 0 -0.429688 -0.0390625 -0.546875 -0.125 C -0.671875 -0.207031 -0.710938 -0.320312 -0.671875 -0.46875 C -0.628906 -0.582031 -0.523438 -0.6875 -0.359375 -0.78125 C -0.210938 -0.863281 -0.0859375 -0.957031 0.015625 -1.0625 C 0.117188 -1.175781 0.203125 -1.351562 0.265625 -1.59375 L 2.5625 -9.09375 C 2.582031 -9.1875 2.59375 -9.257812 2.59375 -9.3125 C 2.59375 -9.425781 2.566406 -9.515625 2.515625 -9.578125 C 2.460938 -9.648438 2.390625 -9.722656 2.296875 -9.796875 C 2.203125 -9.878906 2.128906 -9.945312 2.078125 -10 C 2.035156 -10.0625 2.03125 -10.144531 2.0625 -10.25 C 2.125 -10.476562 2.4375 -10.675781 3 -10.84375 C 3.570312 -11.019531 4.171875 -11.109375 4.796875 -11.109375 C 5.378906 -11.109375 5.804688 -11 6.078125 -10.78125 C 6.359375 -10.5625 6.5 -10.257812 6.5 -9.875 C 6.5 -9.65625 6.460938 -9.441406 6.390625 -9.234375 L 5.578125 -6.578125 C 5.960938 -7.085938 6.375 -7.441406 6.8125 -7.640625 C 7.25 -7.847656 7.722656 -7.953125 8.234375 -7.953125 C 8.847656 -7.953125 9.34375 -7.765625 9.71875 -7.390625 C 10.09375 -7.023438 10.28125 -6.546875 10.28125 -5.953125 C 10.28125 -5.640625 10.226562 -5.332031 10.125 -5.03125 Z M 9.21875 -2.078125 "/>
      </g>
    </g>
  </g>
  <g fill="#a6a6a6" fillOpacity="0.4">
    <g transform="translate(37.634095, 15.893123)">
      <g>
        <path d="M 5.09375 -8.03125 C 6.363281 -8.03125 7.285156 -7.828125 7.859375 -7.421875 C 8.429688 -7.015625 8.71875 -6.492188 8.71875 -5.859375 C 8.71875 -5.671875 8.695312 -5.5 8.65625 -5.34375 C 8.507812 -4.675781 8.09375 -4.195312 7.40625 -3.90625 C 6.71875 -3.625 5.90625 -3.484375 4.96875 -3.484375 C 4.5 -3.484375 4.0625 -3.515625 3.65625 -3.578125 C 3.644531 -3.054688 3.785156 -2.691406 4.078125 -2.484375 C 4.367188 -2.273438 4.773438 -2.171875 5.296875 -2.171875 C 5.535156 -2.171875 5.765625 -2.195312 5.984375 -2.25 C 6.203125 -2.300781 6.484375 -2.382812 6.828125 -2.5 C 7.109375 -2.59375 7.296875 -2.640625 7.390625 -2.640625 C 7.503906 -2.640625 7.5625 -2.578125 7.5625 -2.453125 C 7.570312 -2.097656 7.441406 -1.726562 7.171875 -1.34375 C 6.898438 -0.957031 6.5 -0.628906 5.96875 -0.359375 C 5.4375 -0.0859375 4.796875 0.046875 4.046875 0.046875 C 2.929688 0.046875 2.015625 -0.234375 1.296875 -0.796875 C 0.585938 -1.359375 0.234375 -2.175781 0.234375 -3.25 C 0.234375 -3.550781 0.273438 -3.898438 0.359375 -4.296875 C 0.609375 -5.523438 1.15625 -6.453125 2 -7.078125 C 2.851562 -7.710938 3.882812 -8.03125 5.09375 -8.03125 Z M 3.765625 -4.484375 C 3.796875 -4.472656 3.847656 -4.46875 3.921875 -4.46875 C 4.335938 -4.46875 4.65625 -4.660156 4.875 -5.046875 C 5.101562 -5.441406 5.210938 -5.878906 5.203125 -6.359375 C 5.191406 -6.640625 5.109375 -6.78125 4.953125 -6.78125 C 4.847656 -6.78125 4.71875 -6.691406 4.5625 -6.515625 C 4.414062 -6.335938 4.269531 -6.070312 4.125 -5.71875 C 3.976562 -5.375 3.859375 -4.960938 3.765625 -4.484375 Z M 3.765625 -4.484375 "/>
      </g>
    </g>
  </g>
  <g fill="#a6a6a6" fillOpacity="0.4">
    <g transform="translate(46.047595, 15.893123)">
      <g/>
    </g>
  </g>
  <g fill="#a6a6a6" fillOpacity="0.4">
    <g transform="translate(49.052415, 15.893123)">
      <g>
        <path d="M 9.8125 -10.015625 C 10.1875 -10.015625 10.472656 -9.929688 10.671875 -9.765625 C 10.878906 -9.609375 10.984375 -9.390625 10.984375 -9.109375 C 10.984375 -8.972656 10.960938 -8.835938 10.921875 -8.703125 L 10.53125 -7.3125 C 10.46875 -7.039062 10.367188 -6.847656 10.234375 -6.734375 C 10.097656 -6.628906 9.90625 -6.578125 9.65625 -6.578125 C 9.414062 -6.578125 9.226562 -6.628906 9.09375 -6.734375 C 8.957031 -6.847656 8.851562 -7.023438 8.78125 -7.265625 L 8.53125 -8.109375 C 8.488281 -8.296875 8.429688 -8.414062 8.359375 -8.46875 C 8.285156 -8.53125 8.148438 -8.5625 7.953125 -8.5625 L 6.375 -8.5625 L 5.625 -5.890625 L 6.28125 -5.890625 C 6.351562 -5.890625 6.445312 -5.941406 6.5625 -6.046875 L 7.078125 -6.5 C 7.234375 -6.625 7.363281 -6.71875 7.46875 -6.78125 C 7.582031 -6.84375 7.71875 -6.875 7.875 -6.875 C 8.050781 -6.875 8.195312 -6.820312 8.3125 -6.71875 C 8.4375 -6.625 8.5 -6.503906 8.5 -6.359375 C 8.5 -6.316406 8.488281 -6.253906 8.46875 -6.171875 L 7.84375 -4.09375 C 7.78125 -3.875 7.675781 -3.707031 7.53125 -3.59375 C 7.382812 -3.488281 7.226562 -3.4375 7.0625 -3.4375 C 6.78125 -3.4375 6.570312 -3.582031 6.4375 -3.875 L 6.171875 -4.40625 C 6.109375 -4.550781 6 -4.625 5.84375 -4.625 L 5.265625 -4.625 L 4.375 -1.4375 L 5.703125 -1.4375 C 5.890625 -1.4375 6.054688 -1.472656 6.203125 -1.546875 C 6.347656 -1.628906 6.503906 -1.765625 6.671875 -1.953125 L 7.578125 -2.953125 C 7.734375 -3.117188 7.882812 -3.238281 8.03125 -3.3125 C 8.175781 -3.382812 8.351562 -3.421875 8.5625 -3.421875 C 8.789062 -3.421875 8.972656 -3.367188 9.109375 -3.265625 C 9.242188 -3.171875 9.3125 -3.023438 9.3125 -2.828125 C 9.3125 -2.742188 9.300781 -2.648438 9.28125 -2.546875 L 8.84375 -1.015625 C 8.726562 -0.640625 8.566406 -0.375 8.359375 -0.21875 C 8.148438 -0.0703125 7.84375 0 7.4375 0 L 0.265625 0 C 0.0546875 0 -0.101562 -0.03125 -0.21875 -0.09375 C -0.332031 -0.164062 -0.390625 -0.265625 -0.390625 -0.390625 C -0.390625 -0.453125 -0.375 -0.519531 -0.34375 -0.59375 C -0.300781 -0.695312 -0.234375 -0.78125 -0.140625 -0.84375 C -0.0546875 -0.90625 -0.00390625 -0.941406 0.015625 -0.953125 C 0.171875 -1.046875 0.300781 -1.144531 0.40625 -1.25 C 0.507812 -1.351562 0.59375 -1.53125 0.65625 -1.78125 L 2.515625 -8.25 C 2.554688 -8.382812 2.578125 -8.503906 2.578125 -8.609375 C 2.578125 -8.734375 2.554688 -8.832031 2.515625 -8.90625 C 2.484375 -8.988281 2.429688 -9.078125 2.359375 -9.171875 C 2.265625 -9.296875 2.21875 -9.398438 2.21875 -9.484375 C 2.21875 -9.515625 2.226562 -9.570312 2.25 -9.65625 C 2.289062 -9.78125 2.378906 -9.867188 2.515625 -9.921875 C 2.660156 -9.984375 2.867188 -10.015625 3.140625 -10.015625 Z M 9.8125 -10.015625 "/>
      </g>
    </g>
  </g>
  <g fill="#a6a6a6" fillOpacity="0.4">
    <g transform="translate(59.13359, 15.893123)">
      <g>
        <path d="M 7.328125 -7.953125 C 7.859375 -7.953125 8.300781 -7.757812 8.65625 -7.375 C 9.007812 -7 9.1875 -6.476562 9.1875 -5.8125 C 9.1875 -4.925781 8.875 -4.015625 8.25 -3.078125 C 7.625 -2.148438 6.835938 -1.378906 5.890625 -0.765625 C 4.941406 -0.160156 4.015625 0.140625 3.109375 0.140625 C 2.242188 0.140625 1.539062 -0.0351562 1 -0.390625 C 0.46875 -0.742188 0.203125 -1.242188 0.203125 -1.890625 C 0.203125 -2.128906 0.25 -2.398438 0.34375 -2.703125 L 1.296875 -5.9375 C 1.316406 -6.019531 1.328125 -6.082031 1.328125 -6.125 C 1.328125 -6.21875 1.300781 -6.300781 1.25 -6.375 C 1.195312 -6.445312 1.125 -6.519531 1.03125 -6.59375 C 0.882812 -6.726562 0.8125 -6.84375 0.8125 -6.9375 C 0.800781 -7.082031 0.882812 -7.234375 1.0625 -7.390625 C 1.25 -7.554688 1.503906 -7.691406 1.828125 -7.796875 C 2.148438 -7.898438 2.519531 -7.953125 2.9375 -7.953125 C 3.601562 -7.953125 4.125 -7.785156 4.5 -7.453125 C 4.875 -7.128906 5.0625 -6.707031 5.0625 -6.1875 C 5.0625 -5.957031 5.019531 -5.707031 4.9375 -5.4375 L 3.96875 -2.21875 C 3.9375 -2.132812 3.921875 -2.0625 3.921875 -2 C 3.921875 -1.863281 3.960938 -1.757812 4.046875 -1.6875 C 4.140625 -1.625 4.269531 -1.59375 4.4375 -1.59375 C 4.65625 -1.59375 4.910156 -1.6875 5.203125 -1.875 C 5.503906 -2.070312 5.800781 -2.351562 6.09375 -2.71875 C 6.382812 -3.09375 6.617188 -3.53125 6.796875 -4.03125 C 6.390625 -4.375 6.101562 -4.71875 5.9375 -5.0625 C 5.78125 -5.40625 5.703125 -5.757812 5.703125 -6.125 C 5.703125 -6.632812 5.835938 -7.066406 6.109375 -7.421875 C 6.390625 -7.773438 6.796875 -7.953125 7.328125 -7.953125 Z M 7.328125 -7.953125 "/>
      </g>
    </g>
  </g>
  <g fill="#a6a6a6" fillOpacity="0.4">
    <g transform="translate(68.133031, 15.893123)">
      <g>
        <path d="M 5.09375 -8.03125 C 6.363281 -8.03125 7.285156 -7.828125 7.859375 -7.421875 C 8.429688 -7.015625 8.71875 -6.492188 8.71875 -5.859375 C 8.71875 -5.671875 8.695312 -5.5 8.65625 -5.34375 C 8.507812 -4.675781 8.09375 -4.195312 7.40625 -3.90625 C 6.71875 -3.625 5.90625 -3.484375 4.96875 -3.484375 C 4.5 -3.484375 4.0625 -3.515625 3.65625 -3.578125 C 3.644531 -3.054688 3.785156 -2.691406 4.078125 -2.484375 C 4.367188 -2.273438 4.773438 -2.171875 5.296875 -2.171875 C 5.535156 -2.171875 5.765625 -2.195312 5.984375 -2.25 C 6.203125 -2.300781 6.484375 -2.382812 6.828125 -2.5 C 7.109375 -2.59375 7.296875 -2.640625 7.390625 -2.640625 C 7.503906 -2.640625 7.5625 -2.578125 7.5625 -2.453125 C 7.570312 -2.097656 7.441406 -1.726562 7.171875 -1.34375 C 6.898438 -0.957031 6.5 -0.628906 5.96875 -0.359375 C 5.4375 -0.0859375 4.796875 0.046875 4.046875 0.046875 C 2.929688 0.046875 2.015625 -0.234375 1.296875 -0.796875 C 0.585938 -1.359375 0.234375 -2.175781 0.234375 -3.25 C 0.234375 -3.550781 0.273438 -3.898438 0.359375 -4.296875 C 0.609375 -5.523438 1.15625 -6.453125 2 -7.078125 C 2.851562 -7.710938 3.882812 -8.03125 5.09375 -8.03125 Z M 3.765625 -4.484375 C 3.796875 -4.472656 3.847656 -4.46875 3.921875 -4.46875 C 4.335938 -4.46875 4.65625 -4.660156 4.875 -5.046875 C 5.101562 -5.441406 5.210938 -5.878906 5.203125 -6.359375 C 5.191406 -6.640625 5.109375 -6.78125 4.953125 -6.78125 C 4.847656 -6.78125 4.71875 -6.691406 4.5625 -6.515625 C 4.414062 -6.335938 4.269531 -6.070312 4.125 -5.71875 C 3.976562 -5.375 3.859375 -4.960938 3.765625 -4.484375 Z M 3.765625 -4.484375 "/>
      </g>
    </g>
  </g>
  <g fill="#a6a6a6" fillOpacity="0.4">
    <g transform="translate(76.546531, 15.893123)">
      <g>
        <path d="M 9.296875 -2.078125 C 9.285156 -2.035156 9.28125 -1.972656 9.28125 -1.890625 C 9.28125 -1.816406 9.296875 -1.757812 9.328125 -1.71875 C 9.359375 -1.6875 9.40625 -1.671875 9.46875 -1.671875 C 9.59375 -1.671875 9.695312 -1.722656 9.78125 -1.828125 C 9.863281 -1.929688 9.921875 -1.984375 9.953125 -1.984375 C 10.003906 -1.984375 10.039062 -1.945312 10.0625 -1.875 C 10.09375 -1.8125 10.109375 -1.738281 10.109375 -1.65625 C 10.117188 -1.363281 10.023438 -1.078125 9.828125 -0.796875 C 9.628906 -0.523438 9.335938 -0.300781 8.953125 -0.125 C 8.566406 0.0507812 8.101562 0.140625 7.5625 0.140625 C 6.894531 0.140625 6.363281 -0.0078125 5.96875 -0.3125 C 5.582031 -0.625 5.382812 -1.035156 5.375 -1.546875 C 5.375 -1.921875 5.46875 -2.335938 5.65625 -2.796875 L 6.484375 -4.953125 C 6.523438 -5.085938 6.546875 -5.195312 6.546875 -5.28125 C 6.546875 -5.40625 6.503906 -5.503906 6.421875 -5.578125 C 6.335938 -5.660156 6.238281 -5.703125 6.125 -5.703125 C 5.894531 -5.703125 5.679688 -5.597656 5.484375 -5.390625 C 5.285156 -5.179688 5.140625 -4.925781 5.046875 -4.625 L 4.125 -1.5625 C 4.082031 -1.445312 4.0625 -1.34375 4.0625 -1.25 C 4.0625 -1.125 4.082031 -1.023438 4.125 -0.953125 C 4.175781 -0.878906 4.25 -0.800781 4.34375 -0.71875 C 4.414062 -0.65625 4.46875 -0.597656 4.5 -0.546875 C 4.53125 -0.503906 4.535156 -0.445312 4.515625 -0.375 C 4.472656 -0.25 4.375 -0.15625 4.21875 -0.09375 C 4.070312 -0.03125 3.835938 0 3.515625 0 L 0.09375 0 C -0.164062 0 -0.351562 -0.0390625 -0.46875 -0.125 C -0.582031 -0.207031 -0.625 -0.320312 -0.59375 -0.46875 C -0.5625 -0.582031 -0.457031 -0.6875 -0.28125 -0.78125 C -0.132812 -0.863281 -0.015625 -0.957031 0.078125 -1.0625 C 0.179688 -1.175781 0.269531 -1.351562 0.34375 -1.59375 L 1.6875 -5.9375 C 1.707031 -5.988281 1.71875 -6.054688 1.71875 -6.140625 C 1.71875 -6.253906 1.691406 -6.34375 1.640625 -6.40625 C 1.597656 -6.46875 1.523438 -6.539062 1.421875 -6.625 C 1.328125 -6.707031 1.257812 -6.773438 1.21875 -6.828125 C 1.175781 -6.890625 1.171875 -6.972656 1.203125 -7.078125 C 1.265625 -7.304688 1.578125 -7.507812 2.140625 -7.6875 C 2.710938 -7.863281 3.3125 -7.953125 3.9375 -7.953125 C 4.4375 -7.953125 4.832031 -7.8125 5.125 -7.53125 C 5.414062 -7.257812 5.546875 -6.878906 5.515625 -6.390625 C 5.921875 -6.984375 6.351562 -7.390625 6.8125 -7.609375 C 7.28125 -7.835938 7.785156 -7.953125 8.328125 -7.953125 C 8.941406 -7.953125 9.4375 -7.765625 9.8125 -7.390625 C 10.1875 -7.023438 10.375 -6.546875 10.375 -5.953125 C 10.375 -5.640625 10.320312 -5.332031 10.21875 -5.03125 Z M 9.296875 -2.078125 "/>
      </g>
    </g>
  </g>
  <g fill="#a6a6a6" fillOpacity="0.4">
    <g transform="translate(87.303793, 15.893123)">
      <g>
        <path d="M 6.71875 -7.75 C 6.90625 -7.75 7.050781 -7.707031 7.15625 -7.625 C 7.257812 -7.550781 7.3125 -7.445312 7.3125 -7.3125 C 7.3125 -7.269531 7.304688 -7.195312 7.296875 -7.09375 C 7.160156 -6.65625 6.859375 -6.4375 6.390625 -6.4375 L 5.515625 -6.4375 L 4.390625 -2.71875 C 4.335938 -2.570312 4.3125 -2.414062 4.3125 -2.25 C 4.3125 -2.070312 4.359375 -1.945312 4.453125 -1.875 C 4.554688 -1.8125 4.703125 -1.78125 4.890625 -1.78125 C 5.046875 -1.78125 5.242188 -1.796875 5.484375 -1.828125 C 5.609375 -1.859375 5.710938 -1.875 5.796875 -1.875 C 5.867188 -1.875 5.921875 -1.851562 5.953125 -1.8125 C 5.992188 -1.769531 6.015625 -1.710938 6.015625 -1.640625 C 6.023438 -1.441406 5.875 -1.195312 5.5625 -0.90625 C 5.257812 -0.625 4.847656 -0.378906 4.328125 -0.171875 C 3.804688 0.0351562 3.226562 0.140625 2.59375 0.140625 C 1.914062 0.140625 1.367188 -0.015625 0.953125 -0.328125 C 0.546875 -0.640625 0.34375 -1.066406 0.34375 -1.609375 C 0.34375 -1.859375 0.382812 -2.097656 0.46875 -2.328125 L 1.421875 -5.3125 C 1.472656 -5.476562 1.5 -5.613281 1.5 -5.71875 C 1.5 -5.914062 1.453125 -6.082031 1.359375 -6.21875 C 1.265625 -6.363281 1.132812 -6.507812 0.96875 -6.65625 C 0.8125 -6.800781 0.703125 -6.921875 0.640625 -7.015625 C 0.585938 -7.109375 0.570312 -7.21875 0.59375 -7.34375 C 0.632812 -7.476562 0.71875 -7.578125 0.84375 -7.640625 C 0.976562 -7.710938 1.1875 -7.75 1.46875 -7.75 L 2.3125 -7.75 L 3.265625 -8.703125 C 3.597656 -9.035156 3.898438 -9.265625 4.171875 -9.390625 C 4.441406 -9.523438 4.800781 -9.59375 5.25 -9.59375 C 5.875 -9.59375 6.1875 -9.351562 6.1875 -8.875 C 6.1875 -8.71875 6.164062 -8.578125 6.125 -8.453125 L 5.921875 -7.75 Z M 6.71875 -7.75 "/>
      </g>
    </g>
  </g>
  <g fill="#ab532a" fillOpacity="1">
    <g transform="translate(14.8997, 15.229144)">
      <g>
        <path d="M 12.046875 -10.015625 C 12.585938 -10.015625 12.859375 -9.785156 12.859375 -9.328125 C 12.859375 -9.191406 12.832031 -9.019531 12.78125 -8.8125 L 12.421875 -7.59375 C 12.304688 -7.21875 12.164062 -6.953125 12 -6.796875 C 11.84375 -6.648438 11.613281 -6.578125 11.3125 -6.578125 C 11.0625 -6.578125 10.867188 -6.640625 10.734375 -6.765625 C 10.597656 -6.898438 10.472656 -7.109375 10.359375 -7.390625 L 10.09375 -8.015625 C 10.019531 -8.203125 9.9375 -8.328125 9.84375 -8.390625 C 9.75 -8.460938 9.609375 -8.5 9.421875 -8.5 L 9.078125 -8.5 L 7.171875 -1.78125 C 7.140625 -1.65625 7.125 -1.539062 7.125 -1.4375 C 7.125 -1.320312 7.140625 -1.222656 7.171875 -1.140625 C 7.210938 -1.054688 7.265625 -0.972656 7.328125 -0.890625 C 7.421875 -0.742188 7.46875 -0.628906 7.46875 -0.546875 C 7.46875 -0.523438 7.457031 -0.472656 7.4375 -0.390625 C 7.382812 -0.265625 7.285156 -0.171875 7.140625 -0.109375 C 6.992188 -0.046875 6.789062 -0.015625 6.53125 -0.015625 L 2.984375 -0.015625 C 2.773438 -0.015625 2.613281 -0.046875 2.5 -0.109375 C 2.382812 -0.179688 2.328125 -0.285156 2.328125 -0.421875 C 2.328125 -0.484375 2.34375 -0.539062 2.375 -0.59375 C 2.414062 -0.6875 2.460938 -0.753906 2.515625 -0.796875 C 2.566406 -0.847656 2.648438 -0.910156 2.765625 -0.984375 C 2.910156 -1.066406 3.035156 -1.160156 3.140625 -1.265625 C 3.242188 -1.378906 3.328125 -1.550781 3.390625 -1.78125 L 5.296875 -8.5 L 4.9375 -8.5 C 4.71875 -8.5 4.535156 -8.460938 4.390625 -8.390625 C 4.253906 -8.328125 4.109375 -8.203125 3.953125 -8.015625 L 3.453125 -7.390625 C 3.222656 -7.117188 3 -6.914062 2.78125 -6.78125 C 2.570312 -6.644531 2.34375 -6.578125 2.09375 -6.578125 C 1.863281 -6.578125 1.679688 -6.632812 1.546875 -6.75 C 1.421875 -6.875 1.359375 -7.046875 1.359375 -7.265625 C 1.359375 -7.359375 1.367188 -7.46875 1.390625 -7.59375 L 1.78125 -8.953125 C 1.863281 -9.234375 1.953125 -9.445312 2.046875 -9.59375 C 2.148438 -9.738281 2.296875 -9.84375 2.484375 -9.90625 C 2.671875 -9.976562 2.9375 -10.015625 3.28125 -10.015625 Z M 12.046875 -10.015625 "/>
      </g>
    </g>
  </g>
  <g fill="#ab532a" fillOpacity="1">
    <g transform="translate(26.302998, 15.229144)">
      <g>
        <path d="M 9.21875 -2.078125 C 9.195312 -2.035156 9.1875 -1.972656 9.1875 -1.890625 C 9.1875 -1.816406 9.203125 -1.757812 9.234375 -1.71875 C 9.273438 -1.6875 9.320312 -1.671875 9.375 -1.671875 C 9.5 -1.671875 9.601562 -1.722656 9.6875 -1.828125 C 9.769531 -1.929688 9.828125 -1.984375 9.859375 -1.984375 C 9.910156 -1.984375 9.953125 -1.945312 9.984375 -1.875 C 10.015625 -1.8125 10.03125 -1.738281 10.03125 -1.65625 C 10.039062 -1.363281 9.941406 -1.078125 9.734375 -0.796875 C 9.535156 -0.523438 9.242188 -0.300781 8.859375 -0.125 C 8.472656 0.0507812 8.007812 0.140625 7.46875 0.140625 C 6.8125 0.140625 6.285156 -0.0078125 5.890625 -0.3125 C 5.503906 -0.625 5.304688 -1.035156 5.296875 -1.546875 C 5.296875 -1.921875 5.382812 -2.335938 5.5625 -2.796875 L 6.390625 -4.953125 C 6.441406 -5.085938 6.46875 -5.195312 6.46875 -5.28125 C 6.46875 -5.40625 6.421875 -5.503906 6.328125 -5.578125 C 6.242188 -5.660156 6.144531 -5.703125 6.03125 -5.703125 C 5.832031 -5.703125 5.632812 -5.613281 5.4375 -5.4375 C 5.25 -5.257812 5.09375 -4.972656 4.96875 -4.578125 L 4.96875 -4.609375 L 4.03125 -1.5625 C 4 -1.445312 3.984375 -1.34375 3.984375 -1.25 C 3.984375 -1.113281 4.007812 -1.007812 4.0625 -0.9375 C 4.113281 -0.863281 4.179688 -0.789062 4.265625 -0.71875 C 4.335938 -0.644531 4.390625 -0.585938 4.421875 -0.546875 C 4.453125 -0.503906 4.457031 -0.445312 4.4375 -0.375 C 4.382812 -0.25 4.28125 -0.15625 4.125 -0.09375 C 3.976562 -0.03125 3.75 0 3.4375 0 L 0.015625 0 C -0.242188 0 -0.429688 -0.0390625 -0.546875 -0.125 C -0.671875 -0.207031 -0.710938 -0.320312 -0.671875 -0.46875 C -0.628906 -0.582031 -0.523438 -0.6875 -0.359375 -0.78125 C -0.210938 -0.863281 -0.0859375 -0.957031 0.015625 -1.0625 C 0.117188 -1.175781 0.203125 -1.351562 0.265625 -1.59375 L 2.5625 -9.09375 C 2.582031 -9.1875 2.59375 -9.257812 2.59375 -9.3125 C 2.59375 -9.425781 2.566406 -9.515625 2.515625 -9.578125 C 2.460938 -9.648438 2.390625 -9.722656 2.296875 -9.796875 C 2.203125 -9.878906 2.128906 -9.945312 2.078125 -10 C 2.035156 -10.0625 2.03125 -10.144531 2.0625 -10.25 C 2.125 -10.476562 2.4375 -10.675781 3 -10.84375 C 3.570312 -11.019531 4.171875 -11.109375 4.796875 -11.109375 C 5.378906 -11.109375 5.804688 -11 6.078125 -10.78125 C 6.359375 -10.5625 6.5 -10.257812 6.5 -9.875 C 6.5 -9.65625 6.460938 -9.441406 6.390625 -9.234375 L 5.578125 -6.578125 C 5.960938 -7.085938 6.375 -7.441406 6.8125 -7.640625 C 7.25 -7.847656 7.722656 -7.953125 8.234375 -7.953125 C 8.847656 -7.953125 9.34375 -7.765625 9.71875 -7.390625 C 10.09375 -7.023438 10.28125 -6.546875 10.28125 -5.953125 C 10.28125 -5.640625 10.226562 -5.332031 10.125 -5.03125 Z M 9.21875 -2.078125 "/>
      </g>
    </g>
  </g>
  <g fill="#ab532a" fillOpacity="1">
    <g transform="translate(36.970116, 15.229144)">
      <g>
        <path d="M 5.09375 -8.03125 C 6.363281 -8.03125 7.285156 -7.828125 7.859375 -7.421875 C 8.429688 -7.015625 8.71875 -6.492188 8.71875 -5.859375 C 8.71875 -5.671875 8.695312 -5.5 8.65625 -5.34375 C 8.507812 -4.675781 8.09375 -4.195312 7.40625 -3.90625 C 6.71875 -3.625 5.90625 -3.484375 4.96875 -3.484375 C 4.5 -3.484375 4.0625 -3.515625 3.65625 -3.578125 C 3.644531 -3.054688 3.785156 -2.691406 4.078125 -2.484375 C 4.367188 -2.273438 4.773438 -2.171875 5.296875 -2.171875 C 5.535156 -2.171875 5.765625 -2.195312 5.984375 -2.25 C 6.203125 -2.300781 6.484375 -2.382812 6.828125 -2.5 C 7.109375 -2.59375 7.296875 -2.640625 7.390625 -2.640625 C 7.503906 -2.640625 7.5625 -2.578125 7.5625 -2.453125 C 7.570312 -2.097656 7.441406 -1.726562 7.171875 -1.34375 C 6.898438 -0.957031 6.5 -0.628906 5.96875 -0.359375 C 5.4375 -0.0859375 4.796875 0.046875 4.046875 0.046875 C 2.929688 0.046875 2.015625 -0.234375 1.296875 -0.796875 C 0.585938 -1.359375 0.234375 -2.175781 0.234375 -3.25 C 0.234375 -3.550781 0.273438 -3.898438 0.359375 -4.296875 C 0.609375 -5.523438 1.15625 -6.453125 2 -7.078125 C 2.851562 -7.710938 3.882812 -8.03125 5.09375 -8.03125 Z M 3.765625 -4.484375 C 3.796875 -4.472656 3.847656 -4.46875 3.921875 -4.46875 C 4.335938 -4.46875 4.65625 -4.660156 4.875 -5.046875 C 5.101562 -5.441406 5.210938 -5.878906 5.203125 -6.359375 C 5.191406 -6.640625 5.109375 -6.78125 4.953125 -6.78125 C 4.847656 -6.78125 4.71875 -6.691406 4.5625 -6.515625 C 4.414062 -6.335938 4.269531 -6.070312 4.125 -5.71875 C 3.976562 -5.375 3.859375 -4.960938 3.765625 -4.484375 Z M 3.765625 -4.484375 "/>
      </g>
    </g>
  </g>
  <g fill="#ab532a" fillOpacity="1">
    <g transform="translate(45.383616, 15.229144)">
      <g/>
    </g>
  </g>
  <g fill="#ab532a" fillOpacity="1">
    <g transform="translate(48.388436, 15.229144)">
      <g>
        <path d="M 9.8125 -10.015625 C 10.1875 -10.015625 10.472656 -9.929688 10.671875 -9.765625 C 10.878906 -9.609375 10.984375 -9.390625 10.984375 -9.109375 C 10.984375 -8.972656 10.960938 -8.835938 10.921875 -8.703125 L 10.53125 -7.3125 C 10.46875 -7.039062 10.367188 -6.847656 10.234375 -6.734375 C 10.097656 -6.628906 9.90625 -6.578125 9.65625 -6.578125 C 9.414062 -6.578125 9.226562 -6.628906 9.09375 -6.734375 C 8.957031 -6.847656 8.851562 -7.023438 8.78125 -7.265625 L 8.53125 -8.109375 C 8.488281 -8.296875 8.429688 -8.414062 8.359375 -8.46875 C 8.285156 -8.53125 8.148438 -8.5625 7.953125 -8.5625 L 6.375 -8.5625 L 5.625 -5.890625 L 6.28125 -5.890625 C 6.351562 -5.890625 6.445312 -5.941406 6.5625 -6.046875 L 7.078125 -6.5 C 7.234375 -6.625 7.363281 -6.71875 7.46875 -6.78125 C 7.582031 -6.84375 7.71875 -6.875 7.875 -6.875 C 8.050781 -6.875 8.195312 -6.820312 8.3125 -6.71875 C 8.4375 -6.625 8.5 -6.503906 8.5 -6.359375 C 8.5 -6.316406 8.488281 -6.253906 8.46875 -6.171875 L 7.84375 -4.09375 C 7.78125 -3.875 7.675781 -3.707031 7.53125 -3.59375 C 7.382812 -3.488281 7.226562 -3.4375 7.0625 -3.4375 C 6.78125 -3.4375 6.570312 -3.582031 6.4375 -3.875 L 6.171875 -4.40625 C 6.109375 -4.550781 6 -4.625 5.84375 -4.625 L 5.265625 -4.625 L 4.375 -1.4375 L 5.703125 -1.4375 C 5.890625 -1.4375 6.054688 -1.472656 6.203125 -1.546875 C 6.347656 -1.628906 6.503906 -1.765625 6.671875 -1.953125 L 7.578125 -2.953125 C 7.734375 -3.117188 7.882812 -3.238281 8.03125 -3.3125 C 8.175781 -3.382812 8.351562 -3.421875 8.5625 -3.421875 C 8.789062 -3.421875 8.972656 -3.367188 9.109375 -3.265625 C 9.242188 -3.171875 9.3125 -3.023438 9.3125 -2.828125 C 9.3125 -2.742188 9.300781 -2.648438 9.28125 -2.546875 L 8.84375 -1.015625 C 8.726562 -0.640625 8.566406 -0.375 8.359375 -0.21875 C 8.148438 -0.0703125 7.84375 0 7.4375 0 L 0.265625 0 C 0.0546875 0 -0.101562 -0.03125 -0.21875 -0.09375 C -0.332031 -0.164062 -0.390625 -0.265625 -0.390625 -0.390625 C -0.390625 -0.453125 -0.375 -0.519531 -0.34375 -0.59375 C -0.300781 -0.695312 -0.234375 -0.78125 -0.140625 -0.84375 C -0.0546875 -0.90625 -0.00390625 -0.941406 0.015625 -0.953125 C 0.171875 -1.046875 0.300781 -1.144531 0.40625 -1.25 C 0.507812 -1.351562 0.59375 -1.53125 0.65625 -1.78125 L 2.515625 -8.25 C 2.554688 -8.382812 2.578125 -8.503906 2.578125 -8.609375 C 2.578125 -8.734375 2.554688 -8.832031 2.515625 -8.90625 C 2.484375 -8.988281 2.429688 -9.078125 2.359375 -9.171875 C 2.265625 -9.296875 2.21875 -9.398438 2.21875 -9.484375 C 2.21875 -9.515625 2.226562 -9.570312 2.25 -9.65625 C 2.289062 -9.78125 2.378906 -9.867188 2.515625 -9.921875 C 2.660156 -9.984375 2.867188 -10.015625 3.140625 -10.015625 Z M 9.8125 -10.015625 "/>
      </g>
    </g>
  </g>
  <g fill="#ab532a" fillOpacity="1">
    <g transform="translate(58.46961, 15.229144)">
      <g>
        <path d="M 7.328125 -7.953125 C 7.859375 -7.953125 8.300781 -7.757812 8.65625 -7.375 C 9.007812 -7 9.1875 -6.476562 9.1875 -5.8125 C 9.1875 -4.925781 8.875 -4.015625 8.25 -3.078125 C 7.625 -2.148438 6.835938 -1.378906 5.890625 -0.765625 C 4.941406 -0.160156 4.015625 0.140625 3.109375 0.140625 C 2.242188 0.140625 1.539062 -0.0351562 1 -0.390625 C 0.46875 -0.742188 0.203125 -1.242188 0.203125 -1.890625 C 0.203125 -2.128906 0.25 -2.398438 0.34375 -2.703125 L 1.296875 -5.9375 C 1.316406 -6.019531 1.328125 -6.082031 1.328125 -6.125 C 1.328125 -6.21875 1.300781 -6.300781 1.25 -6.375 C 1.195312 -6.445312 1.125 -6.519531 1.03125 -6.59375 C 0.882812 -6.726562 0.8125 -6.84375 0.8125 -6.9375 C 0.800781 -7.082031 0.882812 -7.234375 1.0625 -7.390625 C 1.25 -7.554688 1.503906 -7.691406 1.828125 -7.796875 C 2.148438 -7.898438 2.519531 -7.953125 2.9375 -7.953125 C 3.601562 -7.953125 4.125 -7.785156 4.5 -7.453125 C 4.875 -7.128906 5.0625 -6.707031 5.0625 -6.1875 C 5.0625 -5.957031 5.019531 -5.707031 4.9375 -5.4375 L 3.96875 -2.21875 C 3.9375 -2.132812 3.921875 -2.0625 3.921875 -2 C 3.921875 -1.863281 3.960938 -1.757812 4.046875 -1.6875 C 4.140625 -1.625 4.269531 -1.59375 4.4375 -1.59375 C 4.65625 -1.59375 4.910156 -1.6875 5.203125 -1.875 C 5.503906 -2.070312 5.800781 -2.351562 6.09375 -2.71875 C 6.382812 -3.09375 6.617188 -3.53125 6.796875 -4.03125 C 6.390625 -4.375 6.101562 -4.71875 5.9375 -5.0625 C 5.78125 -5.40625 5.703125 -5.757812 5.703125 -6.125 C 5.703125 -6.632812 5.835938 -7.066406 6.109375 -7.421875 C 6.390625 -7.773438 6.796875 -7.953125 7.328125 -7.953125 Z M 7.328125 -7.953125 "/>
      </g>
    </g>
  </g>
  <g fill="#ab532a" fillOpacity="1">
    <g transform="translate(67.469052, 15.229144)">
      <g>
        <path d="M 5.09375 -8.03125 C 6.363281 -8.03125 7.285156 -7.828125 7.859375 -7.421875 C 8.429688 -7.015625 8.71875 -6.492188 8.71875 -5.859375 C 8.71875 -5.671875 8.695312 -5.5 8.65625 -5.34375 C 8.507812 -4.675781 8.09375 -4.195312 7.40625 -3.90625 C 6.71875 -3.625 5.90625 -3.484375 4.96875 -3.484375 C 4.5 -3.484375 4.0625 -3.515625 3.65625 -3.578125 C 3.644531 -3.054688 3.785156 -2.691406 4.078125 -2.484375 C 4.367188 -2.273438 4.773438 -2.171875 5.296875 -2.171875 C 5.535156 -2.171875 5.765625 -2.195312 5.984375 -2.25 C 6.203125 -2.300781 6.484375 -2.382812 6.828125 -2.5 C 7.109375 -2.59375 7.296875 -2.640625 7.390625 -2.640625 C 7.503906 -2.640625 7.5625 -2.578125 7.5625 -2.453125 C 7.570312 -2.097656 7.441406 -1.726562 7.171875 -1.34375 C 6.898438 -0.957031 6.5 -0.628906 5.96875 -0.359375 C 5.4375 -0.0859375 4.796875 0.046875 4.046875 0.046875 C 2.929688 0.046875 2.015625 -0.234375 1.296875 -0.796875 C 0.585938 -1.359375 0.234375 -2.175781 0.234375 -3.25 C 0.234375 -3.550781 0.273438 -3.898438 0.359375 -4.296875 C 0.609375 -5.523438 1.15625 -6.453125 2 -7.078125 C 2.851562 -7.710938 3.882812 -8.03125 5.09375 -8.03125 Z M 3.765625 -4.484375 C 3.796875 -4.472656 3.847656 -4.46875 3.921875 -4.46875 C 4.335938 -4.46875 4.65625 -4.660156 4.875 -5.046875 C 5.101562 -5.441406 5.210938 -5.878906 5.203125 -6.359375 C 5.191406 -6.640625 5.109375 -6.78125 4.953125 -6.78125 C 4.847656 -6.78125 4.71875 -6.691406 4.5625 -6.515625 C 4.414062 -6.335938 4.269531 -6.070312 4.125 -5.71875 C 3.976562 -5.375 3.859375 -4.960938 3.765625 -4.484375 Z M 3.765625 -4.484375 "/>
      </g>
    </g>
  </g>
  <g fill="#ab532a" fillOpacity="1">
    <g transform="translate(75.882552, 15.229144)">
      <g>
        <path d="M 9.296875 -2.078125 C 9.285156 -2.035156 9.28125 -1.972656 9.28125 -1.890625 C 9.28125 -1.816406 9.296875 -1.757812 9.328125 -1.71875 C 9.359375 -1.6875 9.40625 -1.671875 9.46875 -1.671875 C 9.59375 -1.671875 9.695312 -1.722656 9.78125 -1.828125 C 9.863281 -1.929688 9.921875 -1.984375 9.953125 -1.984375 C 10.003906 -1.984375 10.039062 -1.945312 10.0625 -1.875 C 10.09375 -1.8125 10.109375 -1.738281 10.109375 -1.65625 C 10.117188 -1.363281 10.023438 -1.078125 9.828125 -0.796875 C 9.628906 -0.523438 9.335938 -0.300781 8.953125 -0.125 C 8.566406 0.0507812 8.101562 0.140625 7.5625 0.140625 C 6.894531 0.140625 6.363281 -0.0078125 5.96875 -0.3125 C 5.582031 -0.625 5.382812 -1.035156 5.375 -1.546875 C 5.375 -1.921875 5.46875 -2.335938 5.65625 -2.796875 L 6.484375 -4.953125 C 6.523438 -5.085938 6.546875 -5.195312 6.546875 -5.28125 C 6.546875 -5.40625 6.503906 -5.503906 6.421875 -5.578125 C 6.335938 -5.660156 6.238281 -5.703125 6.125 -5.703125 C 5.894531 -5.703125 5.679688 -5.597656 5.484375 -5.390625 C 5.285156 -5.179688 5.140625 -4.925781 5.046875 -4.625 L 4.125 -1.5625 C 4.082031 -1.445312 4.0625 -1.34375 4.0625 -1.25 C 4.0625 -1.125 4.082031 -1.023438 4.125 -0.953125 C 4.175781 -0.878906 4.25 -0.800781 4.34375 -0.71875 C 4.414062 -0.65625 4.46875 -0.597656 4.5 -0.546875 C 4.53125 -0.503906 4.535156 -0.445312 4.515625 -0.375 C 4.472656 -0.25 4.375 -0.15625 4.21875 -0.09375 C 4.070312 -0.03125 3.835938 0 3.515625 0 L 0.09375 0 C -0.164062 0 -0.351562 -0.0390625 -0.46875 -0.125 C -0.582031 -0.207031 -0.625 -0.320312 -0.59375 -0.46875 C -0.5625 -0.582031 -0.457031 -0.6875 -0.28125 -0.78125 C -0.132812 -0.863281 -0.015625 -0.957031 0.078125 -1.0625 C 0.179688 -1.175781 0.269531 -1.351562 0.34375 -1.59375 L 1.6875 -5.9375 C 1.707031 -5.988281 1.71875 -6.054688 1.71875 -6.140625 C 1.71875 -6.253906 1.691406 -6.34375 1.640625 -6.40625 C 1.597656 -6.46875 1.523438 -6.539062 1.421875 -6.625 C 1.328125 -6.707031 1.257812 -6.773438 1.21875 -6.828125 C 1.175781 -6.890625 1.171875 -6.972656 1.203125 -7.078125 C 1.265625 -7.304688 1.578125 -7.507812 2.140625 -7.6875 C 2.710938 -7.863281 3.3125 -7.953125 3.9375 -7.953125 C 4.4375 -7.953125 4.832031 -7.8125 5.125 -7.53125 C 5.414062 -7.257812 5.546875 -6.878906 5.515625 -6.390625 C 5.921875 -6.984375 6.351562 -7.390625 6.8125 -7.609375 C 7.28125 -7.835938 7.785156 -7.953125 8.328125 -7.953125 C 8.941406 -7.953125 9.4375 -7.765625 9.8125 -7.390625 C 10.1875 -7.023438 10.375 -6.546875 10.375 -5.953125 C 10.375 -5.640625 10.320312 -5.332031 10.21875 -5.03125 Z M 9.296875 -2.078125 "/>
      </g>
    </g>
  </g>
  <g fill="#ab532a" fillOpacity="1">
    <g transform="translate(86.639813, 15.229144)">
      <g>
        <path d="M 6.71875 -7.75 C 6.90625 -7.75 7.050781 -7.707031 7.15625 -7.625 C 7.257812 -7.550781 7.3125 -7.445312 7.3125 -7.3125 C 7.3125 -7.269531 7.304688 -7.195312 7.296875 -7.09375 C 7.160156 -6.65625 6.859375 -6.4375 6.390625 -6.4375 L 5.515625 -6.4375 L 4.390625 -2.71875 C 4.335938 -2.570312 4.3125 -2.414062 4.3125 -2.25 C 4.3125 -2.070312 4.359375 -1.945312 4.453125 -1.875 C 4.554688 -1.8125 4.703125 -1.78125 4.890625 -1.78125 C 5.046875 -1.78125 5.242188 -1.796875 5.484375 -1.828125 C 5.609375 -1.859375 5.710938 -1.875 5.796875 -1.875 C 5.867188 -1.875 5.921875 -1.851562 5.953125 -1.8125 C 5.992188 -1.769531 6.015625 -1.710938 6.015625 -1.640625 C 6.023438 -1.441406 5.875 -1.195312 5.5625 -0.90625 C 5.257812 -0.625 4.847656 -0.378906 4.328125 -0.171875 C 3.804688 0.0351562 3.226562 0.140625 2.59375 0.140625 C 1.914062 0.140625 1.367188 -0.015625 0.953125 -0.328125 C 0.546875 -0.640625 0.34375 -1.066406 0.34375 -1.609375 C 0.34375 -1.859375 0.382812 -2.097656 0.46875 -2.328125 L 1.421875 -5.3125 C 1.472656 -5.476562 1.5 -5.613281 1.5 -5.71875 C 1.5 -5.914062 1.453125 -6.082031 1.359375 -6.21875 C 1.265625 -6.363281 1.132812 -6.507812 0.96875 -6.65625 C 0.8125 -6.800781 0.703125 -6.921875 0.640625 -7.015625 C 0.585938 -7.109375 0.570312 -7.21875 0.59375 -7.34375 C 0.632812 -7.476562 0.71875 -7.578125 0.84375 -7.640625 C 0.976562 -7.710938 1.1875 -7.75 1.46875 -7.75 L 2.3125 -7.75 L 3.265625 -8.703125 C 3.597656 -9.035156 3.898438 -9.265625 4.171875 -9.390625 C 4.441406 -9.523438 4.800781 -9.59375 5.25 -9.59375 C 5.875 -9.59375 6.1875 -9.351562 6.1875 -8.875 C 6.1875 -8.71875 6.164062 -8.578125 6.125 -8.453125 L 5.921875 -7.75 Z M 6.71875 -7.75 "/>
      </g>
    </g>
  </g>
  <g fill="#a6a6a6" fillOpacity="0.4">
    <g transform="translate(7.623638, 29.401665)">
      <g>
        <path d="M 5.234375 0.09375 C 4.390625 0.09375 3.628906 -0.0625 2.953125 -0.375 C 2.285156 -0.6875 1.753906 -1.144531 1.359375 -1.75 C 0.960938 -2.351562 0.765625 -3.085938 0.765625 -3.953125 C 0.765625 -4.554688 0.867188 -5.207031 1.078125 -5.90625 C 1.546875 -7.40625 2.242188 -8.488281 3.171875 -9.15625 C 4.097656 -9.820312 5.09375 -10.15625 6.15625 -10.15625 C 6.726562 -10.15625 7.234375 -10.070312 7.671875 -9.90625 C 8.117188 -9.738281 8.53125 -9.492188 8.90625 -9.171875 L 9.296875 -9.484375 C 9.566406 -9.691406 9.796875 -9.835938 9.984375 -9.921875 C 10.171875 -10.003906 10.378906 -10.046875 10.609375 -10.046875 C 10.859375 -10.046875 11.054688 -9.988281 11.203125 -9.875 C 11.359375 -9.757812 11.4375 -9.597656 11.4375 -9.390625 C 11.4375 -9.285156 11.414062 -9.175781 11.375 -9.0625 L 10.53125 -6.71875 C 10.445312 -6.445312 10.34375 -6.253906 10.21875 -6.140625 C 10.09375 -6.035156 9.90625 -5.984375 9.65625 -5.984375 C 9.394531 -5.984375 9.179688 -6.070312 9.015625 -6.25 C 8.847656 -6.4375 8.660156 -6.757812 8.453125 -7.21875 C 8.210938 -7.6875 8.015625 -7.992188 7.859375 -8.140625 C 7.710938 -8.296875 7.492188 -8.375 7.203125 -8.375 C 6.785156 -8.375 6.382812 -8.117188 6 -7.609375 C 5.625 -7.109375 5.28125 -6.351562 4.96875 -5.34375 C 4.707031 -4.488281 4.578125 -3.773438 4.578125 -3.203125 C 4.578125 -2.703125 4.671875 -2.328125 4.859375 -2.078125 C 5.054688 -1.835938 5.316406 -1.71875 5.640625 -1.71875 C 6.109375 -1.71875 6.492188 -1.820312 6.796875 -2.03125 C 7.109375 -2.238281 7.421875 -2.523438 7.734375 -2.890625 C 7.941406 -3.109375 8.109375 -3.269531 8.234375 -3.375 C 8.359375 -3.476562 8.488281 -3.53125 8.625 -3.53125 C 8.8125 -3.53125 9.003906 -3.4375 9.203125 -3.25 C 9.398438 -3.070312 9.492188 -2.894531 9.484375 -2.71875 C 9.492188 -2.5 9.316406 -2.15625 8.953125 -1.6875 C 8.585938 -1.226562 8.082031 -0.816406 7.4375 -0.453125 C 6.789062 -0.0859375 6.054688 0.09375 5.234375 0.09375 Z M 5.234375 0.09375 "/>
      </g>
    </g>
  </g>
  <g fill="#a6a6a6" fillOpacity="0.4">
    <g transform="translate(18.020319, 29.401665)">
      <g>
        <path d="M 5.8125 -7.953125 C 7.175781 -7.953125 8.179688 -7.675781 8.828125 -7.125 C 9.472656 -6.570312 9.796875 -5.847656 9.796875 -4.953125 C 9.796875 -4.660156 9.757812 -4.328125 9.6875 -3.953125 C 9.488281 -3.128906 9.128906 -2.410156 8.609375 -1.796875 C 8.085938 -1.179688 7.445312 -0.703125 6.6875 -0.359375 C 5.9375 -0.0234375 5.117188 0.140625 4.234375 0.140625 C 2.847656 0.140625 1.820312 -0.132812 1.15625 -0.6875 C 0.488281 -1.25 0.15625 -1.992188 0.15625 -2.921875 C 0.15625 -3.222656 0.191406 -3.566406 0.265625 -3.953125 C 0.460938 -4.734375 0.828125 -5.425781 1.359375 -6.03125 C 1.898438 -6.632812 2.554688 -7.101562 3.328125 -7.4375 C 4.109375 -7.78125 4.9375 -7.953125 5.8125 -7.953125 Z M 5.765625 -6.609375 C 5.554688 -6.609375 5.332031 -6.421875 5.09375 -6.046875 C 4.863281 -5.671875 4.585938 -4.960938 4.265625 -3.921875 C 3.941406 -2.878906 3.78125 -2.148438 3.78125 -1.734375 C 3.78125 -1.503906 3.816406 -1.351562 3.890625 -1.28125 C 3.960938 -1.207031 4.054688 -1.171875 4.171875 -1.171875 C 4.390625 -1.148438 4.609375 -1.328125 4.828125 -1.703125 C 5.054688 -2.085938 5.34375 -2.832031 5.6875 -3.9375 C 5.988281 -4.90625 6.140625 -5.613281 6.140625 -6.0625 C 6.140625 -6.269531 6.109375 -6.410156 6.046875 -6.484375 C 5.984375 -6.566406 5.890625 -6.609375 5.765625 -6.609375 Z M 5.765625 -6.609375 "/>
      </g>
    </g>
  </g>
  <g fill="#a6a6a6" fillOpacity="0.4">
    <g transform="translate(27.876135, 29.401665)">
      <g>
        <path d="M 14.296875 -2.078125 C 14.273438 -2.035156 14.265625 -1.972656 14.265625 -1.890625 C 14.265625 -1.816406 14.28125 -1.757812 14.3125 -1.71875 C 14.351562 -1.6875 14.398438 -1.671875 14.453125 -1.671875 C 14.578125 -1.671875 14.679688 -1.722656 14.765625 -1.828125 C 14.847656 -1.929688 14.90625 -1.984375 14.9375 -1.984375 C 14.988281 -1.984375 15.03125 -1.945312 15.0625 -1.875 C 15.09375 -1.8125 15.109375 -1.738281 15.109375 -1.65625 C 15.117188 -1.363281 15.019531 -1.078125 14.8125 -0.796875 C 14.613281 -0.523438 14.320312 -0.300781 13.9375 -0.125 C 13.550781 0.0507812 13.085938 0.140625 12.546875 0.140625 C 11.890625 0.140625 11.363281 -0.0078125 10.96875 -0.3125 C 10.582031 -0.625 10.382812 -1.035156 10.375 -1.546875 C 10.375 -1.921875 10.460938 -2.335938 10.640625 -2.796875 L 11.46875 -4.953125 C 11.519531 -5.085938 11.546875 -5.195312 11.546875 -5.28125 C 11.546875 -5.40625 11.5 -5.503906 11.40625 -5.578125 C 11.320312 -5.660156 11.222656 -5.703125 11.109375 -5.703125 C 10.941406 -5.703125 10.765625 -5.625 10.578125 -5.46875 C 10.398438 -5.320312 10.238281 -5.085938 10.09375 -4.765625 L 9.28125 -2.078125 C 9.257812 -2.035156 9.25 -1.972656 9.25 -1.890625 C 9.25 -1.816406 9.265625 -1.757812 9.296875 -1.71875 C 9.328125 -1.6875 9.375 -1.671875 9.4375 -1.671875 C 9.5625 -1.671875 9.664062 -1.722656 9.75 -1.828125 C 9.832031 -1.929688 9.890625 -1.984375 9.921875 -1.984375 C 9.972656 -1.984375 10.015625 -1.945312 10.046875 -1.875 C 10.078125 -1.8125 10.09375 -1.738281 10.09375 -1.65625 C 10.09375 -1.363281 9.992188 -1.078125 9.796875 -0.796875 C 9.597656 -0.523438 9.304688 -0.300781 8.921875 -0.125 C 8.535156 0.0507812 8.070312 0.140625 7.53125 0.140625 C 6.863281 0.140625 6.332031 -0.0078125 5.9375 -0.3125 C 5.550781 -0.625 5.351562 -1.035156 5.34375 -1.546875 C 5.34375 -1.921875 5.4375 -2.335938 5.625 -2.796875 L 6.453125 -4.953125 C 6.503906 -5.085938 6.53125 -5.195312 6.53125 -5.28125 C 6.53125 -5.40625 6.484375 -5.503906 6.390625 -5.578125 C 6.304688 -5.660156 6.207031 -5.703125 6.09375 -5.703125 C 5.914062 -5.703125 5.738281 -5.628906 5.5625 -5.484375 C 5.382812 -5.335938 5.234375 -5.101562 5.109375 -4.78125 L 4.125 -1.5625 C 4.082031 -1.445312 4.0625 -1.34375 4.0625 -1.25 C 4.0625 -1.125 4.082031 -1.023438 4.125 -0.953125 C 4.175781 -0.878906 4.25 -0.800781 4.34375 -0.71875 C 4.414062 -0.65625 4.46875 -0.597656 4.5 -0.546875 C 4.53125 -0.503906 4.535156 -0.445312 4.515625 -0.375 C 4.472656 -0.25 4.375 -0.15625 4.21875 -0.09375 C 4.070312 -0.03125 3.835938 0 3.515625 0 L 0.09375 0 C -0.164062 0 -0.351562 -0.0390625 -0.46875 -0.125 C -0.582031 -0.207031 -0.625 -0.320312 -0.59375 -0.46875 C -0.5625 -0.582031 -0.457031 -0.6875 -0.28125 -0.78125 C -0.132812 -0.863281 -0.015625 -0.957031 0.078125 -1.0625 C 0.179688 -1.175781 0.269531 -1.351562 0.34375 -1.59375 L 1.6875 -5.9375 C 1.707031 -5.988281 1.71875 -6.054688 1.71875 -6.140625 C 1.71875 -6.253906 1.691406 -6.34375 1.640625 -6.40625 C 1.597656 -6.46875 1.523438 -6.539062 1.421875 -6.625 C 1.328125 -6.707031 1.257812 -6.773438 1.21875 -6.828125 C 1.175781 -6.890625 1.171875 -6.972656 1.203125 -7.078125 C 1.265625 -7.304688 1.578125 -7.507812 2.140625 -7.6875 C 2.710938 -7.863281 3.3125 -7.953125 3.9375 -7.953125 C 4.425781 -7.953125 4.8125 -7.816406 5.09375 -7.546875 C 5.382812 -7.273438 5.523438 -6.90625 5.515625 -6.4375 C 5.921875 -7.007812 6.351562 -7.40625 6.8125 -7.625 C 7.269531 -7.84375 7.765625 -7.953125 8.296875 -7.953125 C 8.878906 -7.953125 9.351562 -7.78125 9.71875 -7.4375 C 10.082031 -7.101562 10.285156 -6.664062 10.328125 -6.125 C 10.753906 -6.8125 11.210938 -7.285156 11.703125 -7.546875 C 12.203125 -7.816406 12.738281 -7.953125 13.3125 -7.953125 C 13.925781 -7.953125 14.421875 -7.765625 14.796875 -7.390625 C 15.171875 -7.023438 15.359375 -6.546875 15.359375 -5.953125 C 15.359375 -5.640625 15.3125 -5.332031 15.21875 -5.03125 Z M 14.296875 -2.078125 "/>
      </g>
    </g>
  </g>
  <g fill="#a6a6a6" fillOpacity="0.4">
    <g transform="translate(43.621399, 29.401665)">
      <g>
        <path d="M 14.296875 -2.078125 C 14.273438 -2.035156 14.265625 -1.972656 14.265625 -1.890625 C 14.265625 -1.816406 14.28125 -1.757812 14.3125 -1.71875 C 14.351562 -1.6875 14.398438 -1.671875 14.453125 -1.671875 C 14.578125 -1.671875 14.679688 -1.722656 14.765625 -1.828125 C 14.847656 -1.929688 14.90625 -1.984375 14.9375 -1.984375 C 14.988281 -1.984375 15.03125 -1.945312 15.0625 -1.875 C 15.09375 -1.8125 15.109375 -1.738281 15.109375 -1.65625 C 15.117188 -1.363281 15.019531 -1.078125 14.8125 -0.796875 C 14.613281 -0.523438 14.320312 -0.300781 13.9375 -0.125 C 13.550781 0.0507812 13.085938 0.140625 12.546875 0.140625 C 11.890625 0.140625 11.363281 -0.0078125 10.96875 -0.3125 C 10.582031 -0.625 10.382812 -1.035156 10.375 -1.546875 C 10.375 -1.921875 10.460938 -2.335938 10.640625 -2.796875 L 11.46875 -4.953125 C 11.519531 -5.085938 11.546875 -5.195312 11.546875 -5.28125 C 11.546875 -5.40625 11.5 -5.503906 11.40625 -5.578125 C 11.320312 -5.660156 11.222656 -5.703125 11.109375 -5.703125 C 10.941406 -5.703125 10.765625 -5.625 10.578125 -5.46875 C 10.398438 -5.320312 10.238281 -5.085938 10.09375 -4.765625 L 9.28125 -2.078125 C 9.257812 -2.035156 9.25 -1.972656 9.25 -1.890625 C 9.25 -1.816406 9.265625 -1.757812 9.296875 -1.71875 C 9.328125 -1.6875 9.375 -1.671875 9.4375 -1.671875 C 9.5625 -1.671875 9.664062 -1.722656 9.75 -1.828125 C 9.832031 -1.929688 9.890625 -1.984375 9.921875 -1.984375 C 9.972656 -1.984375 10.015625 -1.945312 10.046875 -1.875 C 10.078125 -1.8125 10.09375 -1.738281 10.09375 -1.65625 C 10.09375 -1.363281 9.992188 -1.078125 9.796875 -0.796875 C 9.597656 -0.523438 9.304688 -0.300781 8.921875 -0.125 C 8.535156 0.0507812 8.070312 0.140625 7.53125 0.140625 C 6.863281 0.140625 6.332031 -0.0078125 5.9375 -0.3125 C 5.550781 -0.625 5.351562 -1.035156 5.34375 -1.546875 C 5.34375 -1.921875 5.4375 -2.335938 5.625 -2.796875 L 6.453125 -4.953125 C 6.503906 -5.085938 6.53125 -5.195312 6.53125 -5.28125 C 6.53125 -5.40625 6.484375 -5.503906 6.390625 -5.578125 C 6.304688 -5.660156 6.207031 -5.703125 6.09375 -5.703125 C 5.914062 -5.703125 5.738281 -5.628906 5.5625 -5.484375 C 5.382812 -5.335938 5.234375 -5.101562 5.109375 -4.78125 L 4.125 -1.5625 C 4.082031 -1.445312 4.0625 -1.34375 4.0625 -1.25 C 4.0625 -1.125 4.082031 -1.023438 4.125 -0.953125 C 4.175781 -0.878906 4.25 -0.800781 4.34375 -0.71875 C 4.414062 -0.65625 4.46875 -0.597656 4.5 -0.546875 C 4.53125 -0.503906 4.535156 -0.445312 4.515625 -0.375 C 4.472656 -0.25 4.375 -0.15625 4.21875 -0.09375 C 4.070312 -0.03125 3.835938 0 3.515625 0 L 0.09375 0 C -0.164062 0 -0.351562 -0.0390625 -0.46875 -0.125 C -0.582031 -0.207031 -0.625 -0.320312 -0.59375 -0.46875 C -0.5625 -0.582031 -0.457031 -0.6875 -0.28125 -0.78125 C -0.132812 -0.863281 -0.015625 -0.957031 0.078125 -1.0625 C 0.179688 -1.175781 0.269531 -1.351562 0.34375 -1.59375 L 1.6875 -5.9375 C 1.707031 -5.988281 1.71875 -6.054688 1.71875 -6.140625 C 1.71875 -6.253906 1.691406 -6.34375 1.640625 -6.40625 C 1.597656 -6.46875 1.523438 -6.539062 1.421875 -6.625 C 1.328125 -6.707031 1.257812 -6.773438 1.21875 -6.828125 C 1.175781 -6.890625 1.171875 -6.972656 1.203125 -7.078125 C 1.265625 -7.304688 1.578125 -7.507812 2.140625 -7.6875 C 2.710938 -7.863281 3.3125 -7.953125 3.9375 -7.953125 C 4.425781 -7.953125 4.8125 -7.816406 5.09375 -7.546875 C 5.382812 -7.273438 5.523438 -6.90625 5.515625 -6.4375 C 5.921875 -7.007812 6.351562 -7.40625 6.8125 -7.625 C 7.269531 -7.84375 7.765625 -7.953125 8.296875 -7.953125 C 8.878906 -7.953125 9.351562 -7.78125 9.71875 -7.4375 C 10.082031 -7.101562 10.285156 -6.664062 10.328125 -6.125 C 10.753906 -6.8125 11.210938 -7.285156 11.703125 -7.546875 C 12.203125 -7.816406 12.738281 -7.953125 13.3125 -7.953125 C 13.925781 -7.953125 14.421875 -7.765625 14.796875 -7.390625 C 15.171875 -7.023438 15.359375 -6.546875 15.359375 -5.953125 C 15.359375 -5.640625 15.3125 -5.332031 15.21875 -5.03125 Z M 14.296875 -2.078125 "/>
      </g>
    </g>
  </g>
  <g fill="#a6a6a6" fillOpacity="0.4">
    <g transform="translate(59.366665, 29.401665)">
      <g>
        <path d="M 8.921875 -2.078125 C 8.910156 -1.992188 8.90625 -1.929688 8.90625 -1.890625 C 8.90625 -1.816406 8.921875 -1.757812 8.953125 -1.71875 C 8.984375 -1.6875 9.03125 -1.671875 9.09375 -1.671875 C 9.21875 -1.671875 9.320312 -1.722656 9.40625 -1.828125 C 9.488281 -1.929688 9.546875 -1.984375 9.578125 -1.984375 C 9.628906 -1.984375 9.671875 -1.945312 9.703125 -1.875 C 9.734375 -1.8125 9.75 -1.738281 9.75 -1.65625 C 9.757812 -1.375 9.660156 -1.09375 9.453125 -0.8125 C 9.242188 -0.539062 8.945312 -0.3125 8.5625 -0.125 C 8.1875 0.0507812 7.765625 0.140625 7.296875 0.140625 C 6.703125 0.140625 6.226562 0.0195312 5.875 -0.21875 C 5.519531 -0.46875 5.296875 -0.785156 5.203125 -1.171875 C 4.835938 -0.773438 4.4375 -0.472656 4 -0.265625 C 3.570312 -0.0546875 3.128906 0.046875 2.671875 0.046875 C 1.972656 0.046875 1.382812 -0.125 0.90625 -0.46875 C 0.4375 -0.8125 0.203125 -1.296875 0.203125 -1.921875 C 0.203125 -2.203125 0.25 -2.492188 0.34375 -2.796875 L 1.3125 -5.9375 C 1.34375 -6.03125 1.359375 -6.101562 1.359375 -6.15625 C 1.359375 -6.269531 1.332031 -6.359375 1.28125 -6.421875 C 1.226562 -6.492188 1.148438 -6.5625 1.046875 -6.625 C 0.953125 -6.707031 0.882812 -6.773438 0.84375 -6.828125 C 0.800781 -6.890625 0.796875 -6.972656 0.828125 -7.078125 C 0.890625 -7.304688 1.203125 -7.507812 1.765625 -7.6875 C 2.335938 -7.863281 2.9375 -7.953125 3.5625 -7.953125 C 4.144531 -7.953125 4.570312 -7.84375 4.84375 -7.625 C 5.113281 -7.40625 5.25 -7.101562 5.25 -6.71875 C 5.25 -6.488281 5.210938 -6.269531 5.140625 -6.0625 L 4.1875 -2.9375 C 4.15625 -2.820312 4.140625 -2.710938 4.140625 -2.609375 C 4.140625 -2.472656 4.175781 -2.367188 4.25 -2.296875 C 4.332031 -2.222656 4.4375 -2.1875 4.5625 -2.1875 C 4.757812 -2.1875 4.914062 -2.242188 5.03125 -2.359375 C 5.15625 -2.472656 5.273438 -2.660156 5.390625 -2.921875 L 6.3125 -5.9375 C 6.34375 -6.03125 6.359375 -6.101562 6.359375 -6.15625 C 6.359375 -6.269531 6.332031 -6.359375 6.28125 -6.421875 C 6.226562 -6.492188 6.160156 -6.5625 6.078125 -6.625 C 5.972656 -6.707031 5.898438 -6.773438 5.859375 -6.828125 C 5.816406 -6.890625 5.8125 -6.972656 5.84375 -7.078125 C 5.894531 -7.304688 6.207031 -7.507812 6.78125 -7.6875 C 7.351562 -7.863281 7.945312 -7.953125 8.5625 -7.953125 C 9.144531 -7.953125 9.570312 -7.84375 9.84375 -7.625 C 10.125 -7.40625 10.265625 -7.109375 10.265625 -6.734375 C 10.265625 -6.546875 10.222656 -6.320312 10.140625 -6.0625 Z M 8.921875 -2.078125 "/>
      </g>
    </g>
  </g>
  <g fill="#a6a6a6" fillOpacity="0.4">
    <g transform="translate(69.673202, 29.401665)">
      <g>
        <path d="M 9.296875 -2.078125 C 9.285156 -2.035156 9.28125 -1.972656 9.28125 -1.890625 C 9.28125 -1.816406 9.296875 -1.757812 9.328125 -1.71875 C 9.359375 -1.6875 9.40625 -1.671875 9.46875 -1.671875 C 9.59375 -1.671875 9.695312 -1.722656 9.78125 -1.828125 C 9.863281 -1.929688 9.921875 -1.984375 9.953125 -1.984375 C 10.003906 -1.984375 10.039062 -1.945312 10.0625 -1.875 C 10.09375 -1.8125 10.109375 -1.738281 10.109375 -1.65625 C 10.117188 -1.363281 10.023438 -1.078125 9.828125 -0.796875 C 9.628906 -0.523438 9.335938 -0.300781 8.953125 -0.125 C 8.566406 0.0507812 8.101562 0.140625 7.5625 0.140625 C 6.894531 0.140625 6.363281 -0.0078125 5.96875 -0.3125 C 5.582031 -0.625 5.382812 -1.035156 5.375 -1.546875 C 5.375 -1.921875 5.46875 -2.335938 5.65625 -2.796875 L 6.484375 -4.953125 C 6.523438 -5.085938 6.546875 -5.195312 6.546875 -5.28125 C 6.546875 -5.40625 6.503906 -5.503906 6.421875 -5.578125 C 6.335938 -5.660156 6.238281 -5.703125 6.125 -5.703125 C 5.894531 -5.703125 5.679688 -5.597656 5.484375 -5.390625 C 5.285156 -5.179688 5.140625 -4.925781 5.046875 -4.625 L 4.125 -1.5625 C 4.082031 -1.445312 4.0625 -1.34375 4.0625 -1.25 C 4.0625 -1.125 4.082031 -1.023438 4.125 -0.953125 C 4.175781 -0.878906 4.25 -0.800781 4.34375 -0.71875 C 4.414062 -0.65625 4.46875 -0.597656 4.5 -0.546875 C 4.53125 -0.503906 4.535156 -0.445312 4.515625 -0.375 C 4.472656 -0.25 4.375 -0.15625 4.21875 -0.09375 C 4.070312 -0.03125 3.835938 0 3.515625 0 L 0.09375 0 C -0.164062 0 -0.351562 -0.0390625 -0.46875 -0.125 C -0.582031 -0.207031 -0.625 -0.320312 -0.59375 -0.46875 C -0.5625 -0.582031 -0.457031 -0.6875 -0.28125 -0.78125 C -0.132812 -0.863281 -0.015625 -0.957031 0.078125 -1.0625 C 0.179688 -1.175781 0.269531 -1.351562 0.34375 -1.59375 L 1.6875 -5.9375 C 1.707031 -5.988281 1.71875 -6.054688 1.71875 -6.140625 C 1.71875 -6.253906 1.691406 -6.34375 1.640625 -6.40625 C 1.597656 -6.46875 1.523438 -6.539062 1.421875 -6.625 C 1.328125 -6.707031 1.257812 -6.773438 1.21875 -6.828125 C 1.175781 -6.890625 1.171875 -6.972656 1.203125 -7.078125 C 1.265625 -7.304688 1.578125 -7.507812 2.140625 -7.6875 C 2.710938 -7.863281 3.3125 -7.953125 3.9375 -7.953125 C 4.4375 -7.953125 4.832031 -7.8125 5.125 -7.53125 C 5.414062 -7.257812 5.546875 -6.878906 5.515625 -6.390625 C 5.921875 -6.984375 6.351562 -7.390625 6.8125 -7.609375 C 7.28125 -7.835938 7.785156 -7.953125 8.328125 -7.953125 C 8.941406 -7.953125 9.4375 -7.765625 9.8125 -7.390625 C 10.1875 -7.023438 10.375 -6.546875 10.375 -5.953125 C 10.375 -5.640625 10.320312 -5.332031 10.21875 -5.03125 Z M 9.296875 -2.078125 "/>
      </g>
    </g>
  </g>
  <g fill="#a6a6a6" fillOpacity="0.4">
    <g transform="translate(80.430464, 29.401665)">
      <g>
        <path d="M 3.953125 -7.953125 C 4.535156 -7.953125 4.960938 -7.84375 5.234375 -7.625 C 5.503906 -7.40625 5.640625 -7.101562 5.640625 -6.71875 C 5.640625 -6.488281 5.601562 -6.269531 5.53125 -6.0625 L 4.15625 -1.5625 C 4.125 -1.445312 4.109375 -1.34375 4.109375 -1.25 C 4.109375 -1.113281 4.128906 -1.007812 4.171875 -0.9375 C 4.222656 -0.863281 4.296875 -0.789062 4.390625 -0.71875 C 4.460938 -0.644531 4.515625 -0.585938 4.546875 -0.546875 C 4.578125 -0.503906 4.582031 -0.445312 4.5625 -0.375 C 4.507812 -0.25 4.40625 -0.15625 4.25 -0.09375 C 4.101562 -0.03125 3.875 0 3.5625 0 L 0.140625 0 C -0.117188 0 -0.304688 -0.0390625 -0.421875 -0.125 C -0.546875 -0.207031 -0.585938 -0.320312 -0.546875 -0.46875 C -0.515625 -0.582031 -0.410156 -0.6875 -0.234375 -0.78125 C -0.0859375 -0.863281 0.03125 -0.957031 0.125 -1.0625 C 0.226562 -1.175781 0.316406 -1.351562 0.390625 -1.59375 L 1.703125 -5.9375 C 1.734375 -6.03125 1.75 -6.101562 1.75 -6.15625 C 1.75 -6.269531 1.722656 -6.359375 1.671875 -6.421875 C 1.617188 -6.492188 1.539062 -6.5625 1.4375 -6.625 C 1.34375 -6.707031 1.273438 -6.773438 1.234375 -6.828125 C 1.191406 -6.890625 1.1875 -6.972656 1.21875 -7.078125 C 1.28125 -7.304688 1.59375 -7.507812 2.15625 -7.6875 C 2.726562 -7.863281 3.328125 -7.953125 3.953125 -7.953125 Z M 4.953125 -11.28125 C 5.347656 -11.28125 5.675781 -11.148438 5.9375 -10.890625 C 6.195312 -10.628906 6.328125 -10.316406 6.328125 -9.953125 C 6.328125 -9.691406 6.257812 -9.4375 6.125 -9.1875 C 5.988281 -8.9375 5.796875 -8.734375 5.546875 -8.578125 C 5.304688 -8.421875 5.035156 -8.34375 4.734375 -8.34375 C 4.347656 -8.34375 4.023438 -8.46875 3.765625 -8.71875 C 3.515625 -8.976562 3.382812 -9.300781 3.375 -9.6875 C 3.375 -9.9375 3.4375 -10.179688 3.5625 -10.421875 C 3.695312 -10.671875 3.882812 -10.875 4.125 -11.03125 C 4.375 -11.195312 4.648438 -11.28125 4.953125 -11.28125 Z M 4.953125 -11.28125 "/>
      </g>
    </g>
  </g>
  <g fill="#a6a6a6" fillOpacity="0.4">
    <g transform="translate(85.929291, 29.401665)">
      <g>
        <path d="M 6.71875 -7.75 C 6.90625 -7.75 7.050781 -7.707031 7.15625 -7.625 C 7.257812 -7.550781 7.3125 -7.445312 7.3125 -7.3125 C 7.3125 -7.269531 7.304688 -7.195312 7.296875 -7.09375 C 7.160156 -6.65625 6.859375 -6.4375 6.390625 -6.4375 L 5.515625 -6.4375 L 4.390625 -2.71875 C 4.335938 -2.570312 4.3125 -2.414062 4.3125 -2.25 C 4.3125 -2.070312 4.359375 -1.945312 4.453125 -1.875 C 4.554688 -1.8125 4.703125 -1.78125 4.890625 -1.78125 C 5.046875 -1.78125 5.242188 -1.796875 5.484375 -1.828125 C 5.609375 -1.859375 5.710938 -1.875 5.796875 -1.875 C 5.867188 -1.875 5.921875 -1.851562 5.953125 -1.8125 C 5.992188 -1.769531 6.015625 -1.710938 6.015625 -1.640625 C 6.023438 -1.441406 5.875 -1.195312 5.5625 -0.90625 C 5.257812 -0.625 4.847656 -0.378906 4.328125 -0.171875 C 3.804688 0.0351562 3.226562 0.140625 2.59375 0.140625 C 1.914062 0.140625 1.367188 -0.015625 0.953125 -0.328125 C 0.546875 -0.640625 0.34375 -1.066406 0.34375 -1.609375 C 0.34375 -1.859375 0.382812 -2.097656 0.46875 -2.328125 L 1.421875 -5.3125 C 1.472656 -5.476562 1.5 -5.613281 1.5 -5.71875 C 1.5 -5.914062 1.453125 -6.082031 1.359375 -6.21875 C 1.265625 -6.363281 1.132812 -6.507812 0.96875 -6.65625 C 0.8125 -6.800781 0.703125 -6.921875 0.640625 -7.015625 C 0.585938 -7.109375 0.570312 -7.21875 0.59375 -7.34375 C 0.632812 -7.476562 0.71875 -7.578125 0.84375 -7.640625 C 0.976562 -7.710938 1.1875 -7.75 1.46875 -7.75 L 2.3125 -7.75 L 3.265625 -8.703125 C 3.597656 -9.035156 3.898438 -9.265625 4.171875 -9.390625 C 4.441406 -9.523438 4.800781 -9.59375 5.25 -9.59375 C 5.875 -9.59375 6.1875 -9.351562 6.1875 -8.875 C 6.1875 -8.71875 6.164062 -8.578125 6.125 -8.453125 L 5.921875 -7.75 Z M 6.71875 -7.75 "/>
      </g>
    </g>
  </g>
  <g fill="#a6a6a6" fillOpacity="0.4">
    <g transform="translate(92.389661, 29.401665)">
      <g>
        <path d="M 7.96875 -7.953125 C 8.40625 -7.953125 8.753906 -7.773438 9.015625 -7.421875 C 9.285156 -7.066406 9.421875 -6.582031 9.421875 -5.96875 C 9.421875 -5.4375 9.328125 -4.863281 9.140625 -4.25 C 8.765625 -3.019531 8.164062 -1.859375 7.34375 -0.765625 C 6.53125 0.328125 5.597656 1.203125 4.546875 1.859375 C 3.492188 2.523438 2.441406 2.859375 1.390625 2.859375 C 0.859375 2.859375 0.40625 2.765625 0.03125 2.578125 C -0.34375 2.398438 -0.625 2.160156 -0.8125 1.859375 C -1.007812 1.554688 -1.109375 1.238281 -1.109375 0.90625 C -1.109375 0.75 -1.082031 0.582031 -1.03125 0.40625 C -0.945312 0.125 -0.796875 -0.0859375 -0.578125 -0.234375 C -0.367188 -0.390625 -0.117188 -0.46875 0.171875 -0.46875 C 0.628906 -0.46875 1.003906 -0.3125 1.296875 0 C 1.597656 0.320312 1.785156 0.757812 1.859375 1.3125 C 2.503906 1.28125 3.097656 1.003906 3.640625 0.484375 C 3.128906 0.390625 2.75 0.21875 2.5 -0.03125 C 2.257812 -0.289062 2.09375 -0.691406 2 -1.234375 L 1.390625 -4.921875 C 1.367188 -5.109375 1.328125 -5.238281 1.265625 -5.3125 C 1.210938 -5.382812 1.140625 -5.421875 1.046875 -5.421875 C 0.984375 -5.421875 0.898438 -5.382812 0.796875 -5.3125 C 0.703125 -5.25 0.632812 -5.21875 0.59375 -5.21875 C 0.519531 -5.21875 0.484375 -5.300781 0.484375 -5.46875 C 0.484375 -5.613281 0.507812 -5.765625 0.5625 -5.921875 C 0.738281 -6.492188 1.070312 -6.976562 1.5625 -7.375 C 2.050781 -7.769531 2.625 -7.96875 3.28125 -7.96875 C 3.914062 -7.96875 4.382812 -7.773438 4.6875 -7.390625 C 5 -7.015625 5.203125 -6.429688 5.296875 -5.640625 L 5.734375 -2.328125 C 5.765625 -2.078125 5.859375 -1.953125 6.015625 -1.953125 C 6.191406 -1.953125 6.398438 -2.113281 6.640625 -2.4375 C 6.878906 -2.769531 7.113281 -3.234375 7.34375 -3.828125 C 7.050781 -4.097656 6.820312 -4.410156 6.65625 -4.765625 C 6.5 -5.117188 6.421875 -5.492188 6.421875 -5.890625 C 6.421875 -6.203125 6.457031 -6.484375 6.53125 -6.734375 C 6.65625 -7.128906 6.84375 -7.429688 7.09375 -7.640625 C 7.351562 -7.847656 7.644531 -7.953125 7.96875 -7.953125 Z M 7.96875 -7.953125 "/>
      </g>
    </g>
  </g>
  <g fill="#ab532a" fillOpacity="1">
    <g transform="translate(6.959659, 28.737685)">
      <g>
        <path d="M 5.234375 0.09375 C 4.390625 0.09375 3.628906 -0.0625 2.953125 -0.375 C 2.285156 -0.6875 1.753906 -1.144531 1.359375 -1.75 C 0.960938 -2.351562 0.765625 -3.085938 0.765625 -3.953125 C 0.765625 -4.554688 0.867188 -5.207031 1.078125 -5.90625 C 1.546875 -7.40625 2.242188 -8.488281 3.171875 -9.15625 C 4.097656 -9.820312 5.09375 -10.15625 6.15625 -10.15625 C 6.726562 -10.15625 7.234375 -10.070312 7.671875 -9.90625 C 8.117188 -9.738281 8.53125 -9.492188 8.90625 -9.171875 L 9.296875 -9.484375 C 9.566406 -9.691406 9.796875 -9.835938 9.984375 -9.921875 C 10.171875 -10.003906 10.378906 -10.046875 10.609375 -10.046875 C 10.859375 -10.046875 11.054688 -9.988281 11.203125 -9.875 C 11.359375 -9.757812 11.4375 -9.597656 11.4375 -9.390625 C 11.4375 -9.285156 11.414062 -9.175781 11.375 -9.0625 L 10.53125 -6.71875 C 10.445312 -6.445312 10.34375 -6.253906 10.21875 -6.140625 C 10.09375 -6.035156 9.90625 -5.984375 9.65625 -5.984375 C 9.394531 -5.984375 9.179688 -6.070312 9.015625 -6.25 C 8.847656 -6.4375 8.660156 -6.757812 8.453125 -7.21875 C 8.210938 -7.6875 8.015625 -7.992188 7.859375 -8.140625 C 7.710938 -8.296875 7.492188 -8.375 7.203125 -8.375 C 6.785156 -8.375 6.382812 -8.117188 6 -7.609375 C 5.625 -7.109375 5.28125 -6.351562 4.96875 -5.34375 C 4.707031 -4.488281 4.578125 -3.773438 4.578125 -3.203125 C 4.578125 -2.703125 4.671875 -2.328125 4.859375 -2.078125 C 5.054688 -1.835938 5.316406 -1.71875 5.640625 -1.71875 C 6.109375 -1.71875 6.492188 -1.820312 6.796875 -2.03125 C 7.109375 -2.238281 7.421875 -2.523438 7.734375 -2.890625 C 7.941406 -3.109375 8.109375 -3.269531 8.234375 -3.375 C 8.359375 -3.476562 8.488281 -3.53125 8.625 -3.53125 C 8.8125 -3.53125 9.003906 -3.4375 9.203125 -3.25 C 9.398438 -3.070312 9.492188 -2.894531 9.484375 -2.71875 C 9.492188 -2.5 9.316406 -2.15625 8.953125 -1.6875 C 8.585938 -1.226562 8.082031 -0.816406 7.4375 -0.453125 C 6.789062 -0.0859375 6.054688 0.09375 5.234375 0.09375 Z M 5.234375 0.09375 "/>
      </g>
    </g>
  </g>
  <g fill="#ab532a" fillOpacity="1">
    <g transform="translate(17.35634, 28.737685)">
      <g>
        <path d="M 5.8125 -7.953125 C 7.175781 -7.953125 8.179688 -7.675781 8.828125 -7.125 C 9.472656 -6.570312 9.796875 -5.847656 9.796875 -4.953125 C 9.796875 -4.660156 9.757812 -4.328125 9.6875 -3.953125 C 9.488281 -3.128906 9.128906 -2.410156 8.609375 -1.796875 C 8.085938 -1.179688 7.445312 -0.703125 6.6875 -0.359375 C 5.9375 -0.0234375 5.117188 0.140625 4.234375 0.140625 C 2.847656 0.140625 1.820312 -0.132812 1.15625 -0.6875 C 0.488281 -1.25 0.15625 -1.992188 0.15625 -2.921875 C 0.15625 -3.222656 0.191406 -3.566406 0.265625 -3.953125 C 0.460938 -4.734375 0.828125 -5.425781 1.359375 -6.03125 C 1.898438 -6.632812 2.554688 -7.101562 3.328125 -7.4375 C 4.109375 -7.78125 4.9375 -7.953125 5.8125 -7.953125 Z M 5.765625 -6.609375 C 5.554688 -6.609375 5.332031 -6.421875 5.09375 -6.046875 C 4.863281 -5.671875 4.585938 -4.960938 4.265625 -3.921875 C 3.941406 -2.878906 3.78125 -2.148438 3.78125 -1.734375 C 3.78125 -1.503906 3.816406 -1.351562 3.890625 -1.28125 C 3.960938 -1.207031 4.054688 -1.171875 4.171875 -1.171875 C 4.390625 -1.148438 4.609375 -1.328125 4.828125 -1.703125 C 5.054688 -2.085938 5.34375 -2.832031 5.6875 -3.9375 C 5.988281 -4.90625 6.140625 -5.613281 6.140625 -6.0625 C 6.140625 -6.269531 6.109375 -6.410156 6.046875 -6.484375 C 5.984375 -6.566406 5.890625 -6.609375 5.765625 -6.609375 Z M 5.765625 -6.609375 "/>
      </g>
    </g>
  </g>
  <g fill="#ab532a" fillOpacity="1">
    <g transform="translate(27.212156, 28.737685)">
      <g>
        <path d="M 14.296875 -2.078125 C 14.273438 -2.035156 14.265625 -1.972656 14.265625 -1.890625 C 14.265625 -1.816406 14.28125 -1.757812 14.3125 -1.71875 C 14.351562 -1.6875 14.398438 -1.671875 14.453125 -1.671875 C 14.578125 -1.671875 14.679688 -1.722656 14.765625 -1.828125 C 14.847656 -1.929688 14.90625 -1.984375 14.9375 -1.984375 C 14.988281 -1.984375 15.03125 -1.945312 15.0625 -1.875 C 15.09375 -1.8125 15.109375 -1.738281 15.109375 -1.65625 C 15.117188 -1.363281 15.019531 -1.078125 14.8125 -0.796875 C 14.613281 -0.523438 14.320312 -0.300781 13.9375 -0.125 C 13.550781 0.0507812 13.085938 0.140625 12.546875 0.140625 C 11.890625 0.140625 11.363281 -0.0078125 10.96875 -0.3125 C 10.582031 -0.625 10.382812 -1.035156 10.375 -1.546875 C 10.375 -1.921875 10.460938 -2.335938 10.640625 -2.796875 L 11.46875 -4.953125 C 11.519531 -5.085938 11.546875 -5.195312 11.546875 -5.28125 C 11.546875 -5.40625 11.5 -5.503906 11.40625 -5.578125 C 11.320312 -5.660156 11.222656 -5.703125 11.109375 -5.703125 C 10.941406 -5.703125 10.765625 -5.625 10.578125 -5.46875 C 10.398438 -5.320312 10.238281 -5.085938 10.09375 -4.765625 L 9.28125 -2.078125 C 9.257812 -2.035156 9.25 -1.972656 9.25 -1.890625 C 9.25 -1.816406 9.265625 -1.757812 9.296875 -1.71875 C 9.328125 -1.6875 9.375 -1.671875 9.4375 -1.671875 C 9.5625 -1.671875 9.664062 -1.722656 9.75 -1.828125 C 9.832031 -1.929688 9.890625 -1.984375 9.921875 -1.984375 C 9.972656 -1.984375 10.015625 -1.945312 10.046875 -1.875 C 10.078125 -1.8125 10.09375 -1.738281 10.09375 -1.65625 C 10.09375 -1.363281 9.992188 -1.078125 9.796875 -0.796875 C 9.597656 -0.523438 9.304688 -0.300781 8.921875 -0.125 C 8.535156 0.0507812 8.070312 0.140625 7.53125 0.140625 C 6.863281 0.140625 6.332031 -0.0078125 5.9375 -0.3125 C 5.550781 -0.625 5.351562 -1.035156 5.34375 -1.546875 C 5.34375 -1.921875 5.4375 -2.335938 5.625 -2.796875 L 6.453125 -4.953125 C 6.503906 -5.085938 6.53125 -5.195312 6.53125 -5.28125 C 6.53125 -5.40625 6.484375 -5.503906 6.390625 -5.578125 C 6.304688 -5.660156 6.207031 -5.703125 6.09375 -5.703125 C 5.914062 -5.703125 5.738281 -5.628906 5.5625 -5.484375 C 5.382812 -5.335938 5.234375 -5.101562 5.109375 -4.78125 L 4.125 -1.5625 C 4.082031 -1.445312 4.0625 -1.34375 4.0625 -1.25 C 4.0625 -1.125 4.082031 -1.023438 4.125 -0.953125 C 4.175781 -0.878906 4.25 -0.800781 4.34375 -0.71875 C 4.414062 -0.65625 4.46875 -0.597656 4.5 -0.546875 C 4.53125 -0.503906 4.535156 -0.445312 4.515625 -0.375 C 4.472656 -0.25 4.375 -0.15625 4.21875 -0.09375 C 4.070312 -0.03125 3.835938 0 3.515625 0 L 0.09375 0 C -0.164062 0 -0.351562 -0.0390625 -0.46875 -0.125 C -0.582031 -0.207031 -0.625 -0.320312 -0.59375 -0.46875 C -0.5625 -0.582031 -0.457031 -0.6875 -0.28125 -0.78125 C -0.132812 -0.863281 -0.015625 -0.957031 0.078125 -1.0625 C 0.179688 -1.175781 0.269531 -1.351562 0.34375 -1.59375 L 1.6875 -5.9375 C 1.707031 -5.988281 1.71875 -6.054688 1.71875 -6.140625 C 1.71875 -6.253906 1.691406 -6.34375 1.640625 -6.40625 C 1.597656 -6.46875 1.523438 -6.539062 1.421875 -6.625 C 1.328125 -6.707031 1.257812 -6.773438 1.21875 -6.828125 C 1.175781 -6.890625 1.171875 -6.972656 1.203125 -7.078125 C 1.265625 -7.304688 1.578125 -7.507812 2.140625 -7.6875 C 2.710938 -7.863281 3.3125 -7.953125 3.9375 -7.953125 C 4.425781 -7.953125 4.8125 -7.816406 5.09375 -7.546875 C 5.382812 -7.273438 5.523438 -6.90625 5.515625 -6.4375 C 5.921875 -7.007812 6.351562 -7.40625 6.8125 -7.625 C 7.269531 -7.84375 7.765625 -7.953125 8.296875 -7.953125 C 8.878906 -7.953125 9.351562 -7.78125 9.71875 -7.4375 C 10.082031 -7.101562 10.285156 -6.664062 10.328125 -6.125 C 10.753906 -6.8125 11.210938 -7.285156 11.703125 -7.546875 C 12.203125 -7.816406 12.738281 -7.953125 13.3125 -7.953125 C 13.925781 -7.953125 14.421875 -7.765625 14.796875 -7.390625 C 15.171875 -7.023438 15.359375 -6.546875 15.359375 -5.953125 C 15.359375 -5.640625 15.3125 -5.332031 15.21875 -5.03125 Z M 14.296875 -2.078125 "/>
      </g>
    </g>
  </g>
  <g fill="#ab532a" fillOpacity="1">
    <g transform="translate(42.95742, 28.737685)">
      <g>
        <path d="M 14.296875 -2.078125 C 14.273438 -2.035156 14.265625 -1.972656 14.265625 -1.890625 C 14.265625 -1.816406 14.28125 -1.757812 14.3125 -1.71875 C 14.351562 -1.6875 14.398438 -1.671875 14.453125 -1.671875 C 14.578125 -1.671875 14.679688 -1.722656 14.765625 -1.828125 C 14.847656 -1.929688 14.90625 -1.984375 14.9375 -1.984375 C 14.988281 -1.984375 15.03125 -1.945312 15.0625 -1.875 C 15.09375 -1.8125 15.109375 -1.738281 15.109375 -1.65625 C 15.117188 -1.363281 15.019531 -1.078125 14.8125 -0.796875 C 14.613281 -0.523438 14.320312 -0.300781 13.9375 -0.125 C 13.550781 0.0507812 13.085938 0.140625 12.546875 0.140625 C 11.890625 0.140625 11.363281 -0.0078125 10.96875 -0.3125 C 10.582031 -0.625 10.382812 -1.035156 10.375 -1.546875 C 10.375 -1.921875 10.460938 -2.335938 10.640625 -2.796875 L 11.46875 -4.953125 C 11.519531 -5.085938 11.546875 -5.195312 11.546875 -5.28125 C 11.546875 -5.40625 11.5 -5.503906 11.40625 -5.578125 C 11.320312 -5.660156 11.222656 -5.703125 11.109375 -5.703125 C 10.941406 -5.703125 10.765625 -5.625 10.578125 -5.46875 C 10.398438 -5.320312 10.238281 -5.085938 10.09375 -4.765625 L 9.28125 -2.078125 C 9.257812 -2.035156 9.25 -1.972656 9.25 -1.890625 C 9.25 -1.816406 9.265625 -1.757812 9.296875 -1.71875 C 9.328125 -1.6875 9.375 -1.671875 9.4375 -1.671875 C 9.5625 -1.671875 9.664062 -1.722656 9.75 -1.828125 C 9.832031 -1.929688 9.890625 -1.984375 9.921875 -1.984375 C 9.972656 -1.984375 10.015625 -1.945312 10.046875 -1.875 C 10.078125 -1.8125 10.09375 -1.738281 10.09375 -1.65625 C 10.09375 -1.363281 9.992188 -1.078125 9.796875 -0.796875 C 9.597656 -0.523438 9.304688 -0.300781 8.921875 -0.125 C 8.535156 0.0507812 8.070312 0.140625 7.53125 0.140625 C 6.863281 0.140625 6.332031 -0.0078125 5.9375 -0.3125 C 5.550781 -0.625 5.351562 -1.035156 5.34375 -1.546875 C 5.34375 -1.921875 5.4375 -2.335938 5.625 -2.796875 L 6.453125 -4.953125 C 6.503906 -5.085938 6.53125 -5.195312 6.53125 -5.28125 C 6.53125 -5.40625 6.484375 -5.503906 6.390625 -5.578125 C 6.304688 -5.660156 6.207031 -5.703125 6.09375 -5.703125 C 5.914062 -5.703125 5.738281 -5.628906 5.5625 -5.484375 C 5.382812 -5.335938 5.234375 -5.101562 5.109375 -4.78125 L 4.125 -1.5625 C 4.082031 -1.445312 4.0625 -1.34375 4.0625 -1.25 C 4.0625 -1.125 4.082031 -1.023438 4.125 -0.953125 C 4.175781 -0.878906 4.25 -0.800781 4.34375 -0.71875 C 4.414062 -0.65625 4.46875 -0.597656 4.5 -0.546875 C 4.53125 -0.503906 4.535156 -0.445312 4.515625 -0.375 C 4.472656 -0.25 4.375 -0.15625 4.21875 -0.09375 C 4.070312 -0.03125 3.835938 0 3.515625 0 L 0.09375 0 C -0.164062 0 -0.351562 -0.0390625 -0.46875 -0.125 C -0.582031 -0.207031 -0.625 -0.320312 -0.59375 -0.46875 C -0.5625 -0.582031 -0.457031 -0.6875 -0.28125 -0.78125 C -0.132812 -0.863281 -0.015625 -0.957031 0.078125 -1.0625 C 0.179688 -1.175781 0.269531 -1.351562 0.34375 -1.59375 L 1.6875 -5.9375 C 1.707031 -5.988281 1.71875 -6.054688 1.71875 -6.140625 C 1.71875 -6.253906 1.691406 -6.34375 1.640625 -6.40625 C 1.597656 -6.46875 1.523438 -6.539062 1.421875 -6.625 C 1.328125 -6.707031 1.257812 -6.773438 1.21875 -6.828125 C 1.175781 -6.890625 1.171875 -6.972656 1.203125 -7.078125 C 1.265625 -7.304688 1.578125 -7.507812 2.140625 -7.6875 C 2.710938 -7.863281 3.3125 -7.953125 3.9375 -7.953125 C 4.425781 -7.953125 4.8125 -7.816406 5.09375 -7.546875 C 5.382812 -7.273438 5.523438 -6.90625 5.515625 -6.4375 C 5.921875 -7.007812 6.351562 -7.40625 6.8125 -7.625 C 7.269531 -7.84375 7.765625 -7.953125 8.296875 -7.953125 C 8.878906 -7.953125 9.351562 -7.78125 9.71875 -7.4375 C 10.082031 -7.101562 10.285156 -6.664062 10.328125 -6.125 C 10.753906 -6.8125 11.210938 -7.285156 11.703125 -7.546875 C 12.203125 -7.816406 12.738281 -7.953125 13.3125 -7.953125 C 13.925781 -7.953125 14.421875 -7.765625 14.796875 -7.390625 C 15.171875 -7.023438 15.359375 -6.546875 15.359375 -5.953125 C 15.359375 -5.640625 15.3125 -5.332031 15.21875 -5.03125 Z M 14.296875 -2.078125 "/>
      </g>
    </g>
  </g>
  <g fill="#ab532a" fillOpacity="1">
    <g transform="translate(58.702686, 28.737685)">
      <g>
        <path d="M 8.921875 -2.078125 C 8.910156 -1.992188 8.90625 -1.929688 8.90625 -1.890625 C 8.90625 -1.816406 8.921875 -1.757812 8.953125 -1.71875 C 8.984375 -1.6875 9.03125 -1.671875 9.09375 -1.671875 C 9.21875 -1.671875 9.320312 -1.722656 9.40625 -1.828125 C 9.488281 -1.929688 9.546875 -1.984375 9.578125 -1.984375 C 9.628906 -1.984375 9.671875 -1.945312 9.703125 -1.875 C 9.734375 -1.8125 9.75 -1.738281 9.75 -1.65625 C 9.757812 -1.375 9.660156 -1.09375 9.453125 -0.8125 C 9.242188 -0.539062 8.945312 -0.3125 8.5625 -0.125 C 8.1875 0.0507812 7.765625 0.140625 7.296875 0.140625 C 6.703125 0.140625 6.226562 0.0195312 5.875 -0.21875 C 5.519531 -0.46875 5.296875 -0.785156 5.203125 -1.171875 C 4.835938 -0.773438 4.4375 -0.472656 4 -0.265625 C 3.570312 -0.0546875 3.128906 0.046875 2.671875 0.046875 C 1.972656 0.046875 1.382812 -0.125 0.90625 -0.46875 C 0.4375 -0.8125 0.203125 -1.296875 0.203125 -1.921875 C 0.203125 -2.203125 0.25 -2.492188 0.34375 -2.796875 L 1.3125 -5.9375 C 1.34375 -6.03125 1.359375 -6.101562 1.359375 -6.15625 C 1.359375 -6.269531 1.332031 -6.359375 1.28125 -6.421875 C 1.226562 -6.492188 1.148438 -6.5625 1.046875 -6.625 C 0.953125 -6.707031 0.882812 -6.773438 0.84375 -6.828125 C 0.800781 -6.890625 0.796875 -6.972656 0.828125 -7.078125 C 0.890625 -7.304688 1.203125 -7.507812 1.765625 -7.6875 C 2.335938 -7.863281 2.9375 -7.953125 3.5625 -7.953125 C 4.144531 -7.953125 4.570312 -7.84375 4.84375 -7.625 C 5.113281 -7.40625 5.25 -7.101562 5.25 -6.71875 C 5.25 -6.488281 5.210938 -6.269531 5.140625 -6.0625 L 4.1875 -2.9375 C 4.15625 -2.820312 4.140625 -2.710938 4.140625 -2.609375 C 4.140625 -2.472656 4.175781 -2.367188 4.25 -2.296875 C 4.332031 -2.222656 4.4375 -2.1875 4.5625 -2.1875 C 4.757812 -2.1875 4.914062 -2.242188 5.03125 -2.359375 C 5.15625 -2.472656 5.273438 -2.660156 5.390625 -2.921875 L 6.3125 -5.9375 C 6.34375 -6.03125 6.359375 -6.101562 6.359375 -6.15625 C 6.359375 -6.269531 6.332031 -6.359375 6.28125 -6.421875 C 6.226562 -6.492188 6.160156 -6.5625 6.078125 -6.625 C 5.972656 -6.707031 5.898438 -6.773438 5.859375 -6.828125 C 5.816406 -6.890625 5.8125 -6.972656 5.84375 -7.078125 C 5.894531 -7.304688 6.207031 -7.507812 6.78125 -7.6875 C 7.351562 -7.863281 7.945312 -7.953125 8.5625 -7.953125 C 9.144531 -7.953125 9.570312 -7.84375 9.84375 -7.625 C 10.125 -7.40625 10.265625 -7.109375 10.265625 -6.734375 C 10.265625 -6.546875 10.222656 -6.320312 10.140625 -6.0625 Z M 8.921875 -2.078125 "/>
      </g>
    </g>
  </g>
  <g fill="#ab532a" fillOpacity="1">
    <g transform="translate(69.009223, 28.737685)">
      <g>
        <path d="M 9.296875 -2.078125 C 9.285156 -2.035156 9.28125 -1.972656 9.28125 -1.890625 C 9.28125 -1.816406 9.296875 -1.757812 9.328125 -1.71875 C 9.359375 -1.6875 9.40625 -1.671875 9.46875 -1.671875 C 9.59375 -1.671875 9.695312 -1.722656 9.78125 -1.828125 C 9.863281 -1.929688 9.921875 -1.984375 9.953125 -1.984375 C 10.003906 -1.984375 10.039062 -1.945312 10.0625 -1.875 C 10.09375 -1.8125 10.109375 -1.738281 10.109375 -1.65625 C 10.117188 -1.363281 10.023438 -1.078125 9.828125 -0.796875 C 9.628906 -0.523438 9.335938 -0.300781 8.953125 -0.125 C 8.566406 0.0507812 8.101562 0.140625 7.5625 0.140625 C 6.894531 0.140625 6.363281 -0.0078125 5.96875 -0.3125 C 5.582031 -0.625 5.382812 -1.035156 5.375 -1.546875 C 5.375 -1.921875 5.46875 -2.335938 5.65625 -2.796875 L 6.484375 -4.953125 C 6.523438 -5.085938 6.546875 -5.195312 6.546875 -5.28125 C 6.546875 -5.40625 6.503906 -5.503906 6.421875 -5.578125 C 6.335938 -5.660156 6.238281 -5.703125 6.125 -5.703125 C 5.894531 -5.703125 5.679688 -5.597656 5.484375 -5.390625 C 5.285156 -5.179688 5.140625 -4.925781 5.046875 -4.625 L 4.125 -1.5625 C 4.082031 -1.445312 4.0625 -1.34375 4.0625 -1.25 C 4.0625 -1.125 4.082031 -1.023438 4.125 -0.953125 C 4.175781 -0.878906 4.25 -0.800781 4.34375 -0.71875 C 4.414062 -0.65625 4.46875 -0.597656 4.5 -0.546875 C 4.53125 -0.503906 4.535156 -0.445312 4.515625 -0.375 C 4.472656 -0.25 4.375 -0.15625 4.21875 -0.09375 C 4.070312 -0.03125 3.835938 0 3.515625 0 L 0.09375 0 C -0.164062 0 -0.351562 -0.0390625 -0.46875 -0.125 C -0.582031 -0.207031 -0.625 -0.320312 -0.59375 -0.46875 C -0.5625 -0.582031 -0.457031 -0.6875 -0.28125 -0.78125 C -0.132812 -0.863281 -0.015625 -0.957031 0.078125 -1.0625 C 0.179688 -1.175781 0.269531 -1.351562 0.34375 -1.59375 L 1.6875 -5.9375 C 1.707031 -5.988281 1.71875 -6.054688 1.71875 -6.140625 C 1.71875 -6.253906 1.691406 -6.34375 1.640625 -6.40625 C 1.597656 -6.46875 1.523438 -6.539062 1.421875 -6.625 C 1.328125 -6.707031 1.257812 -6.773438 1.21875 -6.828125 C 1.175781 -6.890625 1.171875 -6.972656 1.203125 -7.078125 C 1.265625 -7.304688 1.578125 -7.507812 2.140625 -7.6875 C 2.710938 -7.863281 3.3125 -7.953125 3.9375 -7.953125 C 4.4375 -7.953125 4.832031 -7.8125 5.125 -7.53125 C 5.414062 -7.257812 5.546875 -6.878906 5.515625 -6.390625 C 5.921875 -6.984375 6.351562 -7.390625 6.8125 -7.609375 C 7.28125 -7.835938 7.785156 -7.953125 8.328125 -7.953125 C 8.941406 -7.953125 9.4375 -7.765625 9.8125 -7.390625 C 10.1875 -7.023438 10.375 -6.546875 10.375 -5.953125 C 10.375 -5.640625 10.320312 -5.332031 10.21875 -5.03125 Z M 9.296875 -2.078125 "/>
      </g>
    </g>
  </g>
  <g fill="#ab532a" fillOpacity="1">
    <g transform="translate(79.766484, 28.737685)">
      <g>
        <path d="M 3.953125 -7.953125 C 4.535156 -7.953125 4.960938 -7.84375 5.234375 -7.625 C 5.503906 -7.40625 5.640625 -7.101562 5.640625 -6.71875 C 5.640625 -6.488281 5.601562 -6.269531 5.53125 -6.0625 L 4.15625 -1.5625 C 4.125 -1.445312 4.109375 -1.34375 4.109375 -1.25 C 4.109375 -1.113281 4.128906 -1.007812 4.171875 -0.9375 C 4.222656 -0.863281 4.296875 -0.789062 4.390625 -0.71875 C 4.460938 -0.644531 4.515625 -0.585938 4.546875 -0.546875 C 4.578125 -0.503906 4.582031 -0.445312 4.5625 -0.375 C 4.507812 -0.25 4.40625 -0.15625 4.25 -0.09375 C 4.101562 -0.03125 3.875 0 3.5625 0 L 0.140625 0 C -0.117188 0 -0.304688 -0.0390625 -0.421875 -0.125 C -0.546875 -0.207031 -0.585938 -0.320312 -0.546875 -0.46875 C -0.515625 -0.582031 -0.410156 -0.6875 -0.234375 -0.78125 C -0.0859375 -0.863281 0.03125 -0.957031 0.125 -1.0625 C 0.226562 -1.175781 0.316406 -1.351562 0.390625 -1.59375 L 1.703125 -5.9375 C 1.734375 -6.03125 1.75 -6.101562 1.75 -6.15625 C 1.75 -6.269531 1.722656 -6.359375 1.671875 -6.421875 C 1.617188 -6.492188 1.539062 -6.5625 1.4375 -6.625 C 1.34375 -6.707031 1.273438 -6.773438 1.234375 -6.828125 C 1.191406 -6.890625 1.1875 -6.972656 1.21875 -7.078125 C 1.28125 -7.304688 1.59375 -7.507812 2.15625 -7.6875 C 2.726562 -7.863281 3.328125 -7.953125 3.953125 -7.953125 Z M 4.953125 -11.28125 C 5.347656 -11.28125 5.675781 -11.148438 5.9375 -10.890625 C 6.195312 -10.628906 6.328125 -10.316406 6.328125 -9.953125 C 6.328125 -9.691406 6.257812 -9.4375 6.125 -9.1875 C 5.988281 -8.9375 5.796875 -8.734375 5.546875 -8.578125 C 5.304688 -8.421875 5.035156 -8.34375 4.734375 -8.34375 C 4.347656 -8.34375 4.023438 -8.46875 3.765625 -8.71875 C 3.515625 -8.976562 3.382812 -9.300781 3.375 -9.6875 C 3.375 -9.9375 3.4375 -10.179688 3.5625 -10.421875 C 3.695312 -10.671875 3.882812 -10.875 4.125 -11.03125 C 4.375 -11.195312 4.648438 -11.28125 4.953125 -11.28125 Z M 4.953125 -11.28125 "/>
      </g>
    </g>
  </g>
  <g fill="#ab532a" fillOpacity="1">
    <g transform="translate(85.265312, 28.737685)">
      <g>
        <path d="M 6.71875 -7.75 C 6.90625 -7.75 7.050781 -7.707031 7.15625 -7.625 C 7.257812 -7.550781 7.3125 -7.445312 7.3125 -7.3125 C 7.3125 -7.269531 7.304688 -7.195312 7.296875 -7.09375 C 7.160156 -6.65625 6.859375 -6.4375 6.390625 -6.4375 L 5.515625 -6.4375 L 4.390625 -2.71875 C 4.335938 -2.570312 4.3125 -2.414062 4.3125 -2.25 C 4.3125 -2.070312 4.359375 -1.945312 4.453125 -1.875 C 4.554688 -1.8125 4.703125 -1.78125 4.890625 -1.78125 C 5.046875 -1.78125 5.242188 -1.796875 5.484375 -1.828125 C 5.609375 -1.859375 5.710938 -1.875 5.796875 -1.875 C 5.867188 -1.875 5.921875 -1.851562 5.953125 -1.8125 C 5.992188 -1.769531 6.015625 -1.710938 6.015625 -1.640625 C 6.023438 -1.441406 5.875 -1.195312 5.5625 -0.90625 C 5.257812 -0.625 4.847656 -0.378906 4.328125 -0.171875 C 3.804688 0.0351562 3.226562 0.140625 2.59375 0.140625 C 1.914062 0.140625 1.367188 -0.015625 0.953125 -0.328125 C 0.546875 -0.640625 0.34375 -1.066406 0.34375 -1.609375 C 0.34375 -1.859375 0.382812 -2.097656 0.46875 -2.328125 L 1.421875 -5.3125 C 1.472656 -5.476562 1.5 -5.613281 1.5 -5.71875 C 1.5 -5.914062 1.453125 -6.082031 1.359375 -6.21875 C 1.265625 -6.363281 1.132812 -6.507812 0.96875 -6.65625 C 0.8125 -6.800781 0.703125 -6.921875 0.640625 -7.015625 C 0.585938 -7.109375 0.570312 -7.21875 0.59375 -7.34375 C 0.632812 -7.476562 0.71875 -7.578125 0.84375 -7.640625 C 0.976562 -7.710938 1.1875 -7.75 1.46875 -7.75 L 2.3125 -7.75 L 3.265625 -8.703125 C 3.597656 -9.035156 3.898438 -9.265625 4.171875 -9.390625 C 4.441406 -9.523438 4.800781 -9.59375 5.25 -9.59375 C 5.875 -9.59375 6.1875 -9.351562 6.1875 -8.875 C 6.1875 -8.71875 6.164062 -8.578125 6.125 -8.453125 L 5.921875 -7.75 Z M 6.71875 -7.75 "/>
      </g>
    </g>
  </g>
  <g fill="#ab532a" fillOpacity="1">
    <g transform="translate(91.725681, 28.737685)">
      <g>
        <path d="M 7.96875 -7.953125 C 8.40625 -7.953125 8.753906 -7.773438 9.015625 -7.421875 C 9.285156 -7.066406 9.421875 -6.582031 9.421875 -5.96875 C 9.421875 -5.4375 9.328125 -4.863281 9.140625 -4.25 C 8.765625 -3.019531 8.164062 -1.859375 7.34375 -0.765625 C 6.53125 0.328125 5.597656 1.203125 4.546875 1.859375 C 3.492188 2.523438 2.441406 2.859375 1.390625 2.859375 C 0.859375 2.859375 0.40625 2.765625 0.03125 2.578125 C -0.34375 2.398438 -0.625 2.160156 -0.8125 1.859375 C -1.007812 1.554688 -1.109375 1.238281 -1.109375 0.90625 C -1.109375 0.75 -1.082031 0.582031 -1.03125 0.40625 C -0.945312 0.125 -0.796875 -0.0859375 -0.578125 -0.234375 C -0.367188 -0.390625 -0.117188 -0.46875 0.171875 -0.46875 C 0.628906 -0.46875 1.003906 -0.3125 1.296875 0 C 1.597656 0.320312 1.785156 0.757812 1.859375 1.3125 C 2.503906 1.28125 3.097656 1.003906 3.640625 0.484375 C 3.128906 0.390625 2.75 0.21875 2.5 -0.03125 C 2.257812 -0.289062 2.09375 -0.691406 2 -1.234375 L 1.390625 -4.921875 C 1.367188 -5.109375 1.328125 -5.238281 1.265625 -5.3125 C 1.210938 -5.382812 1.140625 -5.421875 1.046875 -5.421875 C 0.984375 -5.421875 0.898438 -5.382812 0.796875 -5.3125 C 0.703125 -5.25 0.632812 -5.21875 0.59375 -5.21875 C 0.519531 -5.21875 0.484375 -5.300781 0.484375 -5.46875 C 0.484375 -5.613281 0.507812 -5.765625 0.5625 -5.921875 C 0.738281 -6.492188 1.070312 -6.976562 1.5625 -7.375 C 2.050781 -7.769531 2.625 -7.96875 3.28125 -7.96875 C 3.914062 -7.96875 4.382812 -7.773438 4.6875 -7.390625 C 5 -7.015625 5.203125 -6.429688 5.296875 -5.640625 L 5.734375 -2.328125 C 5.765625 -2.078125 5.859375 -1.953125 6.015625 -1.953125 C 6.191406 -1.953125 6.398438 -2.113281 6.640625 -2.4375 C 6.878906 -2.769531 7.113281 -3.234375 7.34375 -3.828125 C 7.050781 -4.097656 6.820312 -4.410156 6.65625 -4.765625 C 6.5 -5.117188 6.421875 -5.492188 6.421875 -5.890625 C 6.421875 -6.203125 6.457031 -6.484375 6.53125 -6.734375 C 6.65625 -7.128906 6.84375 -7.429688 7.09375 -7.640625 C 7.351562 -7.847656 7.644531 -7.953125 7.96875 -7.953125 Z M 7.96875 -7.953125 "/>
      </g>
    </g>
  </g>
</svg>