<?xml version="1.0" encoding="UTF-8" standalone="no"?><!-- Generator: Gravit.io --><svg xmlns="http://www.w3.org/2000/svg" xmlns:xlink="http://www.w3.org/1999/xlink" style="isolation:isolate" viewBox="0 0 1920 1080" width="1920pt" height="1080pt"><defs><clipPath id="_clipPath_TYKd3c81DZ8F0gRXk1oyBJZLAFC2mkfM"><rect width="1920" height="1080"/></clipPath></defs><g clip-path="url(#_clipPath_TYKd3c81DZ8F0gRXk1oyBJZLAFC2mkfM)"><clipPath id="_clipPath_jvD172ufc41BVPjqqeiGvLTQOJ46rFT8"><rect x="0" y="0" width="1920" height="1080" transform="matrix(1,0,0,1,0,0)" fill="rgb(255,255,255)"/></clipPath><g clip-path="url(#_clipPath_jvD172ufc41BVPjqqeiGvLTQOJ46rFT8)"><g><clipPath id="_clipPath_MuugopLEBVmvptYwn00zNifmf1S7wizA"><rect x="-2006.667" y="-1319.833" width="5468.333" height="2639.667" transform="matrix(1,0,0,1,0,0)" fill="rgb(255,255,255)"/></clipPath><g clip-path="url(#_clipPath_MuugopLEBVmvptYwn00zNifmf1S7wizA)"><g><g><clipPath id="_clipPath_PogAeCCdwgMU1oXALw6CbvFijGvdT2rj"><path d=" M -2006.667 -1319.833 L -2006.667 1319.833 L 3461.667 1319.833 L 3461.667 -1319.833 L -2006.667 -1319.833 L -2006.667 -1319.833 Z " fill="rgb(255,255,255)"/></clipPath><g clip-path="url(#_clipPath_PogAeCCdwgMU1oXALw6CbvFijGvdT2rj)"><g><g><defs><filter id="q3IY2Se0P812YPWQdpG9JZ1oDaarGgQx" x="-200%" y="-200%" width="400%" height="400%" filterUnits="objectBoundingBox" color-interpolation-filters="sRGB"><feGaussianBlur xmlns="http://www.w3.org/2000/svg" in="SourceGraphic" stdDeviation="2.146804531419514"/><feOffset xmlns="http://www.w3.org/2000/svg" dx="0" dy="0" result="pf_100_offsetBlur"/><feFlood xmlns="http://www.w3.org/2000/svg" flood-color="#000000" flood-opacity="0.65"/><feComposite xmlns="http://www.w3.org/2000/svg" in2="pf_100_offsetBlur" operator="in" result="pf_100_dropShadow"/><feBlend xmlns="http://www.w3.org/2000/svg" in="SourceGraphic" in2="pf_100_dropShadow" mode="normal"/></filter></defs><g filter="url(#q3IY2Se0P812YPWQdpG9JZ1oDaarGgQx)"><linearGradient id="_lgradient_2" x1="0.4999999999999999" y1="1" x2="0.49999999999999994" y2="0" gradientTransform="matrix(5468.334,0,0,1163.741,-2006.667,156.092)" gradientUnits="userSpaceOnUse"><stop offset="0.4166666666666667%" stop-opacity="1" style="stop-color:rgb(1,12,15)"/><stop offset="97.5%" stop-opacity="1" style="stop-color:rgb(3,30,37)"/></linearGradient><path d=" M 3426.669 496.979 C 3416.289 493.582 3406.19 489.385 3396.493 484.414 C 3404.495 482.927 3412.288 480.34 3419.551 476.706 C 3419.214 479.759 3418.886 482.804 3418.549 485.857 C 3429.841 486.059 3442.072 484.053 3451.085 477.903 C 3443.494 484.898 3435.309 491.268 3426.669 496.979 Z  M 3429.267 553.987 C 3427.936 553.635 3426.615 553.265 3425.302 552.869 C 3431.144 550.019 3436.85 546.789 3442.4 543.587 C 3437.843 547.537 3434.061 550.775 3429.267 553.987 Z  M 3435.929 619.486 C 3434.38 618.632 3432.849 617.726 3431.336 616.785 C 3432.283 616.459 3433.222 616.116 3434.161 615.773 C 3436.184 616.151 3438.217 616.468 3440.258 616.714 C 3438.836 617.664 3437.387 618.588 3435.929 619.486 Z  M 3426.387 697.954 C 3426.168 697.857 3425.94 697.761 3425.721 697.655 C 3423.89 696.846 3421.994 695.922 3420.527 694.619 C 3421.657 694.285 3422.787 693.933 3423.908 693.572 C 3426.305 694.065 3428.72 694.479 3431.144 694.804 C 3429.586 695.895 3428 696.951 3426.387 697.954 Z  M 3389.485 480.657 C 3386.14 478.774 3382.841 476.812 3379.614 474.744 C 3379.551 474.7 3379.478 474.656 3379.414 474.612 C 3384.217 474.63 3389.02 474.594 3393.814 474.471 C 3392.656 476.715 3391.189 478.792 3389.485 480.657 Z  M 3369.543 466.095 C 3369.243 465.743 3368.951 465.373 3368.669 465.004 C 3370.391 465.136 3372.114 465.259 3373.836 465.356 C 3372.396 465.558 3370.965 465.813 3369.543 466.095 Z  M 3354.214 408.286 C 3361.368 410.6 3368.851 411.938 3376.37 412.29 C 3373.317 413.794 3370.3 415.369 3367.338 417.05 C 3381.373 415.325 3395.4 413.601 3409.435 411.876 C 3405.589 415.651 3401.734 419.425 3397.879 423.2 C 3408.642 424.538 3419.688 423.561 3430.041 420.376 C 3427.116 421.484 3425.011 424.406 3424.919 427.476 C 3434.425 428.691 3444.305 428.761 3453.583 426.667 C 3442.081 430.776 3430.588 434.876 3419.087 438.985 C 3416.863 439.777 3414.63 440.578 3412.388 441.361 C 3394.743 436.838 3377.901 429.263 3362.981 418.95 C 3359.072 416.249 3355.007 412.914 3354.214 408.286 Z  M 3395.026 404.503 C 3393.759 404.942 3392.492 405.409 3391.225 405.884 C 3390.013 405.277 3388.819 404.643 3387.625 404.001 C 3390.086 404.168 3392.565 404.335 3395.026 404.503 Z  M 3404.459 394.771 C 3404.158 394.859 3403.866 394.956 3403.575 395.044 C 3403.201 394.771 3402.818 394.507 3402.445 394.225 C 3403.11 394.437 3403.784 394.613 3404.459 394.771 Z  M 3237.72 438.677 C 3231.723 437.674 3225.772 436.407 3219.93 434.718 C 3207.389 431.11 3195.249 425.444 3185.452 417.006 C 3199.378 415.299 3213.295 413.583 3227.221 411.876 C 3223.366 415.651 3219.511 419.425 3215.665 423.2 C 3226.419 424.538 3237.474 423.561 3247.818 420.376 C 3244.902 421.484 3242.788 424.406 3242.705 427.476 C 3252.202 428.691 3262.082 428.761 3271.36 426.667 C 3260.149 430.67 3248.939 434.674 3237.72 438.677 Z  M 3252.011 491.726 C 3242.359 489.394 3232.935 486.156 3223.913 482.056 C 3228.533 480.648 3233.027 478.862 3237.328 476.706 C 3237 479.759 3236.663 482.804 3236.335 485.857 C 3247.618 486.059 3259.849 484.053 3268.871 477.903 C 3263.522 482.821 3257.889 487.441 3252.011 491.726 Z  M 3258.627 544.924 C 3258.473 544.862 3258.308 544.81 3258.144 544.757 C 3258.828 544.37 3259.502 543.974 3260.177 543.587 C 3259.648 544.044 3259.138 544.484 3258.627 544.924 Z  M 3244.474 624.756 C 3242.25 623.296 3240.062 621.791 3237.921 620.225 C 3237.93 620.216 3237.93 620.216 3237.93 620.216 C 3241.047 621.325 3244.2 622.31 3247.39 623.181 C 3246.424 623.718 3245.449 624.237 3244.474 624.756 Z  M 3231.514 504.827 C 3230.602 503.956 3229.7 503.085 3228.789 502.214 C 3230.201 502.813 3231.623 503.393 3233.045 503.974 C 3232.534 504.256 3232.024 504.537 3231.514 504.827 Z  M 3211.044 475.466 C 3210.497 475.158 3209.959 474.832 3209.422 474.515 C 3210.151 474.498 3210.871 474.489 3211.6 474.471 C 3211.427 474.814 3211.226 475.14 3211.044 475.466 Z  M 3207.28 516.275 C 3205.922 514.7 3204.719 513.037 3203.789 511.303 C 3206.241 512.57 3208.784 513.67 3211.381 514.612 C 3210.023 515.184 3208.656 515.738 3207.28 516.275 Z  M 3181.752 413.574 C 3185.015 413.645 3188.277 413.636 3191.549 413.592 C 3189.453 414.656 3187.393 415.765 3185.352 416.918 C 3184.112 415.844 3182.909 414.736 3181.752 413.574 Z  M 3197.191 403.447 C 3202.395 403.799 3207.599 404.151 3212.812 404.503 C 3209.011 405.831 3205.257 407.292 3201.556 408.884 C 3197.327 407.072 3193.099 405.25 3188.87 403.438 C 3191.64 403.438 3194.411 403.447 3197.191 403.447 Z  M 3219.948 395.457 C 3216.631 396.443 3213.295 397.331 3209.923 398.115 C 3207.344 396.513 3205.056 394.569 3203.324 392.07 C 3208.784 393.557 3214.343 394.674 3219.948 395.457 Z  M 3074.29 488.796 C 3070.407 490.186 3066.516 491.568 3062.606 492.914 C 3059.052 490.864 3055.579 488.673 3052.207 486.341 C 3048.297 483.64 3044.232 480.314 3043.439 475.677 C 3057.493 480.235 3072.795 481.018 3087.268 477.964 C 3094.505 478.404 3101.814 478.052 3108.786 476.477 C 3097.284 480.587 3085.792 484.696 3074.29 488.796 Z  M 3079.357 548.417 C 3075.785 546.429 3072.276 544.334 3068.831 542.135 C 3065.003 539.68 3061.093 536.459 3058.177 532.764 C 3059.416 532.438 3060.656 532.086 3061.886 531.699 C 3065.741 533.186 3069.742 534.304 3073.825 535.034 C 3073.798 535.245 3073.78 535.456 3073.752 535.668 C 3075.128 535.694 3076.523 535.685 3077.917 535.641 C 3084.115 536.354 3090.422 536.187 3096.555 535.096 C 3095.872 534.445 3095.188 533.785 3094.505 533.133 C 3098.059 532.086 3101.44 530.687 3104.512 528.857 C 3104.63 528.901 3104.758 528.936 3104.885 528.98 C 3096.947 536.143 3088.389 542.645 3079.357 548.417 Z  M 3082.684 604.95 C 3081.772 604.29 3080.879 603.621 3080.004 602.926 C 3081.162 602.363 3082.31 601.791 3083.459 601.202 C 3084.598 601.518 3085.737 601.826 3086.885 602.117 C 3085.555 603.067 3084.169 604.009 3082.684 604.95 Z  M 3085.245 470.186 C 3083.541 470.829 3082.137 472.096 3081.226 473.644 C 3080.15 473.116 3079.093 472.571 3078.045 472.025 C 3080.469 471.524 3082.875 470.917 3085.245 470.186 Z  M 2996.886 347.926 C 2995.956 347.283 2995.045 346.615 2994.161 345.928 C 2995.19 346.254 2996.248 346.518 2997.314 346.729 C 2997.177 347.134 2997.031 347.53 2996.886 347.926 Z  M 2991.499 361.441 C 2985.402 358.951 2979.487 356.012 2973.864 352.615 C 2980.69 353.707 2987.617 354.217 2994.534 354.155 C 2993.568 356.601 2992.566 359.03 2991.499 361.441 Z  M 2982.44 378.625 C 2981.246 380.508 2979.979 382.356 2978.658 384.159 C 2970.273 380.385 2962.235 375.871 2954.688 370.653 C 2950.779 367.952 2946.714 364.626 2945.921 359.989 C 2960.476 364.705 2976.352 365.374 2991.272 361.942 C 2988.701 367.688 2985.812 373.284 2982.44 378.625 Z  M 2973.262 427.661 C 2972.615 427.256 2971.959 426.86 2971.321 426.447 C 2971.203 426.368 2971.084 426.289 2970.966 426.209 C 2973.982 425.083 2976.872 423.623 2979.551 421.845 C 2977.51 423.842 2975.404 425.778 2973.262 427.661 Z  M 2828.579 390.688 C 2827.942 390.917 2827.304 391.146 2826.666 391.375 C 2815.146 385.048 2805.148 376.188 2795.97 366.403 C 2803.626 365.462 2811.272 364.52 2818.928 363.579 C 2815.073 367.362 2811.227 371.137 2807.371 374.912 C 2818.126 376.24 2829.181 375.273 2839.525 372.087 C 2836.609 373.187 2834.494 376.117 2834.412 379.188 C 2843.909 380.394 2853.798 380.473 2863.076 378.379 C 2851.574 382.479 2840.072 386.588 2828.579 390.688 Z  M 2848.931 439.487 C 2844.729 438.871 2840.546 438.158 2836.408 437.287 C 2845.103 436.539 2853.752 434.26 2860.578 429.615 C 2856.833 433.055 2852.941 436.346 2848.931 439.487 Z  M 2838.605 505.787 C 2837.894 505.1 2837.183 504.423 2836.472 503.745 C 2836.791 503.587 2837.101 503.42 2837.42 503.261 C 2838.432 503.684 2839.443 504.106 2840.455 504.511 C 2839.853 504.942 2839.243 505.364 2838.605 505.787 Z  M 2829.464 452.914 C 2828.188 452.201 2826.921 451.48 2825.663 450.723 C 2827.677 451.049 2829.7 451.304 2831.724 451.524 C 2830.976 451.99 2830.22 452.456 2829.464 452.914 Z  M 2819.283 432.553 C 2822.619 431.374 2825.882 429.993 2829.035 428.418 C 2828.789 430.723 2828.534 433.037 2828.279 435.351 C 2827.531 435.149 2826.775 434.938 2826.018 434.718 C 2823.758 434.067 2821.507 433.345 2819.283 432.553 Z  M 2814.088 517.093 C 2812.885 515.773 2811.783 514.392 2810.853 512.949 C 2811.427 512.843 2812.001 512.729 2812.575 512.614 C 2814.781 513.618 2817.041 514.506 2819.347 515.254 C 2817.606 515.896 2815.847 516.504 2814.088 517.093 Z  M 2809.413 392.07 C 2812.457 392.897 2815.528 393.601 2818.618 394.208 C 2816.795 394.841 2814.963 395.466 2813.141 396.073 C 2811.728 394.912 2810.47 393.592 2809.413 392.07 Z  M 2797.72 458.097 C 2802.878 459.768 2808.201 460.921 2813.587 461.572 C 2810.169 463.235 2806.697 464.801 2803.188 466.271 C 2800.527 464.053 2798.294 461.405 2797.72 458.097 Z  M 2785.826 354.947 C 2792.06 355.37 2798.285 355.792 2804.519 356.205 C 2800.08 357.754 2795.706 359.496 2791.413 361.406 C 2789.526 359.276 2787.658 357.121 2785.826 354.947 Z  M 2697.03 669.419 C 2692.983 669.279 2688.927 669.155 2684.881 669.076 C 2694.733 666.208 2704.312 662.398 2713.407 657.682 C 2708.231 662.002 2702.753 665.9 2697.03 669.419 Z  M 2671.246 608.918 C 2676.049 607.422 2680.77 605.469 2685.4 603.261 C 2686.54 603.824 2687.697 604.378 2688.854 604.888 C 2688.718 604.976 2688.59 605.064 2688.453 605.152 C 2686.339 606.481 2684.143 607.669 2681.91 608.778 C 2678.364 608.883 2674.801 608.936 2671.246 608.918 Z  M 2671.474 682.143 C 2657.995 679.829 2644.98 675.605 2633.205 669.006 C 2635.538 668.364 2637.844 667.616 2640.113 666.753 C 2643.941 667.123 2647.787 667.246 2651.633 667.141 C 2649.965 669.859 2648.298 672.578 2646.63 675.297 C 2655.279 674.963 2663.892 673.907 2672.358 672.174 C 2675.348 674.25 2678.51 676.08 2681.8 677.655 C 2678.419 679.257 2674.974 680.752 2671.474 682.143 Z  M 2644.288 621.404 C 2642.337 621.879 2640.378 622.337 2638.418 622.759 C 2635.155 620.454 2631.902 618.14 2628.639 615.825 C 2633.761 617.823 2638.992 619.785 2644.288 621.404 Z  M 2610.712 627.352 C 2610.211 627.405 2609.709 627.449 2609.199 627.502 C 2605.462 625.231 2601.817 622.803 2598.29 620.216 C 2605.563 622.803 2613.072 624.739 2620.701 626.015 C 2617.374 626.516 2614.048 626.974 2610.712 627.352 Z  M 2610.265 577.348 C 2610.028 577.383 2609.791 577.418 2609.564 577.462 C 2609.29 577.26 2609.026 577.058 2608.752 576.855 C 2609.254 577.022 2609.755 577.181 2610.265 577.348 Z  M 2641.271 569.578 C 2639.53 570.159 2637.78 570.722 2636.03 571.259 C 2635.028 570.203 2634.044 569.13 2633.105 568.021 C 2635.812 568.602 2638.537 569.121 2641.271 569.578 Z  M 2650.102 603.824 C 2649.801 605.135 2649.492 606.446 2649.191 607.766 C 2647.778 607.607 2646.375 607.449 2644.971 607.264 C 2646.748 606.226 2648.471 605.082 2650.102 603.824 Z  M 2656.263 659.609 C 2656.126 659.82 2655.999 660.031 2655.871 660.242 C 2655.397 659.969 2654.923 659.705 2654.45 659.433 C 2654.604 659.336 2654.759 659.239 2654.905 659.134 C 2655.352 659.301 2655.807 659.459 2656.263 659.609 Z  M 2655.124 613.564 C 2660.437 614.4 2665.887 614.303 2671.183 613.344 C 2668.986 614.154 2666.762 614.919 2664.539 615.649 C 2662.998 616.151 2661.44 616.626 2659.881 617.11 C 2658.259 615.966 2656.673 614.787 2655.124 613.564 Z  M 2703.683 593.397 C 2700.302 596.336 2697.339 598.879 2694.077 601.307 C 2692.5 601.307 2690.932 601.298 2689.356 601.298 C 2694.241 598.808 2699.016 596.09 2703.683 593.397 Z  M 2564.158 511.303 C 2576.617 517.744 2591.281 519.97 2605.134 517.515 C 2602.355 514.858 2599.584 512.201 2596.813 509.544 C 2604.906 511.497 2613.118 512.975 2621.393 513.961 C 2623.982 514.761 2626.579 515.518 2629.186 516.248 C 2622.314 517.762 2615.643 520.155 2609.409 523.376 C 2624.62 524.352 2639.867 524.651 2655.106 524.291 C 2652.7 528.936 2648.981 532.914 2644.47 535.668 C 2657.083 535.289 2669.597 532.139 2680.843 526.517 C 2680.643 528.329 2680.442 530.142 2680.251 531.954 C 2678.401 531.972 2676.551 531.998 2674.701 532.016 C 2680.451 537.551 2688.071 540.005 2696.155 541.061 C 2688.381 546.789 2680.16 551.946 2671.602 556.495 C 2638.199 553.512 2605.517 542.539 2577.41 524.555 C 2572.288 521.273 2567.02 516.609 2564.158 511.303 Z  M 2597.096 505.443 C 2595.82 505.655 2594.544 505.883 2593.277 506.156 C 2591.901 504.845 2590.534 503.525 2589.158 502.214 C 2591.792 503.323 2594.444 504.396 2597.096 505.443 Z  M 2635.128 515.166 C 2633.952 515.333 2632.777 515.527 2631.61 515.747 C 2631.364 515.457 2631.118 515.166 2630.863 514.876 C 2632.285 514.981 2633.706 515.087 2635.128 515.166 Z  M 2633.369 502.214 C 2631.865 502.434 2630.371 502.645 2628.858 502.813 C 2625.795 503.156 2622.697 503.376 2619.607 503.552 C 2618.486 502.575 2617.365 501.607 2616.217 500.666 C 2621.785 501.475 2627.646 502.214 2633.369 502.214 Z  M 2712.377 527.713 C 2710.928 529.051 2709.461 530.353 2707.966 531.638 C 2706.927 531.646 2705.879 531.664 2704.84 531.673 C 2707.52 530.608 2710.053 529.297 2712.377 527.713 Z  M 2434.668 488.796 C 2434.276 488.937 2433.884 489.077 2433.502 489.218 C 2421.845 483.015 2411.756 474.216 2402.505 464.449 C 2410.006 463.534 2417.507 462.61 2425.016 461.686 C 2421.161 465.461 2417.306 469.236 2413.46 473.019 C 2424.214 474.348 2435.27 473.371 2445.614 470.186 C 2442.697 471.295 2440.583 474.216 2440.501 477.296 C 2449.998 478.501 2459.886 478.58 2469.155 476.477 C 2457.662 480.587 2446.161 484.696 2434.668 488.796 Z  M 2455.831 536.952 C 2452.185 536.433 2448.549 535.844 2444.939 535.14 C 2452.796 534.198 2460.479 531.928 2466.667 527.713 C 2463.176 530.925 2459.558 534.005 2455.831 536.952 Z  M 2445.031 603.665 C 2444.329 602.997 2443.636 602.328 2442.934 601.659 C 2443.372 601.439 2443.809 601.21 2444.247 600.991 C 2445.222 601.386 2446.197 601.782 2447.172 602.17 C 2446.48 602.671 2445.769 603.173 2445.031 603.665 Z  M 2436.108 550.678 C 2434.55 549.825 2433.009 548.945 2431.496 548.039 C 2433.939 548.426 2436.4 548.734 2438.87 548.98 C 2437.949 549.552 2437.029 550.115 2436.108 550.678 Z  M 2434.914 678.201 C 2434.887 678.183 2434.859 678.157 2434.832 678.13 C 2434.878 678.148 2434.923 678.166 2434.96 678.183 C 2434.951 678.192 2434.932 678.201 2434.914 678.201 Z  M 2426.365 530.309 C 2429.355 529.209 2432.28 527.942 2435.124 526.517 C 2434.896 528.593 2434.668 530.679 2434.449 532.755 C 2433.584 532.518 2432.709 532.28 2431.852 532.034 C 2430.011 531.506 2428.179 530.925 2426.365 530.309 Z  M 2420.551 615.069 C 2419.311 613.784 2418.172 612.429 2417.188 611.012 C 2418.026 610.854 2418.865 610.678 2419.703 610.493 C 2421.909 611.444 2424.169 612.262 2426.475 612.966 C 2424.515 613.705 2422.538 614.4 2420.551 615.069 Z  M 2415.246 489.385 C 2418.819 490.353 2422.428 491.172 2426.065 491.84 C 2423.968 492.571 2421.872 493.292 2419.758 493.996 C 2418.035 492.694 2416.495 491.18 2415.246 489.385 Z  M 2403.553 555.403 C 2409.186 557.234 2415.009 558.448 2420.906 559.064 C 2417.242 560.876 2413.524 562.583 2409.751 564.176 C 2406.78 561.835 2404.173 559.02 2403.553 555.403 Z  M 2392.352 453.081 C 2398.44 453.495 2404.519 453.908 2410.607 454.313 C 2406.278 455.826 2402.013 457.516 2397.83 459.372 C 2395.98 457.296 2394.157 455.202 2392.352 453.081 Z  M 2311.403 523.675 C 2295.69 519.055 2280.716 511.99 2267.301 502.725 C 2263.391 500.014 2259.326 496.688 2258.533 492.051 C 2273.38 496.864 2289.621 497.48 2304.804 493.802 C 2298.452 491.26 2292.318 488.206 2286.467 484.687 C 2295.836 486.183 2305.378 486.587 2314.848 485.91 C 2311.22 487.995 2307.402 489.737 2303.383 491.04 C 2306.6 490.978 2309.817 490.916 2313.034 490.855 C 2308.605 494.779 2304.166 498.703 2299.728 502.637 C 2305.497 501.581 2311.148 499.909 2316.552 497.656 C 2315.067 501.686 2312.67 505.382 2309.589 508.4 C 2320.006 509.834 2330.943 507.353 2339.665 501.572 C 2331.107 509.94 2321.601 517.339 2311.403 523.675 Z  M 2316.342 575.351 C 2315.905 575.166 2315.468 574.981 2315.03 574.796 C 2316.935 574.541 2318.831 574.215 2320.708 573.793 C 2319.25 574.312 2317.801 574.831 2316.342 575.351 Z  M 2312.861 629.754 C 2312.524 629.754 2312.196 629.763 2311.858 629.763 C 2311.394 629.534 2310.929 629.297 2310.473 629.059 C 2313.226 627.977 2315.832 626.648 2318.211 625.029 C 2316.461 626.639 2314.666 628.205 2312.861 629.754 Z  M 2326.249 477.683 C 2323.36 480.226 2320.289 482.54 2317.035 484.581 C 2313.435 482.672 2309.981 480.481 2306.764 477.991 C 2313.061 479.979 2320.015 479.83 2326.249 477.683 Z  M 2141.465 522.654 C 2135.796 518.035 2130.483 512.878 2125.425 507.441 C 2134.429 507.907 2143.525 506.798 2152.138 504.15 C 2149.212 505.25 2147.107 508.18 2147.016 511.251 C 2156.521 512.456 2166.401 512.535 2175.679 510.441 C 2164.277 514.515 2152.876 518.58 2141.465 522.654 Z  M 2155.391 576.16 C 2146.615 573.582 2138.047 569.992 2130.364 565.144 C 2134.229 563.85 2138.002 562.293 2141.647 560.48 C 2141.31 563.525 2140.982 566.578 2140.645 569.622 C 2151.937 569.834 2164.168 567.827 2173.182 561.677 C 2167.558 566.851 2161.607 571.681 2155.391 576.16 Z  M 2116.593 497.48 C 2121.57 496.873 2126.555 496.257 2131.531 495.65 C 2128.56 498.563 2125.589 501.475 2122.618 504.388 C 2120.576 502.117 2118.571 499.812 2116.593 497.48 Z  M 2108.446 487.687 C 2111.344 487.881 2114.233 488.083 2117.122 488.277 C 2115.017 489.007 2112.92 489.79 2110.843 490.608 C 2110.04 489.632 2109.248 488.664 2108.446 487.687 Z  M 2010.38 630.423 C 2005.203 632.271 2000.009 634.127 1994.786 635.861 C 1980.997 631.435 1968.01 624.563 1957.52 614.778 C 1970.562 619.503 1984.415 622.029 1998.313 622.213 C 1993.2 618.412 1988.097 614.62 1982.984 610.819 C 1985.536 611.672 1988.097 612.447 1990.685 613.159 C 1990.184 613.652 1989.673 614.154 1989.172 614.646 C 1992.48 615.051 1995.825 615.245 1999.161 615.218 C 2004.83 616.424 2010.562 617.286 2016.331 617.823 C 2016.268 618.184 2016.222 618.553 2016.213 618.923 C 2017.863 619.134 2019.521 619.301 2021.189 619.442 C 2024.352 620.85 2027.605 622.073 2030.923 623.093 C 2024.078 625.531 2017.225 627.985 2010.38 630.423 Z  M 2019.649 677.55 C 2019.093 677.382 2018.546 677.206 2017.999 677.039 C 2019.166 676.943 2020.332 676.811 2021.499 676.661 C 2020.888 676.969 2020.269 677.259 2019.649 677.55 Z  M 2010.161 674.364 C 2008.694 673.819 2007.236 673.256 2005.778 672.666 C 2007.263 672.93 2008.758 673.141 2010.271 673.309 C 2010.234 673.661 2010.198 674.012 2010.161 674.364 Z  M 2000.51 698.702 C 2000.173 698.482 1999.835 698.262 1999.507 698.033 C 2000.018 698.165 2000.528 698.289 2001.047 698.421 C 2000.865 698.517 2000.692 698.605 2000.51 698.702 Z  M 2021.326 611.822 C 2020.506 612.13 2019.767 612.587 2019.102 613.151 C 2018.883 612.983 2018.665 612.807 2018.446 612.64 C 2019.412 612.376 2020.369 612.112 2021.326 611.822 Z  M 1860.092 440.384 C 1859.718 440.332 1859.345 440.288 1858.971 440.235 C 1860.129 439.619 1861.259 438.95 1862.352 438.22 C 1861.614 438.95 1860.849 439.663 1860.092 440.384 Z  M 1853.475 446.271 C 1852.436 445.549 1851.416 444.81 1850.413 444.036 C 1851.871 444.493 1853.366 444.837 1854.879 445.074 C 1854.414 445.47 1853.949 445.875 1853.475 446.271 Z  M 1840.351 456.24 C 1836.861 454.551 1833.434 452.72 1830.126 450.723 C 1835.366 451.559 1840.67 452.052 1845.975 452.21 C 1844.134 453.592 1842.256 454.938 1840.351 456.24 Z  M 1814.213 470.943 C 1813.119 470.23 1812.025 469.509 1810.95 468.761 C 1807.04 466.06 1802.975 462.734 1802.182 458.097 C 1811.46 461.106 1821.285 462.47 1831.055 462.17 C 1825.614 465.4 1819.991 468.33 1814.213 470.943 Z  M 1820.155 518.738 C 1817.822 516.486 1815.771 513.969 1814.331 511.303 C 1818.405 513.406 1822.707 515.052 1827.145 516.24 C 1824.812 517.076 1822.488 517.903 1820.155 518.738 Z  M 1839.24 434.304 C 1838.939 435.123 1838.592 435.923 1838.219 436.706 C 1837.143 436.46 1836.068 436.205 1835.002 435.932 C 1836.432 435.431 1837.845 434.885 1839.24 434.304 Z  M 1695.659 434.375 C 1681.897 430.266 1668.682 423.667 1658.62 413.574 C 1668.172 413.785 1677.732 413.486 1687.247 412.668 C 1680.075 409.597 1672.911 406.517 1665.738 403.438 C 1676.866 403.455 1687.995 403.473 1699.132 403.499 C 1692.023 401.027 1684.431 398.203 1680.202 392.07 C 1689.352 394.551 1698.767 396.056 1708.246 396.566 C 1704.946 399.487 1701.656 402.4 1698.357 405.321 C 1704.126 404.274 1709.777 402.602 1715.181 400.349 C 1713.696 404.379 1711.299 408.075 1708.209 411.093 C 1718.635 412.527 1729.563 410.046 1738.294 404.265 C 1725.826 416.443 1711.353 426.597 1695.659 434.375 Z  M 1702.085 482.637 C 1698.439 481.026 1694.857 479.267 1691.348 477.375 C 1700.645 478.501 1710.278 478.528 1719.328 476.477 C 1713.577 478.536 1707.835 480.587 1702.085 482.637 Z  M 1709.913 533.776 C 1709.048 533.327 1708.182 532.878 1707.316 532.412 C 1710.725 531.224 1713.951 529.684 1716.84 527.713 C 1714.58 529.799 1712.274 531.814 1709.913 533.776 Z  M 1683.583 472.879 C 1687.712 472.307 1691.804 471.418 1695.787 470.186 C 1692.952 471.26 1690.902 474.049 1690.701 477.023 C 1688.286 475.712 1685.917 474.322 1683.583 472.879 Z  M 1672.182 464.634 C 1671.462 463.895 1670.815 463.121 1670.259 462.294 C 1671.899 462.091 1673.54 461.889 1675.19 461.686 C 1674.187 462.672 1673.184 463.649 1672.182 464.634 Z  M 1711.663 393.548 C 1710.588 394.489 1709.522 395.44 1708.446 396.39 C 1706.268 395.589 1704.144 394.701 1702.066 393.724 C 1705.265 393.662 1708.464 393.601 1711.663 393.548 Z  M 1578.929 424.731 C 1566.242 420.226 1554.157 414.093 1543.12 406.465 C 1539.21 403.763 1535.136 400.429 1534.343 395.8 C 1546.292 399.663 1559.124 400.816 1571.592 399.206 C 1569.286 401.247 1566.989 403.279 1564.684 405.321 C 1570.453 404.274 1576.103 402.602 1581.508 400.349 C 1580.022 404.379 1577.625 408.075 1574.536 411.093 C 1584.962 412.527 1595.89 410.046 1604.621 404.265 C 1596.783 411.92 1588.152 418.766 1578.929 424.731 Z  M 1580.833 529.807 C 1580.651 529.702 1580.46 529.588 1580.277 529.473 C 1581.271 528.928 1582.237 528.347 1583.167 527.713 C 1582.392 528.426 1581.617 529.112 1580.833 529.807 Z  M 1577.99 393.548 C 1577.261 394.19 1576.523 394.841 1575.793 395.492 C 1574.49 394.903 1573.196 394.287 1571.92 393.662 C 1573.943 393.618 1575.967 393.583 1577.99 393.548 Z  M 1577.47 389.888 C 1575.219 391.049 1572.895 392.07 1570.507 392.958 C 1567.709 391.542 1564.966 390.037 1562.287 388.427 C 1567.308 389.228 1572.385 389.703 1577.47 389.888 Z  M 1588.17 382.919 C 1587.541 383.42 1586.894 383.896 1586.247 384.371 C 1585.008 383.526 1583.768 382.655 1582.583 381.74 C 1584.397 382.312 1586.274 382.699 1588.17 382.919 Z  M 1417.002 426.5 C 1405.847 430.486 1394.6 434.48 1383.108 437.296 C 1370.339 432.782 1358.172 426.623 1347.071 418.95 C 1344.474 417.155 1341.813 415.079 1340.081 412.527 C 1340.755 412.096 1341.421 411.638 1342.068 411.146 C 1341.147 411.181 1340.227 411.207 1339.306 411.234 C 1338.832 410.31 1338.477 409.333 1338.304 408.286 C 1353.15 413.099 1369.391 413.706 1384.575 410.028 C 1380.045 408.216 1375.625 406.13 1371.342 403.816 C 1375.133 403.35 1378.924 402.884 1382.716 402.417 C 1388.038 402.549 1393.37 402.338 1398.665 401.784 C 1397.972 401.441 1397.298 401.071 1396.614 400.71 C 1400.196 400.27 1403.778 399.83 1407.351 399.39 C 1403.504 403.165 1399.649 406.94 1395.794 410.715 C 1406.558 412.052 1417.604 411.075 1427.957 407.89 C 1425.031 408.999 1422.926 411.92 1422.835 414.991 C 1432.341 416.205 1442.22 416.275 1451.498 414.181 C 1439.996 418.29 1428.504 422.391 1417.002 426.5 Z  M 1416.729 464.581 C 1416.975 464.458 1417.221 464.344 1417.467 464.221 C 1417.431 464.573 1417.385 464.933 1417.348 465.285 C 1417.148 465.048 1416.929 464.81 1416.729 464.581 Z  M 1406.02 495.369 C 1394.281 491.207 1382.925 486.024 1372.153 479.847 C 1379.006 478.976 1385.477 476.935 1390.599 472.553 C 1398.583 471.436 1406.403 469.201 1413.758 465.963 C 1414.888 466.288 1416.036 466.596 1417.175 466.913 C 1416.938 469.06 1416.701 471.216 1416.464 473.371 C 1427.757 473.574 1439.978 471.568 1449.001 465.417 C 1436.141 477.252 1421.623 487.318 1406.02 495.369 Z  M 1437.39 533.617 C 1437.153 533.468 1436.916 533.336 1436.679 533.186 C 1437.891 532.491 1439.103 531.796 1440.306 531.101 C 1439.304 531.972 1438.338 532.808 1437.39 533.617 Z  M 1425.077 542.856 C 1419.08 546.613 1412.527 549.385 1405.838 551.752 C 1403.249 550.907 1400.697 549.966 1398.191 548.936 C 1410.823 546.886 1422.908 540.912 1434.391 534.48 C 1435.011 534.506 1435.64 534.541 1436.269 534.568 C 1432.733 537.551 1429.342 540.181 1425.077 542.856 Z  M 1415.38 616.767 C 1414.095 615.957 1412.819 615.13 1411.561 614.259 C 1413.603 614.805 1415.672 615.271 1417.749 615.676 C 1416.966 616.045 1416.173 616.406 1415.38 616.767 Z  M 1386.343 543.199 C 1385.978 542.997 1385.623 542.786 1385.268 542.583 C 1385.76 542.232 1386.252 541.888 1386.726 541.519 C 1386.598 542.082 1386.471 542.636 1386.343 543.199 Z  M 1385.568 462.1 C 1387.628 462.074 1389.679 462.038 1391.729 461.986 C 1391.055 463.305 1390.262 464.555 1389.378 465.752 C 1388.111 464.529 1386.844 463.314 1385.568 462.1 Z  M 1350.453 461.493 C 1361.672 467.3 1374.695 469.667 1387.3 468.286 C 1385.869 469.825 1384.265 471.224 1382.524 472.43 C 1374.86 472.632 1367.177 472.404 1359.539 471.77 C 1355.894 468.875 1352.53 465.356 1350.453 461.493 Z  M 1370.831 401.546 C 1370.221 401.863 1369.61 402.18 1369.008 402.505 C 1368.079 401.977 1367.149 401.458 1366.238 400.913 C 1367.769 401.159 1369.291 401.361 1370.831 401.546 Z  M 1386.799 394.305 C 1386.771 394.313 1386.735 394.331 1386.698 394.34 C 1386.644 394.305 1386.589 394.261 1386.534 394.225 C 1386.626 394.252 1386.717 394.269 1386.799 394.305 Z  M 1245.342 341.01 C 1239.318 337.657 1233.731 333.61 1228.891 328.753 C 1238.434 328.964 1247.994 328.656 1257.509 327.847 C 1250.346 324.767 1243.173 321.687 1236.009 318.608 C 1247.137 318.625 1258.266 318.652 1269.394 318.669 C 1262.285 316.197 1254.702 313.372 1250.464 307.24 C 1259.131 309.598 1268.054 311.067 1277.022 311.648 C 1269.193 323.887 1258.466 334.745 1245.342 341.01 Z  M 1251.813 427.969 C 1251.694 427.793 1251.576 427.608 1251.467 427.432 C 1251.813 427.371 1252.168 427.318 1252.515 427.256 C 1252.697 427.344 1252.879 427.432 1253.062 427.52 C 1252.642 427.67 1252.223 427.82 1251.813 427.969 Z  M 1241.833 379.153 C 1240.311 377.446 1239.154 375.51 1238.771 373.266 C 1241.687 374.217 1244.659 374.991 1247.666 375.607 C 1245.743 376.83 1243.802 378.009 1241.833 379.153 Z  M 1152.207 574.691 C 1151.97 574.576 1151.742 574.453 1151.515 574.33 C 1152.499 573.846 1153.483 573.362 1154.449 572.86 C 1153.711 573.476 1152.964 574.092 1152.207 574.691 Z  M 1148.07 577.858 C 1146.265 578.043 1144.46 578.21 1142.656 578.36 C 1144.971 577.392 1147.249 576.362 1149.519 575.289 C 1150.23 575.254 1150.94 575.192 1151.651 575.122 C 1150.476 576.054 1149.282 576.97 1148.07 577.858 Z  M 1133.642 458.8 C 1116.69 470.705 1097.806 479.971 1077.938 486.174 C 1070.93 482.751 1064.112 478.941 1057.55 474.744 C 1052.428 471.462 1047.161 466.799 1044.299 461.493 C 1056.757 467.934 1071.422 470.16 1085.266 467.705 C 1079.943 462.602 1074.621 457.498 1069.298 452.395 C 1083.507 458.413 1098.135 463.455 1113.054 467.476 C 1108.06 461.423 1102.455 455.844 1096.357 450.855 C 1106.209 452.289 1116.991 453.504 1126.242 450.758 C 1135.93 450.31 1145.818 448.075 1153.428 442.892 C 1148.553 447.371 1143.44 451.594 1138.117 455.562 C 1135.073 456.038 1132.047 456.68 1129.076 457.569 C 1130.598 458 1132.12 458.405 1133.642 458.8 Z  M 1120.099 525.311 C 1119.078 524.379 1118.085 523.42 1117.11 522.434 C 1119.087 521.695 1121.047 520.885 1122.997 520.023 C 1124.875 520.322 1126.761 520.595 1128.657 520.833 C 1125.905 522.504 1123.043 523.974 1120.099 525.311 Z  M 1095.018 531.602 C 1092.976 530.08 1090.935 528.567 1088.893 527.045 C 1093.222 528.496 1097.624 529.737 1102.072 530.784 C 1099.711 530.969 1097.36 531.233 1095.018 531.602 Z  M 1094.106 580.005 C 1093.833 580.005 1093.559 580.005 1093.286 580.014 C 1092.119 579.354 1090.962 578.677 1089.814 577.981 C 1091.518 577.066 1093.186 576.09 1094.817 575.051 C 1095.501 575.201 1096.193 575.342 1096.886 575.483 C 1095.956 576.987 1095.036 578.492 1094.106 580.005 Z  M 1073.636 539.134 C 1070.036 536.688 1066.619 533.987 1063.429 531.013 C 1070.401 533.538 1077.61 535.43 1084.928 536.671 C 1081.192 537.577 1077.419 538.395 1073.636 539.134 Z  M 1063.438 429.254 C 1067.676 429.738 1071.923 430.107 1076.179 430.336 C 1072.515 430.855 1068.897 431.647 1065.343 432.668 C 1063.784 431.964 1062.235 431.234 1060.695 430.486 C 1061.633 430.116 1062.545 429.711 1063.438 429.254 Z  M 1096.157 439.461 C 1095.637 440.464 1095.054 441.423 1094.416 442.355 C 1090.916 441.563 1087.453 440.64 1084.017 439.61 C 1088.064 439.601 1092.11 439.557 1096.157 439.461 Z  M 1121.894 441.695 C 1121.73 443.156 1121.566 444.625 1121.411 446.095 C 1118.659 445.954 1115.907 445.752 1113.163 445.461 C 1116.144 444.37 1119.06 443.112 1121.894 441.695 Z  M 968.672 314.93 C 967.469 314.112 966.284 313.267 965.136 312.387 C 966.63 312.853 968.161 313.196 969.702 313.434 C 969.364 313.936 969.018 314.428 968.672 314.93 Z  M 965.774 356.83 C 965.445 356.725 965.117 356.619 964.789 356.513 C 965.983 355.88 967.141 355.194 968.262 354.454 C 967.441 355.255 966.612 356.047 965.774 356.83 Z  M 959.157 326.483 C 954.226 324.309 949.441 321.846 944.848 319.074 C 951.301 320.104 957.844 320.614 964.388 320.605 C 962.72 322.638 960.989 324.609 959.157 326.483 Z  M 934.786 342.919 C 931.678 341.089 928.634 339.153 925.672 337.112 C 921.763 334.402 917.698 331.076 916.905 326.448 C 929.409 330.495 942.898 331.56 955.912 329.598 C 949.706 335.264 942.633 339.919 934.786 342.919 Z  M 939.526 345.603 C 938.459 345.022 937.393 344.433 936.345 343.834 C 938.104 343.799 939.872 343.764 941.631 343.729 C 940.929 344.353 940.227 344.978 939.526 345.603 Z  M 930.53 382.03 C 929.992 381.256 929.491 380.464 929.054 379.646 C 930.084 380.182 931.123 380.666 932.171 381.141 C 931.624 381.441 931.086 381.74 930.53 382.03 Z  M 810.61 353.196 C 805.861 352.308 801.149 351.234 796.51 349.897 C 784.535 346.439 772.915 341.115 763.372 333.293 C 772.213 332.211 781.062 331.12 789.912 330.038 C 786.057 333.812 782.202 337.587 778.355 341.362 C 789.11 342.69 800.165 341.722 810.509 338.537 C 807.593 339.637 805.478 342.567 805.396 345.638 C 814.893 346.843 824.782 346.923 834.05 344.828 C 826.24 347.618 818.429 350.407 810.61 353.196 Z  M 821.2 404.925 C 818.931 404.256 816.679 403.543 814.437 402.769 C 820.653 401.572 826.595 399.452 831.562 396.064 C 828.218 399.144 824.763 402.092 821.2 404.925 Z  M 799.8 396.909 C 799.117 396.592 798.433 396.276 797.759 395.959 C 798.515 395.607 799.272 395.246 800.019 394.868 C 799.946 395.545 799.873 396.232 799.8 396.909 Z  M 782.083 429.201 C 781.445 428.321 780.862 427.406 780.361 426.473 C 781.591 427.107 782.84 427.688 784.106 428.242 C 783.441 428.567 782.758 428.884 782.083 429.201 Z  M 759.016 329.413 C 758.788 329.193 758.551 328.973 758.323 328.753 C 759.016 328.762 759.708 328.753 760.392 328.77 C 759.936 328.982 759.472 329.193 759.016 329.413 Z  M 775.503 322.664 C 775.384 322.699 775.275 322.743 775.166 322.787 C 775.029 322.726 774.901 322.673 774.765 322.611 C 775.011 322.629 775.257 322.646 775.503 322.664 Z  M 793.175 310.126 C 790.677 311.041 788.153 311.912 785.61 312.713 C 783.395 311.225 781.427 309.448 779.905 307.24 C 784.27 308.427 788.709 309.387 793.175 310.126 Z  M 650.87 403.966 C 638.785 408.286 626.6 412.615 614.105 415.44 C 597.208 409.993 581.022 402.435 566.12 392.897 C 560.998 389.624 555.731 384.951 552.869 379.646 C 565.327 386.095 579.992 388.321 593.845 385.866 C 588.522 380.763 583.2 375.66 577.868 370.556 C 586.062 374.032 594.41 377.164 602.858 379.98 C 601.601 380.649 600.352 381.335 599.113 382.03 C 601.546 381.731 603.97 381.432 606.404 381.141 C 611.444 382.752 616.511 384.256 621.624 385.638 C 620.002 383.667 618.306 381.757 616.557 379.892 C 624.777 378.88 632.998 377.868 641.219 376.865 C 637.364 380.64 633.518 384.415 629.662 388.189 C 640.426 389.518 651.472 388.55 661.816 385.365 C 658.9 386.465 656.785 389.395 656.703 392.466 C 666.2 393.671 676.089 393.75 685.357 391.656 C 673.865 395.756 662.363 399.866 650.87 403.966 Z  M 624.613 439.478 C 624.941 439.469 625.27 439.469 625.598 439.461 C 625.479 439.68 625.352 439.9 625.224 440.12 C 625.023 439.909 624.814 439.689 624.613 439.478 Z  M 675.25 449.518 C 674.184 449.667 673.117 449.826 672.051 450.019 C 672.561 450.31 673.081 450.6 673.591 450.881 C 661.515 460.639 648.237 468.963 634.156 475.668 C 629.298 475.043 624.477 474.207 619.701 473.116 C 602.102 469.078 585.095 461.396 571.999 449.174 C 585.032 453.891 598.894 456.416 612.793 456.601 C 607.68 452.8 602.576 449.007 597.463 445.206 C 603.551 447.239 609.776 448.875 616.083 450.098 C 615.709 450.354 615.344 450.609 614.962 450.837 C 616.274 450.802 617.586 450.723 618.899 450.626 C 626.372 451.929 633.946 452.659 641.529 452.808 C 639.022 451.374 636.607 449.773 634.292 448.057 C 640.18 446.535 645.903 444.405 651.326 441.695 C 650.998 444.74 650.661 447.793 650.333 450.837 C 661.625 451.049 673.847 449.042 682.869 442.892 C 680.39 445.171 677.848 447.371 675.25 449.518 Z  M 658.353 517.225 C 663.757 514.533 669.034 511.541 674.175 508.576 C 670.192 512.025 666.792 514.946 662.791 517.762 C 661.306 517.603 659.829 517.427 658.353 517.225 Z  M 673.728 580.551 C 666.054 582.777 658.307 584.765 650.497 586.49 C 649.786 586.367 649.084 586.235 648.382 586.103 C 657.879 583.797 667.166 580.639 676.061 576.644 C 676.863 576.811 677.665 576.996 678.467 577.146 C 676.918 578.307 675.332 579.442 673.728 580.551 Z  M 643.351 527.881 C 642.395 527.344 641.438 526.798 640.481 526.253 C 641.647 526.745 642.832 527.203 644.026 527.625 C 643.807 527.713 643.579 527.801 643.351 527.881 Z  M 628.541 602.082 C 628.514 602.064 628.487 602.038 628.459 602.02 C 628.505 602.038 628.541 602.055 628.587 602.073 C 628.578 602.073 628.56 602.082 628.541 602.082 Z  M 624.322 578.738 C 623.146 578.228 621.97 577.691 620.804 577.146 C 623.392 575.685 625.889 574.066 628.277 572.297 C 626.965 574.444 625.643 576.582 624.322 578.738 Z  M 613.987 532.421 C 617.021 533.23 620.111 533.881 623.219 534.374 C 621.761 534.779 620.284 535.166 618.817 535.553 C 617.176 534.559 615.563 533.512 613.987 532.421 Z  M 590.053 490.74 C 589.033 490.028 588.012 489.306 587 488.558 C 588.705 489.165 590.418 489.737 592.15 490.265 C 591.448 490.424 590.755 490.591 590.053 490.74 Z  M 623.921 370.53 C 619.929 372.008 615.992 373.627 612.118 375.396 C 609.803 373.178 607.406 371.04 604.927 369.008 C 611.097 369.914 617.632 370.724 623.921 370.53 Z  M 423.379 357.147 C 419.569 358.502 415.75 359.866 411.913 361.186 C 407.402 358.335 403.2 355.053 399.436 351.278 C 408.988 351.489 418.548 351.19 428.054 350.372 C 422.23 347.873 416.407 345.365 410.583 342.866 C 411.449 342.585 412.296 342.277 413.135 341.916 C 416.279 341.854 419.423 341.608 422.54 341.168 C 425.302 341.177 428.072 341.177 430.843 341.186 C 429.868 342.47 429.257 344.028 429.212 345.638 C 438.708 346.843 448.597 346.923 457.866 344.828 C 446.373 348.938 434.871 353.038 423.379 357.147 Z  M 455.56 526.719 C 455.396 526.71 455.232 526.71 455.068 526.701 C 455.514 526.473 455.961 526.262 456.398 526.033 C 456.125 526.262 455.842 526.49 455.56 526.719 Z  M 454.074 396.9 C 454.512 396.628 454.949 396.355 455.378 396.064 C 455.031 396.381 454.676 396.689 454.329 397.006 C 454.247 396.971 454.165 396.935 454.074 396.9 Z  M 451.185 399.795 C 450.292 399.786 449.399 399.76 448.515 399.742 C 449.463 399.346 450.401 398.915 451.313 398.449 C 451.914 398.334 452.516 398.22 453.117 398.097 C 452.479 398.669 451.832 399.232 451.185 399.795 Z  M 441.333 466.306 C 440.905 466.051 440.467 465.787 440.039 465.532 C 442.272 464.282 444.496 463.015 446.683 461.748 C 444.815 463.376 443.074 464.872 441.333 466.306 Z  M 431.244 407.591 C 434.58 407.714 438.006 407.802 441.424 407.723 C 440.203 408.647 438.973 409.553 437.724 410.451 C 435.564 409.5 433.404 408.55 431.244 407.591 Z  M 431.545 414.744 C 431.417 414.674 431.289 414.604 431.162 414.533 C 431.39 414.533 431.618 414.542 431.845 414.542 C 431.745 414.612 431.645 414.683 431.545 414.744 Z  M 434.324 338.537 C 434.097 338.625 433.878 338.74 433.659 338.854 C 433.604 338.828 433.541 338.81 433.486 338.784 C 433.768 338.704 434.051 338.625 434.324 338.537 Z  M 349.684 296.523 C 347.688 295.467 345.719 294.376 343.787 293.214 C 346.202 293.601 348.636 293.9 351.069 294.147 C 350.613 294.939 350.158 295.739 349.684 296.523 Z  M 333.37 316.848 C 330.39 315.079 327.464 313.223 324.621 311.252 C 320.702 308.551 316.637 305.216 315.844 300.588 C 324.985 303.544 334.637 304.908 344.252 304.67 C 341.007 309.043 337.371 313.161 333.37 316.848 Z  M 329.232 355.827 C 328.786 355.158 328.366 354.481 328.002 353.786 C 328.786 354.199 329.578 354.586 330.381 354.956 C 329.998 355.246 329.615 355.537 329.232 355.827 Z  M 205.848 328.665 C 196.589 325.207 187.666 320.869 179.263 315.722 C 189.398 316.707 199.733 315.669 209.448 312.677 C 206.532 313.777 204.427 316.707 204.335 319.778 C 213.841 320.983 223.721 321.063 232.999 318.969 C 223.949 322.198 214.898 325.427 205.848 328.665 Z  M 216.603 381.819 C 213.668 380.517 210.752 379.162 207.881 377.728 C 216.047 376.848 224.085 374.577 230.501 370.204 C 226.063 374.287 221.415 378.167 216.603 381.819 Z  M 218.271 438.924 C 217.952 438.774 217.623 438.625 217.295 438.466 C 218.808 437.613 220.312 436.75 221.807 435.888 C 220.585 436.953 219.419 437.956 218.271 438.924 Z  M 198.548 372.774 C 197.409 372.123 196.27 371.463 195.14 370.794 C 196.425 370.231 197.701 369.641 198.967 369.008 C 198.822 370.266 198.685 371.515 198.548 372.774 Z  M 172.382 311.252 C 170.505 309.95 168.6 308.515 167.032 306.852 C 173.202 306.096 179.382 305.339 185.552 304.582 C 186.481 304.626 187.411 304.662 188.341 304.679 C 184.868 308.084 181.396 311.489 177.914 314.895 C 176.046 313.716 174.196 312.501 172.382 311.252 Z  M 163.697 300.966 C 163.669 300.843 163.633 300.711 163.605 300.588 C 163.797 300.649 163.997 300.702 164.189 300.764 C 164.025 300.825 163.861 300.896 163.697 300.966 Z  M 64.902 272.73 C 55.424 268.718 46.601 263.28 39.411 256.065 C 48.953 256.276 58.513 255.977 68.028 255.159 C 60.865 252.079 53.692 249 46.528 245.92 C 51.65 245.929 56.763 245.938 61.885 245.955 C 61.184 246.571 60.482 247.187 59.78 247.812 C 62.441 247.328 65.066 246.703 67.664 245.964 C 70.179 245.964 72.704 245.973 75.228 245.973 C 73.797 248.78 71.902 251.367 69.641 253.584 C 80.068 255.009 90.995 252.528 99.717 246.747 C 89.355 256.884 77.589 265.603 64.902 272.73 Z  M 74.608 321.168 C 74.016 320.86 73.424 320.552 72.84 320.236 C 75.511 319.963 78.163 319.558 80.76 318.969 C 78.71 319.699 76.659 320.429 74.608 321.168 Z  M 65.139 235.608 C 64.574 235.81 64.009 236.03 63.435 236.215 C 64.774 236.189 66.123 236.162 67.463 236.136 C 68.958 236.461 70.452 236.769 71.947 237.042 C 70.562 238.274 69.176 239.497 67.782 240.729 C 65.121 239.101 62.76 237.121 60.983 234.561 C 62.359 234.93 63.754 235.273 65.139 235.608 Z  M 76.604 242.841 C 76.395 243.412 76.158 243.984 75.912 244.548 C 75.301 244.31 74.699 244.072 74.089 243.826 C 74.936 243.509 75.775 243.184 76.604 242.841 Z  M -68.051 331.287 C -71.022 332.343 -74.012 333.407 -77.001 334.455 C -95.812 330.038 -113.794 322.189 -129.616 311.252 C -133.526 308.551 -137.59 305.216 -138.383 300.588 C -129.561 303.447 -120.237 304.811 -110.941 304.679 C -113.94 306.149 -116.902 307.706 -119.809 309.351 C -105.774 307.627 -91.738 305.902 -77.703 304.178 C -81.549 307.952 -85.404 311.727 -89.259 315.502 C -78.496 316.83 -67.45 315.863 -57.096 312.677 C -60.022 313.777 -62.127 316.707 -62.218 319.778 C -52.713 320.983 -42.833 321.063 -33.555 318.969 C -45.057 323.078 -56.55 327.178 -68.051 331.287 Z  M -62.273 390.442 C -73.465 387.002 -84.365 382.637 -94.801 377.384 C -85.34 376.091 -76.099 373.258 -67.587 369.008 C -67.924 372.052 -68.252 375.105 -68.589 378.15 C -57.297 378.361 -45.075 376.355 -36.052 370.204 C -44.173 377.684 -52.968 384.441 -62.273 390.442 Z  M -53.77 513.336 C -55.647 512.368 -57.497 511.347 -59.32 510.265 C -57.762 509.772 -56.222 509.244 -54.681 508.699 C -52.321 509.042 -49.942 509.297 -47.563 509.464 C -49.596 510.802 -51.665 512.095 -53.77 513.336 Z  M -59.411 447.256 C -60.906 446.913 -62.383 446.535 -63.868 446.139 C -62.647 445.567 -61.435 444.977 -60.223 444.37 C -58.992 444.722 -57.753 445.048 -56.504 445.338 C -57.425 445.98 -58.382 446.623 -59.384 447.256 C -59.393 447.256 -59.402 447.256 -59.411 447.256 Z  M -99.604 374.885 C -104.17 372.439 -108.636 369.826 -112.992 367.037 C -113.083 366.984 -113.165 366.922 -113.256 366.861 C -106.612 366.958 -99.968 366.931 -93.324 366.773 C -94.901 369.817 -97.043 372.571 -99.604 374.885 Z  M -122.151 359.443 C -122.935 358.572 -123.673 357.684 -124.348 356.76 C -122.215 356.989 -120.073 357.173 -117.941 357.34 C -117.212 357.587 -116.492 357.833 -115.763 358.053 C -117.904 358.432 -120.037 358.889 -122.151 359.443 Z  M -110.312 293.232 C -110.34 293.232 -110.367 293.241 -110.394 293.241 C -110.413 293.232 -110.431 293.223 -110.449 293.214 C -110.404 293.223 -110.358 293.223 -110.312 293.232 Z  M -92.112 296.804 C -94.4 297.596 -96.669 298.45 -98.911 299.347 C -101.235 298.247 -103.532 297.112 -105.783 295.88 C -101.226 296.188 -96.669 296.496 -92.112 296.804 Z  M -84.712 287.688 C -85.632 287.961 -86.553 288.234 -87.473 288.489 C -88.384 287.856 -89.278 287.205 -90.153 286.527 C -88.384 287.081 -86.562 287.46 -84.712 287.688 Z  M -245.572 327.653 C -251.295 324.274 -256.645 320.271 -261.694 315.854 C -255.962 315.431 -250.274 314.367 -244.779 312.677 C -247.704 313.777 -249.81 316.707 -249.901 319.778 C -240.395 320.983 -230.516 321.063 -221.238 318.969 C -229.349 321.863 -237.46 324.758 -245.572 327.653 Z  M -229.941 375.669 C -231.117 375.449 -232.293 375.211 -233.459 374.965 C -229.969 373.777 -226.679 372.211 -223.735 370.204 C -225.758 372.07 -227.836 373.891 -229.941 375.669 Z  M -260.345 329.774 C -258.614 330.24 -256.873 330.662 -255.123 331.067 C -255.324 331.137 -255.524 331.208 -255.734 331.287 C -256.59 331.595 -257.456 331.903 -258.322 332.211 C -259.06 331.454 -259.744 330.653 -260.345 329.774 Z  M -257.392 452.773 C -258.204 451.735 -258.933 450.67 -259.562 449.57 C -259.407 449.509 -259.252 449.447 -259.097 449.394 C -257.611 450.134 -256.098 450.82 -254.558 451.445 C -255.497 451.902 -256.435 452.342 -257.392 452.773 Z  M -269.213 401.405 C -270.617 399.769 -271.674 397.921 -272.038 395.8 C -269.067 396.759 -266.041 397.551 -262.979 398.176 C -265.03 399.294 -267.117 400.358 -269.213 401.405 Z  M -265.385 304.178 C -266.807 305.577 -268.238 306.976 -269.669 308.375 C -270.735 307.292 -271.801 306.201 -272.85 305.093 C -270.361 304.785 -267.873 304.486 -265.385 304.178 Z  M -280.232 296.963 C -280.296 296.892 -280.35 296.831 -280.414 296.76 C -280.204 296.778 -279.995 296.787 -279.794 296.804 C -279.94 296.857 -280.086 296.91 -280.232 296.963 Z  M -343.355 348.77 C -344.776 349.087 -346.198 349.448 -347.611 349.87 C -346.863 350.081 -346.116 350.275 -345.369 350.477 C -361.801 364.186 -380.959 374.718 -401.401 381.449 C -407.735 378.282 -413.851 374.674 -419.665 370.653 C -423.575 367.952 -427.649 364.626 -428.442 359.989 C -413.586 364.802 -397.345 365.409 -382.162 361.731 C -388.514 359.188 -394.657 356.144 -400.499 352.615 C -389.799 354.331 -378.853 354.622 -368.071 353.487 C -372.364 351.384 -376.438 348.841 -380.202 345.928 C -374.971 347.574 -369.284 347.75 -363.925 346.527 C -364.581 347.319 -365.274 348.075 -366.012 348.797 C -355.585 350.222 -344.658 347.741 -335.927 341.969 C -338.324 344.309 -340.812 346.571 -343.355 348.77 Z  M -385.461 409.685 C -383.775 409.342 -382.098 408.937 -380.439 408.48 C -380.266 408.541 -380.093 408.612 -379.92 408.673 C -381.214 409.527 -382.244 410.759 -382.872 412.166 C -383.738 411.339 -384.604 410.512 -385.461 409.685 Z  M -382.481 424.036 C -382.736 424.08 -382.991 424.115 -383.237 424.159 C -383.182 424.194 -383.137 424.221 -383.082 424.247 C -385.178 424.995 -387.284 425.752 -389.38 426.5 C -392.251 427.52 -395.121 428.55 -398.001 429.553 C -399.697 428.541 -401.383 427.512 -403.041 426.447 C -408.163 423.174 -413.431 418.502 -416.284 413.196 C -403.834 419.637 -389.17 421.863 -375.317 419.417 C -376.702 418.088 -378.088 416.759 -379.464 415.44 C -373.321 415.994 -367.078 416.011 -360.99 415.246 C -360.434 415.422 -359.887 415.598 -359.331 415.765 C -367.051 418.528 -374.761 421.282 -382.481 424.036 Z  M -366.987 531.893 C -367.069 531.849 -367.142 531.805 -367.224 531.761 C -366.841 531.541 -366.458 531.321 -366.076 531.101 C -366.385 531.374 -366.686 531.629 -366.987 531.893 Z  M -389.289 489.201 C -392.041 487.194 -394.675 485.039 -397.163 482.716 C -393.126 484.176 -389.015 485.426 -384.85 486.464 C -386.317 487.397 -387.794 488.303 -389.289 489.201 Z  M -359.04 338.053 C -359.714 339.875 -360.58 341.626 -361.601 343.28 C -364.945 342.928 -368.29 342.558 -371.635 342.136 C -367.333 341.115 -363.114 339.751 -359.04 338.053 Z  M -528.594 384.555 C -531.219 383.024 -533.762 381.361 -536.241 379.593 C -527.902 380.376 -519.362 380.2 -511.287 378.379 C -517.056 380.438 -522.825 382.496 -528.594 384.555 Z  M -516.127 431.717 C -516.409 431.656 -516.692 431.603 -516.974 431.542 C -515.871 430.943 -514.805 430.31 -513.784 429.615 C -514.559 430.318 -515.343 431.022 -516.127 431.717 Z  M -539.577 377.12 C -540.816 376.152 -542.046 375.167 -543.259 374.155 C -540.415 373.618 -537.599 372.932 -534.837 372.087 C -537.089 372.932 -538.838 374.868 -539.577 377.12 Z  M -541.509 389.166 C -542.402 388.304 -543.222 387.371 -543.942 386.333 C -541.901 386.887 -539.85 387.38 -537.781 387.837 C -539.03 388.277 -540.269 388.726 -541.509 389.166 Z  M -541.181 509.069 C -541.299 508.91 -541.427 508.752 -541.545 508.585 C -540.989 508.162 -540.452 507.713 -539.923 507.247 C -539.558 507.406 -539.203 507.573 -538.838 507.722 C -539.613 508.18 -540.388 508.637 -541.181 509.069 Z  M -543.095 506.235 C -542.921 506.156 -542.748 506.086 -542.575 506.007 C -541.837 506.367 -541.09 506.728 -540.333 507.062 C -541.053 507.115 -541.782 507.15 -542.502 507.194 C -542.712 506.878 -542.903 506.561 -543.095 506.235 Z  M -553.093 457.613 C -554.359 456.064 -555.289 454.331 -555.626 452.36 C -552.992 453.213 -550.313 453.926 -547.597 454.515 C -549.42 455.571 -551.242 456.61 -553.093 457.613 Z  M -629.385 407.389 C -632.174 407.855 -634.935 408.462 -637.66 409.28 C -636.184 409.703 -634.707 410.09 -633.222 410.477 C -642.965 418.07 -653.573 424.582 -664.774 429.905 C -671.218 426.693 -677.433 423.042 -683.348 418.95 C -687.267 416.249 -691.332 412.914 -692.125 408.286 C -677.269 413.099 -661.037 413.706 -645.845 410.028 C -652.197 407.485 -658.34 404.432 -664.182 400.913 C -658.504 401.819 -652.753 402.32 -646.993 402.426 C -647.795 403.455 -648.661 404.441 -649.599 405.356 C -639.173 406.781 -628.246 404.3 -619.515 398.519 C -622.677 401.616 -625.976 404.564 -629.385 407.389 Z  M -660.454 478.589 C -662.569 477.34 -664.656 476.064 -666.724 474.744 C -669.86 472.729 -673.05 470.204 -675.711 467.327 C -673.241 467.036 -670.78 466.623 -668.356 466.095 C -667.353 466.385 -666.351 466.658 -665.339 466.895 C -666.415 468.224 -667.089 469.861 -667.144 471.55 C -657.638 472.756 -647.758 472.835 -638.481 470.741 C -645.808 473.354 -653.127 475.967 -660.454 478.589 Z  M -660.245 531.55 C -660.445 531.374 -660.646 531.198 -660.846 531.013 C -660.345 531.198 -659.844 531.365 -659.342 531.541 C -659.643 531.541 -659.944 531.55 -660.245 531.55 Z  M -646.145 387.802 C -646.473 388.093 -646.811 388.392 -647.139 388.682 C -648.542 388.436 -649.946 388.181 -651.34 387.899 C -649.609 387.873 -647.877 387.837 -646.145 387.802 Z  M -642.636 394.613 C -642.682 394.745 -642.746 394.885 -642.801 395.026 C -642.901 394.947 -643.001 394.877 -643.11 394.797 C -642.946 394.736 -642.791 394.674 -642.636 394.613 Z  M -776.811 608.17 C -776.875 608.17 -776.939 608.162 -777.003 608.153 C -776.82 608.056 -776.629 607.968 -776.447 607.871 C -776.565 607.977 -776.684 608.074 -776.811 608.17 Z  M -821.651 508.453 C -839.241 501.501 -853.35 488.55 -866.054 474.278 C -855.619 474.656 -845.174 474.726 -834.739 474.471 C -837.145 479.126 -840.864 483.103 -845.375 485.857 C -832.77 485.479 -820.248 482.329 -809.011 476.706 C -809.339 479.759 -809.676 482.804 -810.004 485.857 C -798.712 486.059 -786.49 484.053 -777.467 477.903 C -790.655 490.037 -805.593 500.305 -821.651 508.453 Z  M -790.327 618.043 C -791.302 617.136 -792.296 616.239 -793.307 615.368 C -792.232 614.963 -791.166 614.55 -790.099 614.118 C -788.486 614.312 -786.873 614.488 -785.242 614.62 C -786.918 615.799 -788.605 616.934 -790.327 618.043 Z  M -803.342 552.913 C -797.463 550.045 -791.74 546.798 -786.162 543.587 C -790.482 547.335 -794.118 550.441 -798.566 553.485 C -800.161 553.301 -801.747 553.116 -803.342 552.913 Z  M -811.663 556.732 C -809.794 557.322 -807.871 557.718 -805.93 557.938 C -806.723 558.351 -807.516 558.765 -808.318 559.152 C -809.457 558.377 -810.578 557.577 -811.663 556.732 Z  M -800.589 624.079 C -804.736 624.132 -808.883 624.176 -813.03 624.22 C -813.832 623.454 -814.634 622.689 -815.436 621.914 C -813.276 621.439 -811.125 620.938 -808.983 620.374 C -805.939 621.51 -802.877 622.601 -799.796 623.648 C -800.061 623.788 -800.325 623.938 -800.589 624.079 Z  M -833.764 637.717 C -834.01 637.559 -834.256 637.409 -834.502 637.251 C -839.624 633.978 -844.892 629.305 -847.745 624 C -837.883 629.103 -826.637 631.549 -815.5 631.136 C -815.491 631.136 -815.481 631.144 -815.472 631.144 C -821.433 633.634 -827.548 635.817 -833.764 637.717 Z  M -858.517 574.409 C -859.182 573.3 -859.675 572.104 -859.902 570.793 C -857.196 571.673 -854.443 572.403 -851.654 573.001 C -853.942 573.503 -856.23 573.969 -858.517 574.409 Z  M -838.813 516.178 C -843.078 517.867 -847.407 519.416 -851.782 520.806 C -855.409 519.249 -859.037 517.691 -862.664 516.134 C -854.717 516.152 -846.76 516.169 -838.813 516.178 Z  M -821.679 564.607 C -822.882 565.029 -824.094 565.443 -825.306 565.839 C -825.817 566.006 -826.345 566.156 -826.856 566.323 C -828.578 565.39 -830.282 564.431 -831.959 563.428 C -828.551 563.974 -825.115 564.352 -821.679 564.607 Z  M -834.338 514.348 C -839.779 512.21 -844.974 509.456 -848.209 504.775 C -839.952 507.01 -831.467 508.461 -822.927 509.095 C -826.673 510.96 -830.474 512.72 -834.338 514.348 Z  M -875.533 463.182 C -868.634 464.238 -861.689 464.977 -854.717 465.356 C -860.076 466.121 -865.353 467.432 -870.438 469.245 C -872.161 467.239 -873.856 465.206 -875.533 463.182 Z  M -939.713 530.608 C -948.07 527.124 -956.118 522.909 -963.71 518.017 C -957.95 516.97 -952.299 515.298 -946.904 513.046 C -948.38 517.076 -950.777 520.771 -953.867 523.789 C -943.44 525.223 -932.513 522.742 -923.791 516.961 C -928.785 521.853 -934.117 526.402 -939.713 530.608 Z  M -967.72 515.36 C -971.63 512.65 -975.694 509.324 -976.487 504.687 C -968.987 507.115 -961.14 508.47 -953.247 508.752 C -956.738 511.84 -960.228 514.929 -963.719 518.017 C -965.068 517.146 -966.398 516.266 -967.72 515.36 Z  M -943.459 498.008 C -944.042 498.422 -944.634 498.835 -945.236 499.223 C -946.348 498.598 -947.46 497.973 -948.544 497.322 C -946.858 497.586 -945.163 497.806 -943.459 498.008 Z  M -1089.49 595.482 C -1095.542 594.462 -1101.542 593.195 -1107.437 591.497 C -1121.376 587.475 -1134.824 580.929 -1145.097 570.846 C -1136.434 571.074 -1127.765 571.092 -1119.102 570.881 C -1121.508 575.527 -1125.231 579.512 -1129.742 582.258 C -1117.132 581.879 -1104.617 578.729 -1093.373 573.116 C -1093.701 576.16 -1094.038 579.213 -1094.366 582.258 C -1083.074 582.469 -1070.853 580.463 -1061.83 574.312 C -1070.37 582.17 -1079.647 589.253 -1089.49 595.482 Z  M -1079.511 647.431 C -1080.486 647.176 -1081.452 646.903 -1082.409 646.622 C -1078.381 644.492 -1074.416 642.231 -1070.524 639.996 C -1073.696 642.741 -1076.494 645.143 -1079.511 647.431 Z  M -1135.147 616.89 C -1135.407 616.248 -1135.611 615.57 -1135.733 614.866 C -1134.565 615.245 -1133.388 615.588 -1132.205 615.913 C -1133.183 616.248 -1134.164 616.573 -1135.147 616.89 Z  M -1241.563 641.457 C -1244.865 639.134 -1247.98 636.564 -1250.833 633.696 C -1249.624 633.722 -1248.416 633.722 -1247.207 633.731 C -1247.215 633.846 -1247.24 633.951 -1247.244 634.066 C -1237.742 635.271 -1227.859 635.35 -1218.584 633.256 C -1226.243 635.984 -1233.904 638.72 -1241.563 641.457 Z  M -1228.757 691.17 C -1229.632 690.598 -1230.501 690.018 -1231.364 689.437 C -1228.65 688.539 -1226.051 687.422 -1223.631 686.058 C -1223.386 686.085 -1223.143 686.102 -1222.898 686.129 C -1224.816 687.844 -1226.769 689.525 -1228.757 691.17 Z  M -1358.291 708.918 C -1363.019 710.607 -1367.764 712.296 -1372.536 713.898 C -1385.534 709.463 -1397.734 702.802 -1407.683 693.52 C -1394.645 698.245 -1380.787 700.77 -1366.893 700.955 C -1370.279 698.438 -1373.667 695.913 -1377.054 693.396 C -1373.831 693.687 -1370.591 693.784 -1367.357 693.669 C -1362.391 694.769 -1357.37 695.623 -1352.315 696.203 C -1352.394 696.608 -1352.446 697.004 -1352.458 697.418 C -1342.957 698.623 -1333.075 698.702 -1323.799 696.608 C -1335.296 700.708 -1346.794 704.817 -1358.291 708.918 Z  M -1350.091 825.195 C -1351.378 824.711 -1352.656 824.21 -1353.924 823.69 C -1350.125 821.895 -1346.385 819.933 -1342.705 817.901 C -1341.844 817.91 -1340.981 817.91 -1340.119 817.901 C -1343.238 820.479 -1346.326 822.828 -1350.091 825.195 Z  M -1358.395 751.821 C -1360.295 751.064 -1362.178 750.272 -1364.045 749.445 C -1362.296 748.733 -1360.57 747.967 -1358.871 747.149 C -1358.552 747.228 -1358.231 747.298 -1357.91 747.369 C -1358.071 748.856 -1358.234 750.334 -1358.395 751.821 Z  M -1377.394 691.074 C -1377.794 691.469 -1378.194 691.857 -1378.594 692.253 C -1379.802 691.355 -1381.008 690.458 -1382.215 689.56 C -1380.618 690.097 -1379.01 690.598 -1377.394 691.074 Z  M -1347.342 690.308 C -1347.505 690.378 -1347.656 690.458 -1347.814 690.537 C -1347.839 690.51 -1347.865 690.493 -1347.89 690.475 C -1347.708 690.422 -1347.524 690.37 -1347.342 690.308 Z  M -1556.304 601.501 C -1560.902 603.137 -1565.515 604.783 -1570.154 606.349 C -1576.864 603.463 -1583.573 600.577 -1590.281 597.7 C -1579.153 597.717 -1568.025 597.744 -1556.897 597.761 C -1564.004 595.289 -1571.591 592.464 -1575.827 586.332 C -1566.425 588.883 -1556.736 590.414 -1546.993 590.881 C -1547.606 590.661 -1548.211 590.423 -1548.815 590.185 C -1539.826 591.197 -1530.549 591.153 -1521.811 589.182 C -1533.309 593.283 -1544.806 597.392 -1556.304 601.501 Z  M -1529.224 644.774 C -1529.746 644.492 -1530.268 644.219 -1530.784 643.929 C -1528.496 642.944 -1526.317 641.791 -1524.304 640.418 C -1525.915 641.897 -1527.561 643.348 -1529.224 644.774 Z  M -1527.365 773.651 C -1527.704 773.405 -1528.044 773.15 -1528.383 772.894 C -1527.953 772.692 -1527.519 772.498 -1527.09 772.296 C -1526.737 772.402 -1526.385 772.507 -1526.031 772.613 C -1526.474 772.965 -1526.918 773.308 -1527.365 773.651 Z  M -1559.576 644.985 C -1558.56 645.152 -1557.541 645.284 -1556.52 645.425 C -1556.565 645.838 -1556.611 646.252 -1556.656 646.666 C -1557.634 646.111 -1558.614 645.566 -1559.576 644.985 Z  M -1567.128 670.282 C -1571.109 668.038 -1574.99 665.618 -1578.745 663.023 C -1582.656 660.321 -1586.723 656.995 -1587.516 652.358 C -1572.662 657.171 -1556.426 657.779 -1541.24 654.101 C -1545.457 652.411 -1549.57 650.484 -1553.575 648.355 C -1548.586 648.258 -1543.5 647.695 -1538.649 646.516 C -1536.054 646.49 -1533.459 646.384 -1530.871 646.19 C -1541.989 655.508 -1554.185 663.586 -1567.128 670.282 Z  M -1536.861 709.419 C -1537.103 709.19 -1537.343 708.953 -1537.586 708.724 C -1536.045 707.853 -1534.514 706.973 -1532.997 706.102 C -1534.337 707.263 -1535.609 708.363 -1536.861 709.419 Z  M -1543.876 784.615 C -1545.682 783.462 -1547.445 782.248 -1549.161 780.972 C -1547.161 780.347 -1545.168 779.705 -1543.194 779.01 C -1541.101 779.511 -1538.994 779.969 -1536.876 780.365 C -1539.169 781.852 -1541.504 783.259 -1543.876 784.615 Z  M -1560.411 719.881 C -1555.14 717.893 -1549.975 715.42 -1544.923 712.754 C -1543.519 712.736 -1542.116 712.666 -1540.716 712.56 C -1543.039 714.382 -1545.446 716.115 -1548.233 717.857 C -1550.876 719.512 -1553.63 720.972 -1556.454 722.301 C -1557.783 721.509 -1559.102 720.699 -1560.411 719.881 Z  M -1597.401 607.836 C -1589.193 608.021 -1580.977 607.801 -1572.788 607.22 C -1579.113 609.305 -1585.492 611.206 -1591.954 612.719 C -1593.851 611.188 -1595.677 609.569 -1597.401 607.836 Z  M -1580.363 567.018 C -1581.015 567.238 -1581.662 567.484 -1582.312 567.722 C -1582.621 567.423 -1582.926 567.124 -1583.234 566.824 C -1582.277 566.886 -1581.32 566.948 -1580.363 567.018 Z  M -1565.954 574.391 C -1567.279 575.685 -1568.604 576.987 -1569.928 578.281 C -1571.206 577.33 -1572.465 576.354 -1573.705 575.342 C -1571.121 575.025 -1568.537 574.708 -1565.954 574.391 Z  M -1545.354 582.891 C -1548.131 583.938 -1550.152 586.64 -1550.422 589.543 C -1553.186 588.399 -1555.869 587.115 -1558.47 585.689 C -1554.025 585.135 -1549.629 584.202 -1545.354 582.891 Z  M -1673.086 616.327 C -1682.215 612.367 -1690.956 607.554 -1699.118 601.906 C -1703.03 599.204 -1707.098 595.878 -1707.89 591.241 C -1700.948 593.494 -1693.703 594.814 -1686.406 595.218 C -1688.051 596.67 -1689.697 598.131 -1691.344 599.583 C -1686.064 598.624 -1680.883 597.137 -1675.903 595.166 C -1675.503 595.139 -1675.102 595.104 -1674.703 595.069 C -1676.194 598.914 -1678.516 602.451 -1681.486 605.355 C -1671.062 606.789 -1660.132 604.308 -1651.405 598.527 C -1658.093 605.064 -1665.364 611.004 -1673.086 616.327 Z  M -1678.446 584.088 C -1678.645 584.193 -1678.845 584.29 -1679.044 584.396 C -1679.344 584.211 -1679.651 584.053 -1679.95 583.868 C -1679.45 583.956 -1678.947 584.009 -1678.446 584.088 Z  M -1853.127 698.561 C -1857.158 694.118 -1861.523 689.956 -1866.182 686.146 C -1852.811 688.091 -1837.739 689.639 -1827.095 681.448 C -1860.492 682.864 -1894.277 673.141 -1921.617 654.241 C -1925.528 651.54 -1929.595 648.214 -1930.387 643.577 C -1917.259 647.827 -1903.054 648.795 -1889.447 646.419 C -1883.158 647.334 -1876.83 647.968 -1870.483 648.311 C -1879.448 649.587 -1888.186 652.385 -1896.204 656.52 C -1880.994 657.497 -1865.741 657.796 -1850.505 657.435 C -1852.911 662.081 -1856.634 666.067 -1861.144 668.812 C -1848.534 668.434 -1836.018 665.284 -1824.773 659.67 C -1825.106 662.715 -1825.439 665.768 -1825.772 668.812 C -1814.48 669.024 -1802.255 667.017 -1793.234 660.867 C -1810.632 676.872 -1831.075 689.648 -1853.127 698.561 Z  M -1817.162 738.306 C -1818.553 739.177 -1819.982 739.978 -1821.428 740.752 C -1823.575 740.453 -1825.72 740.119 -1827.857 739.758 C -1818.891 736.203 -1810.239 731.337 -1801.927 726.551 C -1807.124 731.056 -1811.318 734.646 -1817.162 738.306 Z  M -1815.986 806.841 C -1818.171 805.529 -1820.306 804.139 -1822.387 802.679 C -1818.032 801.464 -1813.732 800.065 -1809.5 798.49 C -1808.255 798.218 -1807.023 797.892 -1805.806 797.531 C -1804.535 797.804 -1803.258 798.042 -1801.977 798.253 C -1806.479 801.368 -1811.159 804.227 -1815.986 806.841 Z  M -1848.642 790.844 C -1848.37 790.651 -1848.092 790.466 -1847.823 790.263 C -1847.96 790.492 -1848.098 790.712 -1848.234 790.932 C -1848.37 790.906 -1848.506 790.879 -1848.642 790.844 Z  M -1855.239 822.327 C -1865.44 817.83 -1875.148 812.269 -1884.107 805.697 C -1869.015 811.064 -1852.904 813.66 -1836.857 813.299 C -1839.67 811.302 -1842.483 809.304 -1845.295 807.307 C -1843.353 807.06 -1841.416 806.77 -1839.483 806.453 C -1833.953 808.213 -1828.338 809.603 -1822.674 810.254 C -1833.062 815.27 -1844.019 819.247 -1855.239 822.327 Z  M -1904.989 710.035 C -1910.111 706.753 -1915.379 702.09 -1918.236 696.784 C -1905.784 703.225 -1891.119 705.451 -1877.267 702.996 C -1882.59 697.893 -1887.914 692.798 -1893.237 687.695 C -1881.692 692.587 -1869.863 696.819 -1857.83 700.392 C -1872.233 705.803 -1887.266 709.586 -1902.547 711.557 C -1903.363 711.056 -1904.181 710.554 -1904.989 710.035 Z  M -1894.701 637.189 C -1896.496 637.295 -1898.288 637.418 -1900.074 637.567 C -1900.866 637.119 -1901.666 636.679 -1902.448 636.204 C -1899.877 636.617 -1897.293 636.943 -1894.701 637.189 Z  M 3461.667 873.703 L 3461.667 743.7 L 3461.667 364.142 C 3447.832 375.422 3432.129 384.485 3415.395 390.961 C 3404.286 389.685 3393.23 387.996 3382.513 384.907 C 3368.331 380.825 3354.66 374.129 3344.325 363.764 C 3353.877 363.975 3363.437 363.676 3372.952 362.857 C 3365.779 359.778 3358.616 356.707 3351.443 353.627 C 3362.571 353.645 3373.699 353.663 3384.837 353.689 C 3377.728 351.216 3370.136 348.383 3365.907 342.259 C 3375.303 344.811 3384.992 346.342 3394.734 346.799 C 3369.316 337.666 3351.088 316.003 3334.145 295.273 C 3325.997 285.313 3317.275 275.968 3313.329 263.791 C 3308.034 280.157 3302.447 296.646 3293.215 311.225 C 3283.982 325.814 3270.64 338.537 3254.043 343.913 C 3257.26 343.852 3260.478 343.79 3263.695 343.729 C 3259.256 347.662 3254.818 351.586 3250.388 355.51 C 3256.158 354.463 3261.808 352.791 3267.213 350.539 C 3265.727 354.56 3263.33 358.264 3260.241 361.282 C 3270.667 362.717 3281.594 360.235 3290.326 354.454 C 3272.116 372.246 3249.641 385.708 3225.325 393.785 C 3203.397 383.5 3186.956 363.913 3171.562 345.084 C 3163.424 335.123 3154.693 325.779 3150.755 313.601 C 3145.46 329.967 3139.873 346.456 3130.632 361.045 C 3121.4 375.625 3108.066 388.348 3091.46 393.724 C 3094.678 393.662 3097.904 393.601 3101.121 393.548 C 3096.683 397.472 3092.244 401.397 3087.806 405.321 C 3093.575 404.274 3099.235 402.602 3104.63 400.349 C 3103.154 404.379 3100.757 408.075 3097.667 411.093 C 3108.093 412.527 3119.021 410.046 3127.743 404.265 C 3107.61 423.939 3082.246 438.317 3054.959 445.98 C 3047.039 442.188 3039.703 437.322 3033.551 431.154 C 3043.102 431.366 3052.654 431.066 3062.168 430.257 C 3055.005 427.177 3047.841 424.098 3040.669 421.018 C 3051.797 421.036 3062.925 421.062 3074.053 421.08 C 3066.953 418.607 3059.361 415.783 3055.123 409.65 C 3064.529 412.202 3074.217 413.733 3083.96 414.199 C 3058.541 405.057 3040.313 383.403 3023.362 362.664 C 3018.969 357.288 3014.403 352.079 3010.511 346.509 C 3013.063 345.92 3015.542 345.013 3017.857 343.799 C 3014.585 343.473 3011.313 343.139 3008.041 342.77 C 3005.799 339.144 3003.894 335.326 3002.555 331.181 C 3001.424 334.675 3000.276 338.176 2999.091 341.661 C 2990.688 340.499 2982.358 338.96 2974.219 336.619 C 2960.047 332.528 2946.377 325.84 2936.032 315.467 C 2945.584 315.687 2955.144 315.379 2964.659 314.569 C 2957.486 311.489 2950.323 308.41 2943.159 305.33 C 2954.287 305.348 2965.415 305.374 2976.543 305.392 C 2969.435 302.919 2961.843 300.095 2957.614 293.962 C 2967.01 296.514 2976.698 298.045 2986.441 298.511 C 2961.023 289.369 2942.804 267.715 2925.852 246.976 C 2917.704 237.016 2908.982 227.671 2905.036 215.494 C 2899.741 231.868 2894.154 248.349 2884.922 262.937 C 2875.689 277.526 2862.356 290.24 2845.75 295.625 C 2848.967 295.563 2852.184 295.502 2855.402 295.44 C 2850.972 299.365 2846.534 303.289 2842.095 307.213 C 2847.864 306.166 2853.515 304.494 2858.92 302.242 C 2857.434 306.272 2855.037 309.967 2851.957 312.985 C 2862.374 314.419 2873.31 311.938 2882.032 306.157 C 2855.83 331.762 2820.769 348.401 2784.122 352.923 C 2781.935 350.31 2779.784 347.688 2777.651 345.084 C 2769.512 335.123 2760.781 325.779 2756.844 313.601 C 2751.54 329.967 2745.953 346.456 2736.721 361.045 C 2727.488 375.625 2714.155 388.348 2697.549 393.724 C 2700.766 393.662 2703.984 393.601 2707.21 393.548 C 2702.771 397.472 2698.333 401.397 2693.894 405.321 C 2699.664 404.274 2705.314 402.602 2710.719 400.349 C 2709.242 404.379 2706.845 408.075 2703.756 411.093 C 2714.173 412.527 2725.11 410.046 2733.831 404.265 C 2704.676 432.756 2664.548 450.151 2623.462 452.105 C 2634.417 452.844 2645.372 453.574 2656.318 454.313 C 2646.73 457.657 2637.443 461.862 2628.621 466.86 C 2642.656 465.136 2656.692 463.411 2670.727 461.686 C 2666.872 465.461 2663.026 469.236 2659.171 473.019 C 2669.934 474.348 2680.98 473.371 2691.333 470.186 C 2688.408 471.295 2686.303 474.216 2686.211 477.296 C 2695.717 478.501 2705.597 478.58 2714.875 476.477 C 2703.373 480.587 2691.88 484.696 2680.379 488.796 C 2670.973 492.157 2661.504 495.527 2651.879 498.193 C 2653.064 497.542 2654.203 496.812 2655.306 495.967 C 2621.904 497.384 2588.119 487.661 2560.777 468.761 C 2556.867 466.06 2552.802 462.734 2552.009 458.097 C 2566.865 462.91 2583.097 463.517 2598.281 459.839 C 2591.937 457.296 2585.795 454.243 2579.953 450.723 C 2590.652 452.439 2601.589 452.729 2612.371 451.594 C 2608.087 449.482 2604.013 446.948 2600.24 444.036 C 2608.005 446.482 2616.764 445.69 2623.945 441.898 C 2609.245 440.437 2594.48 438.809 2580.308 434.718 C 2566.127 430.635 2552.456 423.939 2542.121 413.574 C 2551.672 413.785 2561.233 413.486 2570.748 412.668 C 2563.575 409.597 2556.411 406.517 2549.248 403.438 C 2560.376 403.455 2571.504 403.473 2582.632 403.499 C 2575.523 401.027 2567.931 398.203 2563.703 392.07 C 2573.099 394.621 2582.787 396.152 2592.53 396.619 C 2567.111 387.477 2548.883 365.814 2531.941 345.084 C 2523.793 335.123 2515.071 325.779 2511.125 313.601 C 2505.829 329.967 2500.243 346.456 2491.01 361.045 C 2481.778 375.625 2468.444 388.348 2451.839 393.724 C 2455.056 393.662 2458.273 393.601 2461.49 393.548 C 2457.052 397.472 2452.613 401.397 2448.184 405.321 C 2453.953 404.274 2459.604 402.602 2465.008 400.349 C 2463.523 404.379 2461.126 408.075 2458.036 411.093 C 2468.462 412.527 2479.39 410.046 2488.121 404.265 C 2462.01 429.782 2427.094 446.385 2390.575 450.978 C 2388.178 448.127 2385.818 445.25 2383.484 442.399 C 2375.337 432.439 2366.615 423.086 2362.677 410.908 C 2357.373 427.283 2351.786 443.763 2342.554 458.352 C 2338.589 464.608 2333.868 470.521 2328.464 475.659 C 2314.429 474.243 2300.357 472.58 2286.823 468.682 C 2272.65 464.599 2258.98 457.903 2248.645 447.538 C 2258.187 447.749 2267.747 447.441 2277.262 446.632 C 2270.099 443.552 2262.926 440.472 2255.762 437.393 C 2266.891 437.419 2278.019 437.437 2289.147 437.454 C 2282.038 434.982 2274.455 432.157 2270.217 426.033 C 2279.623 428.585 2289.311 430.107 2299.053 430.574 C 2273.635 421.432 2255.407 399.778 2238.455 379.047 C 2230.316 369.087 2221.585 359.734 2217.648 347.556 C 2212.353 363.931 2206.766 380.411 2197.525 395 C 2188.292 409.588 2174.959 422.303 2158.353 427.688 C 2161.57 427.626 2164.797 427.564 2168.014 427.503 C 2163.575 431.427 2159.137 435.351 2154.699 439.285 C 2160.468 438.229 2166.127 436.557 2171.523 434.304 C 2170.046 438.334 2167.649 442.03 2164.56 445.048 C 2174.986 446.482 2185.914 444.001 2194.645 438.22 C 2170.456 461.854 2138.731 477.841 2105.183 483.719 C 2097.801 474.841 2090.382 466.183 2086.837 455.228 C 2081.541 471.603 2075.955 488.083 2066.722 502.672 C 2057.49 517.26 2044.156 529.975 2027.551 535.36 C 2030.768 535.298 2033.985 535.236 2037.202 535.175 C 2032.764 539.099 2028.325 543.023 2023.896 546.957 C 2029.665 545.901 2035.316 544.229 2040.72 541.976 C 2039.235 546.006 2036.838 549.702 2033.748 552.72 C 2044.174 554.154 2055.102 551.673 2063.833 545.892 C 2047.3 562.047 2027.25 574.629 2005.495 582.856 C 1986.675 577.383 1968.639 569.306 1952.151 558.835 C 1953.017 558.219 1953.847 557.559 1954.64 556.838 C 1952.953 556.952 1951.267 557.04 1949.581 557.119 C 1945.152 553.969 1940.868 549.86 1938.399 545.258 C 1950.848 551.708 1965.512 553.925 1979.366 551.479 C 1974.043 546.376 1968.721 541.272 1963.389 536.169 C 1977.597 542.188 1992.234 547.229 2007.145 551.25 C 2002.15 545.188 1996.545 539.618 1990.448 534.62 C 2003.818 536.574 2018.892 538.114 2029.538 529.931 C 1996.135 531.339 1962.35 521.616 1935.017 502.725 C 1931.108 500.014 1927.034 496.688 1926.241 492.051 C 1941.096 496.864 1957.337 497.48 1972.521 493.802 C 1966.169 491.26 1960.026 488.206 1954.184 484.687 C 1964.884 486.394 1975.829 486.684 1986.611 485.549 C 1982.318 483.446 1978.245 480.903 1974.481 477.991 C 1982.236 480.437 1990.995 479.645 1998.177 475.862 C 1983.485 474.401 1968.711 472.764 1954.539 468.682 C 1940.367 464.599 1926.696 457.903 1916.361 447.538 C 1925.903 447.749 1935.464 447.441 1944.979 446.632 C 1937.815 443.552 1930.643 440.472 1923.479 437.393 C 1934.607 437.419 1945.735 437.437 1956.863 437.454 C 1949.755 434.982 1942.172 432.157 1937.934 426.033 C 1947.33 428.585 1957.027 430.107 1966.761 430.574 C 1941.352 421.432 1923.124 399.778 1906.172 379.047 C 1898.033 369.087 1889.302 359.734 1885.365 347.556 C 1880.061 363.931 1874.474 380.411 1865.241 395 C 1856.009 409.588 1842.675 422.303 1826.07 427.688 C 1829.287 427.626 1832.504 427.564 1835.722 427.503 C 1833.252 429.694 1830.782 431.876 1828.303 434.067 C 1814.915 429.94 1802.1 423.411 1792.294 413.574 C 1801.845 413.785 1811.406 413.486 1820.921 412.668 C 1813.748 409.597 1806.584 406.517 1799.412 403.438 C 1810.549 403.455 1821.677 403.473 1832.805 403.499 C 1825.696 401.027 1818.104 398.203 1813.876 392.07 C 1823.272 394.621 1832.96 396.152 1842.703 396.619 C 1817.284 387.477 1799.056 365.814 1782.114 345.084 C 1773.966 335.123 1765.244 325.779 1761.298 313.601 C 1756.002 329.967 1750.416 346.456 1741.183 361.045 C 1731.96 375.616 1718.635 388.33 1702.039 393.715 C 1680.193 383.412 1663.788 363.869 1648.44 345.084 C 1640.292 335.123 1631.57 325.779 1627.624 313.601 C 1622.329 329.967 1616.742 346.456 1607.51 361.045 C 1603.573 367.257 1598.888 373.126 1593.529 378.238 C 1583.094 376.988 1572.722 375.325 1562.642 372.422 C 1548.47 368.339 1534.799 361.643 1524.464 351.278 C 1534.006 351.489 1543.567 351.19 1553.082 350.372 C 1545.918 347.292 1538.745 344.213 1531.582 341.142 C 1542.71 341.159 1553.838 341.177 1564.966 341.203 C 1557.857 338.722 1550.275 335.898 1546.037 329.774 C 1555.442 332.325 1565.13 333.856 1574.873 334.314 C 1549.454 325.181 1531.227 303.518 1514.275 282.787 C 1506.136 272.827 1497.405 263.474 1493.468 251.305 C 1488.173 267.671 1482.577 284.16 1473.344 298.74 C 1464.112 313.328 1450.778 326.052 1434.173 331.428 C 1437.39 331.366 1440.616 331.305 1443.833 331.243 C 1439.395 335.176 1434.957 339.1 1430.518 343.025 C 1436.287 341.978 1441.938 340.306 1447.342 338.053 C 1445.866 342.074 1443.469 345.779 1440.379 348.797 C 1450.806 350.222 1461.733 347.741 1470.455 341.969 C 1445.747 366.113 1413.165 382.285 1378.797 387.846 C 1374.695 387.028 1370.622 386.069 1366.593 384.907 C 1352.421 380.825 1338.75 374.129 1328.415 363.764 C 1337.967 363.975 1347.518 363.676 1357.033 362.857 C 1349.869 359.778 1342.706 356.707 1335.533 353.627 C 1346.661 353.645 1357.789 353.663 1368.917 353.689 C 1361.808 351.216 1354.226 348.383 1349.988 342.259 C 1359.393 344.811 1369.081 346.342 1378.824 346.799 C 1353.405 337.666 1335.178 316.003 1318.226 295.273 C 1310.087 285.313 1301.365 275.968 1297.419 263.791 C 1292.142 280.104 1286.573 296.523 1277.396 311.067 C 1252.961 301.556 1235.226 280.473 1218.702 260.262 C 1210.563 250.293 1201.832 240.949 1197.895 228.771 C 1192.591 245.146 1187.004 261.626 1177.772 276.215 C 1168.539 290.803 1155.206 303.518 1138.6 308.903 C 1141.817 308.841 1145.035 308.779 1148.252 308.718 C 1143.822 312.642 1139.384 316.566 1134.946 320.5 C 1140.715 319.444 1146.365 317.772 1151.77 315.519 C 1150.284 319.549 1147.887 323.245 1144.807 326.263 C 1155.224 327.697 1166.161 325.216 1174.883 319.435 C 1145.727 347.934 1105.599 365.33 1064.513 367.274 C 1075.468 368.014 1086.414 368.753 1097.369 369.483 C 1087.772 372.827 1078.494 377.032 1069.672 382.03 C 1083.707 380.306 1097.743 378.581 1111.778 376.865 C 1107.923 380.64 1104.077 384.415 1100.222 388.189 C 1110.985 389.518 1122.031 388.55 1132.375 385.365 C 1129.459 386.465 1127.354 389.395 1127.263 392.466 C 1136.759 393.671 1146.648 393.75 1155.926 391.656 C 1144.424 395.756 1132.922 399.866 1121.43 403.966 C 1104.642 409.967 1087.663 416.003 1069.909 417.982 C 1060.822 418.994 1051.544 418.95 1042.485 420.006 C 1041.966 419.654 1041.437 419.311 1040.918 418.95 C 1037.008 416.249 1032.943 412.914 1032.15 408.286 C 1047.006 413.099 1063.237 413.706 1078.421 410.028 C 1072.078 407.485 1065.935 404.432 1060.093 400.913 C 1070.793 402.62 1081.73 402.919 1092.511 401.784 C 1088.228 399.672 1084.154 397.138 1080.381 394.225 C 1088.146 396.663 1096.904 395.88 1104.086 392.087 C 1089.385 390.627 1074.621 388.999 1060.449 384.907 C 1046.267 380.825 1032.597 374.129 1022.261 363.764 C 1031.813 363.975 1041.373 363.676 1050.888 362.857 C 1043.715 359.778 1036.552 356.707 1029.379 353.627 C 1040.517 353.645 1051.645 353.663 1062.773 353.689 C 1055.664 351.216 1048.072 348.383 1043.843 342.259 C 1053.24 344.811 1062.928 346.342 1072.67 346.799 C 1047.252 337.666 1029.024 316.003 1012.081 295.273 C 1003.933 285.313 995.211 275.968 991.265 263.791 C 986.298 279.136 981.076 294.587 972.837 308.48 C 963.495 307.275 954.226 305.673 945.203 303.069 C 931.022 298.986 917.351 292.29 907.016 281.925 C 916.568 282.136 926.128 281.837 935.643 281.019 C 928.47 277.939 921.307 274.86 914.143 271.78 C 925.271 271.806 936.399 271.824 947.528 271.842 C 940.419 269.369 932.827 266.545 928.598 260.421 C 937.994 262.972 947.682 264.495 957.425 264.961 C 932.007 255.819 913.779 234.165 896.836 213.435 C 888.688 203.474 879.966 194.121 876.02 181.952 C 870.725 198.318 865.138 214.798 855.906 229.387 C 846.673 243.976 833.34 256.699 816.734 262.075 C 819.951 262.013 823.168 261.952 826.386 261.89 C 821.947 265.814 817.518 269.748 813.079 273.672 C 818.849 272.616 824.499 270.944 829.904 268.7 C 828.418 272.722 826.021 276.417 822.932 279.444 C 833.358 280.869 844.285 278.388 853.016 272.616 C 837.678 287.592 819.313 299.505 799.372 307.715 C 778.702 297.147 762.935 278.353 748.143 260.262 C 739.995 250.293 731.273 240.949 727.336 228.771 C 722.032 245.146 716.445 261.626 707.212 276.215 C 697.98 290.803 684.646 303.518 668.041 308.903 C 671.258 308.841 674.475 308.779 677.693 308.718 C 673.263 312.642 668.825 316.566 664.386 320.5 C 670.155 319.444 675.806 317.772 681.211 315.519 C 679.725 319.549 677.328 323.245 674.248 326.263 C 684.665 327.697 695.601 325.216 704.323 319.435 C 681.776 341.476 652.657 356.865 621.624 363.614 C 595.823 360.913 570.714 351.78 549.497 337.112 C 545.578 334.402 541.513 331.076 540.72 326.448 C 555.576 331.252 571.807 331.868 587 328.19 C 580.648 325.647 574.505 322.594 568.663 319.074 C 579.363 320.781 590.3 321.071 601.09 319.945 C 596.798 317.833 592.724 315.299 588.951 312.387 C 596.716 314.824 605.474 314.032 612.656 310.249 C 597.964 308.788 583.191 307.152 569.019 303.069 C 554.846 298.986 541.176 292.29 530.831 281.925 C 540.383 282.136 549.943 281.837 559.458 281.019 C 552.285 277.939 545.122 274.86 537.958 271.78 C 549.087 271.806 560.215 271.824 571.343 271.842 C 564.234 269.369 556.651 266.545 552.413 260.421 C 561.809 262.972 571.498 264.495 581.24 264.961 C 555.822 255.819 537.603 234.165 520.651 213.435 C 512.503 203.474 503.781 194.121 499.844 181.952 C 494.54 198.318 488.953 214.798 479.721 229.387 C 470.488 243.976 457.155 256.699 440.549 262.075 C 443.766 262.013 446.984 261.952 450.201 261.89 C 445.771 265.814 441.333 269.748 436.895 273.672 C 442.664 272.616 448.314 270.944 453.719 268.7 C 452.233 272.722 449.836 276.417 446.756 279.444 C 457.173 280.869 468.1 278.388 476.832 272.616 C 459.278 289.765 437.742 302.893 414.42 311.05 C 405.351 302.339 397.167 292.466 389.256 282.787 C 381.108 272.827 372.386 263.474 368.44 251.305 C 365.268 261.125 361.978 270.979 357.868 280.447 C 353.247 279.567 348.663 278.511 344.142 277.209 C 329.97 273.126 316.3 266.43 305.964 256.065 C 315.507 256.276 325.067 255.977 334.582 255.159 C 327.409 252.079 320.246 249 313.082 245.92 C 324.21 245.947 335.338 245.964 346.467 245.982 C 339.358 243.509 331.775 240.685 327.537 234.561 C 336.933 237.112 346.631 238.635 356.364 239.101 C 330.946 229.959 312.727 208.305 295.775 187.575 C 287.636 177.614 278.905 168.261 274.968 156.092 C 269.664 172.458 264.077 188.939 254.845 203.527 C 245.612 218.116 232.279 230.839 215.673 236.215 C 218.89 236.153 222.108 236.092 225.325 236.03 C 220.895 239.954 216.457 243.888 212.018 247.812 C 217.788 246.756 223.438 245.084 228.843 242.841 C 227.357 246.862 224.96 250.557 221.88 253.584 C 232.297 255.009 243.234 252.528 251.956 246.747 C 237.802 260.588 221.05 271.789 202.877 279.893 C 199.186 279.136 195.522 278.256 191.904 277.209 C 177.732 273.126 164.061 266.43 153.726 256.065 C 163.268 256.276 172.829 255.977 182.344 255.159 C 175.18 252.079 168.007 249 160.844 245.92 C 171.972 245.947 183.1 245.964 194.228 245.982 C 187.119 243.509 179.537 240.685 175.299 234.561 C 184.704 237.112 194.392 238.635 204.135 239.101 C 178.716 229.959 160.489 208.305 143.537 187.575 C 135.398 177.614 126.667 168.261 122.73 156.092 C 117.435 172.458 111.839 188.939 102.606 203.527 C 95.461 214.816 85.846 224.97 74.171 231.49 C 56.517 220.571 42.482 203.791 29.221 187.575 C 21.082 177.614 12.351 168.261 8.414 156.092 C 3.119 172.458 -2.477 188.939 -11.709 203.527 C -20.942 218.116 -34.275 230.839 -50.881 236.215 C -47.664 236.153 -44.446 236.092 -41.22 236.03 C -45.659 239.954 -50.097 243.888 -54.535 247.812 C -48.766 246.756 -43.116 245.084 -37.711 242.841 C -39.188 246.862 -41.585 250.557 -44.674 253.584 C -34.257 255.009 -23.32 252.528 -14.598 246.747 C -31.131 262.911 -51.2 275.493 -72.964 283.72 C -85.495 282.392 -98.009 280.693 -110.094 277.209 C -124.266 273.126 -137.937 266.43 -148.272 256.065 C -138.73 256.276 -129.169 255.977 -119.654 255.159 C -126.818 252.079 -133.99 249 -141.154 245.92 C -130.026 245.947 -118.898 245.964 -107.77 245.982 C -114.879 243.509 -122.461 240.685 -126.699 234.561 C -117.294 237.112 -107.606 238.635 -97.863 239.101 C -123.282 229.959 -141.509 208.305 -158.461 187.575 C -166.6 177.614 -175.331 168.261 -179.268 156.092 C -184.563 172.458 -190.15 188.939 -199.392 203.527 C -208.624 218.116 -221.958 230.839 -238.563 236.215 C -235.346 236.153 -232.12 236.092 -228.902 236.03 C -233.341 239.954 -237.779 243.888 -242.218 247.812 C -236.449 246.756 -230.789 245.084 -225.394 242.841 C -226.87 246.862 -229.267 250.557 -232.357 253.584 C -221.93 255.009 -211.003 252.528 -202.272 246.747 C -224.911 268.868 -254.157 284.292 -285.326 291.006 C -287.614 288.269 -289.874 285.524 -292.107 282.787 C -300.255 272.827 -308.977 263.474 -312.923 251.305 C -318.218 267.671 -323.805 284.16 -333.038 298.74 C -342.27 313.328 -355.604 326.052 -372.209 331.428 C -368.992 331.366 -365.775 331.305 -362.558 331.243 C -366.522 334.754 -370.487 338.264 -374.451 341.766 C -383.128 340.596 -391.74 339.039 -400.143 336.619 C -414.315 332.528 -427.986 325.84 -438.321 315.467 C -428.779 315.687 -419.219 315.379 -409.704 314.569 C -416.867 311.489 -424.04 308.41 -431.203 305.33 C -420.075 305.348 -408.947 305.374 -397.819 305.392 C -404.928 302.919 -412.511 300.095 -416.749 293.962 C -407.352 296.514 -397.655 298.045 -387.912 298.511 C -413.331 289.369 -431.559 267.715 -448.511 246.976 C -456.649 237.016 -465.38 227.671 -469.318 215.494 C -474.622 231.868 -480.209 248.349 -489.441 262.937 C -498.673 277.526 -512.007 290.24 -528.613 295.625 C -525.395 295.563 -522.178 295.502 -518.961 295.44 C -523.39 299.365 -527.829 303.289 -532.267 307.213 C -526.498 306.166 -520.848 304.494 -515.443 302.242 C -516.929 306.272 -519.326 309.967 -522.406 312.985 C -511.989 314.419 -501.052 311.938 -492.33 306.157 C -513.165 326.527 -539.613 341.212 -567.994 348.656 C -570.609 345.559 -573.17 342.444 -575.695 339.347 C -583.843 329.386 -592.565 320.033 -596.511 307.864 C -601.806 324.23 -607.393 340.711 -616.625 355.299 C -625.53 369.36 -638.244 381.661 -654.02 387.353 C -657.31 386.65 -660.582 385.849 -663.826 384.907 C -677.998 380.825 -691.669 374.129 -702.013 363.764 C -692.462 363.975 -682.902 363.676 -673.387 362.857 C -680.559 359.778 -687.723 356.707 -694.886 353.627 C -683.758 353.645 -672.63 353.663 -661.502 353.689 C -668.611 351.216 -676.194 348.383 -680.432 342.259 C -671.035 344.811 -661.338 346.342 -651.605 346.799 C -677.023 337.666 -695.242 316.003 -712.194 295.273 C -720.342 285.313 -729.063 275.968 -733.001 263.791 C -738.305 280.157 -743.892 296.646 -753.124 311.225 C -762.357 325.814 -775.69 338.537 -792.296 343.913 C -789.078 343.852 -785.861 343.79 -782.644 343.729 C -787.073 347.662 -791.512 351.586 -795.95 355.51 C -790.181 354.463 -784.531 352.791 -779.126 350.539 C -780.612 354.56 -783.009 358.264 -786.089 361.282 C -775.672 362.717 -764.735 360.235 -756.013 354.454 C -785.169 382.945 -825.297 400.341 -866.382 402.294 C -855.428 403.024 -844.482 403.763 -833.527 404.503 C -843.124 407.846 -852.402 412.052 -861.224 417.05 C -847.189 415.325 -833.153 413.601 -819.118 411.876 C -822.973 415.651 -826.819 419.425 -830.674 423.2 C -819.92 424.538 -808.865 423.561 -798.52 420.376 C -801.437 421.484 -803.551 424.406 -803.633 427.476 C -794.137 428.691 -784.248 428.761 -774.979 426.667 C -786.472 430.776 -797.974 434.876 -809.466 438.985 C -826.254 444.977 -843.233 451.022 -860.987 453.002 C -868.178 453.803 -875.478 453.943 -882.696 454.48 C -889.987 445.717 -897.279 437.12 -900.778 426.306 C -906.073 442.672 -911.669 459.152 -920.902 473.741 C -923.481 477.824 -926.397 481.739 -929.596 485.408 C -935.876 484.379 -942.092 483.077 -948.189 481.317 C -962.37 477.234 -976.041 470.538 -986.376 460.173 C -976.825 460.384 -967.264 460.076 -957.749 459.267 C -964.922 456.187 -972.085 453.108 -979.258 450.028 C -968.13 450.046 -956.993 450.072 -945.865 450.09 C -952.974 447.617 -960.565 444.793 -964.794 438.66 C -955.398 441.22 -945.71 442.742 -935.967 443.209 C -961.386 434.067 -979.613 412.413 -996.556 391.683 C -1004.704 381.722 -1013.426 372.369 -1017.372 360.191 C -1022.667 376.566 -1028.254 393.046 -1037.487 407.635 C -1046.719 422.223 -1060.053 434.938 -1076.667 440.323 C -1073.441 440.261 -1070.224 440.2 -1067.006 440.138 C -1071.445 444.062 -1075.883 447.987 -1080.313 451.92 C -1074.544 450.864 -1068.893 449.192 -1063.489 446.94 C -1064.974 450.969 -1067.371 454.665 -1070.461 457.692 C -1060.034 459.117 -1049.107 456.636 -1040.376 450.855 C -1069.54 479.355 -1109.666 496.75 -1150.748 498.695 C -1139.795 499.434 -1128.843 500.173 -1117.891 500.912 C -1127.484 504.256 -1136.768 508.461 -1145.586 513.45 C -1131.552 511.726 -1117.517 510.01 -1103.482 508.285 C -1107.335 512.06 -1111.188 515.835 -1115.04 519.61 C -1104.28 520.938 -1093.227 519.97 -1082.883 516.785 C -1085.799 517.885 -1087.914 520.815 -1087.996 523.886 C -1078.499 525.091 -1068.62 525.17 -1059.342 523.076 C -1070.834 527.177 -1082.336 531.286 -1093.829 535.386 C -1100.982 537.946 -1108.168 540.498 -1115.431 542.751 C -1130.97 531.902 -1143.713 516.644 -1155.803 501.853 C -1163.946 491.893 -1172.671 482.549 -1176.614 470.371 C -1181.912 486.746 -1187.498 503.226 -1196.733 517.815 C -1205.966 532.403 -1219.301 545.118 -1235.907 550.494 C -1232.688 550.441 -1229.469 550.379 -1226.25 550.318 C -1230.686 554.242 -1235.123 558.166 -1239.561 562.091 C -1233.791 561.044 -1228.138 559.372 -1222.736 557.119 C -1224.217 561.149 -1226.614 564.845 -1229.702 567.863 C -1219.279 569.297 -1208.348 566.816 -1199.621 561.035 C -1211.373 572.517 -1224.908 582.196 -1239.568 589.79 C -1247.18 582.029 -1254.203 573.547 -1261.017 565.205 C -1269.161 555.245 -1277.886 545.901 -1281.828 533.723 C -1287.126 550.098 -1292.714 566.578 -1301.948 581.167 C -1311.181 595.755 -1324.517 608.47 -1341.122 613.846 C -1337.902 613.793 -1334.683 613.731 -1331.464 613.67 C -1335.902 617.594 -1340.338 621.518 -1344.775 625.443 C -1339.006 624.396 -1333.354 622.724 -1327.952 620.471 C -1329.432 624.501 -1331.83 628.197 -1334.917 631.215 C -1324.493 632.649 -1313.564 630.168 -1304.836 624.387 C -1321.073 640.251 -1340.712 652.675 -1362.022 660.902 C -1380.202 655.394 -1397.617 647.457 -1413.562 637.251 C -1418.683 633.978 -1423.951 629.305 -1426.808 624 C -1414.356 630.449 -1399.691 632.675 -1385.839 630.22 C -1391.162 625.117 -1396.485 620.014 -1401.809 614.91 C -1387.605 620.929 -1372.972 625.971 -1358.053 629.992 C -1363.053 623.929 -1368.655 618.36 -1374.753 613.362 C -1361.383 615.315 -1346.311 616.855 -1335.667 608.672 C -1369.064 610.08 -1402.849 600.357 -1430.189 581.466 C -1434.1 578.756 -1438.167 575.43 -1438.96 570.793 C -1424.106 575.606 -1407.87 576.222 -1392.684 572.535 C -1399.035 570.001 -1405.174 566.948 -1411.019 563.428 C -1400.315 565.135 -1389.378 565.425 -1378.594 564.29 C -1382.883 562.187 -1386.955 559.645 -1390.726 556.732 C -1382.963 559.178 -1374.205 558.386 -1367.024 554.603 C -1381.72 553.142 -1396.491 551.506 -1410.664 547.423 C -1424.838 543.34 -1438.51 536.644 -1448.845 526.279 C -1439.298 526.49 -1429.738 526.182 -1420.225 525.373 C -1427.392 522.293 -1434.559 519.214 -1441.726 516.134 C -1430.597 516.16 -1419.469 516.178 -1408.341 516.196 C -1415.448 513.723 -1423.035 510.899 -1427.27 504.775 C -1417.868 507.326 -1408.179 508.849 -1398.438 509.315 C -1423.855 500.173 -1442.081 478.519 -1459.03 457.789 C -1467.174 447.828 -1475.899 438.475 -1479.841 426.306 C -1485.139 442.672 -1490.727 459.152 -1499.96 473.741 C -1509.193 488.33 -1522.529 501.044 -1539.134 506.429 C -1535.915 506.367 -1532.696 506.306 -1529.477 506.244 C -1533.914 510.168 -1538.35 514.093 -1542.788 518.026 C -1537.018 516.97 -1531.366 515.298 -1525.964 513.046 C -1527.445 517.076 -1529.842 520.771 -1532.929 523.789 C -1522.506 525.223 -1511.576 522.742 -1502.848 516.961 C -1526.059 539.645 -1556.222 555.28 -1588.282 561.703 C -1595.075 554.559 -1601.417 546.895 -1607.587 539.345 C -1615.73 529.385 -1624.456 520.041 -1628.397 507.863 C -1633.695 524.238 -1639.282 540.718 -1648.516 555.307 C -1652.279 561.246 -1656.735 566.868 -1661.805 571.831 C -1667.805 570.819 -1673.751 569.552 -1679.594 567.871 C -1693.768 563.78 -1707.44 557.093 -1717.776 546.719 C -1708.228 546.939 -1698.669 546.631 -1689.155 545.821 C -1696.321 542.742 -1703.489 539.662 -1710.656 536.583 C -1699.528 536.6 -1688.4 536.627 -1677.271 536.644 C -1684.378 534.172 -1691.965 531.347 -1696.2 525.214 C -1686.799 527.766 -1677.109 529.297 -1667.368 529.764 C -1692.786 520.621 -1711.012 498.967 -1727.96 478.228 C -1736.104 468.268 -1744.829 458.924 -1748.772 446.746 C -1754.069 463.121 -1759.657 479.601 -1768.89 494.19 C -1778.124 508.778 -1791.459 521.493 -1808.064 526.877 C -1804.846 526.816 -1801.626 526.754 -1798.407 526.693 C -1802.844 530.617 -1807.281 534.541 -1811.718 538.466 C -1805.949 537.419 -1800.295 535.747 -1794.895 533.494 C -1796.375 537.524 -1798.772 541.22 -1801.859 544.238 C -1791.436 545.672 -1780.506 543.191 -1771.779 537.41 C -1800.939 565.909 -1841.067 583.296 -1882.149 585.249 C -1871.197 585.988 -1860.245 586.728 -1849.293 587.458 C -1858.887 590.801 -1868.17 595.007 -1876.988 600.005 C -1862.953 598.28 -1848.919 596.556 -1834.884 594.84 C -1838.737 598.615 -1842.589 602.39 -1846.442 606.164 C -1835.682 607.493 -1824.633 606.525 -1814.284 603.34 C -1817.205 604.44 -1819.313 607.37 -1819.401 610.441 C -1809.9 611.646 -1800.017 611.725 -1790.741 609.631 C -1802.238 613.731 -1813.737 617.84 -1825.234 621.941 C -1840.856 627.519 -1856.646 633.133 -1873.064 635.482 C -1876.243 633.722 -1879.286 631.734 -1882.154 629.517 C -1874.391 631.963 -1865.633 631.171 -1858.452 627.378 C -1873.148 625.927 -1887.918 624.29 -1902.092 620.207 C -1916.266 616.116 -1929.938 609.429 -1940.273 599.055 C -1930.726 599.266 -1921.167 598.967 -1911.653 598.157 C -1918.82 595.078 -1925.987 591.998 -1933.153 588.918 C -1922.025 588.936 -1910.897 588.962 -1899.768 588.98 C -1906.875 586.508 -1914.462 583.683 -1918.698 577.55 C -1909.297 580.102 -1899.608 581.633 -1889.865 582.099 C -1915.284 572.957 -1933.509 551.294 -1950.459 530.564 C -1958.601 520.604 -1967.327 511.259 -1971.269 499.082 C -1976.567 515.457 -1982.154 531.937 -1991.388 546.525 C -1995.636 553.23 -2000.763 559.539 -2006.667 564.924 L -2006.667 595.359 C -2002.269 594.136 -1998.065 592.253 -1994.276 589.746 C -1998.213 593.591 -2002.356 597.225 -2006.667 600.656 L -2006.667 875.762 L -2006.667 1075.814 L -2006.667 1092.989 L -2006.667 1109.725 L -2006.667 1319.833 L 3461.667 1319.833 L 3461.667 873.703 Z " fill="url(#_lgradient_2)"/></g></g></g></g></g></g></g></g></g></g></svg>